<svg width="16" height="16" viewBox="0 0 16 16" fill="none" xmlns="http://www.w3.org/2000/svg">
<path d="M12.9859 4.74036C12.9859 4.72652 12.9859 4.71614 12.9859 4.7023C12.9789 4.51199 12.8163 4.36667 12.626 4.37705H6.20746C6.19362 4.37705 6.18324 4.37705 6.1694 4.37705C5.9791 4.38397 5.83377 4.5466 5.84415 4.7369C5.84415 4.75074 5.84415 4.76112 5.84415 4.77496C5.85107 4.96527 6.0137 5.1106 6.204 5.10022H12.6225C12.6329 5.10022 12.6468 5.10022 12.6606 5.10022C12.8509 5.0933 12.9962 4.93067 12.9859 4.74036Z" fill="#29C1D5"/>
<path d="M9.72987 2.93073C9.72987 2.91689 9.72987 2.90651 9.72987 2.89267C9.72295 2.70236 9.56033 2.55704 9.37002 2.56742H6.20746C6.19362 2.56742 6.18324 2.56742 6.1694 2.56742C5.9791 2.57434 5.83377 2.73696 5.84415 2.92727C5.84415 2.94111 5.84415 2.95149 5.84415 2.96533C5.85107 3.15564 6.0137 3.30096 6.204 3.29058H9.36656C9.3804 3.29058 9.39424 3.29058 9.40462 3.29058C9.59493 3.28366 9.74025 3.12104 9.72987 2.93073Z" fill="#29C1D5"/>
<path d="M12.9305 0H3.04147C1.68511 0 1.0173 0.702406 1 1.68162C1 1.68854 1 1.69546 1 1.69892V7.48425C1 8.28008 1.68857 8.85792 2.48093 8.85792H3.89267V11.8959C3.87191 12.6952 4.50511 13.3595 5.30094 13.3769C5.30786 13.3769 5.31478 13.3769 5.31824 13.3769H8.93407V15.6536C8.94445 15.7886 9.02749 15.9062 9.15206 15.9616C9.2697 16.01 9.40811 15.9996 9.51191 15.927L10.9582 14.8439L12.4046 15.927C12.4772 15.9685 12.5568 15.9962 12.6399 15.9996C12.6918 16.0031 12.7471 15.9823 12.7852 15.9443C12.9028 15.8924 12.9859 15.7816 13.0032 15.6536V13.3769H13.581C14.4045 13.3769 15.0793 12.7194 15.1 11.8959V2.06224C15.1 0.885792 14.1035 0 12.9305 0ZM3.88921 1.69892V8.13476H2.48093C2.08302 8.13476 1.72317 7.88217 1.72317 7.48425V1.69892C1.74393 1.1107 2.21796 0.733547 2.80619 0.723166H3.00341C3.51551 0.750847 3.90997 1.18682 3.88921 1.69892ZM12.2973 14.9131L11.2143 14.0827C11.0759 13.9928 10.8994 13.9928 10.761 14.0827L9.678 14.9131L9.6434 11.7298C10.0552 11.9513 10.5153 12.0724 10.9825 12.0724C11.4496 12.0724 11.9098 11.9547 12.3215 11.7298L12.2973 14.9131ZM11.0101 11.3492C10.9998 11.3527 10.9894 11.3527 10.9755 11.3527C9.78872 11.3631 8.81643 10.4081 8.80605 9.22124C8.79567 8.03441 9.75066 7.06212 10.9375 7.05174C12.1243 7.04136 13.0966 7.99635 13.107 9.18318C13.107 9.19356 13.107 9.2074 13.107 9.21778C13.1174 10.3873 12.1797 11.3423 11.0101 11.3492ZM13.6191 12.6537H13.0412V11.2074C14.1243 10.0724 14.0827 8.27662 12.9478 7.1936C11.8129 6.11058 10.0171 6.15211 8.93407 7.28703C7.89257 8.37697 7.88565 10.0897 8.91677 11.1901V12.6537H5.31824C4.92032 12.6433 4.60199 12.3146 4.61237 11.9132C4.61237 11.9063 4.61237 11.8994 4.61237 11.8925V1.69892C4.61237 1.30101 4.48435 0.903093 4.26982 0.723166H12.9305C13.709 0.723166 14.3769 1.28371 14.3769 2.06224V11.8959C14.3595 12.3077 14.0274 12.6364 13.6191 12.6537Z" fill="#29C1D5"/>
</svg>
