<svg width="16" height="16" viewBox="0 0 16 16" fill="none" xmlns="http://www.w3.org/2000/svg">
<path d="M0.666667 8.65333C1.03467 8.65333 1.33333 8.35467 1.33333 7.98667C1.33333 4.318 4.30533 1.33333 7.95833 1.33333C9.56067 1.33333 11.066 1.90067 12.2527 2.91967H11.6417C11.2737 2.91967 10.975 3.21833 10.975 3.58633C10.975 3.95433 11.2737 4.253 11.6417 4.253H13.8297C14.1977 4.253 14.4963 3.95433 14.4963 3.58633V1.389C14.4963 1.021 14.1977 0.722333 13.8297 0.722333C13.4617 0.722333 13.163 1.021 13.163 1.389V1.94467C11.731 0.696 9.90467 0 7.95833 0C3.57 0 0 3.583 0 7.98667C0 8.35467 0.298667 8.65333 0.666667 8.65333Z" fill="#29C1D5"/>
<path d="M15.3333 7.34668C14.9653 7.34668 14.6667 7.64535 14.6667 8.01335C14.6667 11.682 11.6947 14.6667 8.04167 14.6667C6.458 14.6667 4.96867 14.1133 3.78867 13.1167H4.429C4.797 13.1167 5.09567 12.818 5.09567 12.45C5.09567 12.082 4.797 11.7833 4.429 11.7833H2.24067C2.23467 11.7833 2.22934 11.785 2.22367 11.785C2.19834 11.7857 2.17334 11.789 2.148 11.7927C2.12934 11.7953 2.11067 11.797 2.09234 11.8013C2.07034 11.8063 2.04867 11.8143 2.02701 11.8217C2.00701 11.8287 1.98667 11.8347 1.96734 11.8433C1.94901 11.8517 1.93167 11.8623 1.91401 11.8723C1.89301 11.8843 1.87234 11.896 1.85267 11.91C1.84767 11.9137 1.84201 11.9157 1.83701 11.9197C1.82567 11.9283 1.81701 11.939 1.80634 11.9483C1.78867 11.9637 1.77101 11.979 1.75501 11.9963C1.74001 12.0123 1.72701 12.029 1.71401 12.046C1.70101 12.063 1.68834 12.08 1.67667 12.098C1.66501 12.1167 1.65501 12.136 1.64534 12.1553C1.63567 12.1743 1.62667 12.1937 1.61901 12.2137C1.61134 12.2343 1.60534 12.255 1.59967 12.2763C1.59434 12.2967 1.58867 12.317 1.58534 12.338C1.58134 12.3617 1.57967 12.3853 1.57801 12.4093C1.57701 12.423 1.57401 12.4363 1.57401 12.4503V14.6477C1.57401 15.0157 1.87267 15.3143 2.24067 15.3143C2.60867 15.3143 2.90734 15.0157 2.90734 14.6477V14.1177C4.32834 15.3273 6.12734 16 8.04167 16C12.43 16 16 12.417 16 8.01335C16 7.64535 15.7013 7.34668 15.3333 7.34668Z" fill="#29C1D5"/>
</svg>
