<svg width="16" height="16" viewBox="0 0 16 16" fill="none" xmlns="http://www.w3.org/2000/svg">
<path d="M14.5938 1H1.40625C0.631813 1 0 1.63112 0 2.40625V11.7812C0 12.5538 0.629 13.1875 1.40625 13.1875H14.5938C15.3663 13.1875 16 12.5585 16 11.7812V2.40625C16 1.63375 15.371 1 14.5938 1ZM14.3996 1.9375L8.02981 8.30728L1.60497 1.9375H14.3996ZM0.9375 11.5871V2.59591L5.45247 7.07216L0.9375 11.5871ZM1.60041 12.25L6.11822 7.73219L7.70125 9.30163C7.8845 9.48331 8.18022 9.48272 8.36272 9.30019L9.90625 7.75666L14.3996 12.25H1.60041ZM15.0625 11.5871L10.5692 7.09375L15.0625 2.60037V11.5871Z" fill="#29C1D5"/>
</svg>
