<svg width="24" height="24" viewBox="0 0 24 24" fill="none" xmlns="http://www.w3.org/2000/svg">
<path d="M12.8538 11.6431L8.35687 7.14762C8.15955 6.95079 7.83985 6.95079 7.64203 7.14762C7.4447 7.34445 7.4447 7.66414 7.64203 7.86097L11.7823 11.9998L7.64253 16.1385C7.4452 16.3354 7.4452 16.6551 7.64253 16.8524C7.83985 17.0492 8.16005 17.0492 8.35737 16.8524L12.8543 12.3569C13.0486 12.1622 13.0486 11.8374 12.8538 11.6431Z" fill="#394A50"/>
<path d="M16.8538 11.6431L12.3569 7.14762C12.1595 6.95079 11.8398 6.95079 11.642 7.14762C11.4447 7.34445 11.4447 7.66414 11.642 7.86097L15.7823 11.9998L11.6425 16.1385C11.4452 16.3354 11.4452 16.6551 11.6425 16.8524C11.8398 17.0492 12.16 17.0492 12.3574 16.8524L16.8543 12.3569C17.0486 12.1622 17.0486 11.8374 16.8538 11.6431Z" fill="#394A50"/>
</svg>
