<svg width="24" height="24" viewBox="0 0 24 24" fill="none" xmlns="http://www.w3.org/2000/svg">
<path d="M9.17149 20.6147C9.26058 20.6147 9.34967 20.6147 9.43875 20.6147C9.61693 20.6147 9.7951 20.6147 9.92873 20.6147C10.196 20.6147 10.4633 20.6147 10.7751 20.6147C11.5323 20.6147 12.2895 20.6147 13.0468 20.6147C14.0267 20.6147 14.9621 20.6147 15.9421 20.6147C16.1648 20.6147 16.3875 20.6147 16.6102 20.6147C16.7439 20.6147 16.8775 20.6147 16.9666 20.6147C17.0557 20.6147 17.1448 20.5702 17.2339 20.5702C18.4365 20.3029 19.3719 19.8129 20.2628 18.9221C20.7528 18.4321 21.1091 17.9421 21.4209 17.3185C21.8218 16.5167 22 15.6704 22 14.7795C22 13.9332 21.8218 12.9978 21.2873 12.2851C21.2873 12.2851 21.2873 12.2405 21.2428 12.2405C21.1982 12.196 21.1982 12.196 21.1537 12.1514C21.0646 12.0624 20.9755 11.9733 20.931 11.8842C20.6637 11.6169 20.3964 11.3497 20.1292 11.0379C19.2829 10.1915 18.4365 9.34521 17.5902 8.49889C17.1002 8.00891 16.5657 7.47439 16.0757 6.98441C15.7194 6.62806 15.363 6.27172 15.0067 5.91537C14.784 5.69265 14.5612 5.46993 14.294 5.24722C14.1604 5.11359 14.0267 5.0245 13.8931 4.89087C13.8486 4.84633 13.8486 4.84632 13.804 4.84632C13.5367 4.66815 13.2695 4.53452 13.0022 4.40089C12.735 4.26726 12.4232 4.22272 12.1559 4.13363C12.1114 4.13363 12.0223 4.13363 11.9777 4.08909C11.8886 4.08909 11.755 4.08909 11.6659 4.04454C11.4432 4.04454 11.2205 4 10.9978 4C10.9532 4 10.9087 4 10.8641 4H10.8196C10.7751 4 10.7305 4 10.686 4.04454C10.6414 4.04454 10.5523 4.04454 10.5078 4.08909C9.75056 4.22272 8.99332 4.57906 8.41425 5.11359C7.83519 5.64811 7.34521 6.31626 7.07795 7.0735C6.94432 7.51893 6.81069 8.00891 6.81069 8.49889C6.81069 8.89978 6.85523 9.25613 6.98886 9.61247C7.03341 9.7461 7.07795 9.87973 7.16704 10.0134C7.30067 10.1915 7.4343 10.4143 7.61247 10.5924C7.96882 10.9933 8.36971 11.3497 8.72606 11.7506C9.43875 12.4633 10.1514 13.1759 10.8641 13.8886C11.4878 14.5123 12.1114 15.1359 12.735 15.7149C13.1804 16.1604 13.6258 16.5612 14.0267 17.0067C14.1158 17.0958 14.2049 17.1849 14.294 17.2739C14.3385 17.3185 14.3831 17.363 14.4722 17.4076C14.6058 17.4967 14.8285 17.5857 15.0067 17.6303C15.2294 17.7194 15.4521 17.7639 15.7194 17.7639C15.853 17.7639 15.9421 17.7639 16.0757 17.7639C17.6793 17.7639 19.0156 16.6058 19.1938 15.0022C19.1938 14.9131 19.1938 14.7795 19.1938 14.6904C19.1938 14.4677 19.1492 14.245 19.0601 14.0223C18.971 13.7996 18.8374 13.6214 18.7038 13.4432C18.3474 13.0869 17.902 12.9087 17.4566 12.9087C16.9666 12.9087 16.5212 13.0869 16.2094 13.4432C15.8976 13.755 15.7194 14.1559 15.7194 14.6013C15.7194 14.9131 15.8085 15.1804 16.0312 15.4031C16.2539 15.6258 16.5212 15.7149 16.7884 15.7149C17.0557 15.7149 17.3229 15.6258 17.5457 15.4031C17.6347 15.314 17.7238 15.1804 17.7684 15.0913C17.8129 15.0468 17.8129 15.0022 17.8575 14.9577C17.8575 14.9131 17.902 14.9131 17.902 14.8686L17.9465 14.8241C17.9911 14.7795 18.0356 14.7795 18.0802 14.7795C18.1247 14.7795 18.1693 14.7795 18.1693 14.7795C18.2138 14.7795 18.2138 14.8241 18.2584 14.8241C18.3029 14.8686 18.3029 14.8686 18.3474 14.9131C18.3474 14.9577 18.3474 14.9577 18.3474 15.0022C18.3474 15.0468 18.3474 15.0468 18.3474 15.0468V15.0913C18.3029 15.314 18.2138 15.4922 18.0802 15.6704C17.9465 15.8486 17.8129 16.0267 17.6793 16.2049C17.4566 16.4276 17.1893 16.6058 16.9221 16.6949C16.6548 16.784 16.343 16.8731 16.0757 16.8731C15.4521 16.8731 14.8731 16.6058 14.4722 16.2049C14.2494 15.9822 14.0713 15.7149 13.9376 15.4031C13.804 15.0913 13.7595 14.7795 13.7595 14.4677C13.7595 14.3786 13.7595 14.3341 13.7595 14.245C13.7595 14.0223 13.804 13.7996 13.8486 13.5768C13.8931 13.3541 13.9822 13.1314 14.1158 12.9087C14.6058 11.9287 15.4967 11.216 16.5212 10.9042C16.6548 10.8597 16.7884 10.8597 16.9666 10.8597C17.1448 10.8597 17.3229 10.8597 17.4566 10.8597C17.6347 10.8597 17.8129 10.8597 17.9465 10.8597C18.0802 10.8597 18.2138 10.9042 18.392 10.9042C19.6837 11.2606 20.7082 12.2851 21.0646 13.5768C21.1091 13.7105 21.1091 13.8441 21.1091 13.9777C21.1091 14.1559 21.1091 14.2895 21.1091 14.4677C21.1091 14.8686 21.0646 15.314 20.9755 15.7149C20.7528 16.6058 20.3074 17.4076 19.6392 18.0757C18.971 18.7439 18.1693 19.1893 17.2784 19.412L16.833 19.5457H13.1359H9.34967L3.3363 13.7996L6.76615 13.755H8.81515L8.63697 13.5768L8.05791 12.9978H5.20713C4.93987 12.9978 4.71715 12.9978 4.44989 12.9978C3.91537 12.9978 3.38085 12.9978 2.84633 12.9978C2.71269 12.9978 2.57906 12.9978 2.40089 12.9978C2.3118 12.9978 2.22272 12.9978 2.17817 13.0423H2.13363C2.13363 13.0869 2.08909 13.0869 2.08909 13.1314C2.04454 13.2205 2 13.265 2 13.3541C2 13.3987 2 13.3987 2 13.4432C2 13.4432 2.04454 13.4878 2.04454 13.5323C2.17817 13.7105 2.35635 13.8886 2.53452 14.0223C2.89087 14.3786 3.24722 14.735 3.60356 15.0913C4.22717 15.7149 4.85078 16.3385 5.47439 16.9621C6.18708 17.6748 6.85523 18.343 7.56793 19.0557C7.96882 19.412 8.32517 19.8129 8.72606 20.1693C8.85969 20.2584 8.94878 20.392 9.08241 20.4811C9.08241 20.4811 9.08241 20.4811 9.12695 20.5256C9.12695 20.6147 9.17149 20.6147 9.17149 20.6147ZM7.65702 9.16704C7.61247 8.94432 7.61247 8.76615 7.61247 8.54343C7.61247 7.74165 7.92428 6.93987 8.41425 6.31626C8.7706 5.87082 9.21604 5.51448 9.70601 5.24722C10.196 4.97996 10.7751 4.89087 11.3541 4.89087C11.5768 4.89087 11.7996 4.93541 12.0223 4.93541C12.6904 5.06904 13.1804 5.29176 13.7149 5.69265C13.7595 5.73719 13.7595 5.73719 13.804 5.78174C13.8486 5.82628 13.8931 5.87082 13.9822 5.91537C14.1604 6.049 14.294 6.22717 14.4722 6.40534C14.9621 6.85078 15.4076 7.34076 15.8976 7.83074L18.2584 10.1915L17.2339 10.2806C15.6303 10.4143 14.2049 11.3051 13.4922 12.7751C13.4031 12.9532 13.314 13.1314 13.2695 13.3541C13.1804 13.5768 13.1359 13.7996 13.0913 14.0223C13.0913 14.1114 13.0468 14.2004 13.0468 14.2895V14.3341V14.3786V14.4232C13.0468 14.4677 13.0022 14.4677 12.9577 14.5123C12.9131 14.5568 12.8686 14.5568 12.7795 14.5568C12.735 14.5568 12.735 14.5568 12.735 14.5568C12.735 14.5568 12.735 14.5568 12.6904 14.5568H12.6459L12.5123 14.4677L12.4677 14.4232C12.4232 14.3786 12.3786 14.3341 12.3341 14.2895C12.1559 14.1559 12.0223 13.9777 11.8441 13.7996C11.3096 13.265 10.8196 12.7751 10.2851 12.2405C9.7951 11.7506 9.30512 11.2606 8.81515 10.7261C8.54789 10.4588 8.32517 10.1915 8.10245 9.92428C8.01336 9.83519 7.92428 9.70156 7.87973 9.56793C7.7461 9.4343 7.70156 9.30067 7.65702 9.16704Z" fill="white"/>
</svg>
