<svg width="24" height="24" viewBox="0 0 24 24" fill="none" xmlns="http://www.w3.org/2000/svg">
<path d="M11.9945 22.0001C11.9287 22.0001 11.862 21.9842 11.802 21.9526L2.22515 16.9525C2.08764 16.8808 2.00098 16.7383 2.00098 16.5833V7.20812C2.00098 7.06395 2.07598 6.92978 2.19848 6.85395C2.32098 6.77811 2.47515 6.77145 2.60349 6.83562L12.1803 11.6274C12.3212 11.6982 12.4103 11.8424 12.4103 11.9999V21.5834C12.4103 21.7292 12.3345 21.8642 12.2095 21.9401C12.1445 21.9801 12.0695 22.0001 11.9945 22.0001ZM2.83433 16.3308L11.5778 20.8959V12.2574L2.83433 7.8823V16.3308Z" fill="white"/>
<path d="M12.0077 22C11.9327 22 11.8577 21.98 11.7919 21.94C11.6677 21.8641 11.5911 21.7291 11.5911 21.5833V11.9998C11.5911 11.8423 11.6802 11.6981 11.8211 11.6273L21.3979 6.83553C21.5254 6.77052 21.6804 6.77719 21.8029 6.85386C21.9263 6.92969 22.0013 7.06386 22.0013 7.20803V16.5832C22.0013 16.7382 21.9146 16.8807 21.7771 16.9524L12.2002 21.9525C12.1402 21.9842 12.0736 22 12.0077 22ZM12.4244 12.2573V20.8958L21.1679 16.3307V7.88221L12.4244 12.2573ZM21.5846 16.5832H21.5929H21.5846Z" fill="white"/>
<path d="M2.41754 7.62469C2.2642 7.62469 2.11754 7.54052 2.0442 7.39469C1.94086 7.18885 2.02503 6.93885 2.23087 6.83551L11.8211 2.04375C11.9386 1.98542 12.0769 1.98542 12.1936 2.04375L21.7704 6.83551C21.9763 6.93885 22.0596 7.18885 21.9571 7.39469C21.8538 7.60052 21.6046 7.68303 21.3979 7.58136L12.0077 2.8821L2.60421 7.58052C2.54421 7.61052 2.48088 7.62469 2.41754 7.62469Z" fill="white"/>
<path d="M17.0011 14.4998C16.771 14.4998 16.5844 14.3131 16.5844 14.0831V9.75717L7.23753 5.08042C7.03169 4.97791 6.94836 4.72708 7.05169 4.52124C7.15503 4.3154 7.40504 4.2329 7.61087 4.33457L17.1877 9.12633C17.3286 9.198 17.4177 9.34216 17.4177 9.49967V14.0831C17.4177 14.3131 17.2311 14.4998 17.0011 14.4998Z" fill="white"/>
</svg>
