<svg width="16" height="20" viewBox="0 0 16 20" fill="none" xmlns="http://www.w3.org/2000/svg">
<path d="M5.44617 6.27104C5.2832 6.10838 5.01953 6.10807 4.85718 6.27104H4.85656L3.38379 7.74412L2.7948 7.15514V7.15483C2.63183 6.99217 2.36816 6.99217 2.20519 7.15483C2.04285 7.31748 2.04285 7.58147 2.20519 7.74412L3.08898 8.62792C3.25195 8.79057 3.51562 8.79057 3.67859 8.62792L5.44617 6.86002C5.60914 6.69736 5.60914 6.43369 5.44617 6.27104Z" fill="#29C1D5"/>
<path d="M5.44617 10.4376C5.2832 10.2749 5.01953 10.2749 4.85718 10.4376C4.85656 10.4376 4.85656 10.4379 4.85656 10.4379L3.38379 11.9104L2.7948 11.322V11.3214C2.63183 11.1584 2.36816 11.1584 2.20519 11.3214C2.04285 11.4844 2.04285 11.748 2.20519 11.9104L3.08898 12.7948C3.25195 12.9577 3.51562 12.9577 3.67859 12.7948L5.44617 11.0266C5.60914 10.8642 5.60914 10.6003 5.44617 10.4376Z" fill="#29C1D5"/>
<path d="M5.44617 14.6045C5.2832 14.4416 5.01953 14.4416 4.85718 14.6045C4.85656 14.6045 4.85656 14.6045 4.85656 14.6045L3.38379 16.0779L2.7948 15.4883C2.63183 15.326 2.36816 15.3253 2.20519 15.4883C2.04285 15.6507 2.04285 15.9143 2.20519 16.0779L3.08898 16.9617C3.25195 17.1241 3.51562 17.1241 3.67859 16.9617L5.44617 15.1935C5.60914 15.0305 5.60914 14.7669 5.44617 14.6045Z" fill="#29C1D5"/>
<path d="M13.3331 1.27656V0.42543C13.3331 0.19043 13.147 0 12.9162 0C12.6861 0 12.5 0.19043 12.5 0.42543V1.27656H10.8331V0.42543C10.8331 0.19043 10.647 0 10.4162 0C10.1861 0 10 0.19043 10 0.42543V1.27656H8.33312V0.42543C8.33312 0.19043 8.14695 0 7.91625 0C7.68613 0 7.5 0.19043 7.5 0.42543V1.27656H5.83312V0.42543C5.83312 0.19043 5.64695 0 5.41625 0C5.18676 0 5 0.19043 5 0.42543V1.27656H3.33312V0.42543C3.33312 0.19043 3.14695 0 2.91625 0C2.68676 0 2.5 0.19043 2.5 0.42543V1.27656H0V20H15.8331V1.27656H13.3331ZM15 19.1663H0.833125V2.11H2.5V2.92543C2.5 3.16043 2.68676 3.35113 2.91625 3.35113C3.14695 3.35113 3.33312 3.16039 3.33312 2.92543V2.11H5V2.92543C5 3.16043 5.18676 3.35113 5.41625 3.35113C5.64695 3.35113 5.83312 3.16039 5.83312 2.92543V2.11H7.5V2.92543C7.5 3.16043 7.68617 3.35113 7.91625 3.35113C8.14695 3.35113 8.33312 3.16039 8.33312 2.92543V2.11H10V2.92543C10 3.16043 10.1862 3.35113 10.4162 3.35113C10.647 3.35113 10.8331 3.16039 10.8331 2.92543V2.11H12.5V2.92543C12.5 3.16043 12.6862 3.35113 12.9162 3.35113C13.147 3.35113 13.3331 3.16039 13.3331 2.92543V2.11H15V19.1663Z" fill="#29C1D5"/>
<path d="M13.3331 7.08344H7.5C7.26989 7.08344 7.08313 7.26988 7.08313 7.5C7.08313 7.73011 7.26989 7.91656 7.5 7.91656H13.3331C13.5632 7.91656 13.75 7.73011 13.75 7.5C13.75 7.26988 13.5632 7.08344 13.3331 7.08344Z" fill="#29C1D5"/>
<path d="M13.3331 11.25H7.5C7.26989 11.25 7.08313 11.4368 7.08313 11.6663C7.08313 11.897 7.26989 12.0837 7.5 12.0837H13.3331C13.5632 12.0837 13.75 11.897 13.75 11.6663C13.75 11.4368 13.5632 11.25 13.3331 11.25Z" fill="#29C1D5"/>
<path d="M13.3331 15.4163H7.5C7.26989 15.4163 7.08313 15.603 7.08313 15.8338C7.08313 16.0633 7.26989 16.25 7.5 16.25H13.3331C13.5632 16.25 13.75 16.0633 13.75 15.8338C13.75 15.6031 13.5632 15.4163 13.3331 15.4163Z" fill="#29C1D5"/>
</svg>
