<svg width="21" height="20" viewBox="0 0 21 20" fill="none" xmlns="http://www.w3.org/2000/svg">
<path d="M9.99444 20.0001C9.92861 20.0001 9.86194 19.9842 9.80194 19.9526L0.225086 14.9525C0.0875838 14.8808 0.000915527 14.7383 0.000915527 14.5833V5.20813C0.000915527 5.06396 0.075917 4.92979 0.198419 4.85396C0.320922 4.77812 0.475091 4.77145 0.603427 4.83562L10.1803 9.62738C10.3211 9.69822 10.4103 9.84239 10.4103 9.99989V19.5834C10.4103 19.7292 10.3344 19.8642 10.2094 19.9401C10.1444 19.9801 10.0694 20.0001 9.99444 20.0001ZM0.834265 14.3308L9.57777 18.8959V10.2574L0.834265 5.88231V14.3308Z" fill="#29C1D5"/>
<path d="M10.0077 20C9.93273 20 9.85773 19.98 9.79189 19.94C9.66772 19.8641 9.59106 19.7291 9.59106 19.5833V9.99978C9.59106 9.84227 9.68023 9.6981 9.82106 9.62727L19.3979 4.83551C19.5254 4.77051 19.6804 4.77718 19.8029 4.85384C19.9263 4.92968 20.0013 5.06385 20.0013 5.20802V14.5832C20.0013 14.7382 19.9146 14.8807 19.7771 14.9524L10.2002 19.9525C10.1402 19.9841 10.0736 20 10.0077 20ZM10.4244 10.2573V18.8958L19.1679 14.3307V5.8822L10.4244 10.2573ZM19.5846 14.5832H19.5929H19.5846Z" fill="#29C1D5"/>
<path d="M0.417541 5.62469C0.264205 5.62469 0.117535 5.54052 0.0442003 5.39469C-0.059135 5.18885 0.0250332 4.93885 0.230871 4.83551L9.82106 0.0437508C9.93856 -0.0145836 10.0769 -0.0145836 10.1936 0.0437508L19.7704 4.83551C19.9763 4.93885 20.0596 5.18885 19.9571 5.39469C19.8538 5.60052 19.6046 5.68303 19.3979 5.58136L10.0077 0.8821L0.604211 5.58052C0.54421 5.61052 0.480875 5.62469 0.417541 5.62469Z" fill="#29C1D5"/>
<path d="M15.0011 12.4998C14.7711 12.4998 14.5844 12.3131 14.5844 12.0831V7.75721L5.23754 3.08045C5.0317 2.97795 4.94837 2.72711 5.0517 2.52128C5.15504 2.31544 5.40504 2.23294 5.61088 2.33461L15.1877 7.12637C15.3286 7.19803 15.4177 7.3422 15.4177 7.49971V12.0831C15.4177 12.3131 15.2311 12.4998 15.0011 12.4998Z" fill="#29C1D5"/>
</svg>
