<svg width="24" height="24" viewBox="0 0 24 24" fill="none" xmlns="http://www.w3.org/2000/svg">
<path d="M9.44617 8.27104C9.2832 8.10838 9.01953 8.10807 8.85718 8.27104H8.85656L7.38379 9.74412L6.7948 9.15514V9.15483C6.63183 8.99217 6.36816 8.99217 6.20519 9.15483C6.04285 9.31748 6.04285 9.58147 6.20519 9.74412L7.08898 10.6279C7.25195 10.7906 7.51562 10.7906 7.67859 10.6279L9.44617 8.86002C9.60914 8.69736 9.60914 8.43369 9.44617 8.27104Z" fill="white"/>
<path d="M9.44617 12.4376C9.2832 12.2749 9.01953 12.2749 8.85718 12.4376C8.85656 12.4376 8.85656 12.4379 8.85656 12.4379L7.38379 13.9104L6.7948 13.322V13.3214C6.63183 13.1584 6.36816 13.1584 6.20519 13.3214C6.04285 13.4844 6.04285 13.748 6.20519 13.9104L7.08898 14.7948C7.25195 14.9577 7.51562 14.9577 7.67859 14.7948L9.44617 13.0266C9.60914 12.8642 9.60914 12.6003 9.44617 12.4376Z" fill="white"/>
<path d="M9.44617 16.6045C9.2832 16.4416 9.01953 16.4416 8.85718 16.6045C8.85656 16.6045 8.85656 16.6045 8.85656 16.6045L7.38379 18.0779L6.7948 17.4883C6.63183 17.326 6.36816 17.3253 6.20519 17.4883C6.04285 17.6507 6.04285 17.9143 6.20519 18.0779L7.08898 18.9617C7.25195 19.1241 7.51562 19.1241 7.67859 18.9617L9.44617 17.1935C9.60914 17.0305 9.60914 16.7669 9.44617 16.6045Z" fill="white"/>
<path d="M17.3331 3.27656V2.42543C17.3331 2.19043 17.147 2 16.9162 2C16.6861 2 16.5 2.19043 16.5 2.42543V3.27656H14.8331V2.42543C14.8331 2.19043 14.647 2 14.4162 2C14.1861 2 14 2.19043 14 2.42543V3.27656H12.3331V2.42543C12.3331 2.19043 12.147 2 11.9162 2C11.6861 2 11.5 2.19043 11.5 2.42543V3.27656H9.83312V2.42543C9.83312 2.19043 9.64695 2 9.41625 2C9.18676 2 9 2.19043 9 2.42543V3.27656H7.33312V2.42543C7.33312 2.19043 7.14695 2 6.91625 2C6.68676 2 6.5 2.19043 6.5 2.42543V3.27656H4V22H19.8331V3.27656H17.3331ZM19 21.1663H4.83313V4.11H6.5V4.92543C6.5 5.16043 6.68676 5.35113 6.91625 5.35113C7.14695 5.35113 7.33312 5.16039 7.33312 4.92543V4.11H9V4.92543C9 5.16043 9.18676 5.35113 9.41625 5.35113C9.64695 5.35113 9.83312 5.16039 9.83312 4.92543V4.11H11.5V4.92543C11.5 5.16043 11.6862 5.35113 11.9162 5.35113C12.147 5.35113 12.3331 5.16039 12.3331 4.92543V4.11H14V4.92543C14 5.16043 14.1862 5.35113 14.4162 5.35113C14.647 5.35113 14.8331 5.16039 14.8331 4.92543V4.11H16.5V4.92543C16.5 5.16043 16.6862 5.35113 16.9162 5.35113C17.147 5.35113 17.3331 5.16039 17.3331 4.92543V4.11H19V21.1663Z" fill="white"/>
<path d="M17.3331 9.08344H11.5C11.2699 9.08344 11.0831 9.26988 11.0831 9.5C11.0831 9.73011 11.2699 9.91656 11.5 9.91656H17.3331C17.5632 9.91656 17.75 9.73011 17.75 9.5C17.75 9.26988 17.5632 9.08344 17.3331 9.08344Z" fill="white"/>
<path d="M17.3331 13.25H11.5C11.2699 13.25 11.0831 13.4368 11.0831 13.6663C11.0831 13.897 11.2699 14.0837 11.5 14.0837H17.3331C17.5632 14.0837 17.75 13.897 17.75 13.6663C17.75 13.4368 17.5632 13.25 17.3331 13.25Z" fill="white"/>
<path d="M17.3331 17.4163H11.5C11.2699 17.4163 11.0831 17.603 11.0831 17.8338C11.0831 18.0633 11.2699 18.25 11.5 18.25H17.3331C17.5632 18.25 17.75 18.0633 17.75 17.8338C17.75 17.6031 17.5632 17.4163 17.3331 17.4163Z" fill="white"/>
</svg>
