<svg width="20" height="17" viewBox="0 0 20 17" fill="none" xmlns="http://www.w3.org/2000/svg">
<path d="M7.17149 16.6147C7.26058 16.6147 7.34967 16.6147 7.43875 16.6147C7.61693 16.6147 7.7951 16.6147 7.92873 16.6147C8.19599 16.6147 8.46325 16.6147 8.77506 16.6147C9.5323 16.6147 10.2895 16.6147 11.0468 16.6147C12.0267 16.6147 12.9621 16.6147 13.9421 16.6147C14.1648 16.6147 14.3875 16.6147 14.6102 16.6147C14.7439 16.6147 14.8775 16.6147 14.9666 16.6147C15.0557 16.6147 15.1448 16.5702 15.2339 16.5702C16.4365 16.3029 17.3719 15.8129 18.2628 14.9221C18.7528 14.4321 19.1091 13.9421 19.4209 13.3185C19.8218 12.5167 20 11.6704 20 10.7795C20 9.93319 19.8218 8.99777 19.2873 8.28508C19.2873 8.28508 19.2873 8.24054 19.2428 8.24054C19.1982 8.19599 19.1982 8.19599 19.1537 8.15145C19.0646 8.06236 18.9755 7.97327 18.931 7.88419C18.6637 7.61693 18.3964 7.34967 18.1292 7.03786C17.2829 6.19154 16.4365 5.34521 15.5902 4.49889C15.1002 4.00891 14.5657 3.47439 14.0757 2.98441C13.7194 2.62806 13.363 2.27172 13.0067 1.91537C12.784 1.69265 12.5612 1.46993 12.294 1.24722C12.1604 1.11359 12.0267 1.0245 11.8931 0.890869C11.8486 0.846325 11.8486 0.846324 11.804 0.846324C11.5367 0.668151 11.2695 0.53452 11.0022 0.40089C10.735 0.26726 10.4232 0.222717 10.1559 0.13363C10.1114 0.13363 10.0223 0.133629 9.97773 0.0890855C9.88864 0.0890855 9.75501 0.0890862 9.66593 0.0445428C9.44321 0.0445428 9.22049 0 8.99777 0C8.95323 0 8.90869 0 8.86414 0H8.8196C8.77506 0 8.73051 -6.80343e-07 8.68597 0.0445428C8.64143 0.0445428 8.55234 0.0445421 8.5078 0.0890855C7.75056 0.222716 6.99332 0.579065 6.41425 1.11359C5.83519 1.64811 5.34521 2.31626 5.07795 3.0735C4.94432 3.51893 4.81069 4.00891 4.81069 4.49889C4.81069 4.89978 4.85523 5.25612 4.98886 5.61247C5.03341 5.7461 5.07795 5.87973 5.16704 6.01336C5.30067 6.19154 5.4343 6.41425 5.61247 6.59243C5.96882 6.99332 6.36971 7.34967 6.72606 7.75056C7.43875 8.46325 8.15145 9.17595 8.86414 9.88864C9.48775 10.5122 10.1114 11.1359 10.735 11.7149C11.1804 12.1604 11.6258 12.5612 12.0267 13.0067C12.1158 13.0958 12.2049 13.1849 12.294 13.2739C12.3385 13.3185 12.3831 13.363 12.4722 13.4076C12.6058 13.4967 12.8285 13.5857 13.0067 13.6303C13.2294 13.7194 13.4521 13.7639 13.7194 13.7639C13.853 13.7639 13.9421 13.7639 14.0757 13.7639C15.6793 13.7639 17.0156 12.6058 17.1938 11.0022C17.1938 10.9131 17.1938 10.7795 17.1938 10.6904C17.1938 10.4677 17.1492 10.245 17.0601 10.0223C16.971 9.79956 16.8374 9.62138 16.7038 9.44321C16.3474 9.08686 15.902 8.90869 15.4566 8.90869C14.9666 8.90869 14.5212 9.08686 14.2094 9.44321C13.8976 9.75501 13.7194 10.1559 13.7194 10.6013C13.7194 10.9131 13.8085 11.1804 14.0312 11.4031C14.2539 11.6258 14.5212 11.7149 14.7884 11.7149C15.0557 11.7149 15.3229 11.6258 15.5457 11.4031C15.6347 11.314 15.7238 11.1804 15.7684 11.0913C15.8129 11.0468 15.8129 11.0022 15.8575 10.9577C15.8575 10.9131 15.902 10.9131 15.902 10.8686L15.9465 10.8241C15.9911 10.7795 16.0356 10.7795 16.0802 10.7795C16.1247 10.7795 16.1693 10.7795 16.1693 10.7795C16.2138 10.7795 16.2138 10.8241 16.2584 10.8241C16.3029 10.8686 16.3029 10.8686 16.3474 10.9131C16.3474 10.9577 16.3474 10.9577 16.3474 11.0022C16.3474 11.0468 16.3474 11.0468 16.3474 11.0468V11.0913C16.3029 11.314 16.2138 11.4922 16.0802 11.6704C15.9465 11.8486 15.8129 12.0267 15.6793 12.2049C15.4566 12.4276 15.1893 12.6058 14.9221 12.6949C14.6548 12.784 14.343 12.8731 14.0757 12.8731C13.4521 12.8731 12.8731 12.6058 12.4722 12.2049C12.2494 11.9822 12.0713 11.7149 11.9376 11.4031C11.804 11.0913 11.7595 10.7795 11.7595 10.4677C11.7595 10.3786 11.7595 10.3341 11.7595 10.245C11.7595 10.0223 11.804 9.79956 11.8486 9.57684C11.8931 9.35412 11.9822 9.1314 12.1158 8.90869C12.6058 7.92873 13.4967 7.21604 14.5212 6.90423C14.6548 6.85969 14.7884 6.85969 14.9666 6.85969C15.1448 6.85969 15.3229 6.85969 15.4566 6.85969C15.6347 6.85969 15.8129 6.85969 15.9465 6.85969C16.0802 6.85969 16.2138 6.90423 16.392 6.90423C17.6837 7.26058 18.7082 8.28508 19.0646 9.57684C19.1091 9.71047 19.1091 9.8441 19.1091 9.97773C19.1091 10.1559 19.1091 10.2895 19.1091 10.4677C19.1091 10.8686 19.0646 11.314 18.9755 11.7149C18.7528 12.6058 18.3074 13.4076 17.6392 14.0757C16.971 14.7439 16.1693 15.1893 15.2784 15.412L14.833 15.5457H11.1359H7.34967L1.3363 9.79956L4.76615 9.75501H6.81515L6.63697 9.57684L6.05791 8.99777H3.20713C2.93987 8.99777 2.71715 8.99777 2.44989 8.99777C1.91537 8.99777 1.38085 8.99777 0.846325 8.99777C0.712695 8.99777 0.579065 8.99777 0.400891 8.99777C0.311804 8.99777 0.222717 8.99777 0.178174 9.04232H0.13363C0.13363 9.08686 0.0890868 9.08686 0.0890868 9.1314C0.0445433 9.22049 0 9.26504 0 9.35412C0 9.39867 0 9.39866 0 9.44321C0 9.44321 0.0445434 9.48775 0.0445434 9.5323C0.178174 9.71047 0.356347 9.88864 0.534521 10.0223C0.890869 10.3786 1.24722 10.735 1.60356 11.0913C2.22717 11.7149 2.85078 12.3385 3.47439 12.9621C4.18708 13.6748 4.85523 14.343 5.56793 15.0557C5.96882 15.412 6.32517 15.8129 6.72606 16.1693C6.85969 16.2584 6.94878 16.392 7.08241 16.4811C7.08241 16.4811 7.08241 16.4811 7.12695 16.5256C7.12695 16.6147 7.17149 16.6147 7.17149 16.6147ZM5.65702 5.16704C5.61247 4.94432 5.61247 4.76615 5.61247 4.54343C5.61247 3.74165 5.92428 2.93987 6.41425 2.31626C6.7706 1.87082 7.21604 1.51448 7.70601 1.24722C8.19599 0.979955 8.77506 0.890869 9.35412 0.890869C9.57684 0.890869 9.79955 0.935412 10.0223 0.935412C10.6904 1.06904 11.1804 1.29176 11.7149 1.69265C11.7595 1.73719 11.7595 1.73719 11.804 1.78174C11.8486 1.82628 11.8931 1.87082 11.9822 1.91537C12.1604 2.049 12.294 2.22717 12.4722 2.40534C12.9621 2.85078 13.4076 3.34076 13.8976 3.83073L16.2584 6.19154L15.2339 6.28062C13.6303 6.41425 12.2049 7.30512 11.4922 8.77506C11.4031 8.95323 11.314 9.1314 11.2695 9.35412C11.1804 9.57684 11.1359 9.79956 11.0913 10.0223C11.0913 10.1114 11.0468 10.2004 11.0468 10.2895V10.3341V10.3786V10.4232C11.0468 10.4677 11.0022 10.4677 10.9577 10.5123C10.9131 10.5568 10.8686 10.5568 10.7795 10.5568C10.735 10.5568 10.735 10.5568 10.735 10.5568C10.735 10.5568 10.735 10.5568 10.6904 10.5568H10.6459L10.5122 10.4677L10.4677 10.4232C10.4232 10.3786 10.3786 10.3341 10.3341 10.2895C10.1559 10.1559 10.0223 9.97773 9.8441 9.79956C9.30958 9.26504 8.8196 8.77506 8.28508 8.24054C7.7951 7.75056 7.30512 7.26058 6.81515 6.72606C6.54788 6.4588 6.32517 6.19154 6.10245 5.92428C6.01336 5.83519 5.92428 5.70156 5.87973 5.56793C5.7461 5.4343 5.70156 5.30067 5.65702 5.16704Z" fill="#29C1D5"/>
</svg>
