<svg width="16" height="16" viewBox="0 0 16 16" fill="none" xmlns="http://www.w3.org/2000/svg">
<path d="M13 16H5C4.08134 16 3.33334 15.2526 3.33334 14.3333V4.33329C3.33334 3.41396 4.08134 2.66663 5 2.66663H13C13.9187 2.66663 14.6667 3.41396 14.6667 4.33329V14.3333C14.6667 15.2526 13.9187 16 13 16ZM5 3.33329C4.44867 3.33329 4 3.78196 4 4.33329V14.3333C4 14.8846 4.44867 15.3333 5 15.3333H13C13.5513 15.3333 14 14.8846 14 14.3333V4.33329C14 3.78196 13.5513 3.33329 13 3.33329H5Z" fill="#29C1D5"/>
<path d="M2.33334 14H1.66667C0.748001 14 0 13.2527 0 12.3333V1.66667C0 0.747333 0.748001 0 1.66667 0H9.66668C10.5853 0 11.3333 0.747333 11.3333 1.66667C11.3333 1.85067 11.184 2 11 2C10.816 2 10.6667 1.85067 10.6667 1.66667C10.6667 1.11533 10.218 0.666667 9.66668 0.666667H1.66667C1.11533 0.666667 0.666668 1.11533 0.666668 1.66667V12.3333C0.666668 12.8847 1.11533 13.3333 1.66667 13.3333H2.33334C2.51734 13.3333 2.66667 13.4827 2.66667 13.6667C2.66667 13.8507 2.51734 14 2.33334 14Z" fill="#29C1D5"/>
<path d="M11.6667 11.3333H6.33335C6.14935 11.3333 6.00002 11.184 6.00002 11C6.00002 10.816 6.14935 10.6666 6.33335 10.6666H11.6667C11.8507 10.6666 12 10.816 12 11C12 11.184 11.8507 11.3333 11.6667 11.3333Z" fill="#29C1D5"/>
<path d="M11.6667 14H6.33335C6.14935 14 6.00002 13.8507 6.00002 13.6667C6.00002 13.4827 6.14935 13.3334 6.33335 13.3334H11.6667C11.8507 13.3334 12 13.4827 12 13.6667C12 13.8507 11.8507 14 11.6667 14Z" fill="#29C1D5"/>
<path d="M11.6667 8.66666H6.33335C6.14935 8.66666 6.00002 8.51733 6.00002 8.33333C6.00002 8.14933 6.14935 8 6.33335 8H11.6667C11.8507 8 12 8.14933 12 8.33333C12 8.51733 11.8507 8.66666 11.6667 8.66666Z" fill="#29C1D5"/>
<path d="M11.6667 6.00005H6.33335C6.14935 6.00005 6.00002 5.85071 6.00002 5.66671C6.00002 5.48271 6.14935 5.33337 6.33335 5.33337H11.6667C11.8507 5.33337 12 5.48271 12 5.66671C12 5.85071 11.8507 6.00005 11.6667 6.00005Z" fill="#29C1D5"/>
</svg>
