<svg width="24" height="24" viewBox="0 0 24 24" fill="none" xmlns="http://www.w3.org/2000/svg">
<path d="M23.5485 14.3482L20.8335 8.5331L22.0055 8.86927C22.2629 8.94313 22.5315 8.79446 22.6051 8.53689C22.679 8.2795 22.5303 8.01113 22.2729 7.93726L14.1241 5.59882C14.1258 5.56397 14.1267 5.52912 14.1267 5.49408C14.1269 4.52647 13.4737 3.68083 12.5373 3.43708C11.601 3.19314 10.6182 3.61265 10.1464 4.45734L1.99684 2.11909C1.73945 2.04522 1.47089 2.19409 1.39703 2.45147C1.32335 2.70886 1.47203 2.97723 1.72941 3.05109L3.33774 3.51265L0.42506 9.75128C0.230743 9.81927 0.10044 10.0026 0.10025 10.2087C0.0996823 11.7827 1.04835 13.2017 2.50309 13.8026C3.95782 14.4037 5.63149 14.0681 6.74209 12.9528C7.48205 12.2314 7.90004 11.2422 7.90194 10.2087C7.90194 9.99162 7.75743 9.80109 7.54853 9.74219L4.84153 3.94428L9.87826 5.38935C9.87655 5.4242 9.87561 5.45905 9.87561 5.49427C9.87712 6.48083 10.5561 7.33708 11.5163 7.56321V17.1672H10.1781C9.10875 17.1672 8.21936 18.0253 8.21936 19.0948V19.3763C7.31955 19.5657 6.67353 20.357 6.66785 21.2766V21.9554C6.67599 22.2291 6.89815 22.448 7.17202 22.452H16.8303C17.1042 22.448 17.3263 22.2291 17.3345 21.9554V21.2766C17.3288 20.357 16.6828 19.5657 15.783 19.3763V19.0948C15.783 18.0253 14.8934 17.1672 13.8243 17.1672H12.486V7.56321C13.0671 7.4259 13.5639 7.05128 13.8559 6.53064L19.3438 8.10545L16.425 14.3573C16.2305 14.4253 16.1002 14.6087 16.1 14.8145C16.0996 16.3886 17.0483 17.8075 18.5031 18.4085C19.9578 19.0096 21.6313 18.6742 22.7419 17.5588C23.4818 16.8373 23.9 15.8481 23.9019 14.8145C23.9017 14.5975 23.7574 14.4071 23.5485 14.3482ZM3.98888 4.3867L6.46974 9.70052H1.5082L3.98888 4.3867ZM3.98888 13.1041C2.56085 13.1124 1.33945 12.0799 1.11029 10.6702H6.88963C6.64285 12.0787 5.41899 13.1058 3.98888 13.1041ZM16.3648 21.2766V21.4823H7.63754V21.2766C7.63754 20.742 8.09209 20.3187 8.62656 20.3187H15.3758C15.9103 20.3187 16.3648 20.742 16.3648 21.2766ZM14.8133 19.0948V19.349H9.18906V19.0948C9.18906 18.5602 9.6436 18.1369 10.1781 18.1369H13.8243C14.3587 18.1369 14.8133 18.5602 14.8133 19.0948ZM12.0012 6.64995C11.5082 6.65033 11.0692 6.33821 10.9076 5.87249C10.7461 5.40677 10.8974 4.88992 11.2845 4.5848C11.6718 4.27969 12.2099 4.25356 12.6248 4.51984C13.0398 4.78594 13.2404 5.28575 13.1247 5.76492C13.1123 5.7956 13.1033 5.82723 13.0974 5.85961C12.9396 6.3312 12.4983 6.64939 12.0012 6.64995ZM22.4697 14.3066H17.5082L19.9888 8.99276L22.4697 14.3066ZM19.9888 17.7102C18.5608 17.7185 17.3394 16.6859 17.1103 15.2763H22.8896C22.6428 16.6848 21.419 17.7119 19.9888 17.7102Z" fill="#29C1D5"/>
<path fill-rule="evenodd" clip-rule="evenodd" d="M0.0992651 10.2077C0.0994548 10.0016 0.229757 9.81831 0.424075 9.75031L3.33676 3.51168L1.72843 3.05013C1.47104 2.97627 1.32237 2.7079 1.39604 2.45051C1.46991 2.19312 1.73847 2.04426 1.99585 2.11812L10.1455 4.45638C10.6172 3.61168 11.6 3.19218 12.5364 3.43611C13.4727 3.67986 14.1259 4.52551 14.1258 5.49312C14.1258 5.52816 14.1248 5.56301 14.1231 5.59785L22.2719 7.9363C22.5293 8.01016 22.678 8.27853 22.6041 8.53592C22.5305 8.7935 22.2619 8.94217 22.0045 8.86831L20.8326 8.53213L23.5475 14.3473C23.7564 14.4062 23.9007 14.5965 23.9009 14.8136C23.899 15.8471 23.4808 16.8363 22.7409 17.5579C21.6303 18.6732 19.9568 19.0086 18.5021 18.4075C17.0473 17.8066 16.0987 16.3876 16.099 14.8136C16.0992 14.6077 16.2295 14.4244 16.424 14.3564L19.3428 8.10448L13.8549 6.52967C13.5629 7.05032 13.0661 7.42494 12.485 7.56225V17.1662H13.8233C14.8924 17.1662 15.782 18.0244 15.782 19.0939V19.3753C16.6818 19.5647 17.3278 20.356 17.3335 21.2757V21.9545C17.3254 22.2281 17.1032 22.4471 16.8293 22.4511H7.17103C6.89717 22.4471 6.67501 22.2281 6.66686 21.9545V21.2757C6.67255 20.356 7.31857 19.5647 8.21838 19.3753V19.0939C8.21838 18.0244 9.10777 17.1662 10.1771 17.1662H11.5153V7.56225C10.5551 7.33611 9.87614 6.47986 9.87462 5.49331C9.87462 5.45808 9.87557 5.42323 9.87727 5.38839L4.84054 3.94331L7.54754 9.74122C7.75645 9.80012 7.90095 9.99065 7.90095 10.2077C7.89906 11.2412 7.48107 12.2304 6.74111 12.9518C5.6305 14.0672 3.95683 14.4028 2.5021 13.8016C1.04737 13.2007 0.0986972 11.7818 0.0992651 10.2077ZM7.61924 9.66036L5.02255 4.0987L9.77568 5.46241C9.77553 5.47267 9.77545 5.48297 9.77545 5.49331C9.77699 6.49943 10.4518 7.37623 11.4162 7.63936V17.067H10.1771C9.05508 17.067 8.1192 17.9675 8.1192 19.0939V19.2964C7.21499 19.5239 6.5735 20.3358 6.56769 21.2751V21.9545L6.56773 21.9574C6.57746 22.2841 6.84264 22.5455 7.16959 22.5502L16.8293 22.5502L16.8308 22.5502C17.1577 22.5455 17.4229 22.2841 17.4326 21.9574L17.4327 21.2757C17.4269 20.3364 16.7854 19.5239 15.8812 19.2964V19.0939C15.8812 17.9675 14.9451 17.067 13.8233 17.067H12.5842V7.63929C13.134 7.4887 13.6054 7.13323 13.9016 6.64626L19.2038 8.16777L16.3509 14.2786C16.1392 14.3706 16.0001 14.58 15.9999 14.8135C15.9995 16.4277 16.9723 17.8829 18.4642 18.4992C19.9558 19.1155 21.6718 18.7717 22.8107 17.6283C23.5694 16.8882 23.9981 15.8737 24.0001 14.8137C23.9999 14.5681 23.8464 14.3506 23.6192 14.2664L21.0145 8.68751L21.9772 8.96364C22.2872 9.05259 22.6107 8.87353 22.6995 8.56319C22.7884 8.25319 22.6093 7.92994 22.2993 7.84097L14.2247 5.52383C14.2248 5.51363 14.2249 5.5034 14.2249 5.49314M7.61924 9.66036C7.84644 9.74458 8.00013 9.96198 8.00013 10.2077C7.99818 11.2676 7.56962 12.2823 6.81089 13.0223C5.67195 14.1657 3.95586 14.5097 2.46423 13.8933C0.97238 13.277 -0.00049086 11.8219 9.18143e-05 10.2077C0.000306554 9.97404 0.139387 9.76461 0.350941 9.67253L3.19776 3.57497L1.70107 3.14546C1.39103 3.05648 1.21197 2.7332 1.3007 2.42322C1.38966 2.11321 1.71315 1.93382 2.0232 2.0228C2.0232 2.0228 2.0232 2.0228 2.0232 2.0228L10.0986 4.33976C10.6063 3.50148 11.6068 3.09148 12.5613 3.34014C13.5414 3.59527 14.2251 4.4804 14.2249 5.49314M3.98801 13.004C5.33023 13.0056 6.48444 12.0693 6.76811 10.7684H1.22835C1.49567 12.0706 2.64799 13.0118 3.98801 13.004ZM1.12718 10.7684C1.12067 10.7356 1.11471 10.7025 1.1093 10.6693H6.88864C6.88281 10.7025 6.87644 10.7356 6.86953 10.7684C6.58393 12.1257 5.38422 13.1048 3.98789 13.1032C2.59357 13.1113 1.39624 12.1271 1.12718 10.7684ZM12.6239 4.51888C12.2089 4.25259 11.6708 4.27873 11.2835 4.58384C10.8964 4.88895 10.7451 5.40581 10.9066 5.87153C11.0682 6.33725 11.5072 6.64937 12.0002 6.64899C12.4973 6.64842 12.9386 6.33024 13.0964 5.85865C13.1023 5.82626 13.1114 5.79464 13.1237 5.76395C13.2394 5.28479 13.0388 4.78498 12.6239 4.51888ZM13.0288 5.73416C13.1312 5.29805 12.9478 4.84443 12.5703 4.60236C12.191 4.35892 11.699 4.38278 11.3449 4.66173C10.991 4.94069 10.8526 5.41324 11.0003 5.83903C11.148 6.26479 11.5494 6.55015 12.0001 6.54982C12.4524 6.5493 12.8542 6.26122 13.0002 5.83348C13.0068 5.79963 13.0163 5.76646 13.0288 5.73416ZM19.988 17.61C21.3302 17.6116 22.4844 16.6754 22.7681 15.3745H17.2283C17.4956 16.6767 18.648 17.6179 19.988 17.61ZM17.1271 15.3745C17.1206 15.3416 17.1147 15.3086 17.1093 15.2753H22.8886C22.8828 15.3086 22.8764 15.3416 22.8695 15.3745C22.5839 16.7318 21.3842 17.7109 19.9879 17.7092C18.5935 17.7173 17.3962 16.7331 17.1271 15.3745ZM3.98789 4.38573L1.50722 9.69956H6.46876L3.98789 4.38573ZM3.9879 4.62017L6.31301 9.60038H1.66296L3.9879 4.62017ZM16.2646 21.3822V21.2757C16.2646 20.7999 15.8587 20.4169 15.3748 20.4169H8.62557C8.14171 20.4169 7.73573 20.7999 7.73573 21.2757V21.3822H16.2646ZM14.7131 19.2489V19.0939C14.7131 18.6181 14.3072 18.2351 13.8233 18.2351H10.1771C9.69322 18.2351 9.28724 18.6181 9.28724 19.0939V19.2489H14.7131ZM22.4687 14.3056L19.9879 8.99179L17.5072 14.3056H22.4687ZM22.313 14.2064H17.6629L19.9879 9.22623L22.313 14.2064ZM16.3638 21.2757C16.3638 20.741 15.9093 20.3177 15.3748 20.3177H8.62557C8.0911 20.3177 7.63656 20.741 7.63656 21.2757V21.4814H16.3638V21.2757ZM14.8123 19.0939C14.8123 18.5592 14.3578 18.1359 13.8233 18.1359H10.1771C9.64262 18.1359 9.18807 18.5592 9.18807 19.0939V19.348H14.8123V19.0939Z" fill="#29C1D5"/>
</svg>
