<svg width="22" height="19" viewBox="0 0 22 19" fill="none" xmlns="http://www.w3.org/2000/svg">
<path fill-rule="evenodd" clip-rule="evenodd" d="M2.17534 2.80034C1.46411 3.71282 1.15126 4.99982 1.35518 6.4461L1.35657 6.45596L1.35766 6.46585C1.55357 8.25113 3.02986 10.2224 5.07114 12.1192C6.95053 13.8656 9.19152 15.4437 10.9894 16.6274C12.6184 15.4823 14.8231 13.9012 16.7311 12.1429C17.7565 11.1979 18.6808 10.2155 19.3791 9.23686C20.0811 8.25317 20.5266 7.31213 20.6488 6.44603C20.851 5.01314 20.5077 3.72542 19.7743 2.80608C19.0473 1.89482 17.8972 1.29413 16.3694 1.29413C13.4092 1.29413 11.9268 2.95361 11.5822 3.65167C11.4795 3.85963 11.2734 3.99675 11.0419 4.01107C10.8105 4.02539 10.589 3.91472 10.4615 3.721C9.94916 2.94261 8.22177 1.29413 5.63458 1.29413C4.02078 1.29413 2.87727 1.89978 2.17534 2.80034ZM1.15464 2.00476C2.12998 0.753432 3.67011 0 5.63458 0C8.13388 0 9.96802 1.25329 10.9549 2.28576C11.8511 1.22258 13.6237 0 16.3694 0C18.2626 0 19.7962 0.758399 20.786 1.99902C21.7692 3.23157 22.1755 4.88853 21.9302 6.62685C21.7677 7.77887 21.1974 8.91676 20.4326 9.98855C19.6642 11.0654 18.6709 12.1151 17.6081 13.0945C15.4837 15.0522 13.0201 16.7843 11.3735 17.9389C11.1572 18.0906 10.8703 18.0955 10.6489 17.9514C8.78047 16.7348 6.28278 15.0117 4.19022 13.0672C2.13282 11.1555 0.328036 8.90557 0.0723573 6.61704C-0.168132 4.89561 0.190409 3.24184 1.15464 2.00476Z" fill="#29C1D5"/>
</svg>
