<svg width="66" height="10" viewBox="0 0 66 10" fill="none" xmlns="http://www.w3.org/2000/svg">
<path d="M2.18654 9.2844C1.48012 8.84709 0.941896 8.27522 0.571865 7.53516C0.201835 6.7951 0 5.92048 0 4.97858C0 4.03669 0.201835 3.16207 0.571865 2.42201C0.975535 1.68195 1.51376 1.07644 2.18654 0.672774C2.89297 0.235465 3.66667 0.0336304 4.57492 0.0336304C5.44954 0.0336304 6.25688 0.235465 6.92966 0.672774C7.63609 1.11008 8.17431 1.68195 8.54434 2.42201C8.91437 3.16207 9.11621 4.03669 9.11621 4.97858C9.11621 5.92048 8.91437 6.7951 8.54434 7.53516C8.17431 8.27522 7.60245 8.88073 6.92966 9.2844C6.22324 9.7217 5.44954 9.92354 4.54128 9.92354C3.70031 9.92354 2.89297 9.68806 2.18654 9.2844ZM6.3578 8.24158C6.89603 7.90519 7.29969 7.46788 7.56881 6.89602C7.87156 6.32415 8.00612 5.68501 8.00612 4.97858C8.00612 4.27216 7.87156 3.63302 7.56881 3.06115C7.26606 2.48929 6.86239 2.01834 6.3578 1.71559C5.85321 1.3792 5.24771 1.211 4.57492 1.211C3.90214 1.211 3.33028 1.3792 2.79205 1.71559C2.28746 2.05198 1.85015 2.48929 1.58104 3.06115C1.27829 3.63302 1.14373 4.27216 1.14373 4.97858C1.14373 5.68501 1.27829 6.32415 1.58104 6.89602C1.88379 7.46788 2.28746 7.93883 2.79205 8.24158C3.33028 8.57797 3.90214 8.74617 4.57492 8.74617C5.24771 8.74617 5.81957 8.57797 6.3578 8.24158Z" fill="white"/>
<path d="M15.8442 3.43119C16.2815 3.73394 16.6515 4.13761 16.9206 4.67584C17.1897 5.21406 17.2907 5.78593 17.2907 6.42507C17.2907 7.06421 17.1561 7.63608 16.887 8.1743C16.6179 8.71253 16.2142 9.1162 15.7433 9.41895C15.2723 9.72171 14.7004 9.85626 14.1286 9.85626C13.5231 9.85626 13.0185 9.72171 12.5139 9.41895C12.043 9.1162 11.6393 8.71253 11.3702 8.1743C11.1011 7.63608 10.9329 7.06421 10.9329 6.42507V0.773696C10.9329 0.571861 11.0001 0.437304 11.1011 0.302748C11.202 0.20183 11.3702 0.134552 11.5384 0.134552C11.7066 0.134552 11.8411 0.20183 11.9757 0.302748C12.0766 0.403665 12.1439 0.571861 12.1439 0.773696V4.10397C12.413 3.73394 12.7494 3.46483 13.1194 3.26299C13.4894 3.06116 13.9267 2.96024 14.3641 2.96024C14.8686 2.99388 15.3732 3.12843 15.8442 3.43119ZM15.1378 8.44342C15.4405 8.24158 15.7096 7.97247 15.8778 7.60244C16.046 7.23241 16.1469 6.86238 16.1469 6.42507C16.1469 5.98776 16.046 5.58409 15.8778 5.2477C15.7096 4.91131 15.4405 4.60856 15.1378 4.40672C14.835 4.20489 14.465 4.10397 14.0949 4.10397C13.7249 4.10397 13.3549 4.20489 13.0521 4.40672C12.7494 4.60856 12.4803 4.87767 12.3121 5.2477C12.1439 5.58409 12.043 5.98776 12.043 6.42507C12.043 6.86238 12.1439 7.26605 12.3121 7.60244C12.4803 7.97247 12.7494 8.24158 13.0521 8.44342C13.3549 8.64525 13.7249 8.74617 14.0949 8.74617C14.465 8.71253 14.835 8.61161 15.1378 8.44342Z" fill="white"/>
<path d="M20.2506 9.41896C19.7797 9.11621 19.376 8.71254 19.1069 8.20796C18.8378 7.70337 18.7032 7.09786 18.7032 6.45872C18.7032 5.78594 18.8378 5.21407 19.1069 4.67585C19.376 4.17126 19.7461 3.76759 20.2506 3.46484C20.7216 3.16208 21.2935 3.02753 21.899 3.02753C22.5045 3.02753 23.0427 3.16208 23.5473 3.46484C24.0182 3.76759 24.3883 4.17126 24.691 4.67585C24.9601 5.18043 25.0947 5.78594 25.0947 6.45872C25.0947 7.1315 24.9601 7.70337 24.691 8.20796C24.4219 8.71254 24.0519 9.11621 23.5809 9.41896C23.11 9.72172 22.5381 9.85627 21.9326 9.85627C21.2935 9.85627 20.7216 9.68808 20.2506 9.41896ZM22.9418 8.44343C23.2445 8.24159 23.5136 7.97248 23.6818 7.63609C23.85 7.2997 23.951 6.89603 23.951 6.45872C23.951 6.02141 23.85 5.61774 23.6818 5.24771C23.5136 4.87768 23.2782 4.60857 22.9418 4.40673C22.639 4.2049 22.269 4.10398 21.899 4.10398C21.4953 4.10398 21.1589 4.2049 20.8562 4.40673C20.5534 4.60857 20.2843 4.87768 20.1161 5.24771C19.9479 5.61774 19.847 5.98777 19.847 6.45872C19.847 6.92967 19.9479 7.2997 20.1161 7.63609C20.2843 7.97248 20.5534 8.27523 20.8562 8.44343C21.1589 8.64526 21.5289 8.74618 21.899 8.74618C22.269 8.71254 22.639 8.64526 22.9418 8.44343Z" fill="white"/>
<path d="M26.9787 1.7156C26.8441 1.5474 26.7432 1.34557 26.7432 1.14373C26.7432 0.9419 26.8105 0.740065 26.9787 0.571869C27.1133 0.403673 27.3151 0.336395 27.5169 0.336395C27.7188 0.336395 27.887 0.403673 28.0551 0.571869C28.1897 0.740065 28.2906 0.9419 28.2906 1.14373C28.2906 1.34557 28.2233 1.5474 28.0551 1.7156C27.9206 1.8838 27.7188 1.95107 27.5169 1.95107C27.3151 1.95107 27.1469 1.85016 26.9787 1.7156ZM27.1133 9.6208C27.0123 9.48624 26.9451 9.35168 26.9451 9.18349V3.66667C26.9451 3.46483 27.0123 3.33028 27.1133 3.19572C27.2142 3.0948 27.3824 3.02753 27.5506 3.02753C27.7188 3.02753 27.8533 3.0948 27.9879 3.19572C28.0888 3.29664 28.1561 3.46483 28.1561 3.66667V9.14985C28.1561 9.31804 28.0888 9.48624 27.9879 9.58716C27.887 9.72171 27.7524 9.75535 27.5506 9.75535C27.3487 9.78899 27.2142 9.72171 27.1133 9.6208Z" fill="white"/>
<path d="M29.8379 6.86236C29.737 6.76145 29.6697 6.59325 29.6697 6.42505C29.6697 6.25686 29.737 6.08866 29.8379 5.98775C29.9388 5.85319 30.107 5.81955 30.2752 5.81955H32.8318C33 5.81955 33.1345 5.88683 33.2354 5.98775C33.3363 6.1223 33.4036 6.25686 33.4036 6.42505C33.4036 6.59325 33.3363 6.76145 33.2354 6.86236C33.1345 6.96328 33 7.03056 32.8318 7.03056H30.2752C30.107 7.03056 29.9724 6.99692 29.8379 6.86236Z" fill="white"/>
<path d="M35.7584 9.38532C35.1529 9.01529 34.7156 8.54434 34.4801 7.97248C34.4465 7.87156 34.4128 7.80428 34.4128 7.737C34.4128 7.60244 34.4465 7.50153 34.5474 7.40061C34.6483 7.29969 34.7492 7.23241 34.8838 7.19877C34.9174 7.19877 34.9511 7.19877 34.9847 7.19877C35.1193 7.19877 35.2202 7.23241 35.3547 7.29969C35.4557 7.36697 35.5566 7.46789 35.5902 7.60244C35.7248 7.93884 35.9939 8.20795 36.3976 8.40978C36.8012 8.64526 37.2385 8.74618 37.7431 8.74618C38.315 8.74618 38.8196 8.61162 39.2232 8.30887C39.6269 8.03975 39.8287 7.63608 39.8287 7.1315C39.8287 6.66055 39.6605 6.25688 39.3242 5.92049C38.9878 5.5841 38.4832 5.38226 37.7768 5.31498C36.8349 5.21407 36.0612 4.91131 35.5229 4.40673C34.9847 3.90214 34.7156 3.29664 34.7156 2.52294C34.7156 1.98471 34.8502 1.5474 35.1529 1.17737C35.422 0.807339 35.8257 0.504587 36.2966 0.302752C36.7676 0.100917 37.3394 0 37.9449 0C38.6177 0 39.156 0.134557 39.6269 0.437309C40.0979 0.740061 40.4679 1.14373 40.7706 1.68196C40.8716 1.85015 40.9052 1.98471 40.9052 2.11927C40.9052 2.28746 40.8379 2.45566 40.6697 2.55657C40.5688 2.62385 40.4679 2.65749 40.367 2.65749C40.266 2.65749 40.1315 2.62385 40.0306 2.55657C39.9297 2.4893 39.8624 2.42202 39.7951 2.28746C39.5933 1.91743 39.3242 1.64832 39.0214 1.44648C38.7186 1.24465 38.315 1.14373 37.844 1.14373C37.2722 1.14373 36.8012 1.27829 36.4312 1.51376C36.0612 1.74924 35.893 2.11927 35.893 2.55657C35.893 2.99388 36.0612 3.33027 36.3639 3.63303C36.7003 3.93578 37.2722 4.10397 38.0795 4.20489C38.9878 4.30581 39.7278 4.60856 40.2324 5.11315C40.737 5.61774 41.0061 6.25688 41.0061 7.06422C41.0061 7.66972 40.8716 8.17431 40.5688 8.57798C40.266 9.01529 39.8624 9.31804 39.3578 9.51988C38.8532 9.72171 38.315 9.82263 37.7768 9.82263C37.0367 9.92355 36.3639 9.72171 35.7584 9.38532Z" fill="white"/>
<path d="M45.783 8.71251C45.8839 8.81343 45.9176 8.98163 45.9176 9.14982C45.9176 9.31802 45.8503 9.48621 45.7157 9.58713C45.5812 9.68805 45.413 9.75533 45.2111 9.75533H45.0093C44.6393 9.75533 44.3029 9.65441 43.9665 9.45258C43.6637 9.25074 43.3946 8.94799 43.2264 8.57796C43.0582 8.20793 42.9573 7.80426 42.9573 7.36695V4.30579H42.4191C42.2509 4.30579 42.1163 4.27215 42.0154 4.17123C41.9145 4.07031 41.8809 3.93576 41.8809 3.8012C41.8809 3.633 41.9145 3.49845 42.0154 3.39753C42.1163 3.29661 42.2509 3.26297 42.4191 3.26297H42.9573V1.51374C42.9573 1.34554 43.0246 1.17735 43.1255 1.07643C43.2264 0.975512 43.361 0.908234 43.5292 0.908234C43.6974 0.908234 43.8319 0.975512 43.9328 1.07643C44.0338 1.17735 44.101 1.34554 44.101 1.51374V3.29661H45.0766C45.2448 3.29661 45.3793 3.33025 45.4802 3.43117C45.5812 3.53209 45.6148 3.66664 45.6148 3.83484C45.6148 3.9694 45.5812 4.10395 45.4802 4.20487C45.3793 4.30579 45.2448 4.33943 45.0766 4.33943H44.101V7.40059C44.101 7.73698 44.202 8.00609 44.3702 8.24157C44.5384 8.47704 44.7402 8.57796 45.0093 8.57796H45.413C45.5812 8.54432 45.6821 8.6116 45.783 8.71251Z" fill="white"/>
<path d="M48.5751 9.41896C48.1042 9.11621 47.7005 8.71254 47.4314 8.20796C47.1623 7.70337 47.0277 7.09786 47.0277 6.45872C47.0277 5.78594 47.1623 5.21407 47.4314 4.67585C47.7005 4.17126 48.0705 3.76759 48.5751 3.46484C49.0461 3.16208 49.6179 3.02753 50.2234 3.02753C50.8289 3.02753 51.3672 3.16208 51.8717 3.46484C52.3427 3.76759 52.7127 4.17126 53.0155 4.67585C53.2846 5.18043 53.4191 5.78594 53.4191 6.45872C53.4191 7.1315 53.2846 7.70337 53.0155 8.20796C52.7464 8.71254 52.3763 9.11621 51.9054 9.41896C51.4344 9.72172 50.8626 9.85627 50.2571 9.85627C49.6179 9.85627 49.0797 9.68808 48.5751 9.41896ZM51.2999 8.44343C51.6026 8.24159 51.8717 7.97248 52.0399 7.63609C52.2081 7.2997 52.3091 6.89603 52.3091 6.45872C52.3091 6.02141 52.2081 5.61774 52.0399 5.24771C51.8717 4.87768 51.6363 4.60857 51.2999 4.40673C50.9971 4.2049 50.6271 4.10398 50.2571 4.10398C49.8534 4.10398 49.517 4.2049 49.2143 4.40673C48.9115 4.60857 48.6424 4.87768 48.4742 5.24771C48.306 5.61774 48.2051 5.98777 48.2051 6.45872C48.2051 6.92967 48.306 7.2997 48.4742 7.63609C48.6424 7.97248 48.9115 8.27523 49.2143 8.44343C49.517 8.64526 49.887 8.74618 50.2571 8.74618C50.6271 8.74618 50.9635 8.64526 51.2999 8.44343Z" fill="white"/>
<path d="M59.2048 3.16207C59.4403 3.29663 59.5412 3.46482 59.5412 3.66666C59.5412 3.73394 59.5412 3.76758 59.5412 3.80121C59.4739 4.07033 59.3057 4.20488 59.0702 4.20488C59.0366 4.20488 58.9693 4.20488 58.902 4.17124C58.5993 4.10397 58.3302 4.07033 58.162 4.07033C57.5901 4.07033 57.1528 4.20488 56.8164 4.474C56.48 4.74311 56.3118 5.11314 56.3118 5.58409V9.18348C56.3118 9.38531 56.2782 9.51987 56.1773 9.65443C56.0763 9.75534 55.9418 9.82262 55.74 9.82262C55.5381 9.82262 55.4036 9.75534 55.3026 9.65443C55.2017 9.55351 55.1681 9.38531 55.1681 9.18348V3.66666C55.1681 3.46482 55.2017 3.33027 55.3026 3.19571C55.4036 3.09479 55.5381 3.02751 55.74 3.02751C56.11 3.02751 56.3118 3.22935 56.3118 3.63302V3.86849C56.5473 3.56574 56.8164 3.36391 57.1528 3.19571C57.4892 3.02751 57.8592 2.96024 58.2293 2.96024C58.6666 2.96024 58.9693 3.02751 59.2048 3.16207Z" fill="white"/>
<path d="M65.7982 6.69419C65.6972 6.79511 65.5627 6.86239 65.4281 6.86239H61.055C61.156 7.43426 61.3914 7.9052 61.7951 8.24159C62.1988 8.61163 62.7034 8.77982 63.2752 8.77982C63.5107 8.77982 63.7462 8.74618 63.9817 8.64526C64.2171 8.54435 64.4526 8.44343 64.5872 8.30887C64.6881 8.20796 64.8226 8.17432 64.9572 8.17432C65.0917 8.17432 65.2263 8.20796 65.2936 8.30887C65.4281 8.44343 65.4954 8.57799 65.4954 8.74618C65.4954 8.88074 65.4281 9.0153 65.2936 9.11621C65.0245 9.35169 64.7217 9.51988 64.318 9.65444C63.948 9.789 63.5443 9.85627 63.2079 9.85627C62.5688 9.85627 61.9969 9.72172 61.526 9.41896C61.0214 9.11621 60.6514 8.71254 60.3486 8.20796C60.0795 7.70337 59.9113 7.09786 59.9113 6.45872C59.9113 5.78594 60.0459 5.21407 60.315 4.67585C60.5841 4.13762 60.9541 3.73395 61.4251 3.46484C61.896 3.16208 62.4343 3.02753 63.0398 3.02753C63.6453 3.02753 64.1498 3.16208 64.5872 3.46484C65.0245 3.73395 65.3609 4.13762 65.5963 4.64221C65.8318 5.14679 65.9327 5.71866 65.9327 6.3578C65.9664 6.45872 65.8991 6.59328 65.7982 6.69419ZM61.7278 4.54129C61.3914 4.87768 61.156 5.31499 61.055 5.85322H64.8899C64.8226 5.31499 64.6208 4.87768 64.318 4.54129C64.0153 4.2049 63.578 4.0367 63.0734 4.0367C62.5352 4.07034 62.0642 4.2049 61.7278 4.54129Z" fill="white"/>
</svg>
