<svg width="16" height="16" viewBox="0 0 16 16" fill="none" xmlns="http://www.w3.org/2000/svg">
<path d="M6.5 16C6.41931 16 6.33801 15.9807 6.26404 15.9407C6.10132 15.854 6 15.684 6 15.5V9.08667C6 8.85339 5.90198 8.62927 5.72998 8.47205L0.378052 3.56995C0.137329 3.34863 0 3.03528 0 2.70996V1.16663C0 0.523315 0.523315 0 1.16663 0H14.8334C15.4767 0 16 0.523315 16 1.16663V2.70996C16 3.03528 15.8627 3.34863 15.6227 3.56995L10.2714 8.47266C10.098 8.62927 10 8.85339 10 9.08667V13.1427C10 13.5333 9.80603 13.8966 9.48071 14.1133L6.77734 15.9153C6.69397 15.972 6.59729 16 6.5 16ZM1.16663 1C1.07471 1 1 1.07471 1 1.16663V2.70996C1 2.75671 1.02002 2.80139 1.05469 2.83337L6.40466 7.73462C6.78271 8.0813 7 8.57397 7 9.08667V14.5653L8.92603 13.2814C8.97205 13.2506 9 13.1986 9 13.1427V9.08667C9 8.57336 9.21667 8.08069 9.59595 7.73462L14.946 2.83264C14.98 2.80139 15 2.75671 15 2.70996V1.16663C15 1.07471 14.9253 1 14.8334 1H1.16663Z" fill="white"/>
</svg>
