<svg width="16" height="16" viewBox="0 0 16 16" fill="none" xmlns="http://www.w3.org/2000/svg">
<path d="M3.34649 10.5714C4.88612 12.4118 6.73949 13.8609 8.85487 14.8862C9.66026 15.2679 10.7374 15.7207 11.9374 15.7984C12.0117 15.8016 12.0829 15.8048 12.1573 15.8048C12.9627 15.8048 13.6096 15.5267 14.1368 14.9541C14.1401 14.9509 14.1465 14.9444 14.1498 14.938C14.3374 14.7116 14.5508 14.5078 14.774 14.2911C14.926 14.1455 15.0813 13.9935 15.2301 13.8382C15.919 13.1202 15.919 12.208 15.2236 11.5126L13.2797 9.56868C12.9498 9.22582 12.5551 9.04469 12.1411 9.04469C11.7271 9.04469 11.3293 9.22583 10.9896 9.56545L9.83169 10.7234C9.72495 10.6619 9.61497 10.607 9.51147 10.5552C9.38209 10.4905 9.26241 10.4291 9.15567 10.3611C8.10122 9.6916 7.14381 8.81828 6.22844 7.6959C5.76591 7.11045 5.45539 6.61881 5.23868 6.11746C5.54272 5.84253 5.82736 5.55465 6.10229 5.27325C6.19933 5.17298 6.2996 5.07271 6.39987 4.97244C6.7492 4.62312 6.9368 4.2188 6.9368 3.80802C6.9368 3.39724 6.75243 2.99292 6.39987 2.64359L5.43599 1.67971C5.32278 1.5665 5.21604 1.45653 5.10607 1.34332C4.89259 1.12337 4.66941 0.896957 4.44946 0.693183C4.1163 0.366497 3.72493 0.195068 3.31091 0.195068C2.90013 0.195068 2.50552 0.366497 2.15943 0.696418L0.949718 1.90613C0.509824 2.34602 0.260767 2.87971 0.209014 3.4975C0.147559 4.27055 0.289877 5.09212 0.658612 6.08511C1.22465 7.62151 2.07856 9.04793 3.34649 10.5714ZM0.998235 3.56543C1.03705 3.13524 1.20201 2.77621 1.51252 2.4657L2.71576 1.26246C2.90336 1.08132 3.11037 0.987524 3.31091 0.987524C3.50822 0.987524 3.70876 1.08132 3.89312 1.26893C4.10984 1.46947 4.31361 1.67971 4.53356 1.90289C4.64353 2.0161 4.75674 2.12931 4.86995 2.24575L5.83383 3.20963C6.03437 3.41017 6.13788 3.61395 6.13788 3.81449C6.13788 4.01503 6.03437 4.2188 5.83383 4.41934C5.73356 4.51961 5.63329 4.62312 5.53302 4.72338C5.23221 5.02743 4.95081 5.3153 4.6403 5.59023C4.63383 5.5967 4.63059 5.59994 4.62412 5.60641C4.35566 5.87487 4.39771 6.1304 4.4624 6.32447C4.46563 6.33417 4.46887 6.34064 4.4721 6.35034C4.72116 6.94873 5.06725 7.518 5.60741 8.19725C6.57777 9.39402 7.59987 10.3223 8.72548 11.0372C8.86457 11.1277 9.01336 11.1989 9.15244 11.27C9.28182 11.3347 9.4015 11.3962 9.50823 11.4641C9.52117 11.4706 9.53088 11.477 9.54381 11.4835C9.65055 11.5385 9.75406 11.5644 9.85756 11.5644C10.1163 11.5644 10.2845 11.3994 10.3395 11.3444L11.5492 10.1347C11.7368 9.94712 11.9406 9.84685 12.1411 9.84685C12.387 9.84685 12.5875 9.99887 12.7136 10.1347L14.664 12.0819C15.0522 12.47 15.049 12.8905 14.6543 13.3013C14.5185 13.4469 14.3762 13.5859 14.2242 13.7315C13.9977 13.9514 13.7616 14.1779 13.5481 14.4334C13.1762 14.8345 12.733 15.0221 12.1605 15.0221C12.1055 15.0221 12.0473 15.0188 11.9923 15.0156C10.9314 14.9477 9.94489 14.5337 9.20419 14.1811C7.19233 13.2075 5.42628 11.8264 3.96105 10.0733C2.75458 8.62097 1.94271 7.26895 1.40578 5.81988C1.07263 4.93039 0.946483 4.21557 0.998235 3.56543Z" fill="white"/>
<path fill-rule="evenodd" clip-rule="evenodd" d="M3.19645 10.6963C1.91722 9.15922 1.05069 7.71386 0.475552 6.15289C0.100362 5.14245 -0.0499213 4.29169 0.0144395 3.4821C0.0700739 2.81796 0.339446 2.24044 0.811679 1.76821L2.02469 0.555198C2.40082 0.19664 2.84192 0 3.31084 0C3.78182 0 4.21987 0.195753 4.58399 0.551946C4.80732 0.758973 5.03282 0.987822 5.24596 1.20742C5.24598 1.20744 5.24594 1.2074 5.24596 1.20742L5.25452 1.21623C5.36161 1.32648 5.46476 1.43266 5.57389 1.54179L6.53714 2.50504C6.53725 2.50515 6.53703 2.50493 6.53714 2.50504C6.91896 2.8835 7.13185 3.33567 7.13185 3.80807C7.13185 4.28131 6.91535 4.73289 6.53778 5.11047C6.4373 5.21094 6.33818 5.31007 6.24244 5.409C5.99873 5.65844 5.744 5.91649 5.4744 6.16621C5.67905 6.60475 5.96493 7.04763 6.38054 7.5738C7.28458 8.68208 8.22647 9.54008 9.2602 10.1965C9.35747 10.2584 9.46904 10.3159 9.59866 10.3807L9.60084 10.3818C9.66293 10.4129 9.72949 10.4462 9.79722 10.4819L10.8516 9.42753C11.2211 9.05807 11.6665 8.84962 12.1411 8.84962C12.6154 8.84962 13.0582 9.0579 13.4189 9.43206L15.3615 11.3747C15.7402 11.7534 15.9401 12.2029 15.941 12.6666C15.942 13.1298 15.7443 13.5841 15.3708 13.9734C15.2195 14.1313 15.0622 14.2853 14.9094 14.4316C14.8948 14.4458 14.8802 14.4599 14.8658 14.4739C14.6605 14.673 14.4733 14.8546 14.3076 15.0533C14.301 15.0628 14.2951 15.0699 14.2914 15.0743C14.286 15.0805 14.281 15.0858 14.2778 15.0891C13.7127 15.7014 13.0138 16 12.1572 16C12.0815 16 12.0092 15.9968 11.939 15.9938L11.9247 15.9932C10.6861 15.913 9.5812 15.4464 8.77124 15.0626L8.76969 15.0619C6.62912 14.0243 4.75353 12.5576 3.19645 10.6963ZM14.1368 14.9542C14.14 14.951 14.1465 14.9445 14.1497 14.938C14.3244 14.7272 14.5215 14.536 14.728 14.3357C14.7433 14.3209 14.7586 14.306 14.774 14.2911C14.926 14.1456 15.0812 13.9935 15.23 13.8383C15.919 13.1202 15.919 12.2081 15.2236 11.5127L13.2796 9.56874C12.9497 9.22588 12.5551 9.04475 12.1411 9.04475C11.727 9.04475 11.3292 9.22588 10.9896 9.5655L9.83162 10.7235C9.72488 10.662 9.61491 10.607 9.5114 10.5553C9.38202 10.4906 9.26235 10.4291 9.15561 10.3612C8.10116 9.69165 7.14374 8.81833 6.22837 7.69595C5.76584 7.11051 5.45533 6.61886 5.23861 6.11751C5.54266 5.84258 5.82729 5.55471 6.10223 5.27331C6.19925 5.17305 6.2995 5.07279 6.39976 4.97254C6.74909 4.62321 6.93673 4.21885 6.93673 3.80807C6.93673 3.39729 6.75237 2.99297 6.3998 2.64365L5.43592 1.67976C5.32576 1.5696 5.22172 1.4625 5.11487 1.35251L5.106 1.34337C4.89252 1.12343 4.66934 0.897011 4.44939 0.693237C4.11624 0.366551 3.72486 0.195122 3.31084 0.195122C2.90006 0.195122 2.50545 0.366551 2.15936 0.696471L0.949651 1.90618C0.509757 2.34607 0.2607 2.87977 0.208948 3.49756C0.147492 4.27061 0.289811 5.09217 0.658545 6.08517C1.22458 7.62156 2.0785 9.04798 3.34642 10.5714C4.88605 12.4119 6.73943 13.8609 8.8548 14.8863C9.66019 15.2679 10.7373 15.7208 11.9373 15.7984L11.9463 15.7988C12.0174 15.8019 12.0858 15.8049 12.1572 15.8049C12.9626 15.8049 13.6095 15.5267 14.1368 14.9542ZM3.89306 1.26898C3.70869 1.08138 3.50815 0.987577 3.31084 0.987577C3.11031 0.987577 2.9033 1.08138 2.71569 1.26251L1.51246 2.46575C1.20194 2.77626 1.03698 3.13529 0.998169 3.56548C0.946416 4.21562 1.07256 4.93045 1.40572 5.81994C1.94265 7.269 2.75451 8.62103 3.96098 10.0733C5.42622 11.8264 7.19226 13.2076 9.20412 14.1812C9.94483 14.5337 10.9314 14.9477 11.9923 15.0157C12.0473 15.0189 12.1055 15.0221 12.1605 15.0221C12.733 15.0221 13.1761 14.8345 13.5481 14.4334C13.7499 14.1919 13.972 13.9763 14.1869 13.7676C14.1993 13.7556 14.2117 13.7436 14.2241 13.7316C14.3761 13.586 14.5184 13.4469 14.6543 13.3014C15.0489 12.8906 15.0521 12.4701 14.664 12.082L12.7136 10.1348C12.5874 9.99893 12.3869 9.8469 12.1411 9.8469C11.9405 9.8469 11.7367 9.94718 11.5491 10.1348L10.3394 11.3445C10.2845 11.3995 10.1163 11.5644 9.8575 11.5644C9.75399 11.5644 9.65049 11.5386 9.54375 11.4836C9.53728 11.4803 9.53162 11.4771 9.52596 11.4739C9.5203 11.4706 9.51464 11.4674 9.50817 11.4642C9.40143 11.3962 9.28175 11.3348 9.15237 11.2701C9.12902 11.2581 9.10539 11.2462 9.08158 11.2341C8.96359 11.1745 8.84115 11.1126 8.72542 11.0372C7.59981 10.3224 6.5777 9.39407 5.60735 8.1973C5.06718 7.51806 4.72109 6.94878 4.47203 6.3504C4.47042 6.34555 4.4688 6.3415 4.46718 6.33746C4.46557 6.33342 4.46395 6.32937 4.46233 6.32452C4.39764 6.13045 4.35559 5.87492 4.62406 5.60646L4.64023 5.59029C4.92731 5.33611 5.1895 5.07087 5.46515 4.79201C5.48766 4.76924 5.51025 4.74639 5.53295 4.72344C5.58309 4.6733 5.63323 4.62235 5.68337 4.57141C5.7335 4.52047 5.78363 4.46953 5.83376 4.41939C6.0343 4.21885 6.13781 4.01508 6.13781 3.81454C6.13781 3.614 6.0343 3.41023 5.83376 3.20969L4.86988 2.2458C4.81368 2.188 4.75748 2.13099 4.70168 2.07438C4.64507 2.01696 4.58887 1.95995 4.53349 1.90294C4.50424 1.87326 4.47528 1.84381 4.44653 1.81458C4.25912 1.62402 4.08095 1.44285 3.89306 1.26898ZM14.526 12.2199C14.526 12.2199 14.526 12.22 14.526 12.2199L12.5705 10.2676C12.4583 10.1468 12.3062 10.042 12.1411 10.042C12.0082 10.042 11.8512 10.1087 11.6871 10.2727L10.4774 11.4825C10.4183 11.5416 10.2003 11.7596 9.8575 11.7596C9.71962 11.7596 9.58569 11.7247 9.45439 11.657L9.54375 11.4836L9.45649 11.6581C9.4445 11.6521 9.4344 11.6463 9.42915 11.6433L9.42091 11.6387L9.4119 11.6342L9.40341 11.6288C9.30614 11.5669 9.19473 11.5094 9.06511 11.4446L9.06349 11.4438C9.04178 11.4327 9.01928 11.4213 8.99617 11.4096C8.87849 11.3502 8.74515 11.2828 8.6199 11.2013C7.47453 10.4738 6.43732 9.53075 5.45579 8.32019L5.45462 8.31876C4.90614 7.62905 4.5495 7.04429 4.29189 6.42538L4.28917 6.41883L4.28722 6.41297C4.28746 6.41369 4.2874 6.41341 4.28722 6.41297C4.28709 6.41264 4.28675 6.41175 4.28602 6.40993C4.28437 6.40582 4.28069 6.39662 4.27722 6.38622C4.24127 6.27838 4.20444 6.13353 4.2246 5.96958C4.24536 5.80065 4.32407 5.6305 4.48608 5.46849L4.48679 5.46778L4.48751 5.46706L4.4882 5.46637L4.4889 5.46567L4.48962 5.46496L4.49031 5.46427L4.49101 5.46356L4.49172 5.46285L4.49243 5.46215L4.49312 5.46146L4.49383 5.46074L4.49454 5.46003L4.49525 5.45932L4.49594 5.45863L4.49665 5.45793L4.49736 5.45721L4.49806 5.45651L4.49876 5.45582L4.49947 5.4551L4.50017 5.4544L4.50087 5.45371L4.50159 5.45299L4.51064 5.44393C4.79264 5.19425 5.05066 4.93375 5.32726 4.65395C5.34946 4.63149 5.37178 4.60891 5.39425 4.58621L5.39498 4.58546C5.44447 4.53598 5.49406 4.48559 5.54429 4.43455C5.59428 4.38375 5.64506 4.33215 5.69579 4.28142C5.87581 4.1014 5.94269 3.94434 5.94269 3.81454C5.94269 3.68474 5.87581 3.52768 5.69579 3.34766L4.72996 2.38183C4.67424 2.32452 4.61846 2.2679 4.56251 2.21115L4.56152 2.21014C4.50557 2.15339 4.44945 2.09646 4.39405 2.03943C4.36471 2.00966 4.33576 1.98023 4.30711 1.9511C4.11944 1.76028 3.94479 1.5827 3.76053 1.41219L3.75373 1.4059C3.59559 1.24499 3.44257 1.1827 3.31084 1.1827C3.17361 1.1827 3.01326 1.24688 2.85241 1.40174L1.65043 2.60372C1.37284 2.88131 1.22751 3.19725 1.19259 3.582C1.14407 4.19407 1.26161 4.87887 1.58844 5.7515C2.11621 7.17584 2.91563 8.50959 4.11091 9.94845C5.5585 11.6804 7.30231 13.0439 9.2885 14.0052C10.0249 14.3557 10.9829 14.7554 12.0044 14.8209C12.0596 14.8242 12.1122 14.827 12.1605 14.827C12.68 14.827 13.0694 14.661 13.4017 14.3043C13.6094 14.0563 13.8369 13.8354 14.0493 13.6293C14.0623 13.6167 14.0753 13.6041 14.0881 13.5916L14.0891 13.5906C14.2405 13.4457 14.3796 13.3096 14.5116 13.1682L14.5135 13.1662C14.6893 12.9832 14.7564 12.8207 14.7575 12.6816C14.7586 12.5442 14.6954 12.3894 14.526 12.2199Z" fill="white"/>
</svg>
