<svg width="16" height="16" viewBox="0 0 16 16" fill="none" xmlns="http://www.w3.org/2000/svg">
<path d="M14.7692 1H1.23078C0.540718 1 0 1.54072 0 2.23078V13.0205C0 13.7106 0.540718 14.2513 1.23078 14.2513H14.7692C15.4593 14.2513 16 13.7106 16 13.0205V2.23078C16 1.54072 15.4593 1 14.7692 1ZM14.7692 13.0205H1.23078L1.22134 2.23159C1.22134 2.23159 1.22422 2.23078 1.23078 2.23078H14.7692V13.0205H14.7692Z" fill="#29C1D5"/>
<path d="M6.11475 4.91499C5.90715 4.66411 5.53956 4.61899 5.27659 4.8118L0.250977 8.50411L0.979788 9.4961L5.53772 6.14739L12.0187 13.9671L12.966 13.1816L6.11475 4.91499Z" fill="#29C1D5"/>
<path d="M12.033 5.46108C11.8087 5.28365 11.492 5.28427 11.268 5.46212L8.35522 7.78005L9.12157 8.74311L11.6524 6.72918L15.0028 9.38005L15.7663 8.41492L12.033 5.46108Z" fill="#29C1D5"/>
</svg>
