<svg width="16" height="16" viewBox="0 0 16 16" fill="none" xmlns="http://www.w3.org/2000/svg">
<path d="M7.99481 15.9991C7.94214 15.9991 7.88881 15.9864 7.84081 15.9611L0.179814 11.9612C0.0698186 11.9039 0.000488281 11.7899 0.000488281 11.6659V4.16624C0.000488281 4.05091 0.0604857 3.94358 0.158481 3.88292C0.256477 3.82225 0.379805 3.81692 0.482467 3.86825L8.14347 7.70142C8.25613 7.75808 8.32746 7.87341 8.32746 7.99941V15.6657C8.32746 15.7824 8.2668 15.8904 8.1668 15.9511C8.1148 15.9831 8.0548 15.9991 7.99481 15.9991ZM0.667126 11.4639L7.66149 15.1158V8.2054L0.667126 4.70555V11.4639Z" fill="#29C1D5"/>
<path d="M8.00568 15.9989C7.94568 15.9989 7.88569 15.9829 7.83302 15.9509C7.73369 15.8903 7.67236 15.7823 7.67236 15.6656V7.99929C7.67236 7.8733 7.74369 7.75797 7.85636 7.7013L15.5174 3.86814C15.6194 3.81614 15.7433 3.82147 15.8413 3.8828C15.94 3.94347 16 4.0508 16 4.16612V11.6658C16 11.7898 15.9307 11.9038 15.8207 11.9611L8.15968 15.9609C8.11168 15.9863 8.05835 15.9989 8.00568 15.9989ZM8.339 8.20528V15.1156L15.3334 11.4638V4.70543L8.339 8.20528ZM15.6667 11.6658H15.6733H15.6667Z" fill="#29C1D5"/>
<path d="M0.334012 4.49947C0.21135 4.49947 0.0940221 4.43214 0.035358 4.31548C-0.0473051 4.15082 0.0200253 3.95083 0.184685 3.86817L7.85635 0.0349985C7.95035 -0.0116662 8.06101 -0.0116662 8.15434 0.0349985L15.8153 3.86817C15.98 3.95083 16.0467 4.15082 15.9647 4.31548C15.882 4.48014 15.6827 4.54614 15.5174 4.46481L8.00568 0.705636L0.483339 4.46414C0.435341 4.48814 0.384676 4.49947 0.334012 4.49947Z" fill="#29C1D5"/>
<path d="M11.9945 10.1664C11.8105 10.1664 11.6612 10.0171 11.6612 9.8331V6.37258L4.18415 2.63141C4.0195 2.54942 3.95283 2.34876 4.03549 2.1841C4.11816 2.01944 4.31815 1.95344 4.48281 2.03477L12.1438 5.86794C12.2565 5.92527 12.3278 6.0406 12.3278 6.16659V9.8331C12.3278 10.0171 12.1785 10.1664 11.9945 10.1664Z" fill="#29C1D5"/>
</svg>
