<svg width="16" height="16" viewBox="0 0 16 16" fill="none" xmlns="http://www.w3.org/2000/svg">
<path fill-rule="evenodd" clip-rule="evenodd" d="M0.839738 3.45801C1.54908 2.54795 2.66917 2 4.09787 2C5.91555 2 7.24947 2.91149 7.9672 3.66237C8.61895 2.88915 9.90814 2 11.905 2C13.2819 2 14.3973 2.55156 15.1171 3.45384C15.8322 4.35023 16.1277 5.5553 15.9493 6.81953C15.831 7.65736 15.4163 8.48491 14.8601 9.2644C14.3012 10.0475 13.5789 10.8109 12.8059 11.5233C11.2609 12.9471 9.46918 14.2068 8.27162 15.0465C8.11429 15.1568 7.9057 15.1604 7.74467 15.0555C6.38579 14.1708 4.5693 12.9176 3.04743 11.5035C1.55114 10.1131 0.238571 8.47678 0.0526235 6.81239C-0.122278 5.56045 0.138479 4.3577 0.839738 3.45801Z" fill="#CB3131"/>
</svg>
