<svg width="24" height="24" viewBox="0 0 24 24" fill="none" xmlns="http://www.w3.org/2000/svg">
<path d="M12.3569 12.8538L16.8524 8.35687C17.0492 8.15955 17.0492 7.83985 16.8524 7.64203C16.6556 7.4447 16.3359 7.4447 16.139 7.64203L12.0002 11.7823L7.86147 7.64253C7.66464 7.4452 7.34494 7.4452 7.14762 7.64253C6.95079 7.83985 6.95079 8.16005 7.14762 8.35737L11.6431 12.8543C11.8378 13.0486 12.1626 13.0486 12.3569 12.8538Z" fill="#29C1D5"/>
<path d="M12.3569 16.8538L16.8524 12.3569C17.0492 12.1595 17.0492 11.8398 16.8524 11.642C16.6556 11.4447 16.3359 11.4447 16.139 11.642L12.0002 15.7823L7.86147 11.6425C7.66464 11.4452 7.34494 11.4452 7.14762 11.6425C6.95079 11.8398 6.95079 12.16 7.14762 12.3574L11.6431 16.8543C11.8378 17.0486 12.1626 17.0486 12.3569 16.8538Z" fill="#29C1D5"/>
</svg>
