<svg width="22" height="22" viewBox="0 0 22 22" fill="none" xmlns="http://www.w3.org/2000/svg">
<path d="M10.5679 0.741794C10.7608 0.41066 11.2392 0.410661 11.4321 0.741794L14.7685 6.4701C14.8391 6.5914 14.9575 6.67741 15.0947 6.70712L21.5737 8.11011C21.9482 8.19122 22.096 8.64618 21.8407 8.93193L17.4238 13.8752C17.3302 13.9799 17.285 14.1191 17.2992 14.2587L17.9669 20.8541C18.0056 21.2354 17.6185 21.5166 17.2679 21.362L11.2016 18.6889C11.0732 18.6322 10.9268 18.6322 10.7984 18.6889L4.73213 21.362C4.38146 21.5166 3.99445 21.2354 4.03305 20.8541L4.70083 14.2587C4.71497 14.1191 4.66975 13.9799 4.57622 13.8752L0.159297 8.93193C-0.0960298 8.64618 0.0517968 8.19122 0.426323 8.11011L6.90527 6.70712C7.04247 6.67741 7.16086 6.5914 7.23151 6.4701L10.5679 0.741794Z" fill="#FFD426"/>
</svg>
