<svg width="124" height="24" viewBox="0 0 124 24" fill="none" xmlns="http://www.w3.org/2000/svg">
<path d="M30.9678 22.4294H29.039V19.7015H23.0872V22.4294H21.1584V17.938H22.0126C22.3249 17.2032 22.5729 16.3949 22.7566 15.5132C22.9403 14.6131 23.0781 13.6947 23.1699 12.7578C23.2801 11.8026 23.3444 10.8381 23.3628 9.86455C23.3995 8.87261 23.4179 7.91733 23.4179 6.99888V5.81404H29.8656V17.938H30.9678V22.4294ZM40.3088 18.7646C39.8679 19.1137 39.3627 19.3892 38.7933 19.5913C38.2239 19.7933 37.5901 19.8944 36.8921 19.8944C35.4592 19.8944 34.3295 19.3433 33.5028 18.2411C32.6762 17.1206 32.2629 15.4857 32.2629 13.3365C32.2629 12.2159 32.3364 11.1872 32.4833 10.2503C32.6487 9.31345 32.8966 8.50518 33.2273 7.82553C33.5763 7.12747 34.0172 6.58556 34.5499 6.1998C35.0826 5.81404 35.7164 5.62115 36.4512 5.62115C37.0206 5.62115 37.5441 5.74056 38.0218 5.97936C38.4994 6.1998 38.9035 6.5672 39.2342 7.08155C39.5649 7.59588 39.822 8.26638 40.0057 9.09303C40.1894 9.9013 40.2813 10.8933 40.2813 12.0689V13.2537H34.4948C34.4948 14.8335 34.7061 16.0276 35.1285 16.8359C35.5695 17.6441 36.2216 18.0482 37.0849 18.0482C37.6911 18.0482 38.2239 17.9472 38.6831 17.7452C39.1607 17.5247 39.5373 17.3135 39.8128 17.1114L40.3088 18.7646ZM19.9185 5.81404V19.7015H17.7968V13.4742H14.6004V19.7015H12.4512V5.81404H14.6004V11.7107H17.7968V5.81404H19.9185ZM44.6348 12.7854V19.7015H42.4856V5.81404H44.6348V12.2343L47.969 5.81404H50.1458L46.7015 12.3444L50.6417 19.7015H48.2996L44.6348 12.7854ZM55.6842 19.8944C54.1963 19.8944 53.0298 19.3066 52.1848 18.1309C51.3398 16.9369 50.9173 15.1458 50.9173 12.7578C50.9173 11.6739 51.0183 10.6912 51.2204 9.80943C51.4408 8.92773 51.7531 8.18373 52.1573 7.57751C52.5797 6.95296 53.0941 6.47534 53.7003 6.14469C54.3248 5.79567 55.0413 5.62115 55.8495 5.62115C56.4741 5.62115 56.9793 5.69463 57.365 5.84159C57.7508 5.97018 58.0998 6.1355 58.4121 6.33758L58.109 8.37663C57.8151 8.11946 57.4661 7.89903 57.062 7.71528C56.6762 7.51323 56.2628 7.4122 55.822 7.4122C55.0505 7.4122 54.4167 7.84391 53.9207 8.70723C53.4248 9.57063 53.1767 10.8841 53.1767 12.6476C53.1767 14.3927 53.3788 15.7428 53.783 16.6981C54.2054 17.6349 54.8576 18.1034 55.7393 18.1034C56.2721 18.1034 56.7313 18.0207 57.1171 17.8553C57.5028 17.6717 57.8243 17.4696 58.0814 17.2492L58.5774 18.8473C58.2101 19.1596 57.7967 19.4168 57.3375 19.6188C56.8782 19.8026 56.3272 19.8944 55.6842 19.8944ZM27.744 7.54998H25.3467V7.79793C25.3467 8.53278 25.3284 9.34098 25.2916 10.2228C25.2732 11.0862 25.2181 11.9679 25.1262 12.868C25.0344 13.7681 24.9058 14.659 24.7405 15.5408C24.5751 16.4042 24.3456 17.2032 24.0516 17.938H27.744V7.54998ZM36.4512 7.38464C35.7899 7.38464 35.3214 7.76126 35.0459 8.51441C34.7703 9.24918 34.5958 10.2411 34.5224 11.4903H38.0769C38.0769 10.9024 38.0493 10.3605 37.9942 9.86455C37.9391 9.3502 37.8473 8.90935 37.7187 8.54193C37.6085 8.17451 37.4431 7.88981 37.2227 7.68776C37.0206 7.48568 36.7635 7.38464 36.4512 7.38464Z" fill="black"/>
<path d="M67.0705 5.78645C66.9235 5.2721 66.795 4.79448 66.6847 4.35361C66.5929 3.89437 66.501 3.43513 66.4092 2.97589H66.3265C66.3816 3.91274 66.4092 4.88634 66.4092 5.89667V19.7015H65.1968V0H66.7949L70.1291 12.5924C70.2025 12.8496 70.276 13.2078 70.3495 13.667C70.4413 14.1079 70.5057 14.512 70.5424 14.8795H70.625C70.6801 14.512 70.7536 14.1079 70.8455 13.667C70.9373 13.2078 71.02 12.8496 71.0934 12.5924L74.4551 0H75.9982V19.7015H74.6756V5.89667C74.6756 5.41905 74.6847 4.94145 74.7031 4.46383C74.7215 3.96785 74.749 3.47187 74.7857 2.97589H74.6756C74.5469 3.52698 74.4275 4.01377 74.3173 4.43628C74.2255 4.85878 74.1245 5.28129 74.0142 5.70378L71.0659 16.6705H69.9913L67.0705 5.78645Z" fill="black"/>
<path d="M81.8362 18.93C82.4789 18.93 83.0204 18.6636 83.4614 18.1309C83.9204 17.5981 84.2789 16.9552 84.5362 16.2021V12.372H83.0482C81.8909 12.372 81.0367 12.6475 80.4854 13.1986C79.9349 13.7497 79.6589 14.6314 79.6589 15.8438C79.6589 16.8358 79.8517 17.5981 80.2379 18.1309C80.6414 18.6636 81.1747 18.93 81.8362 18.93ZM84.9217 19.7015C84.8669 19.5178 84.8024 19.2882 84.7289 19.0126C84.6742 18.7187 84.6277 18.3238 84.5909 17.8278C84.2609 18.4891 83.8469 19.0126 83.3512 19.3984C82.8554 19.7842 82.2584 19.977 81.5602 19.977C80.6234 19.977 79.8614 19.628 79.2734 18.93C78.6854 18.2135 78.3914 17.2216 78.3914 15.9541C78.3914 14.4661 78.7867 13.3456 79.5764 12.5924C80.3662 11.8209 81.5144 11.4351 83.0204 11.4351H84.5362V9.69921C84.5362 8.63376 84.3434 7.86224 83.9572 7.3846C83.5717 6.90699 82.9934 6.66818 82.2217 6.66818C81.6337 6.66818 81.0824 6.80596 80.5687 7.0815C80.0542 7.33868 79.6312 7.70609 79.3012 8.18369L78.9427 6.94373C79.2179 6.57634 79.6312 6.25487 80.1824 5.97932C80.7517 5.68541 81.4319 5.53845 82.2217 5.53845C83.3789 5.53845 84.2609 5.8691 84.8669 6.53041C85.4917 7.17335 85.8037 8.18369 85.8037 9.56143V17.1389C85.8037 17.6165 85.8314 18.1033 85.8862 18.5993C85.9417 19.0769 86.0152 19.4443 86.1067 19.7015H84.9217Z" fill="black"/>
<path d="M92.6257 18.93C93.5077 18.93 94.2149 18.4064 94.7474 17.3593C95.2799 16.2939 95.5469 14.659 95.5469 12.4546C95.5469 10.6177 95.3167 9.19401 94.8577 8.18369C94.3987 7.17335 93.7649 6.66818 92.9564 6.66818C92.6444 6.66818 92.3414 6.75085 92.0474 6.91617C91.7714 7.06313 91.5052 7.2652 91.2479 7.52241C91.0094 7.77959 90.7889 8.08266 90.5864 8.43163C90.3847 8.76231 90.2099 9.11136 90.0629 9.47871V17.2492C90.3389 17.8186 90.6787 18.2411 91.0829 18.5167C91.4872 18.7922 92.0009 18.93 92.6257 18.93ZM92.5432 19.9495C92.0107 19.9495 91.5239 19.8393 91.0829 19.6188C90.6599 19.38 90.3202 19.0861 90.0629 18.7371V24H88.7684V5.81399H89.8979L90.0082 8.10104C90.3202 7.43971 90.7334 6.85188 91.2479 6.33753C91.7624 5.80481 92.4052 5.53845 93.1769 5.53845C93.7462 5.53845 94.2607 5.70377 94.7197 6.03443C95.1794 6.36509 95.5649 6.83351 95.8769 7.43971C96.1897 8.02754 96.4282 8.74393 96.5939 9.58896C96.7589 10.4156 96.8414 11.3341 96.8414 12.3444C96.8414 14.8978 96.4469 16.8082 95.6564 18.0757C94.8667 19.3249 93.8287 19.9495 92.5432 19.9495Z" fill="black"/>
<path d="M100.612 19.7015H99.3164V5.81396H100.612V12.3444L105.268 5.81396H106.536L101.962 12.2617L106.867 19.7015H105.433L100.612 12.5097V19.7015Z" fill="black"/>
<path d="M108.721 12.9781C108.757 14.8886 109.024 16.349 109.519 17.3593C110.015 18.3513 110.769 18.8473 111.779 18.8473C112.238 18.8473 112.642 18.7738 112.991 18.6268C113.341 18.4799 113.635 18.3054 113.873 18.1033C114.148 17.9012 114.388 17.6533 114.589 17.3593L115.003 18.4064C114.782 18.7187 114.516 18.985 114.204 19.2055C113.928 19.4076 113.588 19.5821 113.184 19.729C112.78 19.8943 112.303 19.977 111.751 19.977C110.282 19.977 109.198 19.3432 108.5 18.0757C107.802 16.8082 107.453 15.0356 107.453 12.7577C107.453 11.6188 107.554 10.6085 107.756 9.72673C107.958 8.82658 108.234 8.06429 108.583 7.43971C108.95 6.81514 109.381 6.34671 109.878 6.03443C110.374 5.70377 110.916 5.53845 111.503 5.53845C112.11 5.53845 112.651 5.69459 113.129 6.00688C113.607 6.31916 114.001 6.78758 114.314 7.41215C114.626 8.03676 114.847 8.81743 114.976 9.75426C115.104 10.6728 115.113 11.7474 115.003 12.9781H108.721ZM111.503 6.61307C110.769 6.61307 110.135 7.07231 109.602 7.99079C109.088 8.89093 108.803 10.2136 108.748 11.9587H113.791C113.901 10.1033 113.717 8.75316 113.239 7.90814C112.78 7.04476 112.201 6.61307 111.503 6.61307Z" fill="black"/>
<path d="M120.711 6.88859V19.7015H119.416V6.88859H116.192V5.81396H123.907V6.88859H120.711Z" fill="black"/>
<path d="M5.814 12.1516L2.45235 19.7015H0L3.69231 11.628C2.82893 11.1871 2.13088 10.5442 1.59816 9.69922C1.06544 8.83582 0.799079 7.66934 0.799079 6.19977C0.799079 5.17107 0.946042 4.27095 1.23995 3.49942C1.55224 2.70953 1.96555 2.05741 2.4799 1.54306C3.01263 1.0287 3.62801 0.642939 4.32606 0.385764C5.0241 0.128588 5.75889 0 6.53042 0H9.69922V19.7015H7.57747V12.1516H5.814ZM7.57747 1.79104H6.44775C6.02526 1.79104 5.61194 1.87371 5.2078 2.03903C4.80367 2.18599 4.44546 2.43398 4.13318 2.78301C3.82089 3.11366 3.56372 3.56372 3.36165 4.13318C3.17795 4.68427 3.08611 5.37313 3.08611 6.19977C3.08611 6.98967 3.16877 7.65097 3.33409 8.18369C3.51779 8.71642 3.7566 9.14812 4.05051 9.47872C4.3628 9.80939 4.72101 10.0482 5.12514 10.1952C5.54764 10.3237 5.98851 10.388 6.44775 10.388H7.57747V1.79104Z" fill="#FF0000"/>
</svg>
