<svg width="32" height="32" viewBox="0 0 32 32" fill="none" xmlns="http://www.w3.org/2000/svg">
<path d="M31.9949 14.0711C31.9676 13.8119 31.8344 13.5756 31.6267 13.4183L29.0918 11.4982L30.0141 8.45511C30.0897 8.20574 30.0587 7.93624 29.9284 7.71061C29.7981 7.48499 29.5802 7.32336 29.3265 7.26411L26.2298 6.54105L25.8345 3.38592C25.802 3.12742 25.6641 2.8938 25.4533 2.74067C25.2426 2.58749 24.9779 2.52855 24.722 2.57755L21.599 3.17655L19.9543 0.454985C19.8196 0.232048 19.5985 0.074735 19.3437 0.02061C19.0888 -0.0335775 18.8229 0.0201725 18.6092 0.169048L16 1.98655L13.3907 0.169048C13.1768 0.0201725 12.911 -0.0335775 12.6561 0.02061C12.4012 0.0747975 12.1802 0.231985 12.0455 0.455048L10.401 3.17667L7.27803 2.57767C7.02222 2.52874 6.7574 2.58761 6.54659 2.7408C6.33584 2.89399 6.19784 3.12749 6.16547 3.38605L5.77015 6.54117L2.6734 7.26424C2.41965 7.32349 2.20184 7.48511 2.07153 7.71074C1.94121 7.93643 1.91021 8.20586 1.98578 8.45518L2.9079 11.4984L0.373339 13.4184C0.165651 13.5757 0.0324009 13.8119 0.00515092 14.0711C-0.0220366 14.3302 0.0592134 14.589 0.229651 14.7861L2.30971 17.1911L0.775089 19.9761C0.649401 20.2043 0.623714 20.4744 0.704214 20.7222C0.784714 20.9699 0.964214 21.1733 1.20009 21.284L4.07859 22.635L3.80928 25.8035C3.78721 26.0631 3.87359 26.3203 4.04796 26.5139C4.22228 26.7076 4.46903 26.8203 4.72947 26.8256L7.90884 26.8889L8.9514 29.8929C9.03684 30.1391 9.22034 30.3389 9.45834 30.4449C9.6964 30.5508 9.96766 30.5535 10.2077 30.4524L13.138 29.2172L15.3125 31.5374C15.4906 31.7276 15.7395 31.8354 16.0001 31.8354C16.2607 31.8354 16.5095 31.7276 16.6877 31.5374L18.8622 29.2172L21.7923 30.4524C22.0323 30.5534 22.3036 30.5508 22.5417 30.4449C22.7797 30.3389 22.9632 30.1392 23.0486 29.893L24.0913 26.8889L27.2705 26.8256C27.5311 26.8204 27.7778 26.7076 27.9521 26.5139C28.1264 26.3203 28.2128 26.0632 28.1908 25.8035L27.9215 22.635L30.8002 21.284C31.036 21.1733 31.2155 20.9699 31.296 20.7221C31.3765 20.4744 31.3509 20.2043 31.2251 19.9761L29.6903 17.1911L31.7705 14.7861C31.9408 14.589 32.022 14.3302 31.9949 14.0711ZM27.7226 17.5259L29.0888 20.0051L26.5263 21.2077C26.1692 21.3754 25.9543 21.7477 25.9877 22.1407L26.2275 24.9612L23.3973 25.0176C23.003 25.0255 22.6552 25.2781 22.5258 25.6507L21.5976 28.325L18.9892 27.2254C18.6257 27.0721 18.2053 27.1615 17.9356 27.4493L16 29.5147L14.0643 27.4492C13.8824 27.2551 13.6318 27.1512 13.3765 27.1512C13.2533 27.1512 13.129 27.1754 13.0107 27.2252L10.4022 28.3249L9.47403 25.6507C9.34466 25.278 8.99697 25.0253 8.60253 25.0175L5.77222 24.9611L6.01197 22.1406C6.0454 21.7476 5.83047 21.3752 5.4734 21.2076L2.91103 20.0049L4.27715 17.5257C4.46753 17.1802 4.42253 16.7527 4.16459 16.4544L2.3129 14.3134L4.56928 12.6042C4.88372 12.3661 5.01653 11.9573 4.90215 11.5797L4.08128 8.87068L6.83797 8.22705C7.22209 8.13736 7.50965 7.81786 7.55878 7.42649L7.91065 4.61786L10.6907 5.15105C11.0781 5.22542 11.4708 5.05049 11.6748 4.71286L13.1387 2.29017L15.4615 3.90805C15.7852 4.13349 16.215 4.13349 16.5387 3.90805L18.8613 2.29017L20.3253 4.71292C20.5293 5.05049 20.9218 5.22542 21.3094 5.15105L24.0895 4.61786L24.4413 7.42649C24.4904 7.81786 24.778 8.13736 25.1622 8.22705L27.9188 8.87068L27.0978 11.5797C26.9834 11.9572 27.1162 12.3661 27.4307 12.6042L29.6872 14.3134L27.8353 16.4544C27.5772 16.7529 27.5322 17.1804 27.7226 17.5259Z" fill="#29C1D5"/>
<path d="M16 6.90027C11.0277 6.90027 6.98259 10.9455 6.98259 15.9176C6.98259 20.8897 11.0278 24.935 16 24.935C20.9721 24.935 25.0173 20.8898 25.0173 15.9176C25.0173 10.9455 20.9722 6.90027 16 6.90027ZM16 23.0503C12.067 23.0503 8.86734 19.8506 8.86734 15.9176C8.86734 11.9847 12.067 8.78502 16 8.78502C19.9329 8.78502 23.1326 11.9847 23.1326 15.9176C23.1326 19.8506 19.9329 23.0503 16 23.0503Z" fill="#29C1D5"/>
<path d="M19.6946 13.2326C19.3265 12.8645 18.7298 12.8645 18.3618 13.2326L14.9907 16.6037L13.6382 15.2513C13.2702 14.8832 12.6735 14.8833 12.3055 15.2513C11.9376 15.6193 11.9376 16.216 12.3056 16.584L14.3244 18.6027C14.5084 18.7867 14.7496 18.8787 14.9907 18.8787C15.2319 18.8787 15.4731 18.7867 15.657 18.6027L19.6945 14.5653C20.0625 14.1973 20.0625 13.6006 19.6946 13.2326Z" fill="#29C1D5"/>
</svg>
