<svg width="13" height="16" viewBox="0 0 13 16" fill="none" xmlns="http://www.w3.org/2000/svg">
<path d="M5.90634 6.19224C5.7161 6.002 5.40683 6.00102 5.21561 6.19127L3.60975 7.7981L2.97951 7.16688C2.78927 6.97663 2.48 6.97663 2.28975 7.16688C2.09951 7.35712 2.09951 7.66639 2.28975 7.85663L3.26536 8.83224C3.36 8.92785 3.48488 8.97566 3.60975 8.97566C3.73463 8.97566 3.85951 8.92785 3.95512 8.83322L5.90634 6.882C6.09658 6.69176 6.09658 6.38249 5.90634 6.19224Z" fill="white"/>
<path d="M5.90634 10.0947C5.7161 9.90447 5.40683 9.90349 5.21561 10.0937L3.60975 11.7006L2.97951 11.0703C2.78927 10.8801 2.48 10.8801 2.28975 11.0703C2.09951 11.2606 2.09951 11.5698 2.28975 11.7601L3.26536 12.7357C3.36 12.8303 3.48488 12.8781 3.60975 12.8781C3.73463 12.8781 3.85951 12.8303 3.95512 12.7357L5.90634 10.7845C6.09658 10.5942 6.09658 10.285 5.90634 10.0947Z" fill="white"/>
<path d="M9.46341 7.02441H7.51219C7.24292 7.02441 7.02439 7.24295 7.02439 7.51222C7.02439 7.78149 7.24292 8.00002 7.51219 8.00002H9.46341C9.73268 8.00002 9.95122 7.78149 9.95122 7.51222C9.95122 7.24295 9.73268 7.02441 9.46341 7.02441Z" fill="white"/>
<path d="M9.46341 10.9269H7.51219C7.24292 10.9269 7.02439 11.1454 7.02439 11.4147C7.02439 11.684 7.24292 11.9025 7.51219 11.9025H9.46341C9.73268 11.9025 9.95122 11.684 9.95122 11.4147C9.95122 11.1454 9.73268 10.9269 9.46341 10.9269Z" fill="white"/>
<path d="M10.9268 2.14641H8.9756V1.6586C8.9756 1.38934 8.75706 1.1708 8.4878 1.1708H7.42926C7.22731 0.602995 6.68487 0.19519 6.04877 0.19519C5.41267 0.19519 4.87024 0.602995 4.66828 1.1708H3.60975C3.34048 1.1708 3.12194 1.38934 3.12194 1.6586V2.14641H1.17072C0.633163 2.14641 0.195114 2.58446 0.195114 3.12202V14.8293C0.195114 15.3669 0.633163 15.8049 1.17072 15.8049H10.9268C11.4644 15.8049 11.9024 15.3669 11.9024 14.8293V3.12202C11.9024 2.58446 11.4644 2.14641 10.9268 2.14641ZM4.09755 2.14641H5.07316C5.34243 2.14641 5.56097 1.92787 5.56097 1.6586C5.56097 1.38934 5.7795 1.1708 6.04877 1.1708C6.31804 1.1708 6.53658 1.38934 6.53658 1.6586C6.53658 1.92787 6.75511 2.14641 7.02438 2.14641H7.99999V3.12202H4.09755V2.14641ZM10.9268 14.8293H1.17072V3.12202H3.12194V3.60982C3.12194 3.87909 3.34048 4.09763 3.60975 4.09763H8.4878C8.75706 4.09763 8.9756 3.87909 8.9756 3.60982V3.12202H10.9268V14.8293Z" fill="white"/>
<path fill-rule="evenodd" clip-rule="evenodd" d="M9.17073 1.95122H10.9268C11.5722 1.95122 12.0976 2.47663 12.0976 3.12195V14.8293C12.0976 15.4746 11.5722 16 10.9268 16H1.17073C0.525408 16 0 15.4746 0 14.8293V3.12195C0 2.47663 0.525408 1.95122 1.17073 1.95122H2.92683V1.65854C2.92683 1.28151 3.23272 0.97561 3.60976 0.97561H4.53689C4.79791 0.401194 5.37677 0 6.04878 0C6.72079 0 7.29965 0.401194 7.56067 0.97561H8.4878C8.86483 0.97561 9.17073 1.28151 9.17073 1.65854V1.95122ZM7.42927 1.17073C7.22732 0.602927 6.68488 0.195122 6.04878 0.195122C5.41268 0.195122 4.87024 0.602927 4.66829 1.17073H3.60976C3.34049 1.17073 3.12195 1.38927 3.12195 1.65854V2.14634H1.17073C0.633171 2.14634 0.195122 2.58439 0.195122 3.12195V14.8293C0.195122 15.3668 0.633171 15.8049 1.17073 15.8049H10.9268C11.4644 15.8049 11.9024 15.3668 11.9024 14.8293V3.12195C11.9024 2.58439 11.4644 2.14634 10.9268 2.14634H8.97561V1.65854C8.97561 1.38927 8.75707 1.17073 8.4878 1.17073H7.42927ZM5.07317 2.34146H4.29268V2.92683H7.80488V2.34146H7.02439C6.64736 2.34146 6.34146 2.03557 6.34146 1.65854C6.34146 1.49703 6.21029 1.36585 6.04878 1.36585C5.88727 1.36585 5.7561 1.49703 5.7561 1.65854C5.7561 2.03557 5.4502 2.34146 5.07317 2.34146ZM1.36585 14.6341V3.31707H2.92683V3.60976C2.92683 3.98679 3.23272 4.29268 3.60976 4.29268H8.4878C8.86483 4.29268 9.17073 3.98679 9.17073 3.60976V3.31707H10.7317V14.6341H1.36585ZM4.09756 2.14634V3.12195H8V2.14634H7.02439C6.75512 2.14634 6.53658 1.9278 6.53658 1.65854C6.53658 1.38927 6.31805 1.17073 6.04878 1.17073C5.77951 1.17073 5.56098 1.38927 5.56098 1.65854C5.56098 1.9278 5.34244 2.14634 5.07317 2.14634H4.09756ZM10.9268 14.8293V3.12195H8.97561V3.60976C8.97561 3.87902 8.75707 4.09756 8.4878 4.09756H3.60976C3.34049 4.09756 3.12195 3.87902 3.12195 3.60976V3.12195H1.17073V14.8293H10.9268Z" fill="white"/>
</svg>
