<svg width="32" height="23" viewBox="0 0 32 23" fill="none" xmlns="http://www.w3.org/2000/svg">
<path d="M24.1681 14.1177C21.9439 14.1177 20.1344 15.9271 20.1344 18.1513C20.1344 20.3755 21.9439 22.1849 24.1681 22.1849C26.3926 22.1849 28.2017 20.3755 28.2017 18.1513C28.2017 15.9271 26.3923 14.1177 24.1681 14.1177ZM24.1681 20.1681C23.0558 20.1681 22.1513 19.2636 22.1513 18.1513C22.1513 17.0391 23.0558 16.1345 24.1681 16.1345C25.2803 16.1345 26.1849 17.0391 26.1849 18.1513C26.1849 19.2636 25.2803 20.1681 24.1681 20.1681Z" fill="#29C1D5"/>
<path d="M10.3866 14.1177C8.16237 14.1177 6.35294 15.9271 6.35294 18.1513C6.35294 20.3755 8.16237 22.1849 10.3866 22.1849C12.6107 22.1849 14.4202 20.3755 14.4202 18.1513C14.4202 15.9271 12.6107 14.1177 10.3866 14.1177ZM10.3866 20.1681C9.27431 20.1681 8.36975 19.2636 8.36975 18.1513C8.36975 17.0391 9.27431 16.1345 10.3866 16.1345C11.4985 16.1345 12.4034 17.0391 12.4034 18.1513C12.4034 19.2636 11.4988 20.1681 10.3866 20.1681Z" fill="#29C1D5"/>
<path d="M26.8844 2.57216C26.7129 2.23166 26.3644 2.01685 25.9832 2.01685H20.6722V4.03366H25.3613L28.1072 9.49516L29.9096 8.58891L26.8844 2.57216Z" fill="#29C1D5"/>
<path d="M21.1429 17.1765H13.5126V19.1933H21.1429V17.1765Z" fill="#29C1D5"/>
<path d="M7.36132 17.1765H3.86557C3.30857 17.1765 2.85719 17.628 2.85719 18.1849C2.85719 18.7419 3.30863 19.1933 3.86557 19.1933H7.36138C7.91838 19.1933 8.36976 18.7418 8.36976 18.1849C8.36976 17.6279 7.91832 17.1765 7.36132 17.1765Z" fill="#29C1D5"/>
<path d="M31.7883 11.0117L29.8048 8.45712C29.6142 8.21106 29.3201 8.06719 29.0084 8.06719H21.6807V1.00837C21.6807 0.451375 21.2293 0 20.6723 0H3.86557C3.30857 0 2.85719 0.451437 2.85719 1.00837C2.85719 1.56531 3.30863 2.01675 3.86557 2.01675H19.6639V9.07556C19.6639 9.63256 20.1153 10.0839 20.6723 10.0839H28.5146L29.9832 11.9757V17.1764H27.1933C26.6363 17.1764 26.1849 17.6278 26.1849 18.1847C26.1849 18.7417 26.6363 19.1931 27.1933 19.1931H30.9916C31.5486 19.1931 31.9999 18.7417 32 18.1847V11.6303C32 11.4064 31.9254 11.1886 31.7883 11.0117Z" fill="#29C1D5"/>
<path d="M7.29413 12.0673H2.65544C2.09844 12.0673 1.64706 12.5187 1.64706 13.0756C1.64706 13.6326 2.0985 14.084 2.65544 14.084H7.29406C7.85106 14.084 8.30244 13.6326 8.30244 13.0756C8.3025 12.5187 7.85106 12.0673 7.29413 12.0673Z" fill="#29C1D5"/>
<path d="M9.61344 8.10083H1.00838C0.451438 8.10083 0 8.55227 0 9.10927C0 9.66627 0.451438 10.1176 1.00838 10.1176H9.61344C10.1704 10.1176 10.6218 9.6662 10.6218 9.10927C10.6218 8.55233 10.1704 8.10083 9.61344 8.10083Z" fill="#29C1D5"/>
<path d="M11.2605 4.1344H2.65544C2.09844 4.1344 1.64706 4.58584 1.64706 5.14277C1.64706 5.69977 2.0985 6.15115 2.65544 6.15115H11.2605C11.8175 6.15115 12.2689 5.69971 12.2689 5.14277C12.2689 4.58584 11.8175 4.1344 11.2605 4.1344Z" fill="#29C1D5"/>
</svg>
