<svg width="16" height="18" viewBox="0 0 16 18" fill="none" xmlns="http://www.w3.org/2000/svg">
<path fill-rule="evenodd" clip-rule="evenodd" d="M0.903106 16.5723L0.903049 16.5723C-0.301016 15.3567 -0.301016 13.3862 0.903049 12.1706L4.67439 8.36322C5.87845 7.14764 7.83027 7.14764 9.03434 8.36322C9.19705 8.52749 9.19705 8.79385 9.03434 8.95812C8.87162 9.12239 8.60778 9.12239 8.44507 8.95813C7.56647 8.07108 6.14225 8.07108 5.26365 8.95813L1.49228 12.7656C0.613683 13.6526 0.61369 15.0903 1.49238 15.9775C2.37104 16.8651 3.79517 16.865 4.67439 15.9774L6.55974 14.074C6.72247 13.9097 6.98634 13.9097 7.14904 14.074C7.31175 14.2383 7.31175 14.5046 7.14904 14.6689L5.26368 16.5723C4.0589 17.7886 2.10697 17.7885 0.903106 16.5723Z" fill="#29C1D5"/>
<path fill-rule="evenodd" clip-rule="evenodd" d="M8.56317 5.62647L10.8252 3.34283C11.7038 2.45578 13.1286 2.45579 14.0073 3.34283C14.8859 4.22983 14.8859 5.66766 14.0073 6.55466L9.85925 10.7424C8.98062 11.6294 7.55645 11.6294 6.67785 10.7424C6.51514 10.5781 6.2513 10.5781 6.08859 10.7424C5.92587 10.9067 5.92587 11.173 6.08859 11.3373C7.29265 12.5529 9.24446 12.5529 10.4485 11.3373L14.5965 7.1496C15.8006 5.93402 15.8006 3.9635 14.5965 2.74793C13.3925 1.53235 11.44 1.53235 10.2359 2.74793L7.97391 5.03157C7.81119 5.19584 7.81119 5.4622 7.97391 5.62647C8.13662 5.79074 8.40045 5.79074 8.56317 5.62647Z" fill="#29C1D5"/>
</svg>
