<svg width="16" height="17" viewBox="0 0 16 17" fill="none" xmlns="http://www.w3.org/2000/svg">
<path d="M14.0952 5.15186H1.90476C0.852976 5.15222 0.00047619 6.01299 0 7.07484V14.2551C0.00047619 15.317 0.852976 16.1779 1.90476 16.1781H14.0952C15.147 16.1779 15.9995 15.317 16 14.2551V7.07484C15.9995 6.01299 15.147 5.15222 14.0952 5.15186ZM1.90476 5.92105H14.0952C14.6439 5.92249 15.1148 6.31562 15.219 6.85934L8 10.9208L0.780952 6.85934C0.885238 6.31562 1.35607 5.92249 1.90476 5.92105ZM14.0952 15.4052H1.90476C1.2744 15.4033 0.76369 14.8878 0.761905 14.2514V7.72865L7.81333 11.6976C7.87048 11.7293 7.93464 11.7466 8 11.7477C8.0656 11.7484 8.13 11.7311 8.18667 11.6976L15.2381 7.72865V14.2514C15.2376 14.8884 14.7262 15.4046 14.0952 15.4052Z" fill="#29C1D5"/>
</svg>
