<svg width="15" height="16" viewBox="0 0 15 16" fill="none" xmlns="http://www.w3.org/2000/svg">
<path d="M14.4688 3.53125H13.4785L12.3663 1.75156C12.2806 1.6145 12.1304 1.53125 11.9688 1.53125H10.6875V0.46875C10.6875 0.209875 10.4776 0 10.2188 0H4.71875C4.45988 0 4.25 0.209875 4.25 0.46875V1.53125H2.96875C2.80713 1.53125 2.65691 1.6145 2.57125 1.75156L1.45897 3.53125H0.46875C0.209875 3.53125 0 3.74113 0 4V12C0 12.2589 0.209875 12.4688 0.46875 12.4688H3.5V15.5312C3.5 15.7901 3.70988 16 3.96875 16H10.9688C11.2276 16 11.4375 15.7901 11.4375 15.5312V12.4688H14.4688C14.7276 12.4688 14.9375 12.2589 14.9375 12V4C14.9375 3.74113 14.7276 3.53125 14.4688 3.53125ZM11.709 2.46875L12.373 3.53125H10.6875V2.46875H11.709ZM5.1875 0.9375H9.75V3.53125H5.1875V0.9375ZM3.22853 2.46875H4.25V3.53125H2.56447L3.22853 2.46875ZM10.5 15.0625H4.4375V10.4688H10.5V15.0625ZM14 11.5312H11.4375V10.4688H11.9688C12.2276 10.4688 12.4375 10.2589 12.4375 10C12.4375 9.74113 12.2276 9.53125 11.9688 9.53125C11.5794 9.53125 3.36753 9.53125 2.96875 9.53125C2.70988 9.53125 2.5 9.74113 2.5 10C2.5 10.2589 2.70988 10.4688 2.96875 10.4688H3.5V11.5312H0.9375V4.46875H14V11.5312Z" fill="#29C1D5"/>
<path d="M12.4281 5.90837C12.3789 5.64866 12.1088 5.46934 11.8325 5.5515C11.5877 5.62631 11.4452 5.88369 11.5203 6.13619C11.6091 6.40794 11.8828 6.51872 12.105 6.44806C12.3408 6.3765 12.4755 6.13694 12.4281 5.90837Z" fill="#29C1D5"/>
</svg>
