<svg width="32" height="32" viewBox="0 0 32 32" fill="none" xmlns="http://www.w3.org/2000/svg">
<path d="M28.9613 20.4556C28.9613 22.301 27.465 23.7973 25.6196 23.7973H3.8029L8.20273 19.3974L6.62761 17.8223L0.326331 24.1236C-0.108512 24.5587 -0.108512 25.2636 0.326331 25.6987L6.62761 32L8.20273 30.4249L3.8029 26.0251H25.6196C28.6939 26.0212 31.1852 23.5299 31.189 20.4556V16H28.9613V20.4556Z" fill="#29C1D5"/>
<path d="M2.22779 11.5444C2.22779 9.69872 3.72377 8.20274 5.56947 8.20274H27.3861L22.9863 12.6026L24.5614 14.1777L30.8627 7.8764C31.2976 7.44128 31.2976 6.7364 30.8627 6.30128L24.5614 0L22.9863 1.57512L27.3861 5.97495H5.56947C2.49511 5.97848 0.00353529 8.47006 0 11.5444V16H2.22779V11.5444Z" fill="#29C1D5"/>
</svg>
