<svg width="16" height="18" viewBox="0 0 16 18" fill="none" xmlns="http://www.w3.org/2000/svg">
<path d="M13.7551 3.81566C12.3075 2.35416 10.3828 1.54932 8.33553 1.54932C6.28828 1.54932 4.36353 2.35416 2.91587 3.81566C1.46822 5.27716 0.671031 7.22025 0.671031 9.28708C0.671031 10.5963 0.999312 11.8829 1.62244 13.0225L0 17.7023L4.63541 16.0644C5.76428 16.6934 7.03866 17.0249 8.3355 17.0249C10.3827 17.0249 12.3075 16.22 13.7551 14.7585C15.2028 13.2971 16 11.3539 16 9.28708C16 7.22022 15.2028 5.27713 13.7551 3.81566ZM12.1245 12.1616L11.2397 13.0549C10.5067 13.7949 8.42684 12.895 6.59431 11.045C4.76175 9.19487 3.87041 7.0952 4.60344 6.35515L5.48825 5.46188C5.6715 5.27688 5.96863 5.27688 6.15188 5.46188L7.25791 6.57849C7.44116 6.76349 7.44116 7.06346 7.25791 7.24846L6.59428 7.91843C7.238 9.2904 8.33225 10.3951 9.69122 11.045L10.3548 10.375C10.5381 10.19 10.8352 10.19 11.0185 10.375L12.1245 11.4916C12.3078 11.6766 12.3078 11.9766 12.1245 12.1616Z" fill="#29C1D5"/>
</svg>
