<svg width="16" height="16" viewBox="0 0 16 16" fill="none" xmlns="http://www.w3.org/2000/svg">
<path d="M7.99501 15.999C7.94234 15.999 7.88901 15.9863 7.84101 15.961L0.180012 11.9612C0.070017 11.9038 0.000686646 11.7898 0.000686646 11.6659V4.16618C0.000686646 4.05085 0.060684 3.94352 0.15868 3.88286C0.256676 3.82219 0.380004 3.81686 0.482666 3.86819L8.14367 7.70136C8.25633 7.75802 8.32766 7.87335 8.32766 7.99934V15.6657C8.32766 15.7823 8.26699 15.8903 8.167 15.951C8.115 15.983 8.055 15.999 7.99501 15.999ZM0.667324 11.4639L7.66169 15.1157V8.20534L0.667324 4.70549V11.4639Z" fill="#29C1D5"/>
<path d="M8.00568 15.9989C7.94568 15.9989 7.88569 15.9829 7.83302 15.9509C7.73369 15.8903 7.67236 15.7823 7.67236 15.6656V7.99929C7.67236 7.8733 7.74369 7.75797 7.85636 7.7013L15.5174 3.86814C15.6194 3.81614 15.7433 3.82147 15.8413 3.8828C15.94 3.94347 16 4.0508 16 4.16612V11.6658C16 11.7898 15.9307 11.9038 15.8207 11.9611L8.15968 15.9609C8.11168 15.9863 8.05835 15.9989 8.00568 15.9989ZM8.339 8.20528V15.1156L15.3334 11.4638V4.70543L8.339 8.20528ZM15.6667 11.6658H15.6733H15.6667Z" fill="#29C1D5"/>
<path d="M0.334012 4.49947C0.21135 4.49947 0.0940221 4.43214 0.035358 4.31548C-0.0473051 4.15082 0.0200253 3.95083 0.184685 3.86817L7.85635 0.0349985C7.95035 -0.0116662 8.06101 -0.0116662 8.15434 0.0349985L15.8153 3.86817C15.98 3.95083 16.0467 4.15082 15.9647 4.31548C15.882 4.48014 15.6827 4.54614 15.5174 4.46481L8.00568 0.705636L0.483339 4.46414C0.435341 4.48814 0.384676 4.49947 0.334012 4.49947Z" fill="#29C1D5"/>
<path d="M12.0002 9.99924C11.8162 9.99924 11.6669 9.84992 11.6669 9.66593V6.20541L4.18985 2.46424C4.02519 2.38224 3.95852 2.18158 4.04119 2.01692C4.12385 1.85227 4.32384 1.78627 4.4885 1.8676L12.1495 5.70076C12.2622 5.7581 12.3335 5.87342 12.3335 5.99942V9.66593C12.3335 9.84992 12.1842 9.99924 12.0002 9.99924Z" fill="#29C1D5"/>
</svg>
