<svg width="16" height="16" viewBox="0 0 16 16" fill="none" xmlns="http://www.w3.org/2000/svg">
<path d="M7.625 0C4.52338 0 2 2.52338 2 5.625C2 6.67294 2.29028 7.69563 2.83966 8.58288L7.30481 15.7784C7.39034 15.9163 7.54103 16 7.70309 16C7.70434 16 7.70556 16 7.70681 16C7.87028 15.9987 8.02128 15.9124 8.10525 15.7721L12.4566 8.50688C12.9757 7.63838 13.25 6.64184 13.25 5.625C13.25 2.52338 10.7266 0 7.625 0ZM11.6521 8.02556L7.696 14.6308L3.63647 8.08894C3.17919 7.35044 2.93125 6.49844 2.93125 5.625C2.93125 3.04031 5.04031 0.93125 7.625 0.93125C10.2097 0.93125 12.3156 3.04031 12.3156 5.625C12.3156 6.47253 12.084 7.30275 11.6521 8.02556Z" fill="#29C1D5"/>
<path d="M7.625 2.8125C6.07419 2.8125 4.8125 4.07419 4.8125 5.625C4.8125 7.16591 6.05366 8.4375 7.625 8.4375C9.21572 8.4375 10.4375 7.14897 10.4375 5.625C10.4375 4.07419 9.17581 2.8125 7.625 2.8125ZM7.625 7.50625C6.58572 7.50625 5.74375 6.66147 5.74375 5.625C5.74375 4.59113 6.59113 3.74375 7.625 3.74375C8.65887 3.74375 9.50313 4.59113 9.50313 5.625C9.50313 6.64634 8.68075 7.50625 7.625 7.50625Z" fill="#29C1D5"/>
</svg>
