<svg width="16" height="11" viewBox="0 0 16 11" fill="none" xmlns="http://www.w3.org/2000/svg">
<path d="M15.8983 4.7877C15.7554 4.59217 12.3497 0 7.99993 0C3.6502 0 0.244313 4.59217 0.101532 4.78751C-0.0338438 4.97301 -0.0338438 5.22461 0.101532 5.41011C0.244313 5.60564 3.6502 10.1978 7.99993 10.1978C12.3497 10.1978 15.7554 5.60561 15.8983 5.41027C16.0339 5.2248 16.0339 4.97301 15.8983 4.7877ZM7.99993 9.14287C4.79589 9.14287 2.02085 6.09496 1.19938 5.09855C2.01979 4.10126 4.78901 1.05494 7.99993 1.05494C11.2038 1.05494 13.9787 4.10232 14.8005 5.09926C13.9801 6.09652 11.2108 9.14287 7.99993 9.14287Z" fill="#394A50"/>
<path d="M7.99994 1.93408C6.25487 1.93408 4.83508 3.35387 4.83508 5.09894C4.83508 6.844 6.25487 8.26379 7.99994 8.26379C9.745 8.26379 11.1648 6.844 11.1648 5.09894C11.1648 3.35387 9.745 1.93408 7.99994 1.93408ZM7.99994 7.20882C6.8365 7.20882 5.89005 6.26234 5.89005 5.09894C5.89005 3.93553 6.83653 2.98905 7.99994 2.98905C9.16335 2.98905 10.1098 3.93553 10.1098 5.09894C10.1098 6.26234 9.16338 7.20882 7.99994 7.20882Z" fill="#394A50"/>
</svg>
