<svg width="16" height="16" viewBox="0 0 16 16" fill="none" xmlns="http://www.w3.org/2000/svg">
<path d="M8.03125 0C4.15422 0 1 3.15422 1 7.03125C1 7.46091 1 10.7846 1 10.8438C1 11.6192 1.63084 12.25 2.40625 12.25H2.95563C3.14913 12.7956 3.67016 13.1875 4.28125 13.1875C5.05666 13.1875 5.6875 12.5567 5.6875 11.7812V7.96875C5.6875 7.19334 5.05666 6.5625 4.28125 6.5625C3.67016 6.5625 3.14913 6.95444 2.95563 7.5H2.40625C2.24191 7.5 2.08422 7.52859 1.9375 7.58063V7.03125C1.9375 3.67116 4.67116 0.9375 8.03125 0.9375C11.3913 0.9375 14.125 3.67116 14.125 7.03125V7.58063C13.9783 7.52859 13.8206 7.5 13.6562 7.5H13.1069C12.9134 6.95444 12.3923 6.5625 11.7812 6.5625C11.0058 6.5625 10.375 7.19334 10.375 7.96875V11.7812C10.375 12.5567 11.0058 13.1875 11.7812 13.1875C11.9232 13.1875 12.0602 13.1662 12.1894 13.1269C12.0141 13.7038 11.4773 14.125 10.8438 14.125H9.35688C9.16338 13.5794 8.64234 13.1875 8.03125 13.1875C7.25584 13.1875 6.625 13.8183 6.625 14.5938C6.625 15.3692 7.25584 16 8.03125 16C8.64234 16 9.16338 15.6081 9.35688 15.0625H10.8438C12.1361 15.0625 13.1875 14.0111 13.1875 12.7188V12.25H13.6562C14.4317 12.25 15.0625 11.6192 15.0625 10.8438C15.0625 10.7855 15.0625 7.46056 15.0625 7.03125C15.0625 3.15422 11.9083 0 8.03125 0ZM3.8125 7.96875C3.8125 7.71028 4.02278 7.5 4.28125 7.5C4.53972 7.5 4.75 7.71028 4.75 7.96875V11.7812C4.75 12.0397 4.53972 12.25 4.28125 12.25C4.02278 12.25 3.8125 12.0397 3.8125 11.7812V7.96875ZM2.40625 8.4375H2.875V11.3125H2.40625C2.14778 11.3125 1.9375 11.1022 1.9375 10.8438V8.90625C1.9375 8.64778 2.14778 8.4375 2.40625 8.4375ZM8.03125 15.0625C7.77278 15.0625 7.5625 14.8522 7.5625 14.5938C7.5625 14.3353 7.77278 14.125 8.03125 14.125C8.28972 14.125 8.5 14.3353 8.5 14.5938C8.5 14.8522 8.28972 15.0625 8.03125 15.0625ZM12.25 11.7812C12.25 12.0397 12.0397 12.25 11.7812 12.25C11.5228 12.25 11.3125 12.0397 11.3125 11.7812V7.96875C11.3125 7.71028 11.5228 7.5 11.7812 7.5C12.0397 7.5 12.25 7.71028 12.25 7.96875V11.7812ZM14.125 10.8438C14.125 11.1022 13.9147 11.3125 13.6562 11.3125H13.1875V8.4375H13.6562C13.9147 8.4375 14.125 8.64778 14.125 8.90625V10.8438Z" fill="#29C1D5"/>
</svg>
