<svg width="128" height="64" viewBox="0 0 128 64" fill="none" xmlns="http://www.w3.org/2000/svg">
<path fill-rule="evenodd" clip-rule="evenodd" d="M0 27.3081H128V27.9618H0V27.3081Z" fill="#D9DADB"/>
<path fill-rule="evenodd" clip-rule="evenodd" d="M47.0861 50.4271L47.9344 51.1456C49.1104 52.1245 50.8736 51.9291 51.8533 50.7531L52.571 49.9048C52.7673 49.6428 52.7016 49.3168 52.5062 49.1213L42.1218 40.6964C41.8615 40.5001 41.5347 40.5659 41.3393 40.7613L40.6207 41.6104C39.641 42.7856 39.8364 44.5496 41.0124 45.5285L41.8615 46.247C42.5144 46.7693 42.4487 47.4879 41.731 47.9453C41.6653 47.9453 41.5347 48.0759 41.4041 48.1416C41.143 48.337 40.8161 48.5333 40.4901 48.7288C40.0327 49.0548 39.641 49.3825 39.2492 49.6428C38.8567 49.9696 38.5955 50.2308 38.3352 50.5576C37.1592 51.9939 37.3547 54.0839 38.8567 55.2599C40.2938 56.4351 42.3838 56.1739 43.559 54.7376C43.821 54.4099 44.0813 54.0839 44.2776 53.6265C44.5387 53.2348 44.735 52.7125 44.9304 52.2551C45.0618 51.9291 45.1916 51.5365 45.3221 51.2762C45.3878 51.0799 45.4527 50.9493 45.4527 50.8836C45.7804 50.1002 46.4324 49.9048 47.0861 50.4271ZM44.2776 50.8836C44.147 51.2105 44.0813 51.5365 43.8858 51.8642C43.6904 52.3208 43.4941 52.7782 43.2978 53.1699C43.1024 53.5616 42.9061 53.8228 42.7098 54.0839C41.9264 55.0636 40.555 55.1942 39.5752 54.4099C38.5955 53.6265 38.4658 52.2551 39.2492 51.2762C39.4447 51.0142 39.7067 50.7531 40.0327 50.4928C40.3595 50.2308 40.7513 49.9048 41.143 49.6428C41.4041 49.4473 41.731 49.251 41.9921 49.1205C42.1218 49.0548 42.2524 48.9242 42.3181 48.9242C43.6904 48.0759 43.821 46.4425 42.5793 45.3979L41.731 44.6802C41.0124 44.0922 40.8818 43.0467 41.469 42.329L41.7958 41.8716L51.331 49.5779L51.0042 50.0353C50.417 50.7531 49.3716 50.8836 48.653 50.2965L47.8039 49.5779C46.563 48.5333 44.9961 48.9899 44.4081 50.4928C44.4081 50.6233 44.3433 50.7531 44.2776 50.8836Z" fill="#0098BC"/>
<path fill-rule="evenodd" clip-rule="evenodd" d="M53.7471 47.8795C55.2491 46.6387 56.7511 45.1375 58.1874 43.6347C58.7105 43.1124 59.1671 42.5901 59.494 42.1327C59.7551 41.8715 59.8857 41.6752 60.0163 41.5447C60.2126 41.2835 60.1468 40.9567 59.9514 40.7612L57.3391 38.6064C57.1428 38.4109 56.816 38.4109 56.6205 38.6064L55.0537 39.9121L55.9677 38.0184C56.0983 37.7572 56.0325 37.4961 55.8371 37.3655L48.7188 31.6186C48.4576 31.4223 48.1308 31.488 47.9345 31.6843C47.8696 31.8149 47.6734 32.0103 47.4779 32.2715C47.0862 32.7289 46.6936 33.3169 46.3028 33.9041C45.1268 35.6015 43.9508 37.3655 43.0368 39.1286C42.645 39.9121 42.2525 40.6307 41.9922 41.3492L43.0368 41.8067C43.3636 41.0881 43.6905 40.3695 44.0813 39.6509C44.9962 37.9535 46.0408 36.1895 47.2816 34.5569C47.6734 33.9698 48.1956 33.3169 48.5225 32.7938L54.8574 37.8878L52.898 41.8067C52.6368 42.3289 53.2897 42.8512 53.7471 42.4595L56.9474 39.7824L58.7754 41.2835C58.3845 41.7409 57.7965 42.3289 57.3391 42.9161C55.9677 44.4181 54.4657 45.8553 52.9628 47.0961C52.31 47.6184 51.6571 48.1415 51.0699 48.5333L51.7228 49.4473C52.4414 48.9898 53.0942 48.4675 53.7471 47.8795Z" fill="#0098BC"/>
<path fill-rule="evenodd" clip-rule="evenodd" d="M39.9021 52.9088C39.7715 52.3208 40.1633 51.7328 40.7513 51.6022C41.3393 51.4716 41.9264 51.8642 42.057 52.4505C42.1876 53.0385 41.7958 53.6265 41.2078 53.7571C40.6207 53.8885 40.0327 53.4959 39.9021 52.9088Z" fill="#0098BC"/>
<path fill-rule="evenodd" clip-rule="evenodd" d="M50.6773 38.9982C50.9384 39.1945 51.2653 39.1945 51.4616 38.9325L53.9433 35.8636L53.0942 35.145L50.6124 38.2139C50.3513 38.4759 50.417 38.8019 50.6773 38.9982Z" fill="#0098BC"/>
<path fill-rule="evenodd" clip-rule="evenodd" d="M47.5428 39.3249C47.8039 39.5204 48.1308 39.4555 48.3271 39.2592L52.1794 34.4921L51.3311 33.7735L47.4779 38.5415C47.2168 38.8018 47.2817 39.1287 47.5428 39.3249Z" fill="#0098BC"/>
<path fill-rule="evenodd" clip-rule="evenodd" d="M59.8856 50.5576C61.4534 50.5576 62.6942 49.3168 62.6942 47.749C62.6942 47.2267 62.4979 46.5739 62.1711 45.921C61.9757 45.5285 61.7145 45.0719 61.4534 44.6144C61.1922 44.2227 60.9302 43.831 60.6699 43.4393C60.4737 43.243 60.4088 43.0467 60.2774 42.9819C60.0819 42.7207 59.6245 42.7207 59.4282 42.9819C59.3634 43.0467 59.2328 43.243 59.0365 43.4393C58.7754 43.831 58.5142 44.2227 58.2531 44.6144C57.9919 45.0719 57.7308 45.4636 57.5345 45.921C57.2085 46.6387 57.0122 47.2267 57.0122 47.749C57.0779 49.3168 58.3836 50.5576 59.8856 50.5576ZM58.2531 47.749C58.2531 47.423 58.3836 46.8999 58.6448 46.3776C58.8411 45.9859 59.0365 45.5942 59.2985 45.2025C59.5588 44.8107 59.9514 44.2876 59.9514 44.2876C59.9514 44.2876 60.4736 45.0062 60.6042 45.2025C60.8654 45.5942 61.0608 45.9859 61.2571 46.3776C61.5182 46.9656 61.6488 47.423 61.6488 47.749C61.6488 48.6639 60.9302 49.4473 59.9514 49.4473C58.9716 49.4473 58.2531 48.6639 58.2531 47.749Z" fill="#0098BC"/>
<path fill-rule="evenodd" clip-rule="evenodd" d="M70.9231 32.2716C71.0536 32.141 71.1842 32.0753 71.3148 32.0104C71.3796 32.0104 71.4453 31.9456 71.5102 31.9456H71.7065H71.9028L74.3836 34.4265L76.9311 36.9082L76.9959 36.9739L76.9311 37.0387L73.7956 39.9779L70.6619 42.9162L70.5962 42.9819V42.8513V37.8879V34.0347C70.5962 33.1856 70.5962 32.729 70.6619 32.6633C70.7268 32.5327 70.7925 32.4022 70.9231 32.2716ZM71.7065 33.2513C71.7065 33.4467 71.7065 33.643 71.7065 33.8393C71.7065 33.9699 71.7065 34.1004 71.7065 34.1653C71.7065 35.3413 71.7065 36.5165 71.7065 37.6268V37.7573V40.4353L75.4291 36.9082L71.7065 33.2513ZM85.2254 54.41H87.184L86.2043 53.4311L85.2254 54.41ZM89.0128 50.6234L92.8003 54.41H92.866H93.0614H93.192V53.5617V53.17V49.5122V49.3168V46.5082L89.0128 50.6234ZM71.7065 45.9211V51.406L72.4242 50.6882L73.2085 49.9048C73.9928 49.1214 74.7113 48.4019 75.4939 47.6185L74.1234 46.2471L72.7519 44.8756L71.7065 45.9211ZM74.3188 54.3451H75.9514H79.6082L86.6617 47.3574L85.356 46.0516L84.0494 44.7451L74.3188 54.3451ZM86.858 42.0022L89.4046 44.5496L93.1272 40.8271V37.3656V35.8636L86.858 42.0022ZM75.6902 42.1328C75.8865 42.3291 76.1476 42.5902 76.3431 42.7856C76.5394 42.9819 76.8005 43.2431 76.9959 43.4393L78.3674 44.7451L83.5271 39.651C84.18 38.9982 84.8985 38.3453 85.5514 37.6916C87.184 36.1247 88.8166 34.4922 90.4491 32.9244H85.4865L80.3925 37.6916L79.9351 38.0842C78.8248 39.1288 77.7794 40.1085 76.6699 41.1531C76.4736 41.2836 76.3431 41.4799 76.1476 41.6105C76.0171 41.8716 75.8208 42.0022 75.6902 42.1328ZM78.3674 34.231C78.5637 34.0347 78.7599 33.9042 78.9554 33.7087C79.1508 33.5124 79.3479 33.3819 79.5434 33.1856L79.7388 32.9902H78.4979H77.1265L77.1922 33.0559C77.3885 33.2513 77.5839 33.4467 77.7794 33.643C77.9757 33.8393 78.1719 34.0347 78.3674 34.231ZM82.7437 55.3905L84.4411 53.6923C85.356 52.7782 86.1394 51.994 86.1394 51.994L86.2043 51.9291L86.27 51.994L87.9683 53.6923L89.6657 55.3905L89.7314 55.4554H89.6008H86.2043L82.7437 55.3905L82.6131 55.4554L82.7437 55.3905ZM87.5108 50.5577L90.776 47.2925L94.0412 44.0265L94.1069 43.9616V44.0922V49.3168C94.1069 51.1457 94.1069 52.5171 94.1069 53.3654C94.1069 54.2794 94.1069 54.672 94.0412 54.7377C93.9763 54.8674 93.9106 54.998 93.78 55.1285C93.6494 55.26 93.5189 55.3248 93.3883 55.3905C93.3234 55.3905 93.2577 55.3905 93.1272 55.4554C92.9966 55.4554 92.866 55.4554 92.7354 55.4554H92.278L89.8611 53.0385L87.5108 50.5577ZM70.6619 45.4636L71.7065 44.4839L72.7519 43.5042L72.8168 43.4393L72.8816 43.5042L74.9716 45.5942L77.0616 47.6834L77.1265 47.7491L77.0616 47.8148L76.4088 48.4677C76.2125 48.6639 75.8208 48.9899 75.3642 49.5122C74.7762 50.1002 73.9928 50.8188 73.2742 51.5365L70.7925 53.9534L70.7268 54.0191V53.8885V49.7085L70.6619 45.4636ZM71.7713 55.3248L77.9108 49.3168L84.0494 43.3088L84.1151 43.2431L84.18 43.3088L86.2043 45.3331L88.2286 47.3574L88.2943 47.4231L88.2286 47.4879L84.18 51.5365L80.1314 55.5203H76.0171H71.9028H71.7713V55.3248ZM85.4208 42.0022L89.7963 37.7573L94.1717 33.5124L94.2374 33.4467V33.5773V37.4962V41.4142L91.8854 43.7662L89.5351 46.1165L89.4703 46.1822L89.4046 46.1165L87.3803 44.0922L85.356 42.1328L85.4208 42.0022ZM75.8208 40.5659C76.8005 39.651 78.1719 38.3453 79.6082 36.9739L85.0291 31.9456H88.9471H92.866H92.9966L92.9309 32.0104L91.5594 33.3819C91.1677 33.7736 90.188 34.7533 88.8823 36.0599C87.5757 37.3656 85.9431 38.9325 84.3105 40.5659L78.4331 46.3128L78.3674 46.3777L78.3025 46.3128L76.2774 44.2876C75.7551 43.7662 75.2328 43.2431 74.8411 42.8513C74.4494 42.4596 74.1882 42.1976 74.1882 42.1328C74.1882 42.0679 74.8411 41.4799 75.8208 40.5659ZM77.7794 35.145C77.4534 34.8182 76.9959 34.3607 76.4736 33.8393L74.6456 32.0104L74.5799 31.9456H74.7113H78.4979H82.2862H82.4168L82.2862 32.0104L82.1557 32.141C82.09 32.2059 81.7631 32.4679 81.3065 32.9244C80.9797 33.2513 80.588 33.5773 80.1962 33.9699L78.8248 35.2107C78.5637 35.4719 78.3674 35.6673 78.3674 35.6673C78.3025 35.6673 78.1062 35.4719 77.7794 35.145Z" fill="#0098BC"/>
<path fill-rule="evenodd" clip-rule="evenodd" d="M114.809 52.5171C113.894 52.5171 113.176 53.2348 113.176 54.1496C113.176 55.0637 113.894 55.7814 114.809 55.7814C115.723 55.7814 116.441 55.0637 116.441 54.1496C116.506 53.2348 115.789 52.5171 114.809 52.5171ZM114.809 54.8674C114.417 54.8674 114.091 54.5414 114.091 54.1496C114.091 53.7571 114.417 53.4311 114.809 53.4311C115.201 53.4311 115.527 53.7571 115.527 54.1496C115.592 54.5414 115.265 54.8674 114.809 54.8674Z" fill="#0098BC"/>
<path fill-rule="evenodd" clip-rule="evenodd" d="M11.4281 55.847H11.8207H12.5384H13.7793H17.1101H21.355H22.3347H22.857C22.9876 55.847 23.1182 55.7813 23.2496 55.7813C25.0127 55.3905 26.3842 54.6719 27.6899 53.3653C28.4085 52.6476 28.9308 51.929 29.3873 51.0142C29.9753 49.839 30.2373 48.5982 30.2373 47.2924C30.2373 46.0516 29.9753 44.6801 29.1919 43.6347C29.1919 43.6347 29.1919 43.5698 29.1262 43.5698C29.0613 43.5041 29.0613 43.5041 28.9965 43.4393C28.865 43.3087 28.7345 43.1781 28.6696 43.0467C28.2779 42.6558 27.8862 42.2633 27.4936 41.8067C26.2536 40.5658 25.0127 39.325 23.771 38.0841C23.0533 37.3655 22.2699 36.5821 21.5513 35.8635C21.029 35.3412 20.5059 34.8181 19.9836 34.2958C19.6576 33.9698 19.3307 33.6429 18.939 33.3169C18.7427 33.1207 18.5473 32.9901 18.351 32.7938C18.2861 32.7289 18.2861 32.7289 18.2204 32.7289C17.8287 32.4678 17.4361 32.2715 17.0453 32.0752C16.6527 31.8798 16.1961 31.8149 15.8044 31.6844C15.7387 31.6844 15.6081 31.6844 15.5433 31.6187C15.4118 31.6187 15.2164 31.6187 15.0858 31.5529C14.759 31.5529 14.433 31.4881 14.1061 31.4881C14.0404 31.4881 13.9755 31.4881 13.9098 31.4881H13.845C13.7793 31.4881 13.7144 31.4881 13.6487 31.5529C13.5838 31.5529 13.4533 31.5529 13.3875 31.6187C12.2781 31.8149 11.167 32.3372 10.3187 33.1207C9.46953 33.9041 8.75095 34.8838 8.35924 35.9941C8.16381 36.647 7.96752 37.3655 7.96752 38.0841C7.96752 38.6713 8.03238 39.1944 8.22867 39.7158C8.29353 39.9121 8.35924 40.1084 8.48981 40.3038C8.68524 40.5658 8.88153 40.8918 9.14267 41.153C9.66496 41.741 10.253 42.2633 10.7761 42.8513C11.8207 43.8967 12.8653 44.9413 13.9098 45.9859C14.8247 46.8999 15.7387 47.8147 16.6527 48.6639C17.3056 49.3167 17.9593 49.9047 18.5473 50.5576C18.677 50.6882 18.8076 50.8187 18.939 50.9493C19.0039 51.0142 19.0696 51.0799 19.2001 51.1456C19.3956 51.2762 19.7224 51.4059 19.9836 51.4716C20.3104 51.6022 20.6364 51.667 21.029 51.667H21.5513C23.9025 51.667 25.861 49.9696 26.1222 47.6184V47.1619C26.1222 46.835 26.0573 46.5081 25.9267 46.1821C25.7962 45.8553 25.5999 45.5941 25.4036 45.333C24.8822 44.8107 24.2285 44.5496 23.5756 44.5496C22.857 44.5496 22.205 44.8107 21.7467 45.333C21.2902 45.7904 21.029 46.3776 21.029 47.0304C21.029 47.4879 21.1596 47.8796 21.4856 48.2064C21.8124 48.5333 22.205 48.6639 22.5959 48.6639C22.9876 48.6639 23.3793 48.5333 23.7062 48.2064C23.8367 48.0759 23.9673 47.8796 24.0322 47.749C24.0979 47.6833 24.0979 47.6184 24.1627 47.5536C24.1627 47.4879 24.2285 47.4879 24.2285 47.423L24.2942 47.3573C24.359 47.2924 24.4247 47.2924 24.4896 47.2924H24.6202C24.6859 47.2924 24.6859 47.3573 24.7507 47.3573C24.8156 47.423 24.8156 47.423 24.8822 47.4879C24.8822 47.5536 24.8822 47.5536 24.8822 47.6184C24.8822 47.6833 24.8822 47.6833 24.8822 47.6833V47.749C24.8156 48.0759 24.6859 48.337 24.4896 48.5982C24.2942 48.8593 24.0979 49.1213 23.9025 49.3824C23.5756 49.7084 23.1839 49.9696 22.7913 50.1002C22.4004 50.2307 21.943 50.3613 21.5513 50.3613C20.6364 50.3613 19.7873 49.9696 19.2001 49.3824C18.8733 49.0547 18.6121 48.6639 18.4167 48.2064C18.2204 47.749 18.1556 47.2924 18.1556 46.835V46.5081C18.1556 46.1821 18.2204 45.8553 18.2861 45.5284C18.351 45.2024 18.4816 44.8756 18.677 44.5496C19.3956 43.1124 20.7022 42.0678 22.205 41.6104C22.4004 41.5447 22.5959 41.5447 22.857 41.5447H23.5756H24.2942C24.4896 41.5447 24.6859 41.6104 24.947 41.6104C26.8408 42.1327 28.3428 43.6347 28.865 45.5284C28.9308 45.7247 28.9308 45.921 28.9308 46.1164C28.9308 46.3776 28.9308 46.5739 28.9308 46.835C28.9308 47.423 28.865 48.0759 28.7345 48.6639C28.4085 49.9696 27.7556 51.1456 26.775 52.1245C25.7962 53.1042 24.6202 53.757 23.3144 54.0839L22.6616 54.2793H17.2407H11.6901L2.8735 45.8553L7.90181 45.7904H10.9058L10.6447 45.5284L9.79553 44.6801H5.61637C5.22465 44.6801 4.89779 44.6801 4.50608 44.6801C3.72265 44.6801 2.93836 44.6801 2.15493 44.6801C1.95864 44.6801 1.76321 44.6801 1.50206 44.6801C1.37064 44.6801 1.24092 44.6801 1.17521 44.745H1.11035C1.11035 44.8107 1.04463 44.8107 1.04463 44.8756C0.979775 45.0061 0.914062 45.0719 0.914062 45.2024C0.914062 45.2673 0.914062 45.2673 0.914062 45.333C0.914062 45.333 0.979775 45.3979 0.979775 45.4636C1.17521 45.7247 1.4372 45.9859 1.6975 46.1821C2.22064 46.7044 2.74293 47.2267 3.26522 47.749C4.18007 48.6639 5.09408 49.5779 6.00808 50.4927C7.05266 51.5365 8.03238 52.517 9.07781 53.5616C9.66496 54.0839 10.1881 54.6719 10.7761 55.1942C10.9715 55.3248 11.1021 55.5202 11.2975 55.6508C11.2975 55.6508 11.2975 55.6508 11.3633 55.7165C11.3633 55.847 11.4281 55.847 11.4281 55.847ZM9.20838 39.0638C9.14267 38.737 9.14267 38.4758 9.14267 38.149C9.14267 36.9738 9.6001 35.7987 10.3187 34.8838C10.841 34.2309 11.4938 33.7087 12.2124 33.3169C12.931 32.9244 13.7793 32.7938 14.6284 32.7938C14.9553 32.7938 15.2813 32.8595 15.6081 32.8595C16.5878 33.0558 17.3056 33.3818 18.0899 33.9698C18.1556 34.0347 18.1556 34.0347 18.2204 34.1004C18.2861 34.1652 18.351 34.2309 18.4816 34.2958C18.7427 34.4921 18.939 34.7532 19.2001 35.0144C19.9179 35.6672 20.5716 36.3858 21.2902 37.1044L24.7507 40.5658L23.2496 40.6964C20.8984 40.8918 18.8076 42.1976 17.763 44.3533C17.6324 44.6144 17.5027 44.8756 17.4361 45.2024C17.3056 45.5284 17.2407 45.8553 17.1758 46.1821C17.1758 46.3127 17.1101 46.4433 17.1101 46.5739V46.6387V46.7044V46.7693C17.1101 46.835 17.0453 46.835 16.9796 46.8999C16.9147 46.9656 16.849 46.9656 16.7176 46.9656C16.6527 46.9656 16.6527 46.9656 16.6527 46.9656C16.6527 46.9656 16.6527 46.9656 16.5878 46.9656H16.5221L16.3267 46.835L16.261 46.7693C16.1961 46.7044 16.1304 46.6387 16.0647 46.5739C15.8044 46.3776 15.6081 46.1164 15.347 45.8553C14.5636 45.0719 13.845 44.3533 13.0615 43.5698C12.343 42.8513 11.6244 42.1327 10.9058 41.3493C10.5141 40.9567 10.1881 40.5658 9.86125 40.1733C9.73067 40.0427 9.6001 39.8473 9.53439 39.651C9.33896 39.4555 9.27324 39.2593 9.20838 39.0638Z" fill="#0098BC"/>
<path fill-rule="evenodd" clip-rule="evenodd" d="M114.874 50.8187C114.025 52.4504 112.262 53.4958 110.433 53.4958C107.821 53.4958 105.665 51.5364 105.405 48.9898C103.446 48.7287 101.943 47.0304 101.943 45.0718C101.943 42.8512 103.772 41.0881 105.992 41.0881C108.213 41.0881 109.976 42.8512 109.976 45.0718C109.976 47.0304 108.474 48.7287 106.515 48.9898C106.777 50.9493 108.409 52.3856 110.368 52.3856C112.327 52.3856 113.96 50.9493 114.221 49.0547C112.262 48.7944 110.76 47.0961 110.76 45.1375C110.76 43.1124 112.262 41.4798 114.221 41.2186V34.8838C112.98 34.6226 112.066 33.5123 112.066 32.2058C112.066 31.8798 112.327 31.6186 112.653 31.6186H117.03C117.356 31.6186 117.618 31.8798 117.618 32.2058C117.618 33.5123 116.703 34.6226 115.462 34.8838V41.2186C117.42 41.4798 118.923 43.1781 118.923 45.1375C118.923 47.0961 117.42 48.7944 115.527 49.0547C115.789 51.0141 117.487 52.3856 119.38 52.3856C121.339 52.3856 122.972 50.9493 123.233 48.9898C121.274 48.7287 119.772 47.0304 119.772 45.0718C119.772 42.8512 121.6 41.0881 123.756 41.0881C125.976 41.0881 127.739 42.8512 127.739 45.0718C127.739 47.0304 126.238 48.7287 124.278 48.9898C124.016 51.5364 121.797 53.4958 119.249 53.4958C117.421 53.4958 115.723 52.517 114.874 50.8187ZM103.054 45.0718C103.054 46.6387 104.36 47.9453 105.927 47.9453C107.494 47.9453 108.801 46.6387 108.801 45.0718C108.801 43.5041 107.494 42.1975 105.927 42.1975C104.36 42.1975 103.054 43.5041 103.054 45.0718ZM113.372 32.6632C113.568 33.2512 114.156 33.7086 114.874 33.7086C115.528 33.7086 116.18 33.3169 116.376 32.6632H113.372ZM112 45.0718C112 46.6387 113.307 47.9453 114.874 47.9453C116.442 47.9453 117.747 46.6387 117.747 45.0718C117.747 43.5041 116.442 42.1975 114.874 42.1975C113.241 42.1975 112 43.5041 112 45.0718ZM123.821 47.8795C125.388 47.8795 126.694 46.5738 126.694 45.0061C126.694 43.4392 125.388 42.1327 123.821 42.1327C122.254 42.1327 120.948 43.4392 120.948 45.0061C120.948 46.6387 122.254 47.8795 123.821 47.8795Z" fill="#0098BC"/>
<path fill-rule="evenodd" clip-rule="evenodd" d="M108.082 44.8755C108.082 44.7449 108.017 44.68 107.886 44.68C107.755 44.68 107.691 44.7449 107.691 44.8755C107.755 45.9209 106.906 46.8349 105.796 46.8997C105.665 46.8997 105.601 46.9655 105.601 47.096C105.601 47.2266 105.665 47.2923 105.796 47.2923C107.103 47.2266 108.147 46.182 108.082 44.8755ZM117.029 44.8755C117.029 44.7449 116.964 44.68 116.833 44.68C116.703 44.68 116.637 44.7449 116.637 44.8755C116.703 45.9209 115.853 46.8349 114.744 46.8997C114.613 46.8997 114.548 46.9655 114.548 47.096C114.548 47.2266 114.613 47.2923 114.744 47.2923C116.049 47.2266 117.094 46.1163 117.029 44.8755ZM125.78 44.7449C125.65 44.7449 125.585 44.8106 125.585 44.9412C125.65 45.9857 124.801 46.8997 123.69 46.9655C123.56 46.9655 123.495 47.0303 123.495 47.1617C123.495 47.2923 123.56 47.3572 123.69 47.3572C124.931 47.2923 125.911 46.2469 125.911 45.006C125.976 44.8106 125.845 44.7449 125.78 44.7449Z" fill="#0098BC"/>
<path d="M7.37434 20.6113C7.14648 20.6113 6.95446 20.5328 6.79829 20.3775C6.64297 20.2213 6.56445 20.0293 6.56445 19.8014V9.25496C6.56445 9.01686 6.64297 8.82143 6.79829 8.67123C6.95446 8.52103 7.14648 8.44507 7.37434 8.44507H10.4902C11.2582 8.44507 11.9469 8.61661 12.5537 8.95968C13.1613 9.3019 13.6341 9.77981 13.9712 10.3926C14.3092 11.0053 14.4782 11.7008 14.4782 12.48C14.4782 13.2378 14.3092 13.9129 13.9712 14.5052C13.6341 15.0966 13.1613 15.5591 12.5537 15.8911C11.9469 16.2231 11.2582 16.3895 10.4902 16.3895H8.18508V19.8014C8.18508 20.0293 8.10913 20.2213 7.95893 20.3775C7.80788 20.5328 7.6133 20.6113 7.37434 20.6113ZM10.4902 14.8943C11.1959 14.8943 11.778 14.6682 12.2345 14.2167C12.692 13.7652 12.9198 13.1858 12.9198 12.48C12.9198 11.7427 12.692 11.135 12.2345 10.6571C11.778 10.1792 11.1959 9.9411 10.4902 9.9411H8.18508V14.8943H10.4902Z" fill="black"/>
<path d="M19.5726 12.0278C20.3722 12.0278 21.0968 12.2172 21.7462 12.597C22.3948 12.9759 22.9094 13.4948 23.2883 14.1545C23.6672 14.8142 23.8567 15.549 23.8567 16.3588V19.8322C23.8567 20.061 23.7816 20.2504 23.6305 20.4006C23.4803 20.5517 23.2909 20.6268 23.0622 20.6268C22.8335 20.6268 22.644 20.5517 22.4938 20.4006C22.3427 20.2504 22.2676 20.061 22.2676 19.8322V19.2562C21.9041 19.7025 21.4629 20.0507 20.944 20.2999C20.4243 20.5491 19.8636 20.6737 19.2611 20.6737C18.5135 20.6737 17.8359 20.4868 17.2282 20.113C16.6215 19.7392 16.1436 19.2221 15.7954 18.5624C15.448 17.9035 15.2739 17.1687 15.2739 16.3588C15.2739 15.549 15.4608 14.8142 15.8346 14.1545C16.2084 13.4948 16.7247 12.9759 17.3844 12.597C18.0441 12.2172 18.7729 12.0278 19.5726 12.0278ZM19.5726 19.2715C20.0923 19.2715 20.5617 19.1444 20.9824 18.8901C21.4031 18.6358 21.7326 18.2876 21.9715 17.8463C22.2105 17.4051 22.3299 16.9093 22.3299 16.3588C22.3299 15.8084 22.2105 15.31 21.9715 14.8628C21.7326 14.4165 21.4031 14.0657 20.9824 13.8114C20.5617 13.5571 20.0923 13.4299 19.5726 13.4299C19.0537 13.4299 18.5835 13.5571 18.1636 13.8114C17.7429 14.0657 17.41 14.4165 17.1659 14.8628C16.9219 15.31 16.7998 15.8084 16.7998 16.3588C16.7998 16.9093 16.9219 17.4051 17.1659 17.8463C17.41 18.2876 17.7429 18.6358 18.1636 18.8901C18.5835 19.1444 19.0537 19.2715 19.5726 19.2715Z" fill="black"/>
<path d="M30.3952 11.997C30.9457 11.997 31.3767 12.0798 31.6882 12.2462C32.0005 12.4126 32.1558 12.62 32.1558 12.8692C32.1558 12.9417 32.1507 12.9938 32.1405 13.0253C32.0466 13.3573 31.8392 13.5237 31.5175 13.5237C31.4654 13.5237 31.3878 13.5135 31.2836 13.4922C30.868 13.4196 30.5309 13.3829 30.2706 13.3829C29.523 13.3829 28.9214 13.5545 28.464 13.8975C28.0074 14.2397 27.7787 14.7023 27.7787 15.2835V19.8322C27.7787 20.0814 27.7138 20.2734 27.5841 20.4082C27.4544 20.5439 27.2598 20.6113 26.9995 20.6113C26.7503 20.6113 26.5583 20.5465 26.4234 20.4159C26.2886 20.2862 26.2212 20.0916 26.2212 19.8322V12.8692C26.2212 12.62 26.2886 12.4279 26.4234 12.2931C26.5583 12.1583 26.7503 12.09 26.9995 12.09C27.5192 12.09 27.7787 12.3503 27.7787 12.8692V13.1653C28.0902 12.8017 28.4742 12.5159 28.9316 12.3085C29.3882 12.1011 29.8764 11.997 30.3952 11.997Z" fill="black"/>
<path d="M40.2221 19.4891C40.3364 19.6137 40.3936 19.7699 40.3936 19.9568C40.3936 20.1855 40.2998 20.3775 40.1129 20.5328C39.9575 20.6574 39.7911 20.7197 39.6145 20.7197C39.3866 20.7197 39.1997 20.6267 39.0538 20.4398L36.0941 16.7787L35.3158 17.4648V19.8475C35.3158 20.0763 35.245 20.2606 35.105 20.4005C34.9651 20.5414 34.7807 20.6113 34.552 20.6113C34.3233 20.6113 34.139 20.5414 33.999 20.4005C33.859 20.2606 33.7891 20.0763 33.7891 19.8475V9.20889C33.7891 8.98018 33.859 8.79584 33.999 8.65588C34.139 8.51507 34.3233 8.44509 34.552 8.44509C34.7807 8.44509 34.9651 8.51507 35.105 8.65588C35.245 8.79584 35.3158 8.98018 35.3158 9.20889V15.5489L39.1007 12.1685C39.2355 12.0337 39.3968 11.9654 39.5837 11.9654C39.8014 11.9654 39.978 12.0491 40.1129 12.2146C40.2485 12.3503 40.316 12.5107 40.316 12.6976C40.316 12.9161 40.2323 13.0928 40.0668 13.2276L37.2002 15.7819L40.2221 19.4891Z" fill="black"/>
<path d="M49.8007 16.218C49.8007 16.416 49.7333 16.579 49.5984 16.7087C49.4627 16.8385 49.2921 16.9042 49.0838 16.9042H43.1645C43.2789 17.6304 43.6083 18.2176 44.1537 18.6639C44.699 19.1103 45.3664 19.3338 46.1558 19.3338C46.4673 19.3338 46.7916 19.2767 47.1287 19.1623C47.4666 19.048 47.744 18.908 47.9624 18.7416C48.1075 18.6272 48.2791 18.5709 48.4762 18.5709C48.6742 18.5709 48.8295 18.6221 48.9439 18.7262C49.1308 18.8824 49.2238 19.0582 49.2238 19.2562C49.2238 19.4431 49.141 19.5984 48.9746 19.723C48.6221 20.0038 48.1835 20.2325 47.6586 20.4083C47.1346 20.585 46.6328 20.6737 46.1558 20.6737C45.3041 20.6737 44.5411 20.4894 43.8661 20.1207C43.191 19.752 42.6636 19.24 42.2847 18.5863C41.9058 17.9317 41.7163 17.1892 41.7163 16.3588C41.7163 15.5276 41.8955 14.7826 42.2531 14.1229C42.6115 13.4641 43.1099 12.9495 43.7491 12.5808C44.3875 12.2121 45.112 12.0278 45.9219 12.0278C46.7216 12.0278 47.412 12.2044 47.994 12.5577C48.5752 12.9111 49.0215 13.4043 49.333 14.0376C49.6445 14.6708 49.8007 15.3979 49.8007 16.218ZM45.9219 13.3676C45.1641 13.3676 44.5488 13.5759 44.076 13.9906C43.6032 14.4062 43.3045 14.9618 43.1799 15.6573H48.3678C48.2739 14.9618 48.0145 14.4062 47.5886 13.9906C47.1628 13.5759 46.6072 13.3676 45.9219 13.3676Z" fill="black"/>
<path d="M55.4575 19.053C55.6444 19.053 55.8023 19.1264 55.932 19.2715C56.0617 19.4165 56.1275 19.6034 56.1275 19.8322C56.1275 20.0609 56.0413 20.2478 55.8697 20.3929C55.6991 20.5379 55.478 20.6113 55.2083 20.6113H54.9276C54.4189 20.6113 53.9538 20.479 53.5331 20.2136C53.1132 19.9491 52.7829 19.5881 52.544 19.1315C52.3059 18.6741 52.1864 18.1603 52.1864 17.5894V13.7414H51.4695C51.2511 13.7414 51.0753 13.6791 50.9396 13.5545C50.8047 13.4299 50.7373 13.2745 50.7373 13.0876C50.7373 12.8794 50.8047 12.7138 50.9396 12.5892C51.0753 12.4638 51.2511 12.4015 51.4695 12.4015H52.1864V10.1587C52.1864 9.93001 52.2589 9.74311 52.404 9.59803C52.5491 9.45295 52.7369 9.37956 52.9647 9.37956C53.1934 9.37956 53.3803 9.45295 53.5254 9.59803C53.6713 9.74311 53.7439 9.93001 53.7439 10.1587V12.4015H55.0675C55.286 12.4015 55.4627 12.4638 55.5975 12.5892C55.7323 12.7138 55.7998 12.8794 55.7998 13.0876C55.7998 13.2745 55.7323 13.4299 55.5975 13.5545C55.4627 13.6791 55.286 13.7414 55.0675 13.7414H53.7439V17.5894C53.7439 18.0042 53.8582 18.3523 54.0861 18.6331C54.3148 18.913 54.5956 19.053 54.9276 19.053H55.4575Z" fill="black"/>
<path d="M61.9349 20.6737C61.1045 20.6737 60.362 20.4894 59.7075 20.1207C59.0537 19.752 58.5443 19.24 58.1816 18.5863C57.818 17.9317 57.6362 17.1892 57.6362 16.3588C57.6362 15.5174 57.818 14.7698 58.1816 14.1152C58.5443 13.4615 59.0537 12.9495 59.7075 12.5808C60.362 12.2121 61.1045 12.0278 61.9349 12.0278C62.7559 12.0278 63.4906 12.2121 64.1392 12.5808C64.7887 12.9495 65.2973 13.4615 65.666 14.1152C66.0347 14.7698 66.219 15.5174 66.219 16.3588C66.219 17.1892 66.0372 17.9317 65.6737 18.5863C65.3101 19.24 64.804 19.752 64.1546 20.1207C63.506 20.4894 62.7661 20.6737 61.9349 20.6737ZM61.9349 19.2715C62.4648 19.2715 62.9402 19.1469 63.3609 18.8978C63.7808 18.6486 64.1085 18.3029 64.3415 17.8617C64.5753 17.4205 64.6922 16.9195 64.6922 16.3588C64.6922 15.7982 64.5753 15.2938 64.3415 14.8475C64.1085 14.4011 63.7808 14.0529 63.3609 13.8037C62.9402 13.5545 62.4648 13.4299 61.9349 13.4299C61.4058 13.4299 60.9304 13.5545 60.5097 13.8037C60.0889 14.0529 59.7595 14.4011 59.5206 14.8475C59.2816 15.2938 59.1621 15.7982 59.1621 16.3588C59.1621 16.9195 59.2816 17.4205 59.5206 17.8617C59.7595 18.3029 60.0889 18.6486 60.5097 18.8978C60.9304 19.1469 61.4058 19.2715 61.9349 19.2715Z" fill="black"/>
<path d="M74.7682 12.1993C74.9031 12.2616 75.0072 12.3478 75.0797 12.4562C75.1523 12.5654 75.189 12.6875 75.189 12.8223C75.189 12.9162 75.1634 13.0143 75.1113 13.1185L71.8086 20.0815C71.6533 20.4245 71.4143 20.5952 71.0926 20.5952C70.9159 20.5952 70.77 20.5568 70.6556 20.4791C70.5421 20.4006 70.438 20.2684 70.3441 20.0815L67.0423 13.1185C67.0005 13.0357 66.98 12.9418 66.98 12.8385C66.98 12.5578 67.1251 12.3453 67.4161 12.1993C67.5091 12.1473 67.6183 12.1217 67.7429 12.1217C67.8675 12.1217 67.987 12.155 68.1014 12.2232C68.2157 12.2907 68.3036 12.3862 68.3659 12.5108L71.0764 18.3524L73.7561 12.5108C73.8184 12.3862 73.9088 12.2907 74.0283 12.2232C74.1478 12.155 74.275 12.1217 74.4098 12.1217C74.5455 12.1217 74.6641 12.1473 74.7682 12.1993Z" fill="black"/>
<path d="M76.6978 17.1371C76.4691 17.1371 76.2797 17.0645 76.1295 16.9195C75.9784 16.7735 75.9033 16.5866 75.9033 16.3588C75.9033 16.1301 75.9784 15.9406 76.1295 15.7895C76.2797 15.6393 76.4691 15.5642 76.6978 15.5642H80.1712C80.4 15.5642 80.5868 15.6393 80.7319 15.7895C80.8779 15.9406 80.9504 16.1301 80.9504 16.3588C80.9504 16.5866 80.8779 16.7735 80.7319 16.9195C80.5868 17.0645 80.4 17.1371 80.1712 17.1371H76.6978Z" fill="black"/>
<path d="M86.8561 20.7667C85.8491 20.7667 84.9325 20.538 84.1064 20.0814C83.2811 19.6249 82.7128 19.0275 82.4013 18.2901C82.3492 18.1655 82.3228 18.0614 82.3228 17.9786C82.3228 17.8224 82.3799 17.685 82.4943 17.5656C82.6087 17.4461 82.7648 17.3659 82.962 17.3241C82.9927 17.3138 83.0447 17.3087 83.1173 17.3087C83.2837 17.3087 83.4424 17.3582 83.5926 17.4563C83.7428 17.5553 83.8546 17.6876 83.9272 17.854C84.1141 18.2585 84.4827 18.6016 85.0332 18.8824C85.5836 19.1623 86.1913 19.3023 86.8561 19.3023C87.6353 19.3023 88.2941 19.1239 88.8343 18.7655C89.3745 18.407 89.6442 17.9163 89.6442 17.2933C89.6442 16.7011 89.4155 16.195 88.9589 15.7743C88.5023 15.3535 87.8059 15.0966 86.8714 15.0036C85.5836 14.879 84.5715 14.5027 83.8342 13.8737C83.0968 13.2456 82.7281 12.4587 82.7281 11.514C82.7281 10.8492 82.9176 10.2757 83.2965 9.79269C83.6754 9.30965 84.1951 8.94098 84.854 8.68666C85.5137 8.43234 86.2536 8.30519 87.0737 8.30519C87.9672 8.30519 88.7199 8.48696 89.3327 8.85052C89.9454 9.21407 90.4643 9.73295 90.8902 10.408C91.0148 10.6051 91.0771 10.792 91.0771 10.9687C91.0771 11.1974 90.9738 11.3843 90.7656 11.5294C90.6521 11.6028 90.5164 11.6386 90.3611 11.6386C90.2049 11.6386 90.0598 11.5994 89.925 11.5217C89.7901 11.444 89.686 11.3374 89.6135 11.2025C89.3327 10.7349 88.9819 10.3798 88.5621 10.1358C88.1413 9.89168 87.6088 9.76964 86.9653 9.76964C86.1759 9.76964 85.5376 9.92241 85.0494 10.2288C84.5613 10.5352 84.3172 10.9789 84.3172 11.561C84.3172 12.1012 84.5348 12.5526 84.9709 12.9162C85.407 13.2797 86.1862 13.5187 87.3075 13.6322C88.5535 13.7568 89.5196 14.134 90.2049 14.7621C90.8902 15.3902 91.2332 16.218 91.2332 17.2464C91.2332 17.994 91.031 18.6357 90.6256 19.17C90.2211 19.7051 89.6834 20.1045 89.0135 20.3699C88.3436 20.6344 87.6242 20.7667 86.8561 20.7667Z" fill="black"/>
<path d="M97.1841 19.053C97.371 19.053 97.5289 19.1264 97.6586 19.2715C97.7883 19.4165 97.854 19.6034 97.854 19.8322C97.854 20.0609 97.7678 20.2478 97.5963 20.3929C97.4256 20.5379 97.2046 20.6113 96.9349 20.6113H96.6541C96.1455 20.6113 95.6804 20.479 95.2596 20.2136C94.8398 19.9491 94.5095 19.5881 94.2705 19.1315C94.0324 18.6741 93.913 18.1603 93.913 17.5894V13.7414H93.1961C92.9776 13.7414 92.8018 13.6791 92.6661 13.5545C92.5313 13.4299 92.4639 13.2745 92.4639 13.0876C92.4639 12.8794 92.5313 12.7138 92.6661 12.5892C92.8018 12.4638 92.9776 12.4015 93.1961 12.4015H93.913V10.1587C93.913 9.93001 93.9855 9.74311 94.1306 9.59803C94.2757 9.45295 94.4634 9.37956 94.6913 9.37956C94.92 9.37956 95.1069 9.45295 95.252 9.59803C95.3979 9.74311 95.4704 9.93001 95.4704 10.1587V12.4015H96.7941C97.0126 12.4015 97.1892 12.4638 97.3241 12.5892C97.4589 12.7138 97.5263 12.8794 97.5263 13.0876C97.5263 13.2745 97.4589 13.4299 97.3241 13.5545C97.1892 13.6791 97.0126 13.7414 96.7941 13.7414H95.4704V17.5894C95.4704 18.0042 95.5848 18.3523 95.8127 18.6331C96.0414 18.913 96.3221 19.053 96.6541 19.053H97.1841Z" fill="black"/>
<path d="M103.661 20.6737C102.831 20.6737 102.089 20.4894 101.434 20.1207C100.78 19.752 100.271 19.24 99.9081 18.5863C99.5446 17.9317 99.3628 17.1892 99.3628 16.3588C99.3628 15.5174 99.5446 14.7698 99.9081 14.1152C100.271 13.4615 100.78 12.9495 101.434 12.5808C102.089 12.2121 102.831 12.0278 103.661 12.0278C104.482 12.0278 105.217 12.2121 105.866 12.5808C106.515 12.9495 107.024 13.4615 107.393 14.1152C107.761 14.7698 107.946 15.5174 107.946 16.3588C107.946 17.1892 107.764 17.9317 107.4 18.5863C107.037 19.24 106.531 19.752 105.881 20.1207C105.233 20.4894 104.493 20.6737 103.661 20.6737ZM103.661 19.2715C104.191 19.2715 104.667 19.1469 105.087 18.8978C105.507 18.6486 105.835 18.3029 106.068 17.8617C106.302 17.4205 106.419 16.9195 106.419 16.3588C106.419 15.7982 106.302 15.2938 106.068 14.8475C105.835 14.4011 105.507 14.0529 105.087 13.8037C104.667 13.5545 104.191 13.4299 103.661 13.4299C103.132 13.4299 102.657 13.5545 102.236 13.8037C101.815 14.0529 101.486 14.4011 101.247 14.8475C101.008 15.2938 100.889 15.7982 100.889 16.3588C100.889 16.9195 101.008 17.4205 101.247 17.8617C101.486 18.3029 101.815 18.6486 102.236 18.8978C102.657 19.1469 103.132 19.2715 103.661 19.2715Z" fill="black"/>
<path d="M114.485 11.997C115.035 11.997 115.466 12.0798 115.778 12.2462C116.09 12.4126 116.245 12.62 116.245 12.8692C116.245 12.9417 116.24 12.9938 116.23 13.0253C116.136 13.3573 115.929 13.5237 115.607 13.5237C115.555 13.5237 115.477 13.5135 115.373 13.4922C114.957 13.4196 114.62 13.3829 114.36 13.3829C113.612 13.3829 113.011 13.5545 112.553 13.8975C112.097 14.2397 111.868 14.7023 111.868 15.2835V19.8322C111.868 20.0814 111.803 20.2734 111.673 20.4082C111.544 20.5439 111.349 20.6113 111.089 20.6113C110.84 20.6113 110.648 20.5465 110.513 20.4159C110.378 20.2862 110.311 20.0916 110.311 19.8322V12.8692C110.311 12.62 110.378 12.4279 110.513 12.2931C110.648 12.1583 110.84 12.09 111.089 12.09C111.609 12.09 111.868 12.3503 111.868 12.8692V13.1653C112.18 12.8017 112.564 12.5159 113.021 12.3085C113.478 12.1011 113.966 11.997 114.485 11.997Z" fill="black"/>
<path d="M124.718 16.218C124.718 16.416 124.65 16.579 124.515 16.7087C124.38 16.8385 124.209 16.9042 124.001 16.9042H118.082C118.196 17.6304 118.525 18.2176 119.071 18.6639C119.616 19.1103 120.283 19.3338 121.073 19.3338C121.384 19.3338 121.709 19.2767 122.046 19.1623C122.384 19.048 122.661 18.908 122.879 18.7416C123.025 18.6272 123.196 18.5709 123.393 18.5709C123.591 18.5709 123.746 18.6221 123.861 18.7262C124.048 18.8824 124.141 19.0582 124.141 19.2562C124.141 19.4431 124.058 19.5984 123.892 19.723C123.539 20.0038 123.1 20.2325 122.576 20.4083C122.052 20.585 121.55 20.6737 121.073 20.6737C120.221 20.6737 119.458 20.4894 118.783 20.1207C118.108 19.752 117.581 19.24 117.202 18.5863C116.823 17.9317 116.633 17.1892 116.633 16.3588C116.633 15.5276 116.813 14.7826 117.17 14.1229C117.529 13.4641 118.027 12.9495 118.666 12.5808C119.304 12.2121 120.029 12.0278 120.839 12.0278C121.639 12.0278 122.329 12.2044 122.911 12.5577C123.492 12.9111 123.939 13.4043 124.25 14.0376C124.562 14.6708 124.718 15.3979 124.718 16.218ZM120.839 13.3676C120.081 13.3676 119.466 13.5759 118.993 13.9906C118.52 14.4062 118.221 14.9618 118.097 15.6573H123.285C123.191 14.9618 122.931 14.4062 122.506 13.9906C122.08 13.5759 121.524 13.3676 120.839 13.3676Z" fill="black"/>
</svg>
