<svg width="128" height="64" viewBox="0 0 128 64" fill="none" xmlns="http://www.w3.org/2000/svg">
<path d="M0.304199 28.3348H119.635V28.9437H0.304199V28.3348Z" fill="#D9DADB"/>
<path d="M44.2012 49.8874L44.9926 50.5571C46.0885 51.4703 47.7324 51.2877 48.6456 50.1918L49.3153 49.4003C49.498 49.1568 49.4371 48.8524 49.2544 48.6697L39.5741 40.8158C39.3305 40.6332 39.0261 40.6941 38.8435 40.8767L38.1738 41.6682C37.2605 42.7641 37.4432 44.4079 38.5391 45.3212L39.3305 45.9909C39.9394 46.478 39.8785 47.1477 39.2088 47.5738C39.1479 47.5738 39.0261 47.6956 38.9044 47.7565C38.6608 47.9391 38.3564 48.1218 38.052 48.3044C37.6258 48.6089 37.2605 48.9133 36.8952 49.1568C36.5299 49.4612 36.2864 49.7047 36.0429 50.0092C34.947 51.3486 35.1296 53.2968 36.5299 54.3927C37.8693 55.4886 39.8176 55.2451 40.9135 53.9057C41.157 53.6012 41.4006 53.2968 41.5832 52.8706C41.8267 52.5054 42.0094 52.0183 42.192 51.5921C42.3138 51.2877 42.4356 50.9224 42.5573 50.6789C42.6182 50.4962 42.6791 50.3744 42.6791 50.3136C42.9835 49.583 43.5923 49.4003 44.2012 49.8874ZM41.5832 50.3136C41.4614 50.618 41.4006 50.9224 41.2179 51.2268C41.0353 51.653 40.8526 52.0792 40.67 52.4445C40.4873 52.8098 40.3047 53.0533 40.122 53.2968C39.3914 54.2101 38.1129 54.3318 37.1996 53.6012C36.2864 52.8706 36.1646 51.5921 36.8952 50.6789C37.0779 50.4353 37.3214 50.1918 37.6258 49.9483C37.9302 49.7047 38.2955 49.4003 38.6608 49.1568C38.9044 48.9741 39.2088 48.7915 39.4523 48.6697C39.5741 48.6089 39.6958 48.4871 39.7567 48.4871C41.0353 47.6956 41.157 46.1735 40.0002 45.1994L39.2088 44.5297C38.5391 43.9818 38.4173 43.0076 38.9652 42.3379L39.2697 41.9117L48.1585 49.0959L47.8541 49.5221C47.3062 50.1918 46.3321 50.3136 45.6623 49.7656L44.8709 49.0959C43.7141 48.1218 42.2529 48.548 41.705 49.9483C41.705 50.07 41.6441 50.1918 41.5832 50.3136Z" fill="#0098BC"/>
<path d="M50.4111 47.5129C51.8114 46.3561 53.2117 44.9558 54.5511 43.5555C55.0381 43.0685 55.4643 42.5814 55.7687 42.1552C56.0123 41.9117 56.134 41.729 56.2558 41.6073C56.4385 41.3637 56.3776 41.0593 56.1949 40.8767L53.7596 38.8675C53.577 38.6849 53.2725 38.6849 53.0899 38.8675L51.6287 40.0852L52.4811 38.3196C52.6028 38.0761 52.542 37.8325 52.3593 37.7108L45.7231 32.3531C45.4795 32.1704 45.1751 32.2313 44.9925 32.414C44.9316 32.5357 44.7489 32.7184 44.5663 32.9619C44.201 33.3881 43.8357 33.936 43.4704 34.484C42.3745 36.0669 41.2786 37.7108 40.4263 39.3546C40.061 40.0852 39.6957 40.7549 39.4521 41.4246L40.4263 41.8508C40.7307 41.1811 41.0351 40.5114 41.4004 39.8417C42.2528 38.2587 43.2269 36.6149 44.3837 35.0928C44.749 34.5449 45.236 33.936 45.5404 33.449L51.4461 38.1978L49.6196 41.8508C49.376 42.3379 49.9849 42.8249 50.4111 42.4596L53.3943 39.9634L55.099 41.3637C54.7337 41.7899 54.1858 42.3379 53.7596 42.8858C52.4811 44.2861 51.0808 45.6255 49.6805 46.7823C49.0716 47.2694 48.4628 47.7564 47.9149 48.1217L48.5237 48.9741C49.1934 48.5479 49.8022 48.0608 50.4111 47.5129Z" fill="#0098BC"/>
<path d="M37.5039 52.201C37.3822 51.653 37.7475 51.1051 38.2954 50.9833C38.8434 50.8615 39.3913 51.2268 39.5131 51.7748C39.6348 52.3227 39.2695 52.8707 38.7216 52.9924C38.1736 53.1142 37.6257 52.7489 37.5039 52.201Z" fill="#0098BC"/>
<path d="M47.5494 39.2328C47.7929 39.4155 48.0974 39.4155 48.28 39.1719L50.5936 36.3105L49.8021 35.6407L47.4885 38.5022C47.245 38.7458 47.3059 39.0502 47.5494 39.2328Z" fill="#0098BC"/>
<path d="M44.627 39.5373C44.8706 39.72 45.175 39.6591 45.3576 39.4765L48.9497 35.032L48.1583 34.3623L44.5662 38.8067C44.3226 39.0503 44.3835 39.3547 44.627 39.5373Z" fill="#0098BC"/>
<path d="M56.1339 50.0091C57.5951 50.0091 58.7519 48.8523 58.7519 47.3911C58.7519 46.9041 58.5692 46.2952 58.2648 45.6864C58.0822 45.3211 57.8386 44.8949 57.5951 44.4688C57.3516 44.1035 57.108 43.7382 56.8645 43.3729C56.6819 43.1902 56.621 43.0076 56.4992 42.9467C56.3166 42.7032 55.8904 42.7032 55.7077 42.9467C55.6469 43.0076 55.5251 43.1902 55.3424 43.3729C55.0989 43.7382 54.8554 44.1035 54.6118 44.4688C54.3683 44.8949 54.1248 45.2602 53.9421 45.6864C53.6377 46.3561 53.4551 46.9041 53.4551 47.3911C53.516 48.8523 54.7336 50.0091 56.1339 50.0091ZM54.6118 47.3911C54.6118 47.0867 54.7336 46.5997 54.9771 46.1126C55.1598 45.7473 55.3424 45.382 55.586 45.0167C55.8295 44.6514 56.1948 44.1643 56.1948 44.1643C56.1948 44.1643 56.6819 44.8341 56.8036 45.0167C57.0472 45.382 57.2298 45.7473 57.4125 46.1126C57.656 46.6605 57.7778 47.0867 57.7778 47.3911C57.7778 48.2435 57.108 48.9741 56.1948 48.9741C55.2816 48.9741 54.6118 48.2435 54.6118 47.3911Z" fill="#0098BC"/>
<path d="M66.4231 32.962C66.5448 32.8402 66.6666 32.7794 66.7884 32.7185C66.8492 32.7185 66.9101 32.6576 66.971 32.6576C67.0319 32.6576 67.0928 32.6576 67.1537 32.6576H67.3363L69.6499 34.9711L72.0243 37.2847L72.0852 37.3456L72.0243 37.4065L69.1019 40.1462L66.1795 42.8859L66.1187 42.9468V42.825V38.1979C66.1187 36.615 66.1187 35.3973 66.1187 34.6058C66.1187 33.8144 66.1187 33.3882 66.1795 33.3273C66.2404 33.2055 66.3013 33.0838 66.4231 32.962ZM67.1537 33.8752C67.1537 34.0579 67.1537 34.2405 67.1537 34.4232C67.1537 34.545 67.1537 34.6667 67.1537 34.7276C67.1537 35.8235 67.1537 36.9194 67.1537 37.9544V38.0762V40.5724L70.624 37.2847L67.1537 33.8752ZM79.7564 53.6013H81.5829L80.6696 52.688L79.7564 53.6013ZM83.2876 50.0701L86.8188 53.6013H86.8797C86.9406 53.6013 87.0015 53.6013 87.0623 53.6013C87.1232 53.6013 87.1232 53.6013 87.1841 53.6013C87.1841 53.3577 87.1841 53.0533 87.1841 52.8098C87.1841 52.688 87.1841 52.5663 87.1841 52.4445C87.1841 51.2877 87.1841 50.1918 87.1841 49.0351V48.8524V46.2345L83.2876 50.0701ZM67.1537 45.6865V50.8007L67.8234 50.131L68.554 49.4004C69.2846 48.6698 69.9543 48.0001 70.6849 47.2695L69.4063 45.9909L68.1278 44.7124L67.1537 45.6865ZM69.589 53.5404H71.111H74.5205L81.0958 47.0259L79.8782 45.8083L78.6605 44.5906L69.589 53.5404ZM81.2785 42.0335L83.6529 44.408L87.1232 40.9377V37.7109V36.3106L81.2785 42.0335ZM70.8675 42.1553C71.0502 42.338 71.2937 42.5815 71.4763 42.7641C71.659 42.9468 71.9025 43.1903 72.0852 43.373L73.3637 44.5906L78.1734 39.8418C78.7823 39.2329 79.452 38.6241 80.0608 38.0153C81.5829 36.5541 83.105 35.032 84.627 33.5708H79.9999L75.2511 38.0153L74.8249 38.3806C73.7899 39.3547 72.8158 40.2679 71.7808 41.2421C71.5981 41.3638 71.4763 41.5465 71.2937 41.6683C71.1719 41.9118 70.9893 42.0335 70.8675 42.1553ZM73.3637 34.7885C73.5464 34.6058 73.729 34.4841 73.9117 34.3014C74.0943 34.1188 74.277 33.997 74.4596 33.8144L74.6422 33.6317H73.4855H72.2069L72.2678 33.6926C72.4505 33.8752 72.6331 34.0579 72.8158 34.2405C72.9984 34.4232 73.1811 34.6058 73.3637 34.7885ZM77.4429 54.5145L79.0258 52.9316C79.8782 52.0792 80.6088 51.3486 80.6088 51.3486L80.6696 51.2877L80.7305 51.3486L82.3135 52.9316L83.8964 54.5145L83.9573 54.5754H83.8356H80.6696L77.4429 54.5145L77.3211 54.5754L77.4429 54.5145ZM81.8873 50.0092L84.9314 46.9651L87.9756 43.9209L88.0365 43.86V43.9818V48.8524C88.0365 50.5571 88.0365 51.8357 88.0365 52.6272C88.0365 53.4795 88.0365 53.8448 87.9756 53.9057C87.9147 54.0275 87.8538 54.1492 87.7321 54.271C87.6103 54.3928 87.4885 54.4536 87.3668 54.5145C87.3059 54.5145 87.245 54.5145 87.1232 54.5754C87.0015 54.5754 86.8797 54.5754 86.7579 54.5754H86.3317L84.0791 52.3227L81.8873 50.0092ZM66.1795 45.2603L67.1537 44.3471L68.1278 43.4339L68.1887 43.373L68.2496 43.4339L70.1978 45.3821L72.1461 47.3303L72.2069 47.3912L72.1461 47.4521L71.5372 48.0609C71.3546 48.2436 70.9893 48.548 70.5631 49.0351C70.0152 49.583 69.2846 50.2527 68.6148 50.9224L66.3013 53.1751L66.2404 53.236V53.1142V49.2177L66.1795 45.2603ZM67.2145 54.4536L72.9375 48.8524L78.6605 43.2512L78.7214 43.1903L78.7823 43.2512L80.6696 45.1386L82.557 47.0259L82.6179 47.0868L82.557 47.1477L78.7823 50.9224L75.0075 54.6363H71.1719H67.3363H67.2145V54.4536ZM79.9391 42.0335L84.0182 38.0762L88.0973 34.1188L88.1582 34.0579V34.1797V37.8326V41.4856L85.9664 43.6774L83.7747 45.8692L83.7138 45.93L83.6529 45.8692L81.7655 43.9818L79.8782 42.1553L79.9391 42.0335ZM70.9893 40.6941C71.9025 39.8418 73.1811 38.6241 74.5205 37.3456L79.5738 32.6576H83.2267H86.8797H87.0015L86.9406 32.7185L85.662 33.997C85.2967 34.3623 84.3835 35.2756 83.1658 36.4932C81.9482 37.7109 80.4261 39.1721 78.904 40.6941L73.4246 46.0518L73.3637 46.1127L73.3028 46.0518L71.4155 44.1644C70.9284 43.6774 70.4413 43.1903 70.076 42.825C69.7107 42.4597 69.4672 42.2162 69.4672 42.1553C69.4672 42.0944 70.076 41.5465 70.9893 40.6941ZM72.8158 35.6409C72.5113 35.3364 72.0852 34.9103 71.5981 34.4232L69.8934 32.7185L69.8325 32.6576H69.9543H73.4855H77.0167H77.1384L77.0167 32.7185L76.8949 32.8402C76.834 32.9011 76.5296 33.1447 76.1034 33.5708C75.799 33.8752 75.4337 34.1797 75.0684 34.545L73.7899 35.7017C73.5464 35.9453 73.3637 36.1279 73.3637 36.1279C73.3028 36.1279 73.1202 35.9453 72.8158 35.6409Z" fill="#0098BC"/>
<path d="M107.337 51.8356C106.484 51.8356 105.814 52.5053 105.814 53.3576C105.814 54.21 106.484 54.8797 107.337 54.8797C108.189 54.8797 108.859 54.21 108.859 53.3576C108.919 52.5053 108.25 51.8356 107.337 51.8356ZM107.337 54.0274C106.971 54.0274 106.667 53.7229 106.667 53.3576C106.667 52.9923 106.971 52.6879 107.337 52.6879C107.702 52.6879 108.006 52.9923 108.006 53.3576C108.067 53.7229 107.763 54.0274 107.337 54.0274Z" fill="#0098BC"/>
<path d="M10.9589 54.9406C11.0806 54.9406 11.2024 54.9406 11.3242 54.9406C11.5677 54.9406 11.8112 54.9406 11.9939 54.9406C12.3592 54.9406 12.7245 54.9406 13.1507 54.9406C14.1857 54.9406 15.2207 54.9406 16.2557 54.9406C17.5951 54.9406 18.8736 54.9406 20.2131 54.9406C20.5175 54.9406 20.8219 54.9406 21.1263 54.9406C21.3089 54.9406 21.4916 54.9406 21.6134 54.9406C21.7351 54.9406 21.8569 54.8797 21.9787 54.8797C23.6225 54.5144 24.901 53.8447 26.1187 52.6271C26.7884 51.9574 27.2755 51.2876 27.7016 50.4353C28.2496 49.3394 28.4931 48.1826 28.4931 46.965C28.4931 45.8082 28.2496 44.5297 27.519 43.5555C27.519 43.5555 27.519 43.4946 27.4581 43.4946C27.3972 43.4338 27.3972 43.4338 27.3363 43.3729C27.2146 43.2511 27.0928 43.1293 27.0319 43.0076C26.6666 42.6423 26.3013 42.277 25.936 41.8508C24.7793 40.694 23.6225 39.5373 22.4657 38.3805C21.796 37.7108 21.0654 36.9802 20.3957 36.3105C19.9086 35.8234 19.4216 35.3363 18.9345 34.8493C18.6301 34.5449 18.3257 34.2405 17.9604 33.936C17.7777 33.7534 17.5951 33.6316 17.4124 33.449C17.3516 33.3881 17.3516 33.3881 17.2907 33.3881C16.9254 33.1446 16.5601 32.9619 16.1948 32.7793C15.8295 32.5966 15.4033 32.5357 15.038 32.414C14.9771 32.414 14.8554 32.414 14.7945 32.3531C14.6727 32.3531 14.4901 32.3531 14.3683 32.2922C14.0639 32.2922 13.7595 32.2313 13.4551 32.2313C13.3942 32.2313 13.3333 32.2313 13.2724 32.2313H13.2115C13.1507 32.2313 13.0898 32.2313 13.0289 32.2922C12.968 32.2922 12.8462 32.2922 12.7854 32.3531C11.7503 32.5357 10.7153 33.0228 9.92386 33.7534C9.13239 34.484 8.46268 35.3972 8.09738 36.4322C7.91473 37.0411 7.73208 37.7108 7.73208 38.3805C7.73208 38.9284 7.79296 39.4155 7.97561 39.9026C8.0365 40.0852 8.09738 40.2679 8.21914 40.4505C8.40179 40.694 8.58444 40.9984 8.82797 41.242C9.31503 41.7899 9.86298 42.277 10.35 42.8249C11.3242 43.7991 12.2983 44.7732 13.2724 45.7473C14.1248 46.5997 14.9771 47.452 15.8295 48.2435C16.4383 48.8523 17.0472 49.4003 17.5951 50.0091C17.7169 50.1309 17.8386 50.2526 17.9604 50.3744C18.0213 50.4353 18.0822 50.4962 18.2039 50.5571C18.3866 50.6788 18.691 50.8006 18.9345 50.8615C19.2389 50.9832 19.5433 51.0441 19.9086 51.0441C20.0913 51.0441 20.2131 51.0441 20.3957 51.0441C22.5875 51.0441 24.414 49.4612 24.6575 47.2694C24.6575 47.1476 24.6575 46.965 24.6575 46.8432C24.6575 46.5388 24.5966 46.2344 24.4749 45.93C24.3531 45.6255 24.1704 45.382 23.9878 45.1385C23.5007 44.6514 22.8919 44.4079 22.2831 44.4079C21.6134 44.4079 21.0045 44.6514 20.5784 45.1385C20.1522 45.5647 19.9086 46.1126 19.9086 46.7214C19.9086 47.1476 20.0304 47.5129 20.3348 47.8173C20.6392 48.1217 21.0045 48.2435 21.3698 48.2435C21.7351 48.2435 22.1004 48.1217 22.4048 47.8173C22.5266 47.6956 22.6484 47.5129 22.7093 47.3911C22.7701 47.3303 22.7701 47.2694 22.831 47.2085C22.831 47.1476 22.8919 47.1476 22.8919 47.0867L22.9528 47.0258C23.0137 46.965 23.0745 46.965 23.1354 46.965C23.1963 46.965 23.2572 46.965 23.2572 46.965C23.3181 46.965 23.3181 47.0258 23.379 47.0258C23.4398 47.0867 23.4398 47.0867 23.5007 47.1476C23.5007 47.2085 23.5007 47.2085 23.5007 47.2694C23.5007 47.3303 23.5007 47.3303 23.5007 47.3303V47.3911C23.4398 47.6956 23.3181 47.9391 23.1354 48.1826C22.9528 48.4262 22.7701 48.6697 22.5875 48.9132C22.2831 49.2176 21.9178 49.4612 21.5525 49.5829C21.1872 49.7047 20.761 49.8265 20.3957 49.8265C19.5433 49.8265 18.7519 49.4612 18.2039 48.9132C17.8995 48.6088 17.656 48.2435 17.4733 47.8173C17.2907 47.3911 17.2298 46.965 17.2298 46.5388C17.2298 46.417 17.2298 46.3561 17.2298 46.2344C17.2298 45.93 17.2907 45.6255 17.3516 45.3211C17.4124 45.0167 17.5342 44.7123 17.7169 44.4079C18.3866 43.0685 19.6042 42.0943 21.0045 41.6682C21.1872 41.6073 21.3698 41.6073 21.6134 41.6073C21.8569 41.6073 22.1004 41.6073 22.2831 41.6073C22.5266 41.6073 22.7701 41.6073 22.9528 41.6073C23.1354 41.6073 23.3181 41.6682 23.5616 41.6682C25.3272 42.1552 26.7275 43.5555 27.2146 45.3211C27.2755 45.5038 27.2755 45.6864 27.2755 45.8691C27.2755 46.1126 27.2755 46.2953 27.2755 46.5388C27.2755 47.0867 27.2146 47.6956 27.0928 48.2435C26.7884 49.4612 26.1796 50.5571 25.2663 51.4703C24.3531 52.3835 23.2572 52.9924 22.0395 53.2968L21.4307 53.4794H16.3774H11.2024L2.98322 45.6255L7.6712 45.5647H10.4718L10.2283 45.3211L9.4368 44.5297H5.5403C5.175 44.5297 4.87059 44.5297 4.50529 44.5297C3.7747 44.5297 3.04411 44.5297 2.31351 44.5297C2.13086 44.5297 1.94821 44.5297 1.70468 44.5297C1.58292 44.5297 1.46115 44.5296 1.40027 44.5905H1.33939C1.33939 44.6514 1.2785 44.6514 1.2785 44.7123C1.21762 44.8341 1.15674 44.8949 1.15674 45.0167C1.15674 45.0776 1.15674 45.0776 1.15674 45.1385C1.15674 45.1385 1.21762 45.1994 1.21762 45.2602C1.40027 45.5038 1.6438 45.7473 1.88733 45.93C2.37439 46.417 2.86146 46.9041 3.34852 47.3911C4.20088 48.2435 5.05324 49.0959 5.9056 49.9482C6.87972 50.9223 7.79296 51.8356 8.76709 52.8097C9.31503 53.2968 9.8021 53.8447 10.35 54.3318C10.5327 54.4535 10.6545 54.6362 10.8371 54.758C10.8371 54.758 10.8371 54.758 10.898 54.8188C10.898 54.9406 10.9589 54.9406 10.9589 54.9406ZM8.88885 39.2937C8.82797 38.9893 8.82797 38.7458 8.82797 38.4414C8.82797 37.3455 9.25415 36.2496 9.92386 35.3972C10.4109 34.7884 11.0198 34.3013 11.6895 33.936C12.3592 33.5707 13.1507 33.449 13.9421 33.449C14.2465 33.449 14.551 33.5099 14.8554 33.5099C15.7686 33.6925 16.4383 33.9969 17.1689 34.5449C17.2298 34.6058 17.2298 34.6058 17.2907 34.6666C17.3516 34.7275 17.4124 34.7884 17.5342 34.8493C17.7777 35.0319 17.9604 35.2755 18.2039 35.519C18.8736 36.1278 19.4825 36.7975 20.1522 37.4672L23.379 40.694L21.9787 40.8158C19.7869 40.9984 17.8386 42.2161 16.8645 44.2252C16.7427 44.4688 16.621 44.7123 16.5601 45.0167C16.4383 45.3211 16.3774 45.6255 16.3166 45.93C16.3166 46.0517 16.2557 46.1735 16.2557 46.2953V46.3561V46.417V46.4779C16.2557 46.5388 16.1948 46.5388 16.1339 46.5997C16.073 46.6606 16.0121 46.6605 15.8904 46.6605C15.8295 46.6605 15.8295 46.6605 15.8295 46.6605C15.8295 46.6605 15.8295 46.6605 15.7686 46.6605H15.7077L15.5251 46.5388L15.4642 46.4779C15.4033 46.417 15.3424 46.3561 15.2815 46.2953C15.038 46.1126 14.8554 45.8691 14.6118 45.6255C13.8812 44.8949 13.2115 44.2252 12.4809 43.4946C11.8112 42.8249 11.1415 42.1552 10.4718 41.4246C10.1065 41.0593 9.8021 40.694 9.49768 40.3287C9.37592 40.207 9.25415 40.0243 9.19327 39.8417C9.01062 39.659 8.94974 39.4764 8.88885 39.2937Z" fill="#0098BC"/>
<path d="M107.398 50.2527C106.606 51.7748 104.962 52.7489 103.258 52.7489C100.822 52.7489 98.8131 50.9224 98.5696 48.548C96.7431 48.3044 95.3428 46.7215 95.3428 44.895C95.3428 42.825 97.0475 41.1812 99.1175 41.1812C101.188 41.1812 102.831 42.825 102.831 44.895C102.831 46.7215 101.431 48.3044 99.6046 48.548C99.8481 50.3745 101.37 51.7139 103.197 51.7139C105.023 51.7139 106.545 50.3745 106.789 48.6089C104.962 48.3653 103.562 46.7824 103.562 44.9559C103.562 43.0685 104.962 41.5465 106.789 41.3029V35.3973C105.632 35.1538 104.78 34.1188 104.78 32.9011C104.78 32.5967 105.023 32.3531 105.328 32.3531H109.407C109.711 32.3531 109.955 32.5967 109.955 32.9011C109.955 34.1188 109.102 35.1538 107.946 35.3973V41.3029C109.772 41.5465 111.172 43.1294 111.172 44.9559C111.172 46.7824 109.772 48.3653 108.006 48.6089C108.25 50.4353 109.833 51.7139 111.598 51.7139C113.425 51.7139 114.947 50.3745 115.191 48.548C113.364 48.3044 111.964 46.7215 111.964 44.895C111.964 42.825 113.668 41.1812 115.678 41.1812C117.748 41.1812 119.391 42.825 119.391 44.895C119.391 46.7215 117.991 48.3044 116.165 48.548C115.921 50.9224 113.851 52.7489 111.477 52.7489C109.772 52.7489 108.189 51.8356 107.398 50.2527ZM96.3778 44.895C96.3778 46.3562 97.5954 47.5739 99.0566 47.5739C100.518 47.5739 101.735 46.3562 101.735 44.895C101.735 43.4338 100.518 42.2162 99.0566 42.2162C97.5954 42.2162 96.3778 43.4338 96.3778 44.895ZM105.997 33.3273C106.18 33.8752 106.728 34.3014 107.398 34.3014C108.006 34.3014 108.615 33.9361 108.798 33.3273H105.997ZM104.719 44.895C104.719 46.3562 105.936 47.5739 107.398 47.5739C108.859 47.5739 110.076 46.3562 110.076 44.895C110.076 43.4338 108.859 42.2162 107.398 42.2162C105.875 42.2162 104.719 43.4338 104.719 44.895ZM115.739 47.513C117.2 47.513 118.417 46.2953 118.417 44.8341C118.417 43.3729 117.2 42.1553 115.739 42.1553C114.277 42.1553 113.06 43.3729 113.06 44.8341C113.06 46.3562 114.277 47.513 115.739 47.513Z" fill="#0098BC"/>
<path d="M101.066 44.7123C101.066 44.5905 101.005 44.5297 100.883 44.5297C100.762 44.5297 100.701 44.5905 100.701 44.7123C100.762 45.6864 99.9701 46.5388 98.9351 46.5997C98.8133 46.5997 98.7524 46.6606 98.7524 46.7823C98.7524 46.9041 98.8133 46.965 98.9351 46.965C100.153 46.9041 101.127 45.93 101.066 44.7123ZM109.407 44.7123C109.407 44.5905 109.346 44.5297 109.224 44.5297C109.103 44.5297 109.042 44.5905 109.042 44.7123C109.103 45.6864 108.311 46.5388 107.276 46.5997C107.154 46.5997 107.093 46.6606 107.093 46.7823C107.093 46.9041 107.154 46.965 107.276 46.965C108.494 46.9041 109.468 45.8691 109.407 44.7123ZM117.565 44.5905C117.443 44.5905 117.383 44.6514 117.383 44.7732C117.443 45.7473 116.652 46.5997 115.617 46.6606C115.495 46.6606 115.434 46.7214 115.434 46.8432C115.434 46.965 115.495 47.0259 115.617 47.0259C116.774 46.965 117.687 45.9909 117.687 44.8341C117.748 44.6514 117.626 44.5905 117.565 44.5905Z" fill="#0098BC"/>
<path d="M2.31355 24.1339C1.27854 23.5251 0.547945 22.6728 0.121766 21.6986C0.0608828 21.516 0 21.3942 0 21.2725C0 21.0289 0.0608828 20.8463 0.243531 20.7245C0.365297 20.5419 0.608828 20.481 0.852359 20.4201C0.913242 20.4201 0.974125 20.4201 1.03501 20.4201C1.21766 20.4201 1.46119 20.481 1.64384 20.6027C1.82648 20.7245 1.94825 20.9072 2.07002 21.1507C2.31355 21.6986 2.80061 22.1857 3.47032 22.551C4.20091 22.9163 4.93151 23.0989 5.78387 23.0989C6.75799 23.0989 7.61035 22.8554 8.28006 22.3683C8.94977 21.8813 9.31507 21.2116 9.31507 20.3592C9.31507 19.5677 9.01066 18.8371 8.46271 18.2892C7.85388 17.7413 7.00152 17.376 5.78387 17.2542C4.14003 17.0715 2.86149 16.5845 1.88737 15.7321C0.974125 14.8798 0.487062 13.7839 0.487062 12.5053C0.487062 11.5921 0.730594 10.8006 1.21766 10.1309C1.7656 9.4003 2.43531 8.91324 3.28767 8.54795C4.14003 8.18265 5.05327 8 6.14916 8C7.30594 8 8.21918 8.24353 9.01066 8.73059C9.80213 9.21766 10.4718 9.94825 11.0198 10.8615C11.2024 11.105 11.2633 11.4094 11.2633 11.653C11.2633 11.9574 11.1416 12.2009 10.8371 12.4444C10.7154 12.5662 10.5327 12.5662 10.3501 12.5662C10.1674 12.5662 9.98478 12.5053 9.80213 12.3836C9.61948 12.2618 9.49772 12.14 9.37595 11.9574C9.01066 11.3486 8.58448 10.8615 8.03653 10.4962C7.48859 10.1918 6.81887 10.0091 6.0274 10.0091C4.99239 10.0091 4.20091 10.1918 3.59209 10.618C2.98326 11.0441 2.67884 11.653 2.67884 12.4444C2.67884 13.175 2.98326 13.7839 3.5312 14.2709C4.07915 14.758 5.05327 15.1233 6.51446 15.2451C8.09741 15.4277 9.31507 15.9148 10.2283 16.7671C11.0807 17.6195 11.5677 18.7763 11.5677 20.1766C11.5677 21.2116 11.3242 22.0639 10.7763 22.7945C10.2892 23.5251 9.5586 24.0731 8.70624 24.4384C7.85388 24.8037 6.94064 24.9863 5.96652 24.9863C4.56621 25.0472 3.34855 24.7428 2.31355 24.1339Z" fill="#1D1D1B"/>
<path d="M23.1354 13.7229C23.2572 13.8447 23.2572 14.0273 23.2572 14.21C23.2572 14.3318 23.1963 14.4535 23.1354 14.6362L18.9345 24.1339C18.7518 24.621 18.4474 24.8645 18.0212 24.8645C17.7777 24.8645 17.5951 24.8036 17.4733 24.6818C17.3515 24.5601 17.1689 24.3774 17.0471 24.1339L12.9071 14.6362C12.8462 14.5144 12.8462 14.3926 12.8462 14.2709C12.8462 13.9056 13.0288 13.6012 13.3941 13.4185C13.5159 13.3576 13.6377 13.2968 13.8203 13.2968C14.003 13.2968 14.1247 13.3576 14.3074 13.4185C14.4291 13.5403 14.5509 13.662 14.6727 13.7838L18.143 21.7595L21.5524 13.7838C21.6133 13.6012 21.7351 13.4794 21.9177 13.4185C22.0395 13.2968 22.2221 13.2968 22.4048 13.2968C22.5874 13.2968 22.7092 13.3576 22.8919 13.4185C22.8919 13.4185 23.0136 13.5403 23.1354 13.7229Z" fill="#1D1D1B"/>
<path d="M34.3378 19.5069C34.1552 19.6895 33.9725 19.7504 33.6681 19.7504H26.1795C26.3013 20.7245 26.7275 21.5769 27.458 22.1857C28.1278 22.7945 28.9801 23.0989 30.0151 23.0989C30.4413 23.0989 30.8066 23.0381 31.2328 22.8554C31.659 22.6728 32.0243 22.4901 32.2678 22.3075C32.4504 22.1248 32.694 22.0639 32.9375 22.0639C33.181 22.0639 33.3637 22.1248 33.5463 22.3075C33.7899 22.551 33.9116 22.7337 33.9116 23.0381C33.9116 23.2816 33.7899 23.5251 33.6072 23.6469C33.181 24.0122 32.5722 24.3166 31.9025 24.5601C31.2328 24.8037 30.624 24.9254 30.0151 24.9254C28.9192 24.9254 27.9451 24.6819 27.0928 24.1948C26.2404 23.7078 25.5707 22.9772 25.0836 22.1248C24.5966 21.2116 24.353 20.2375 24.353 19.0807C24.353 17.9239 24.5966 16.9498 25.0227 16.0365C25.5098 15.1233 26.1186 14.4536 26.9101 13.9056C27.7016 13.4186 28.6757 13.175 29.7107 13.175C30.7457 13.175 31.5981 13.4186 32.3287 13.9056C33.0593 14.3927 33.6681 15.0624 34.0334 15.9148C34.4596 16.7671 34.6422 17.8021 34.6422 18.898C34.6422 19.1416 34.5205 19.3242 34.3378 19.5069ZM27.3363 15.793C26.7275 16.341 26.3622 17.1324 26.1795 18.0457H32.8157C32.694 17.0715 32.3896 16.341 31.8416 15.793C31.2937 15.2451 30.5631 14.9407 29.7107 14.9407C28.6757 14.9407 27.9451 15.2451 27.3363 15.793Z" fill="#1D1D1B"/>
<path d="M42.4355 23.038C42.6182 23.2207 42.6791 23.4642 42.6791 23.8295C42.6791 24.1339 42.5573 24.3774 42.3747 24.621C42.1311 24.8036 41.8876 24.9254 41.5223 24.9254H41.157C40.4873 24.9254 39.9393 24.7427 39.3914 24.3774C38.8435 24.0121 38.4173 23.5251 38.1129 22.9163C37.8084 22.3074 37.6258 21.5768 37.6258 20.7854V15.5494H36.7126C36.4081 15.5494 36.2255 15.4885 36.0428 15.3059C35.8602 15.1233 35.7993 14.9406 35.7993 14.6971C35.7993 14.3927 35.8602 14.21 36.0428 14.0274C36.2255 13.8447 36.469 13.7838 36.7126 13.7838H37.6258V10.7397C37.6258 10.4353 37.7476 10.1917 37.9302 9.94821C38.1129 9.76556 38.3564 9.6438 38.6608 9.6438C38.9652 9.6438 39.2088 9.76556 39.3914 9.94821C39.574 10.1309 39.6958 10.3744 39.6958 10.7397V13.7838H41.4005C41.7049 13.7838 41.8876 13.8447 42.0702 14.0274C42.2529 14.21 42.3138 14.4535 42.3138 14.6971C42.3138 14.9406 42.2529 15.1841 42.0702 15.3059C41.8876 15.4885 41.6441 15.5494 41.4005 15.5494H39.6958V20.7245C39.6958 21.2724 39.8176 21.7595 40.122 22.1248C40.4264 22.4901 40.7917 22.6727 41.2179 22.6727H41.8876C42.0702 22.7336 42.2529 22.7945 42.4355 23.038Z" fill="#1D1D1B"/>
<path d="M47.2449 24.1949C46.3926 23.7078 45.7837 22.9772 45.2967 22.1249C44.8096 21.2116 44.627 20.2375 44.627 19.0807C44.627 17.9239 44.8705 16.8889 45.2967 16.0366C45.7837 15.1233 46.3926 14.4536 47.2449 13.9666C48.0973 13.4795 49.0105 13.236 50.1064 13.236C51.1414 13.236 52.1155 13.4795 52.907 13.9666C53.7594 14.4536 54.3682 15.1842 54.8553 16.0366C55.3423 16.9498 55.5859 17.9848 55.5859 19.0807C55.5859 20.2375 55.3423 21.2116 54.9161 22.1249C54.4291 23.0381 53.8203 23.7078 52.9679 24.1949C52.1155 24.6819 51.2023 24.9255 50.1064 24.9255C49.0105 24.9255 48.0973 24.6819 47.2449 24.1949ZM51.9329 22.4901C52.4808 22.1249 52.907 21.6987 53.2114 21.0898C53.5158 20.481 53.6376 19.8113 53.6376 19.0198C53.6376 18.2284 53.5158 17.5586 53.2114 16.9498C52.907 16.341 52.4808 15.8539 51.9329 15.5495C51.3849 15.1842 50.7761 15.0624 50.1064 15.0624C49.4367 15.0624 48.8279 15.2451 48.2799 15.5495C47.732 15.9148 47.3058 16.341 47.0014 16.9498C46.697 17.5586 46.5143 18.2284 46.5143 19.0198C46.5143 19.8113 46.6361 20.481 47.0014 21.0898C47.3058 21.6987 47.732 22.1857 48.2799 22.4901C48.8279 22.8554 49.4367 22.9772 50.1064 22.9772C50.7761 22.9772 51.3849 22.8554 51.9329 22.4901Z" fill="#1D1D1B"/>
<path d="M57.7776 19.8112C57.5949 19.6285 57.4731 19.385 57.4731 19.0197C57.4731 18.7153 57.5949 18.4718 57.7776 18.2282C57.9602 18.0456 58.2037 17.9238 58.5082 17.9238H62.9526C63.257 17.9238 63.5005 18.0456 63.6832 18.2282C63.8658 18.4109 63.9876 18.7153 63.9876 19.0197C63.9876 19.3241 63.8658 19.5677 63.6832 19.8112C63.5005 19.9938 63.257 20.1156 62.9526 20.1156H58.5082C58.2037 20.1156 57.9602 19.9938 57.7776 19.8112Z" fill="#1D1D1B"/>
<path d="M67.9454 24.134C66.9104 23.5251 66.1798 22.6728 65.7536 21.6987C65.6927 21.516 65.6318 21.3942 65.6318 21.2725C65.6318 21.029 65.6927 20.8463 65.8754 20.7245C66.058 20.6028 66.2407 20.481 66.4842 20.4201C66.5451 20.4201 66.606 20.4201 66.6668 20.4201C66.8495 20.4201 67.093 20.481 67.2757 20.6028C67.4583 20.7245 67.5801 20.9072 67.7018 21.1507C67.9454 21.6987 68.4324 22.1857 69.1022 22.551C69.8327 22.9163 70.5633 23.099 71.4157 23.099C72.3898 23.099 73.2422 22.8554 73.9119 22.3684C74.5816 21.8813 74.9469 21.2116 74.9469 20.3592C74.9469 19.5678 74.6425 18.8372 74.0945 18.2892C73.4857 17.7413 72.6334 17.376 71.4157 17.2542C69.7719 17.0716 68.4933 16.5845 67.5192 15.7321C66.606 14.8798 66.1189 13.7839 66.1189 12.5054C66.1189 11.5921 66.3624 10.8006 66.8495 10.1309C67.3366 9.46122 68.0063 8.97416 68.8586 8.60886C69.711 8.24356 70.6242 8.06091 71.7201 8.06091C72.8769 8.06091 73.7901 8.30444 74.5816 8.79151C75.3731 9.27857 76.0428 10.0092 76.5907 10.9224C76.7734 11.1659 76.8343 11.4704 76.8343 11.7139C76.8343 12.0183 76.7125 12.2618 76.4081 12.5054C76.2863 12.6271 76.1037 12.6271 75.921 12.6271C75.7384 12.6271 75.5557 12.5662 75.3731 12.4445C75.1904 12.3227 75.0687 12.2009 74.9469 12.0183C74.5816 11.4095 74.1554 10.9224 73.6075 10.5571C73.0595 10.2527 72.3898 10.07 71.5983 10.07C70.5633 10.07 69.7719 10.2527 69.163 10.6789C68.5542 11.1051 68.2498 11.7139 68.2498 12.5054C68.2498 13.236 68.5542 13.8448 69.1022 14.3318C69.6501 14.8189 70.6242 15.1842 72.0854 15.306C73.6684 15.4886 74.886 15.9757 75.7993 16.828C76.6516 17.6804 77.1387 18.8372 77.1387 20.2375C77.1387 21.2725 76.8952 22.1248 76.3472 22.8554C75.8601 23.586 75.1296 24.134 74.2772 24.4993C73.4248 24.8646 72.5116 25.0472 71.5375 25.0472C70.198 25.0472 69.0413 24.7428 67.9454 24.134Z" fill="#1D1D1B"/>
<path d="M85.2358 23.038C85.4185 23.2207 85.4794 23.4642 85.4794 23.8295C85.4794 24.1339 85.3576 24.3774 85.1749 24.621C84.9314 24.8036 84.6879 24.9254 84.3226 24.9254H83.9573C83.2876 24.9254 82.7396 24.7427 82.1917 24.3774C81.6437 24.0121 81.2176 23.5251 80.9131 22.9163C80.6087 22.3074 80.4261 21.5768 80.4261 20.7854V15.5494H79.5129C79.2084 15.5494 79.0258 15.4885 78.8431 15.3059C78.6605 15.1233 78.5996 14.9406 78.5996 14.6971C78.5996 14.3927 78.6605 14.21 78.8431 14.0274C79.0258 13.8447 79.2693 13.7838 79.5129 13.7838H80.4261V10.7397C80.4261 10.4353 80.5479 10.1917 80.7305 9.94821C80.9132 9.76556 81.1567 9.6438 81.4611 9.6438C81.7655 9.6438 82.009 9.76556 82.1917 9.94821C82.3743 10.1309 82.4961 10.3744 82.4961 10.7397V13.7838H84.2008C84.5052 13.7838 84.6879 13.8447 84.8705 14.0274C85.0532 14.21 85.1141 14.4535 85.1141 14.6971C85.1141 14.9406 85.0532 15.1841 84.8705 15.3059C84.6879 15.4885 84.4444 15.5494 84.2008 15.5494H82.4961V20.7245C82.4961 21.2724 82.6179 21.7595 82.9223 22.1248C83.2267 22.4901 83.592 22.6727 84.0182 22.6727H84.6879C84.8705 22.7336 85.0532 22.7945 85.2358 23.038Z" fill="#1D1D1B"/>
<path d="M90.0457 24.1949C89.1933 23.7078 88.5845 22.9772 88.0974 22.1249C87.6104 21.2116 87.4277 20.2375 87.4277 19.0807C87.4277 17.9239 87.6713 16.8889 88.0974 16.0366C88.5845 15.1233 89.1933 14.4536 90.0457 13.9666C90.898 13.4795 91.8113 13.236 92.9072 13.236C93.9422 13.236 94.9163 13.4795 95.7078 13.9666C96.5602 14.4536 97.169 15.1842 97.656 16.0366C98.1431 16.9498 98.3866 17.9848 98.3866 19.0807C98.3866 20.2375 98.1431 21.2116 97.7169 22.1249C97.2299 23.0381 96.621 23.7078 95.7687 24.1949C94.9163 24.6819 94.0031 24.9255 92.9072 24.9255C91.8113 24.9255 90.898 24.6819 90.0457 24.1949ZM94.7337 22.4901C95.2816 22.1249 95.7078 21.6987 96.0122 21.0898C96.3166 20.481 96.4384 19.8113 96.4384 19.0198C96.4384 18.2284 96.3166 17.5586 96.0122 16.9498C95.7078 16.341 95.2816 15.8539 94.7337 15.5495C94.1857 15.2451 93.5769 15.0624 92.9072 15.0624C92.2375 15.0624 91.6286 15.2451 91.0807 15.5495C90.5328 15.8539 90.1066 16.341 89.8022 16.9498C89.4977 17.5586 89.3151 18.2284 89.3151 19.0198C89.3151 19.8113 89.4977 20.481 89.8022 21.0898C90.1066 21.6987 90.5328 22.1857 91.0807 22.4901C91.6286 22.7946 92.2375 22.9772 92.9072 22.9772C93.5769 22.9772 94.1857 22.8554 94.7337 22.4901Z" fill="#1D1D1B"/>
<path d="M108.371 13.4186C108.798 13.6621 108.98 13.9056 108.98 14.2709C108.98 14.3927 108.98 14.4536 108.98 14.5145C108.859 14.9406 108.615 15.1842 108.189 15.1842C108.128 15.1842 108.006 15.1842 107.884 15.1233C107.336 15.0015 106.91 15.0015 106.606 15.0015C105.632 15.0015 104.901 15.245 104.292 15.7321C103.683 16.2192 103.44 16.828 103.44 17.6195V23.7686C103.44 24.1339 103.379 24.3775 103.196 24.5601C103.014 24.7428 102.77 24.8645 102.466 24.8645C102.161 24.8645 101.918 24.8036 101.735 24.621C101.553 24.4384 101.492 24.1948 101.492 23.8295V14.2709C101.492 13.9056 101.553 13.6621 101.735 13.4794C101.918 13.2968 102.161 13.175 102.466 13.175C103.136 13.175 103.44 13.5403 103.44 14.2709V14.6971C103.866 14.21 104.353 13.7839 104.901 13.5403C105.51 13.2359 106.119 13.1141 106.789 13.1141C107.397 13.0533 107.945 13.175 108.371 13.4186Z" fill="#1D1D1B"/>
<path d="M119.757 19.5069C119.574 19.6895 119.391 19.7504 119.087 19.7504H111.537C111.659 20.7245 112.085 21.5769 112.816 22.1857C113.486 22.7945 114.338 23.0989 115.373 23.0989C115.799 23.0989 116.165 23.0381 116.591 22.8554C117.017 22.6728 117.382 22.4901 117.626 22.3075C117.808 22.1248 118.052 22.0639 118.295 22.0639C118.539 22.0639 118.722 22.1248 118.904 22.3075C119.148 22.551 119.27 22.7337 119.27 23.0381C119.27 23.2816 119.148 23.5251 118.965 23.6469C118.539 24.0122 117.93 24.3166 117.26 24.5601C116.591 24.8037 115.982 24.9254 115.373 24.9254C114.277 24.9254 113.303 24.6819 112.451 24.1948C111.598 23.7078 110.929 22.9772 110.442 22.1248C109.954 21.2116 109.711 20.2375 109.711 19.0807C109.711 17.9239 109.954 16.9498 110.381 16.0365C110.868 15.1233 111.477 14.4536 112.268 13.9056C113.059 13.4186 114.034 13.175 115.069 13.175C116.104 13.175 116.956 13.4186 117.687 13.9056C118.417 14.3927 119.026 15.0624 119.391 15.9148C119.817 16.7671 120 17.8021 120 18.898C120 19.1416 119.939 19.3242 119.757 19.5069ZM112.694 15.793C112.085 16.341 111.72 17.1324 111.537 18.0457H118.174C118.052 17.0715 117.747 16.341 117.2 15.793C116.652 15.2451 115.921 14.9407 115.069 14.9407C114.095 14.9407 113.303 15.2451 112.694 15.793Z" fill="#1D1D1B"/>
</svg>
