<svg width="64" height="64" viewBox="0 0 64 64" fill="none" xmlns="http://www.w3.org/2000/svg">
<path d="M14.8911 49.9749C14.5802 49.649 14.0769 49.649 13.766 49.9749L12.6922 51.1004L11.6189 49.9749C11.3079 49.649 10.8046 49.649 10.4937 49.9749C10.1831 50.3005 10.1831 50.8284 10.4937 51.1543L11.5674 52.2794L10.4937 53.4049C10.1831 53.7304 10.1831 54.2584 10.4937 54.5843C10.6492 54.7469 10.8528 54.8284 11.0561 54.8284C11.2597 54.8284 11.4634 54.7469 11.6189 54.5843L12.6922 53.4584L13.766 54.5843C13.9214 54.7469 14.1251 54.8284 14.3284 54.8284C14.532 54.8284 14.7357 54.7469 14.8911 54.5843C15.2017 54.2584 15.2017 53.7304 14.8911 53.4049L13.8174 52.2794L14.8911 51.1543C15.2017 50.8284 15.2017 50.3005 14.8911 49.9749Z" fill="#29C1D5"/>
<path d="M11.2886 14.5553C11.4437 14.7182 11.6477 14.7997 11.8514 14.7997C12.0547 14.7997 12.2583 14.7182 12.4134 14.5553L13.4875 13.4302L14.5609 14.5553C14.716 14.7182 14.92 14.7997 15.1236 14.7997C15.3269 14.7997 15.5306 14.7182 15.6857 14.5553C15.9966 14.2297 15.9966 13.7022 15.6857 13.3763L14.6123 12.2512L15.6857 11.1253C15.9966 10.8002 15.9966 10.2722 15.6857 9.94631C15.3751 9.62076 14.8718 9.62076 14.5609 9.94631L13.4875 11.0714L12.4134 9.94631C12.1028 9.62076 11.5996 9.62076 11.2886 9.94631C10.978 10.2722 10.978 10.8002 11.2886 11.1253L12.3623 12.2512L11.2886 13.3763C10.978 13.7022 10.978 14.2297 11.2886 14.5553Z" fill="#29C1D5"/>
<path d="M52.9507 13.8374C54.4857 13.8374 55.7354 12.5279 55.7354 10.9185C55.7354 9.30948 54.4857 8 52.9507 8C51.4149 8 50.166 9.30948 50.166 10.9185C50.166 12.5279 51.4149 13.8374 52.9507 13.8374ZM52.9507 9.66793C53.6087 9.66793 54.1438 10.2288 54.1438 10.9185C54.1438 11.6086 53.6087 12.1694 52.9507 12.1694C52.2923 12.1694 51.7569 11.6086 51.7569 10.9185C51.7569 10.2288 52.2927 9.66793 52.9507 9.66793Z" fill="#29C1D5"/>
<path d="M13.569 40.9401C13.569 39.3307 12.3197 38.0212 10.7847 38.0212C9.24927 38.0212 8 39.3307 8 40.9401C8 42.5491 9.24927 43.859 10.7847 43.859C12.3197 43.859 13.569 42.5491 13.569 40.9401ZM9.59088 40.9401C9.59088 40.25 10.1263 39.6888 10.7847 39.6888C11.4423 39.6888 11.9777 40.25 11.9777 40.9401C11.9777 41.6302 11.4423 42.1907 10.7847 42.1907C10.1263 42.1907 9.59088 41.6302 9.59088 40.9401Z" fill="#29C1D5"/>
<path d="M51.3599 49.6963C49.8245 49.6963 48.5752 51.0058 48.5752 52.6152C48.5752 54.2242 49.8245 55.5337 51.3599 55.5337C52.8949 55.5337 54.1442 54.2242 54.1442 52.6152C54.1442 51.0058 52.8949 49.6963 51.3599 49.6963ZM51.3599 53.8657C50.7018 53.8657 50.1664 53.3045 50.1664 52.6152C50.1664 51.925 50.7018 51.3638 51.3599 51.3638C52.0179 51.3638 52.5533 51.925 52.5533 52.6152C52.5533 53.3045 52.0179 53.8657 51.3599 53.8657Z" fill="#29C1D5"/>
<path d="M40.3609 34.167L44.154 30.1991C44.3686 29.9746 44.443 29.6425 44.3456 29.3418C44.2489 29.0412 43.9978 28.8239 43.697 28.7822L38.3861 28.04L35.9569 23.0324C35.82 22.7489 35.5324 22.5511 35.2386 22.5764C34.9361 22.5806 34.6612 22.7635 34.5302 23.0504L32.2153 28.1154L26.9222 28.9887C26.6233 29.0385 26.3769 29.2615 26.286 29.5645C26.1959 29.8675 26.278 30.1984 26.497 30.4172L30.378 34.2898L29.5353 39.8372C29.4871 40.1509 29.6138 40.4654 29.8609 40.6486C29.9974 40.7511 30.159 40.8024 30.3207 40.8024C30.4503 40.8024 30.5809 40.7687 30.6988 40.7022L35.4127 38.0304L40.1843 40.5851C40.454 40.7293 40.7781 40.7006 41.0219 40.5113C41.2646 40.3211 41.3839 40.0032 41.3288 39.6918L40.3609 34.167ZM38.7208 34.0373L39.4729 38.3307L35.7642 36.3453C35.5299 36.2209 35.255 36.2251 35.0233 36.3544L31.3601 38.4309L32.0153 34.1199C32.0561 33.8487 31.9678 33.5744 31.7784 33.3843L28.762 30.3744L32.8758 29.6957C33.135 29.6529 33.3572 29.4792 33.4704 29.2317L35.2693 25.294L37.1569 29.1865C37.2759 29.431 37.5018 29.5993 37.7616 29.6356L41.8894 30.2122L38.9416 33.2963C38.7558 33.4899 38.6733 33.7676 38.7208 34.0373Z" fill="#29C1D5"/>
<path d="M33.0209 21.095C33.0902 21.4982 33.4245 21.7798 33.8026 21.7798C33.8497 21.7798 33.8972 21.7756 33.9454 21.766C34.3778 21.6834 34.6647 21.2496 34.5855 20.797L32.922 11.2102C32.8443 10.7565 32.4289 10.4524 31.9979 10.5389C31.565 10.6215 31.2782 11.0553 31.3574 11.5083L33.0209 21.095Z" fill="#29C1D5"/>
<path d="M36.1548 21.7662C36.2029 21.7762 36.2504 21.78 36.2975 21.78C36.6756 21.78 37.0102 21.4981 37.0796 21.0952L38.7427 11.5084C38.8219 11.0555 38.5354 10.6213 38.1026 10.539C37.6719 10.4537 37.2559 10.7567 37.1781 11.2104L35.5146 20.7972C35.4354 21.2498 35.7223 21.684 36.1548 21.7662Z" fill="#29C1D5"/>
<path d="M37.0792 43.7489C37.0015 43.2956 36.5876 42.9907 36.1548 43.0779C35.7223 43.1605 35.4354 43.5943 35.5146 44.0473L37.1781 53.6337C37.2471 54.0369 37.5818 54.3188 37.9599 54.3188C38.007 54.3188 38.0544 54.3146 38.1026 54.3051C38.5354 54.2224 38.8219 53.7886 38.7427 53.3357L37.0792 43.7489Z" fill="#29C1D5"/>
<path d="M33.945 43.0777C33.5125 42.9912 33.0983 43.2954 33.0209 43.7487L31.3574 53.3355C31.2782 53.7884 31.5647 54.2226 31.9975 54.3048C32.0457 54.3144 32.0932 54.3186 32.1406 54.3186C32.518 54.3186 32.853 54.0367 32.922 53.6335L34.5855 44.0471C34.6647 43.5941 34.3779 43.1599 33.945 43.0777Z" fill="#29C1D5"/>
<path d="M55.2344 35.1275L46.1278 33.1696C45.6909 33.0793 45.2763 33.3685 45.1884 33.8188C45.0997 34.2702 45.3771 34.7105 45.8077 34.8034L54.9143 36.7613C54.9683 36.7728 55.022 36.7785 55.0749 36.7785C55.4446 36.7785 55.7764 36.5066 55.8534 36.1125C55.9421 35.6611 55.6643 35.2204 55.2344 35.1275Z" fill="#29C1D5"/>
<path d="M55.0795 29.0218L49.2594 29.9901C48.8251 30.062 48.5291 30.4897 48.5985 30.9442C48.6605 31.355 48.9985 31.6473 49.3831 31.6473C49.4244 31.6473 49.466 31.6439 49.509 31.6366L55.3291 30.6687C55.7634 30.5964 56.0594 30.1691 55.9901 29.7139C55.9214 29.2594 55.5204 28.9449 55.0795 29.0218Z" fill="#29C1D5"/>
<path d="M24.1333 31.692C24.503 31.692 24.8347 31.42 24.9117 31.0259C25.0001 30.5749 24.7227 30.1346 24.2924 30.0412L15.1858 28.0837C14.7504 27.9915 14.3347 28.2823 14.2464 28.7325C14.1581 29.1836 14.4354 29.6243 14.8661 29.7168L23.972 31.6747C24.0267 31.6862 24.0803 31.692 24.1333 31.692Z" fill="#29C1D5"/>
<path d="M20.493 33.2236L14.7704 34.1757C14.3368 34.2473 14.0408 34.6746 14.1102 35.1298C14.1722 35.5403 14.5102 35.8329 14.8945 35.8329C14.9361 35.8329 14.9777 35.8295 15.0208 35.8222L20.7434 34.8704C21.1774 34.7989 21.4733 34.3708 21.404 33.9164C21.3354 33.4619 20.9368 33.1463 20.493 33.2236Z" fill="#29C1D5"/>
<path d="M43.1684 40.357L50.7743 45.9591C50.9134 46.0616 51.0736 46.1106 51.2313 46.1106C51.4816 46.1106 51.7287 45.9867 51.8831 45.7564C52.1356 45.3792 52.0488 44.8585 51.6896 44.5942L44.0834 38.9921C43.7232 38.7274 43.2261 38.8195 42.9743 39.1948C42.7221 39.572 42.8093 40.0919 43.1684 40.357Z" fill="#29C1D5"/>
<path d="M44.4243 43.9877C44.1772 43.6071 43.6823 43.5103 43.3185 43.7685C42.9557 44.0283 42.8619 44.547 43.1097 44.9276L46.4301 50.0305C46.5842 50.2677 46.8345 50.3947 47.0885 50.3947C47.2429 50.3947 47.3984 50.3472 47.536 50.2497C47.8988 49.9899 47.9929 49.4712 47.7448 49.0906L44.4243 43.9877Z" fill="#29C1D5"/>
<path d="M18.4103 20.2498L26.0165 25.8522C26.1556 25.9548 26.3158 26.0033 26.4731 26.0033C26.7235 26.0033 26.9709 25.8798 27.1253 25.6495C27.3778 25.2723 27.291 24.752 26.9315 24.4877L19.3256 18.8848C18.9658 18.6197 18.4687 18.7123 18.2169 19.0879C17.9643 19.4648 18.0512 19.9854 18.4103 20.2498Z" fill="#29C1D5"/>
<path d="M25.6204 20.7711C25.7737 21.0079 26.0241 21.1353 26.2781 21.1353C26.4332 21.1353 26.589 21.0875 26.7259 20.9903C27.0887 20.7302 27.1828 20.2114 26.935 19.8312L23.6693 14.814C23.4226 14.433 22.9259 14.3373 22.5638 14.5944C22.2011 14.8545 22.1069 15.3733 22.3547 15.7535L25.6204 20.7711Z" fill="#29C1D5"/>
<path d="M26.0165 38.9918L18.4103 44.5943C18.0512 44.8586 17.9643 45.3793 18.2169 45.7565C18.3713 45.9868 18.6183 46.1103 18.8683 46.1103C19.0264 46.1103 19.1866 46.0618 19.3256 45.9592L26.9315 40.3568C27.291 40.092 27.3778 39.5718 27.1253 39.1946C26.8727 38.8197 26.3764 38.7275 26.0165 38.9918Z" fill="#29C1D5"/>
<path d="M26.781 43.7685C26.4175 43.5095 25.9233 43.6066 25.6755 43.9877L22.3547 49.0905C22.1069 49.4708 22.2011 49.9895 22.5638 50.2497C22.7014 50.3472 22.8565 50.3947 23.0113 50.3947C23.2653 50.3947 23.5153 50.2676 23.6693 50.0305L26.9901 44.9276C27.2379 44.5473 27.1438 44.0282 26.781 43.7685Z" fill="#29C1D5"/>
<path d="M43.6265 26.0033C43.7841 26.0033 43.944 25.9547 44.0834 25.8518L51.6896 20.2497C52.0488 19.9849 52.1353 19.4647 51.8831 19.0879C51.6301 18.7122 51.1342 18.6192 50.7743 18.8847L43.1684 24.4868C42.8093 24.7519 42.7221 25.2718 42.9743 25.649C43.129 25.8797 43.3765 26.0033 43.6265 26.0033Z" fill="#29C1D5"/>
<path d="M43.3746 20.9902C43.5119 21.0878 43.6673 21.1352 43.8221 21.1352C44.0761 21.1352 44.3257 21.0078 44.4797 20.771L47.7458 15.7535C47.9932 15.3732 47.8991 14.8545 47.5363 14.5943C47.1728 14.3365 46.6783 14.4317 46.4308 14.8139L43.1655 19.8311C42.9173 20.2113 43.0115 20.7301 43.3746 20.9902Z" fill="#29C1D5"/>
</svg>
