<svg width="58" height="32" viewBox="0 0 58 32" fill="none" xmlns="http://www.w3.org/2000/svg">
<path fill-rule="evenodd" clip-rule="evenodd" d="M49.0264 29.7057H17.8717C13.283 29.7057 9.41882 25.9623 9.41882 21.2529C9.41882 16.6642 13.1622 12.8 17.8717 12.8H49.0264C53.615 12.8 57.4792 16.5434 57.4792 21.2529C57.4792 25.9623 53.615 29.7057 49.0264 29.7057Z" fill="#83C442"/>
<path fill-rule="evenodd" clip-rule="evenodd" d="M49.0264 28.6188H17.6302C15.3359 28.6188 13.5245 26.8075 13.5245 24.5131C13.5245 22.2188 15.3359 20.4075 17.6302 20.4075H49.0264C51.3208 20.4075 53.1321 22.2188 53.1321 24.5131C53.1321 26.6867 51.3208 28.6188 49.0264 28.6188Z" fill="white"/>
<path d="M21.132 14.1283H16.3018V9.41887C16.3018 6.88302 14.249 4.83019 11.7132 4.83019C9.29806 4.83019 7.24523 6.88302 7.24523 9.41887V14.1283H2.41504V9.41887C2.41504 4.22642 6.5207 0 11.7132 0C16.9056 0 21.132 4.22642 21.132 9.41887V14.1283Z" fill="#939393"/>
<path d="M19.9246 14.2491H17.5095V9.53969C17.5095 6.40007 14.9736 3.74346 11.7132 3.74346C8.45287 3.74346 6.03778 6.40007 6.03778 9.53969V14.2491H3.62268V9.53969C3.62268 5.07177 7.24532 1.32837 11.834 1.32837C16.4227 1.32837 20.0453 4.95101 20.0453 9.53969V14.2491H19.9246Z" fill="#C2C1C0"/>
<path d="M11.7132 31.8793C18.1822 31.8793 23.4264 26.6351 23.4264 20.1661C23.4264 13.6971 18.1822 8.45288 11.7132 8.45288C5.24418 8.45288 0 13.6971 0 20.1661C0 26.6351 5.24418 31.8793 11.7132 31.8793Z" fill="#BABABA"/>
<path d="M11.7132 30.0679C17.1818 30.0679 21.6151 25.6347 21.6151 20.166C21.6151 14.6974 17.1818 10.2642 11.7132 10.2642C6.2445 10.2642 1.81128 14.6974 1.81128 20.166C1.81128 25.6347 6.2445 30.0679 11.7132 30.0679Z" fill="#83C441"/>
<path d="M11.7132 30.6717C5.91695 30.6717 1.20752 25.9623 1.20752 20.1661C1.20752 14.3698 5.91695 9.6604 11.7132 9.6604C17.5094 9.6604 22.2188 14.3698 22.2188 20.1661C22.2188 25.9623 17.5094 30.6717 11.7132 30.6717ZM11.7132 10.8679C6.64148 10.8679 2.41507 15.0944 2.41507 20.1661C2.41507 25.2378 6.64148 29.4642 11.7132 29.4642C16.9056 29.4642 21.0113 25.2378 21.0113 20.1661C21.0113 15.0944 16.9056 10.8679 11.7132 10.8679Z" fill="#707071"/>
<path fill-rule="evenodd" clip-rule="evenodd" d="M28.3773 14.9736L28.1358 15.4567H26.6867C26.6867 15.4567 25.8415 15.5774 25.8415 16.1812C25.8415 16.9057 25.7207 17.751 25.7207 17.751C25.7207 17.751 25.8415 18.234 26.4452 18.234C27.049 18.234 28.015 18.234 28.015 18.234L27.6528 18.8378H25.8415C25.8415 18.8378 24.6339 18.9585 24.6339 17.8717C24.6339 16.785 24.6339 16.1812 24.6339 16.1812C24.6339 16.1812 24.8754 15.0944 25.9622 15.0944C27.532 14.9736 28.3773 14.9736 28.3773 14.9736Z" fill="white"/>
<path d="M51.5622 18.717C49.8716 18.717 49.6301 17.6302 49.6301 17.6302V16.0604C49.6301 16.0604 49.6301 15.5774 49.9924 15.2151C50.3547 14.8528 50.9584 14.6113 51.683 14.6113C52.4075 14.6113 52.8905 14.7321 53.2528 15.0943C53.615 15.4566 53.615 15.8189 53.615 15.9396L53.4943 17.5094C53.4943 17.6302 53.2528 18.717 51.5622 18.717ZM50.3547 17.5094C50.3547 17.6302 50.5962 17.9925 51.5622 17.9925C52.649 17.9925 52.7698 17.3887 52.7698 17.3887L52.8905 15.8189C52.8905 15.8189 52.8905 15.2151 51.8037 15.2151C51.3207 15.2151 50.8377 15.3359 50.7169 15.5774C50.5962 15.6981 50.5962 15.9396 50.5962 15.9396L50.3547 17.5094Z" fill="white"/>
<path d="M41.6603 18.717C39.9698 18.717 39.7283 17.6302 39.7283 17.6302V16.0604C39.7283 16.0604 39.7283 15.5774 40.0905 15.2151C40.4528 14.8528 41.0566 14.6113 41.7811 14.6113C42.5056 14.6113 42.9886 14.7321 43.3509 15.0943C43.7132 15.4566 43.7132 15.8189 43.7132 15.9396L43.5924 17.5094C43.5924 17.6302 43.3509 18.717 41.6603 18.717ZM40.4528 17.5094C40.4528 17.6302 40.6943 17.9925 41.6603 17.9925C42.7471 17.9925 42.8679 17.3887 42.8679 17.3887L42.9886 15.8189C42.9886 15.8189 42.9886 15.2151 41.9019 15.2151C41.4188 15.2151 40.9358 15.3359 40.8151 15.5774C40.6943 15.6981 40.6943 15.9396 40.6943 15.9396L40.4528 17.5094Z" fill="white"/>
<path d="M30.7924 18.717C29.1019 18.717 28.8604 17.6302 28.8604 17.6302V16.0604C28.8604 16.0604 28.8604 15.5774 29.2226 15.2151C29.5849 14.8528 30.1887 14.6113 30.9132 14.6113C31.6377 14.6113 32.1207 14.7321 32.483 15.0943C32.8453 15.4566 32.8453 15.8189 32.8453 15.9396L32.7245 17.5094C32.7245 17.6302 32.483 18.717 30.7924 18.717ZM29.5849 17.5094C29.5849 17.6302 29.8264 17.9925 30.7924 17.9925C31.8792 17.9925 32 17.3887 32 17.3887L32.1207 15.8189C32.1207 15.8189 32.1207 15.2151 31.0339 15.2151C30.5509 15.2151 30.0679 15.3359 29.9471 15.5774C29.8264 15.6981 29.8264 15.9396 29.8264 15.9396L29.5849 17.5094Z" fill="white"/>
<path fill-rule="evenodd" clip-rule="evenodd" d="M37.7962 14.8527H38.7622L38.2792 18.5961H37.3132L37.4339 16.5433L36.1056 17.9923L35.0188 16.5433L34.6566 18.4753H33.8113L34.4151 14.8527L35.1396 14.7319L36.2264 16.5433L37.7962 14.8527Z" fill="white"/>
<path fill-rule="evenodd" clip-rule="evenodd" d="M44.6792 15.8189L45.5245 16.1811V17.9925C45.5245 17.9925 46.4905 17.9925 46.7321 17.9925C46.9736 17.9925 47.5773 17.8717 47.5773 16.5434C47.5773 15.8189 47.3358 15.3359 46.7321 15.3359C46.1283 15.3359 45.283 15.3359 45.283 15.3359L44.8 14.6113H47.3358C47.3358 14.6113 48.4226 14.6113 48.4226 15.8189C48.4226 17.0264 48.4226 17.5094 48.4226 17.5094C48.4226 17.5094 48.3019 18.5962 46.9736 18.5962C45.6453 18.5962 44.5585 18.5962 44.5585 18.5962L44.6792 15.8189Z" fill="white"/>
<path d="M28.015 24.7545C27.532 24.6337 27.1697 24.3922 26.9282 24.1507C26.6867 23.9092 26.5659 23.5469 26.5659 23.1847C26.5659 22.8224 26.6867 22.4601 27.049 22.0979C27.2905 21.8563 27.7735 21.7356 28.1358 21.7356C28.498 21.7356 28.7395 21.8564 28.981 21.9771C29.2225 22.0979 29.4641 22.3394 29.5848 22.5809C29.7056 22.8224 29.8263 23.0639 29.8263 23.4262H29.2225C29.2225 23.0639 29.1018 22.8224 28.981 22.7016C28.8603 22.4601 28.498 22.4601 28.2565 22.4601C28.015 22.4601 27.7735 22.5809 27.532 22.7016C27.4112 22.8224 27.2905 23.0639 27.2905 23.3054C27.2905 23.5469 27.4112 23.6677 27.532 23.9092C27.6527 24.0299 28.015 24.1507 28.3773 24.2714C28.7395 24.3922 29.1018 24.513 29.2225 24.6337C29.4641 24.7545 29.5848 24.996 29.7056 25.1167C29.8263 25.3582 29.8263 25.5997 29.8263 25.8413C29.8263 26.3243 29.7056 26.5658 29.3433 26.8073C29.1018 27.0488 28.6188 27.1696 28.1358 27.1696C27.7735 27.1696 27.532 27.0488 27.2905 26.928C27.049 26.8073 26.8075 26.5658 26.6867 26.3243C26.5659 26.0828 26.4452 25.8413 26.4452 25.479H27.049C27.049 25.8413 27.1697 26.0828 27.4112 26.2035C27.6527 26.3243 27.7735 26.5658 28.1358 26.5658C28.498 26.5658 28.7395 26.445 28.8603 26.3243C28.981 26.2035 29.1018 25.962 29.1018 25.7205C29.1018 25.479 28.981 25.2375 28.8603 25.1167C28.7395 24.996 28.498 24.8752 28.015 24.7545Z" fill="#707071"/>
<path d="M28.1358 27.4111C27.7735 27.4111 27.4113 27.2904 27.1698 27.1696C26.8075 27.0489 26.566 26.8073 26.4452 26.4451C26.3245 26.2036 26.2037 25.8413 26.2037 25.479V25.1168H27.4113V25.479C27.4113 25.7206 27.532 25.8413 27.6528 25.9621C27.7735 26.0828 28.0151 26.2036 28.2566 26.2036C28.4981 26.2036 28.6188 26.2036 28.7396 26.0828C28.8603 25.9621 28.8603 25.8413 28.8603 25.7206C28.8603 25.479 28.7396 25.3583 28.7396 25.3583C28.6188 25.2375 28.4981 25.1168 28.0151 24.996C27.4113 24.7545 27.049 24.6338 26.8075 24.2715C26.566 23.9092 26.3245 23.547 26.3245 23.1847C26.3245 22.7017 26.4452 22.2187 26.8075 21.9772C27.1698 21.6149 27.6528 21.4941 28.1358 21.4941C28.4981 21.4941 28.8603 21.6149 29.1018 21.7357C29.3434 21.8564 29.5849 22.0979 29.8264 22.4602C29.9471 22.7017 30.0679 23.064 30.0679 23.4262V23.7885H28.8603V23.4262C28.8603 23.1847 28.8603 23.064 28.7396 22.8224C28.6188 22.7017 28.4981 22.5809 28.2566 22.5809C28.0151 22.5809 27.8943 22.5809 27.7735 22.7017C27.6528 22.7017 27.6528 22.8224 27.6528 23.064C27.6528 23.1847 27.6528 23.3055 27.7735 23.4262C27.8943 23.547 28.0151 23.6677 28.4981 23.7885C28.8603 23.9092 29.2226 24.03 29.4641 24.2715C29.7056 24.3923 29.9471 24.6338 30.0679 24.8753C30.1886 25.1168 30.3094 25.3583 30.3094 25.7206C30.3094 26.2036 30.1886 26.6866 29.8264 26.9281C29.2226 27.2904 28.7396 27.4111 28.1358 27.4111ZM26.9283 22.8224C26.9283 22.9432 26.9283 23.064 26.9283 23.1847C26.9283 23.4262 27.049 23.6677 27.1698 23.9092C27.4113 24.1507 27.6528 24.2715 28.1358 24.513C28.6188 24.6338 28.8603 24.8753 29.1018 24.996C29.3434 25.2375 29.4641 25.479 29.4641 25.8413C29.4641 26.0828 29.4641 26.2036 29.3434 26.3243C29.4641 26.2036 29.4641 25.9621 29.4641 25.8413C29.4641 25.5998 29.4641 25.479 29.3434 25.2375C29.2226 25.1168 29.1018 24.996 28.9811 24.8753C28.7396 24.7545 28.4981 24.6338 28.1358 24.513C27.6528 24.3923 27.4113 24.2715 27.1698 24.03C26.9283 23.7885 26.8075 23.547 26.8075 23.3055C26.9283 23.064 26.9283 22.9432 26.9283 22.8224Z" fill="#717071"/>
<path d="M33.0868 24.6338H31.1547V26.5659H33.449V27.1697H30.5509V21.8564H33.449V22.4602H31.1547V24.1508H33.0868V24.6338Z" fill="#707071"/>
<path d="M33.6905 27.4111H30.1887V21.4941H33.6905V22.7017H31.3962V23.7885H33.3283V24.996H31.3962V26.2036H33.6905V27.4111ZM30.7924 26.8073V24.3923V26.8073Z" fill="#717071"/>
<path d="M37.5547 25.3585C37.5547 25.9623 37.3132 26.3245 37.0717 26.6868C36.8302 27.049 36.3472 27.1698 35.8642 27.1698C35.3812 27.1698 34.8981 26.9283 34.5359 26.4453C34.1736 25.9623 34.0529 25.3585 34.0529 24.634V24.1509C34.0529 23.6679 34.1736 23.1849 34.2944 22.8226C34.4151 22.4604 34.6566 22.2189 34.8981 21.9774C35.1396 21.7358 35.5019 21.7358 35.8642 21.7358C36.3472 21.7358 36.7095 21.8566 37.0717 22.2189C37.3132 22.5811 37.5547 22.9434 37.5547 23.5472H36.951C36.951 23.1849 36.8302 22.8226 36.5887 22.5811C36.468 22.3396 36.2264 22.3396 35.8642 22.3396C35.5019 22.3396 35.1396 22.4604 34.8981 22.8226C34.6566 23.1849 34.5359 23.6679 34.5359 24.2717V24.7547C34.5359 25.3585 34.6566 25.8415 34.8981 26.083C35.1396 26.4453 35.3812 26.566 35.7434 26.566C36.1057 26.566 36.3472 26.4453 36.468 26.3245C36.5887 26.2038 36.7095 25.8415 36.8302 25.3585H37.5547Z" fill="#707071"/>
<path d="M35.8641 27.4113C35.2604 27.4113 34.6566 27.1698 34.2943 26.566C33.9321 26.083 33.6906 25.3584 33.6906 24.6339V24.1509C33.6906 23.6679 33.8113 23.1849 33.9321 22.7018C34.0528 22.2188 34.4151 21.9773 34.6566 21.7358C35.0189 21.4943 35.3811 21.3735 35.7434 21.3735C36.3472 21.3735 36.8302 21.615 37.1924 21.9773C37.5547 22.3396 37.6755 22.8226 37.7962 23.4264V23.7886H36.5887V23.5471C36.5887 23.1849 36.4679 22.9433 36.3472 22.8226C36.2264 22.7018 36.1056 22.5811 35.8641 22.5811C35.6226 22.5811 35.3811 22.7018 35.2604 22.9433C35.0189 23.1849 35.0189 23.6679 35.0189 24.1509V24.6339C35.0189 25.1169 35.1396 25.5999 35.2604 25.8415C35.3811 26.083 35.6226 26.2037 35.8641 26.2037C36.1056 26.2037 36.3472 26.2037 36.4679 26.083C36.5887 25.9622 36.7094 25.8415 36.7094 25.3584V25.1169H37.917V25.4792C37.7962 26.083 37.6755 26.566 37.3132 26.9283C36.8302 27.2905 36.4679 27.4113 35.8641 27.4113ZM34.4151 23.6679C34.4151 23.7886 34.4151 24.0301 34.4151 24.1509V24.6339C34.4151 24.8754 34.4151 24.9962 34.4151 25.1169C34.4151 24.9962 34.4151 24.7547 34.4151 24.6339V24.1509C34.2943 24.0301 34.2943 23.7886 34.4151 23.6679ZM37.1924 23.1849V23.0641V23.1849Z" fill="#717071"/>
<path d="M41.6604 21.8564V25.479C41.6604 25.962 41.5397 26.3243 41.2981 26.6865C41.0566 27.0488 40.6944 27.1696 40.2113 27.1696H40.0906C39.6076 27.1696 39.2453 27.0488 38.883 26.6865C38.6415 26.3243 38.4 25.962 38.4 25.3582V21.7356H39.0038V25.3582C39.0038 25.7205 39.1246 26.0828 39.2453 26.2035C39.4868 26.445 39.7283 26.5658 39.9698 26.5658C40.3321 26.5658 40.5736 26.445 40.8151 26.2035C41.0566 25.962 41.0566 25.7205 41.0566 25.3582V21.7356H41.6604V21.8564Z" fill="#707071"/>
<path d="M39.9698 27.4111C39.366 27.4111 38.883 27.1696 38.5207 26.8073C38.1585 26.4451 38.0377 25.9621 38.0377 25.3583V21.4941H39.2453V25.3583C39.2453 25.7206 39.366 25.8413 39.4868 26.0828C39.6075 26.2036 39.849 26.3243 40.0905 26.3243C40.3321 26.3243 40.5736 26.2036 40.6943 26.0828C40.8151 25.9621 40.9358 25.7206 40.9358 25.3583V21.4941H42.1434V25.3583C42.1434 25.9621 42.0226 26.4451 41.6604 26.8073C41.2981 27.1696 40.9358 27.4111 40.3321 27.4111H39.9698ZM41.2981 22.0979V25.3583C41.2981 25.5998 41.2981 25.7206 41.2981 25.8413C41.2981 25.7206 41.4188 25.479 41.4188 25.3583L41.2981 22.0979Z" fill="#717071"/>
<path d="M44.1962 24.9961H43.1094V27.1697H42.5056V21.8564H44.0754C44.5584 21.8564 45.0415 21.9772 45.283 22.2187C45.5245 22.4602 45.6452 22.8225 45.6452 23.4263C45.6452 23.7885 45.5245 24.03 45.4037 24.2715C45.283 24.513 45.0415 24.7546 44.8 24.8753L45.8867 27.1697H45.283L44.1962 24.9961ZM43.2301 24.3923H44.1962C44.4377 24.3923 44.6792 24.2715 44.9207 24.1508C45.0415 24.03 45.1622 23.7885 45.1622 23.4263C45.1622 23.064 45.0415 22.8225 44.9207 22.7017C44.8 22.581 44.5584 22.4602 44.1962 22.4602H43.2301V24.3923Z" fill="#707071"/>
<path d="M45.8868 27.4111H45.0415L44.0755 25.2375H43.4717V27.4111H42.2642V21.4941H44.0755C44.6793 21.4941 45.1623 21.6149 45.5245 21.9772C45.8868 22.3394 46.0076 22.8224 46.0076 23.4262C46.0076 23.7885 45.8868 24.1507 45.766 24.3923C45.6453 24.6338 45.5245 24.7545 45.283 24.8753L46.2491 26.9281V27.2904L45.8868 27.4111ZM42.8679 26.8073V22.0979V26.8073ZM43.4717 24.03H44.0755C44.317 24.03 44.4377 24.03 44.5585 23.9092C44.6793 23.7885 44.6793 23.6677 44.6793 23.4262C44.6793 23.1847 44.6793 22.9432 44.5585 22.9432C44.4377 22.8224 44.317 22.8224 44.0755 22.8224H43.4717V24.03ZM44.9208 22.3394C45.0415 22.3394 45.0415 22.4602 45.0415 22.4602C45.283 22.7017 45.4038 23.064 45.4038 23.4262C45.4038 23.547 45.4038 23.7885 45.283 23.9092C45.283 23.7885 45.4038 23.547 45.4038 23.4262C45.4038 22.9432 45.283 22.7017 45.0415 22.4602C45.0415 22.3394 44.9208 22.3394 44.9208 22.3394Z" fill="#717071"/>
<path d="M49.1472 24.6338H47.0943V26.5659H49.5094V27.1697H46.6113V21.8564H49.5094V22.4602H47.0943V24.1508H49.0264V24.6338H49.1472Z" fill="#707071"/>
<path d="M49.7509 27.4111H46.249V21.4941H49.7509V22.7017H47.4566V23.7885H49.3886V24.996H47.4566V26.2036H49.7509V27.4111ZM46.8528 26.8073V24.3923V26.8073Z" fill="#717071"/>
<path d="M7.96977 19.0791V24.7546H6.03769L5.07166 19.0791H7.96977Z" fill="white"/>
<path d="M9.05657 19.3207C9.05657 19.3207 10.3849 19.3207 10.9886 17.9924C11.4717 16.6641 12.8 14.0075 12.8 14.0075C12.8 14.0075 14.1283 13.6453 14.0075 15.0943C13.8868 16.5434 12.8 18.4755 13.766 18.4755C14.732 18.4755 16.9056 18.4755 16.9056 18.4755C16.9056 18.4755 17.7509 18.5962 17.7509 19.3207C17.7509 20.166 17.3886 20.0453 17.3886 20.2868C17.3886 20.5283 17.7509 20.5283 17.6302 21.0113C17.5094 21.4943 17.0264 21.7358 17.0264 21.9773C17.0264 22.2189 17.2679 22.5811 17.1471 22.9434C17.0264 23.3056 16.5434 23.4264 16.5434 23.7887C16.5434 24.1509 16.6641 24.7547 16.0603 24.9962C15.4566 25.2377 11.7132 24.7547 10.2641 24.3924C9.66035 24.3924 8.81506 24.2717 8.81506 24.2717L9.05657 19.3207Z" fill="white"/>
</svg>
