<svg width="32" height="32" viewBox="0 0 32 32" fill="none" xmlns="http://www.w3.org/2000/svg">
<path d="M16 32C24.8366 32 32 24.8366 32 16C32 7.16344 24.8366 0 16 0C7.16344 0 0 7.16344 0 16C0 24.8366 7.16344 32 16 32Z" fill="url(#paint0_linear)"/>
<path d="M15.5 8.6C18 8.6 18.3 8.6 19.3 8.7C20.2 8.7 20.7 8.9 21 9C21.4 9.2 21.8 9.4 22.1 9.7C22.4 10 22.6 10.3 22.8 10.8C22.9 11.1 23.1 11.6 23.1 12.5C23.1 13.5 23.2 13.8 23.2 16.3C23.2 18.8 23.2 19.1 23.1 20.1C23.1 21 22.9 21.5 22.8 21.8C22.6 22.2 22.4 22.6 22.1 22.9C21.8 23.2 21.5 23.4 21 23.6C20.7 23.7 20.2 23.9 19.3 23.9C18.3 23.9 18 24 15.5 24C13 24 12.7 24 11.7 23.9C10.8 23.9 10.3 23.7 10 23.6C9.6 23.4 9.2 23.2 8.9 22.9C8.6 22.6 8.4 22.3 8.2 21.8C8.1 21.5 7.9 21 7.9 20.1C7.9 19.1 7.8 18.8 7.8 16.3C7.8 13.8 7.8 13.5 7.9 12.5C7.9 11.6 8.1 11.1 8.2 10.8C8.4 10.4 8.6 10 8.9 9.7C9.2 9.4 9.5 9.2 10 9C10.3 8.9 10.8 8.7 11.7 8.7C12.7 8.7 13 8.6 15.5 8.6ZM15.5 7C12.9 7 12.6 7 11.6 7.1C10.6 7.1 9.9 7.3 9.3 7.5C8.7 7.7 8.20001 8.1 7.60001 8.6C7.10001 9.1 6.8 9.6 6.5 10.3C6.3 10.9 6.10001 11.6 6.10001 12.6C6.10001 13.6 6 13.9 6 16.5C6 19.1 6.00001 19.4 6.10001 20.4C6.10001 21.4 6.3 22.1 6.5 22.7C6.7 23.3 7.10001 23.8 7.60001 24.4C8.10001 24.9 8.6 25.2 9.3 25.5C9.9 25.7 10.6 25.9 11.6 25.9C12.6 25.9 12.9 26 15.5 26C18.1 26 18.4 26 19.4 25.9C20.4 25.9 21.1 25.7 21.7 25.5C22.3 25.3 22.8 24.9 23.4 24.4C23.9 23.9 24.2 23.4 24.5 22.7C24.7 22.1 24.9 21.4 24.9 20.4C24.9 19.4 25 19.1 25 16.5C25 13.9 25 13.6 24.9 12.6C24.9 11.6 24.7 10.9 24.5 10.3C24.3 9.7 23.9 9.2 23.4 8.6C22.9 8.1 22.4 7.8 21.7 7.5C21.1 7.3 20.4 7.1 19.4 7.1C18.4 7 18 7 15.5 7Z" fill="white"/>
<path d="M15.4999 11.5C12.7999 11.5 10.7 13.7 10.7 16.3C10.7 19 12.8999 21.1 15.4999 21.1C18.1999 21.1 20.2999 18.9 20.2999 16.3C20.2999 13.7 18.1999 11.5 15.4999 11.5ZM15.4999 19.5C13.7999 19.5 12.3999 18.1 12.3999 16.4C12.3999 14.7 13.7999 13.3 15.4999 13.3C17.1999 13.3 18.6 14.7 18.6 16.4C18.6 18.1 17.1999 19.5 15.4999 19.5Z" fill="white"/>
<path d="M20.4999 12.4C21.1074 12.4 21.5999 11.9075 21.5999 11.3C21.5999 10.6924 21.1074 10.2 20.4999 10.2C19.8924 10.2 19.3999 10.6924 19.3999 11.3C19.3999 11.9075 19.8924 12.4 20.4999 12.4Z" fill="white"/>
<defs>
<linearGradient id="paint0_linear" x1="11.5782" y1="31.4276" x2="20.4155" y2="0.608318" gradientUnits="userSpaceOnUse">
<stop stop-color="#FFC917"/>
<stop offset="0.2228" stop-color="#FFCB66"/>
<stop offset="0.4777" stop-color="#E1435F"/>
<stop offset="0.7426" stop-color="#BD318C"/>
<stop offset="0.9975" stop-color="#613890"/>
</linearGradient>
</defs>
</svg>
