<svg width="41" height="32" viewBox="0 0 41 32" fill="none" xmlns="http://www.w3.org/2000/svg">
<path d="M12.8826 0C12.9051 0 12.9275 0 12.9499 0C13.0285 0.0276121 13.1071 0.0276121 13.1856 0C13.2305 0 13.2754 0 13.3203 0C13.5458 0.0393812 13.7748 0.0313794 14.0019 0.0469476C14.6827 0.0936037 15.3414 0.253529 15.9934 0.443346C17.4749 0.874688 18.8279 1.5708 20.0566 2.51763C20.1229 2.56878 20.1981 2.61213 20.2354 2.69441C20.241 2.71216 20.2415 2.73019 20.2375 2.74834C20.2017 2.8311 20.1263 2.8749 20.0621 2.92893C18.0906 4.58873 16.7376 6.66612 16.0103 9.16429C15.7187 10.1659 15.57 11.1895 15.5274 12.2347C15.439 14.406 15.8823 16.4575 16.8286 18.3972C17.3558 19.4777 18.0324 20.4558 18.8409 21.3408C19.2317 21.7685 19.6529 22.1598 20.0893 22.5364C20.1526 22.5909 20.2277 22.6404 20.2164 22.7436C20.193 22.8275 20.124 22.8705 20.0619 22.9182C18.7742 23.9054 17.3571 24.6235 15.7992 25.0513C14.9022 25.2976 13.9919 25.4411 13.0623 25.4784C9.80104 25.6095 6.92273 24.5979 4.41645 22.4806C3.16628 21.4244 2.18038 20.1471 1.41635 18.6878C0.675897 17.2735 0.210674 15.7708 0.0508475 14.1793C-0.023111 13.4428 0.00120912 12.6983 0.0158485 11.9559C0.032535 11.1096 0.163416 10.2848 0.373438 9.47064C0.877055 7.51826 1.78855 5.78667 3.0983 4.27185C4.21019 2.98588 5.52244 1.96643 7.03391 1.21722C8.2282 0.625225 9.48547 0.235213 10.8037 0.0596786C11.0906 0.0214775 11.3829 0.0406826 11.6706 0C11.7604 0 11.8502 0 11.9399 0C12.0067 0.0364228 12.0787 0.00844726 12.1477 0.0172822C12.2353 0.00755811 12.3254 0.0377807 12.4113 0C12.4786 0 12.5459 0 12.6133 0C12.703 0.0281294 12.7928 0.0281294 12.8826 0Z" fill="#EA001B"/>
<path d="M20.2139 2.74416C20.2145 2.73429 20.2162 2.7246 20.2188 2.71508C20.2266 2.63015 20.2924 2.59058 20.3496 2.54653C21.6281 1.56226 23.0343 0.840284 24.5808 0.404707C25.1107 0.255484 25.6468 0.138981 26.1913 0.0646243C26.4892 0.023958 26.7918 0.0438996 27.0898 0C27.1459 0 27.202 0 27.2582 0C27.3369 0.0365358 27.4201 0.00872937 27.5008 0.0172813C27.6105 0.0074199 27.7222 0.038403 27.8305 0C27.9652 0 28.0998 0 28.2345 0C28.3243 0.0281294 28.4141 0.0281294 28.5038 0C28.5936 0 28.6834 0 28.7732 0C29.0937 0.0478765 29.4192 0.02686 29.7399 0.074106C31.7369 0.36826 33.5589 1.11067 35.2015 2.30198C36.6994 3.38829 37.9077 4.74671 38.8238 6.37159C39.6327 7.80606 40.1445 9.34492 40.3624 10.984C40.4013 11.2762 40.381 11.574 40.422 11.8669C40.422 11.9355 40.422 12.0041 40.422 12.0727C40.3861 12.1504 40.4134 12.2328 40.405 12.3125C40.4134 12.3924 40.3861 12.4749 40.422 12.5528C40.422 12.6443 40.422 12.7358 40.422 12.8272C40.3869 12.9265 40.4132 13.0294 40.405 13.1303C40.4134 13.212 40.3861 13.2962 40.422 13.376C40.422 13.4446 40.422 13.5132 40.422 13.5818C40.3761 13.9026 40.3978 14.2287 40.352 14.5494C40.1703 15.8191 39.815 17.0337 39.2702 18.1931C38.7877 19.2201 38.1858 20.1643 37.4628 21.0309C36.5422 22.1345 35.4624 23.0443 34.2356 23.772C32.6915 24.6878 31.0276 25.2396 29.2513 25.4308C27.6676 25.6012 26.1062 25.4673 24.5715 25.0321C23.0467 24.5998 21.653 23.8952 20.3895 22.9241C20.3235 22.8734 20.2443 22.8338 20.2148 22.7453C20.2058 22.6418 20.2829 22.5945 20.3474 22.5422C20.6724 22.2784 20.9837 21.9962 21.2735 21.6955C21.8121 21.1368 22.3093 20.5405 22.7464 19.8929C23.7804 18.3612 24.4456 16.6782 24.7554 14.8492C24.8469 14.3089 24.8906 13.7633 24.9176 13.2141C24.9742 12.0631 24.8571 10.9315 24.6013 9.81494C24.1495 7.84279 23.273 6.08483 21.9876 4.53862C21.4933 3.94392 20.955 3.39559 20.3582 2.90732C20.3023 2.86157 20.2393 2.81926 20.2139 2.74416Z" fill="#F69D1B"/>
<path d="M20.2274 22.7288L20.2132 22.7342C20.2132 22.7342 20.1981 22.7322 20.1982 22.7321C20.0854 22.564 19.911 22.4638 19.7645 22.3341C18.6314 21.3313 17.7085 20.159 16.983 18.821C16.3681 17.6868 15.9441 16.4827 15.694 15.2153C15.565 14.5613 15.4979 13.8993 15.4671 13.2309C15.409 11.9724 15.5431 10.7363 15.8518 9.52156C16.3062 7.73289 17.1114 6.12111 18.2588 4.68704C18.8062 4.00281 19.4158 3.38409 20.0889 2.82945C20.1278 2.79742 20.1723 2.77242 20.2141 2.74414C20.4151 2.82872 20.5565 2.9963 20.7149 3.13517C21.4263 3.75879 22.0521 4.46558 22.6041 5.23783C23.3984 6.34908 24.0018 7.56085 24.4087 8.87252C24.652 9.65665 24.8186 10.4567 24.9068 11.2752C24.9624 11.7911 25.0066 12.3085 24.9961 12.8256C24.971 14.0664 24.795 15.2845 24.4353 16.4752C23.9867 17.96 23.288 19.3099 22.3567 20.5341C21.7518 21.3293 21.0639 22.046 20.2823 22.6655C20.2608 22.6825 20.2456 22.7075 20.2274 22.7288Z" fill="#FE5F00"/>
<path d="M39.7596 20.4389C39.809 20.3285 39.8461 20.252 39.8773 20.1731C39.8971 20.1234 39.9277 20.099 39.9793 20.1063C40.0339 20.114 40.0296 20.1596 40.0301 20.1982C40.0312 20.3065 40.0312 20.4148 40.0293 20.523C40.0288 20.5555 40.0294 20.5988 39.9814 20.5948C39.9469 20.592 39.9469 20.5558 39.9465 20.5281C39.9455 20.456 39.9462 20.3839 39.9462 20.3069C39.9269 20.3161 39.9151 20.318 39.9091 20.3251C39.8527 20.3919 39.8707 20.5329 39.7716 20.54C39.6353 20.5498 39.6811 20.3668 39.5788 20.2988C39.5788 20.3875 39.5795 20.4648 39.5784 20.542C39.578 20.5718 39.5687 20.6008 39.5328 20.5996C39.4992 20.5985 39.4857 20.5722 39.4856 20.5413C39.4848 20.416 39.485 20.2907 39.4858 20.1654C39.486 20.1234 39.5102 20.107 39.5499 20.1043C39.5964 20.1011 39.6232 20.1249 39.6405 20.1645C39.6766 20.2468 39.7121 20.3294 39.7596 20.4389Z" fill="#F6981A"/>
<path d="M39.185 20.1026C39.2351 20.1026 39.2852 20.1017 39.3352 20.1029C39.3662 20.1036 39.3894 20.1182 39.3874 20.1533C39.386 20.1782 39.3688 20.1964 39.3439 20.1948C39.2002 20.1853 39.2494 20.2944 39.2366 20.369C39.2233 20.4466 39.281 20.5867 39.1888 20.5879C39.0948 20.5891 39.1561 20.4509 39.1424 20.3757C39.1281 20.2966 39.1799 20.1811 39.0271 20.194C39.003 20.196 38.9847 20.1795 38.9828 20.1536C38.9799 20.1168 39.005 20.1048 39.0349 20.1038C39.0849 20.1023 39.135 20.1034 39.185 20.1034C39.185 20.1034 39.185 20.1029 39.185 20.1026Z" fill="#F7A02D"/>
<path d="M2.83622 28.8469C3.46191 28.1819 4.27519 28.2125 4.84333 28.895C4.90177 28.9652 4.92301 28.9425 4.96298 28.8861C5.3561 28.3312 6.09865 28.2661 6.62096 28.4798C7.08848 28.6711 7.33783 29.0533 7.35563 29.5538C7.38142 30.2786 7.36425 31.0049 7.36922 31.7306C7.36981 31.8171 7.33836 31.8357 7.2618 31.8334C7.10489 31.8286 6.94722 31.8241 6.79083 31.8345C6.67441 31.8423 6.63969 31.8087 6.64128 31.6859C6.64829 31.1431 6.6455 30.6002 6.64335 30.0574C6.6429 29.9434 6.63543 29.8289 6.6222 29.7158C6.58012 29.3559 6.38793 29.1313 6.08546 29.0813C5.67579 29.0136 5.34619 29.1671 5.1945 29.4976C5.12679 29.6451 5.10319 29.8015 5.10349 29.9636C5.10457 30.535 5.09917 31.1065 5.10732 31.6778C5.10921 31.8101 5.07199 31.8465 4.94867 31.8338C4.76112 31.8146 4.50881 31.9145 4.4022 31.7938C4.30885 31.6882 4.3725 31.4361 4.37162 31.2487C4.36975 30.8544 4.37127 30.4602 4.37085 30.0659C4.37077 29.9859 4.37035 29.9058 4.36659 29.8259C4.3438 29.3414 4.08919 29.0684 3.65737 29.0639C3.19518 29.0591 2.86606 29.3531 2.85262 29.8226C2.83529 30.4279 2.8399 31.034 2.84761 31.6395C2.84959 31.7948 2.81255 31.8516 2.6563 31.8349C2.52315 31.8206 2.38659 31.8228 2.25297 31.8346C2.12848 31.8456 2.10829 31.7954 2.10878 31.6804C2.11314 30.6576 2.11315 29.6347 2.10877 28.6119C2.10828 28.4968 2.12901 28.4472 2.25322 28.4576C2.39251 28.4692 2.53431 28.47 2.67345 28.4575C2.80883 28.4454 2.85562 28.4942 2.8376 28.6279C2.82941 28.6887 2.83622 28.7517 2.83622 28.8469Z" fill="#231F20"/>
<path d="M13.5991 31.9206C13.1015 31.9108 12.6634 31.8172 12.2635 31.5699C12.167 31.5102 12.1226 31.4653 12.2071 31.3523C12.3015 31.2261 12.3438 31.0273 12.4628 30.9613C12.5843 30.894 12.7125 31.0806 12.8519 31.13C13.2207 31.2609 13.5927 31.3004 13.9746 31.2129C14.0391 31.1981 14.1035 31.1723 14.161 31.1393C14.2708 31.0763 14.335 30.9802 14.3305 30.8461C14.326 30.7119 14.2383 30.6432 14.131 30.5967C13.9167 30.5037 13.685 30.4915 13.4585 30.457C13.2362 30.4232 13.0164 30.3795 12.8127 30.2795C12.5118 30.1319 12.3034 29.9086 12.2744 29.5521C12.2428 29.1624 12.3742 28.8465 12.6968 28.6237C12.9208 28.4689 13.1744 28.4033 13.4402 28.3831C13.9409 28.345 14.4218 28.4184 14.8759 28.6489C14.9799 28.7017 14.9976 28.753 14.9349 28.8546C14.8489 28.9942 14.8099 29.2007 14.69 29.2711C14.5786 29.3365 14.4195 29.1714 14.2722 29.1307C14.0052 29.0571 13.7378 29.0067 13.4597 29.0457C13.3753 29.0576 13.2956 29.0805 13.2204 29.1195C13.0957 29.1842 13.019 29.2856 13.0228 29.4317C13.0267 29.5829 13.1364 29.6482 13.2579 29.6876C13.467 29.7555 13.6867 29.7691 13.9022 29.8033C14.113 29.8367 14.3204 29.8807 14.5159 29.9717C14.827 30.1164 15.0394 30.3398 15.0732 30.7025C15.1097 31.0947 14.9697 31.406 14.6507 31.6304C14.3228 31.8611 13.9466 31.9083 13.5991 31.9206Z" fill="#231F20"/>
<path d="M16.2431 30.0627C16.2431 29.7885 16.24 29.5141 16.2448 29.2399C16.2464 29.1501 16.2186 29.1192 16.1299 29.1228C15.9787 29.129 15.827 29.1208 15.6757 29.1259C15.5981 29.1285 15.5655 29.108 15.569 29.0223C15.5752 28.8683 15.5756 28.7136 15.5689 28.5596C15.5649 28.4695 15.6048 28.4568 15.6786 28.4591C15.8187 28.4635 15.9596 28.4519 16.099 28.4629C16.2223 28.4726 16.2494 28.4236 16.2456 28.3076C16.2375 28.0622 16.2498 27.816 16.2402 27.5707C16.2356 27.4527 16.2771 27.4271 16.3822 27.4329C16.5332 27.4412 16.6853 27.4412 16.8363 27.4328C16.9367 27.4273 16.9732 27.4527 16.9694 27.563C16.9607 27.8141 16.9713 28.0658 16.9645 28.317C16.9615 28.4265 16.9892 28.4663 17.1039 28.4632C17.4066 28.4549 17.7097 28.4637 18.0124 28.4584C18.1081 28.4567 18.1572 28.4713 18.1482 28.5863C18.1375 28.7226 18.1377 28.861 18.1481 28.9973C18.1568 29.1104 18.1113 29.1284 18.0136 29.1266C17.7052 29.1209 17.3966 29.128 17.0883 29.1224C16.9913 29.1206 16.964 29.1533 16.9649 29.2494C16.9691 29.7179 16.96 30.1866 16.9694 30.6549C16.9789 31.1234 17.2126 31.2991 17.6644 31.193C17.7458 31.1739 17.8336 31.1576 17.9024 31.1137C18.0522 31.0182 18.1209 31.0594 18.1527 31.2269C18.1685 31.31 18.1964 31.3935 18.2343 31.4687C18.3109 31.6211 18.262 31.6999 18.1138 31.7619C17.7505 31.9141 17.3794 31.9652 16.9959 31.8735C16.53 31.762 16.2755 31.4269 16.2515 30.8853C16.2394 30.6116 16.2494 30.337 16.2494 30.0627C16.2473 30.0627 16.2452 30.0627 16.2431 30.0627Z" fill="#231F20"/>
<path d="M25.0314 30.1868C25.0307 29.0231 25.8867 28.2572 27.0004 28.3777C27.325 28.4128 27.6235 28.5053 27.8912 28.6998C27.9639 28.7525 27.9875 28.7924 27.9323 28.8758C27.8479 29.0033 27.7708 29.1365 27.7003 29.2724C27.6584 29.3531 27.6256 29.3576 27.5508 29.3083C27.2322 29.0988 26.8852 29.0049 26.51 29.102C25.9971 29.2347 25.6969 29.7536 25.7877 30.3307C25.8768 30.8973 26.2773 31.2414 26.8211 31.2232C27.0803 31.2145 27.32 31.1393 27.532 30.9932C27.6331 30.9235 27.6693 30.9532 27.7157 31.0445C27.7696 31.1507 27.8247 31.2588 27.8968 31.3522C28.0022 31.4888 27.9526 31.5546 27.8257 31.6374C26.8931 32.2457 25.5735 31.8738 25.1674 30.882C25.0712 30.6469 25.0273 30.4016 25.0314 30.1868Z" fill="#231F20"/>
<path d="M23.4236 28.8613C23.7664 28.3791 24.1956 28.3022 24.6886 28.4245C24.7888 28.4494 24.8268 28.4865 24.7728 28.586C24.7623 28.6054 24.7606 28.6297 24.7536 28.6513C24.7041 28.8025 24.6915 28.9888 24.5943 29.0947C24.4965 29.2014 24.3268 29.0702 24.1835 29.0711C23.7479 29.0736 23.4922 29.2783 23.452 29.7218C23.3974 30.3251 23.4407 30.9312 23.4297 31.5359C23.4287 31.5929 23.4247 31.6506 23.4307 31.707C23.4406 31.8003 23.4129 31.8392 23.3129 31.8341C23.1508 31.8258 22.9878 31.8276 22.8255 31.8336C22.7412 31.8367 22.7099 31.8163 22.7102 31.7222C22.7135 30.6718 22.7135 29.6214 22.7103 28.571C22.71 28.4782 22.7393 28.4552 22.8249 28.4586C22.9815 28.4649 23.139 28.4671 23.2954 28.4581C23.3986 28.4521 23.4383 28.482 23.4253 28.5898C23.4165 28.6623 23.4236 28.7367 23.4236 28.8613Z" fill="#231F20"/>
<path d="M33.449 28.8552C33.7828 28.3874 34.2046 28.3044 34.6919 28.4192C34.8043 28.4457 34.85 28.4846 34.7932 28.598C34.7881 28.6081 34.7841 28.6189 34.7806 28.6297C34.7302 28.7868 34.7185 28.9793 34.6191 29.0912C34.5164 29.2071 34.3403 29.0689 34.1915 29.0709C33.7275 29.0772 33.4659 29.3358 33.457 29.8559C33.4466 30.4615 33.4504 31.0675 33.456 31.6733C33.4572 31.795 33.4372 31.8477 33.3037 31.8354C33.1534 31.8215 33.0009 31.8285 32.8495 31.8336C32.7673 31.8364 32.732 31.8182 32.7323 31.7227C32.7356 30.671 32.7357 29.6193 32.7323 28.5677C32.732 28.4688 32.7727 28.4569 32.8523 28.4592C33.0092 28.4638 33.1668 28.4677 33.3234 28.4581C33.4324 28.4513 33.4612 28.4933 33.4504 28.5952C33.4429 28.6666 33.449 28.7396 33.449 28.8552Z" fill="#231F20"/>
<path d="M39.6768 31.3937C39.6787 31.3937 39.6806 31.3937 39.6826 31.3938C39.7597 31.3952 39.8349 31.4288 39.889 31.486C39.9411 31.5412 39.9689 31.6119 39.9674 31.6852C39.9642 31.845 39.8458 31.9524 39.6728 31.9524L39.67 31.9524C39.5826 31.9518 39.5097 31.9234 39.4589 31.8701C39.4114 31.8203 39.3872 31.7521 39.3889 31.6729C39.3924 31.5138 39.5161 31.3937 39.6768 31.3937ZM39.6768 31.3462C39.4922 31.3462 39.3463 31.4876 39.3423 31.6719C39.3381 31.8652 39.4712 31.9986 39.6697 31.9999C39.6707 31.9999 39.6718 31.9999 39.6728 31.9999C39.8718 31.9999 40.0103 31.8728 40.0141 31.6861C40.0178 31.5046 39.8671 31.3496 39.6834 31.3463C39.6812 31.3462 39.679 31.3462 39.6768 31.3462Z" fill="#231F20"/>
<path d="M38.4726 27.5981C38.4725 27.4388 38.5264 27.2268 38.4477 27.1341C38.3564 27.0265 38.1427 27.1052 37.9823 27.1007C37.7568 27.0944 37.7567 27.0991 37.7567 27.3373C37.7567 27.8313 37.7567 28.3254 37.7567 28.8237C37.7307 28.8176 37.7165 28.8188 37.7114 28.8125C37.2557 28.2454 36.3304 28.2514 35.7649 28.6711C35.1632 29.1176 34.9792 29.7449 35.0752 30.4686C35.1967 31.3856 35.9952 32.0063 36.894 31.9049C37.2309 31.8669 37.5067 31.7145 37.7567 31.4318C37.7567 31.5537 37.7635 31.6287 37.755 31.7019C37.7427 31.8083 37.7798 31.8415 37.8843 31.8343C38.0238 31.8248 38.1655 31.821 38.3043 31.835C38.4474 31.8494 38.477 31.7986 38.4764 31.6581C38.4707 30.3048 38.4733 28.9514 38.4726 27.5981ZM36.801 31.2246C36.2165 31.2282 35.7994 30.7876 35.7908 30.1573C35.7821 29.5269 36.2042 29.067 36.7943 29.0642C37.3724 29.0613 37.7937 29.5151 37.795 30.1418C37.7962 30.7709 37.3831 31.2209 36.801 31.2246Z" fill="#231F20"/>
<path d="M11.4345 28.8485C11.4345 28.4605 11.4345 28.4605 11.0561 28.4605C10.7272 28.4605 10.7274 28.4605 10.7136 28.7853C10.7131 28.7978 10.7 28.8097 10.6918 28.8234C10.069 28.1413 9.11196 28.3237 8.631 28.7417C8.10143 29.2019 7.94094 29.7999 8.03616 30.4836C8.16054 31.3768 8.95663 32.0028 9.8345 31.9081C10.1772 31.8711 10.46 31.7222 10.715 31.4321C10.715 31.5391 10.7233 31.6066 10.7133 31.6712C10.6914 31.8136 10.7555 31.8439 10.8804 31.8345C11.0142 31.8244 11.1502 31.822 11.2835 31.8351C11.4139 31.8478 11.4381 31.7995 11.4374 31.6749C11.432 30.7328 11.4345 29.7907 11.4345 28.8485ZM9.75444 31.2244C9.17051 31.2239 8.75219 30.778 8.74813 30.1516C8.74406 29.5217 9.17034 29.0631 9.75895 29.0643C10.3359 29.0655 10.7575 29.5234 10.7564 30.1476C10.7553 30.7726 10.3345 31.2248 9.75444 31.2244Z" fill="#231F20"/>
<path d="M31.7798 28.8149C31.7798 28.4604 31.7798 28.4604 31.4342 28.4604C31.0737 28.4604 31.0737 28.4604 31.0557 28.8396C30.6599 28.4667 30.3449 28.3405 29.9141 28.3744C29.1689 28.4332 28.596 28.9233 28.4147 29.6571C28.2215 30.4387 28.508 31.2544 29.1166 31.6516C29.4235 31.8519 29.7603 31.935 30.1236 31.913C30.4907 31.8907 30.7977 31.7401 31.0622 31.4302C31.0622 31.5463 31.0693 31.6251 31.0604 31.7021C31.0481 31.8087 31.0847 31.8413 31.1893 31.8343C31.3345 31.8247 31.4814 31.8227 31.6262 31.8347C31.7527 31.8452 31.7838 31.8045 31.783 31.676C31.7772 30.7223 31.7798 29.7686 31.7798 28.8149ZM29.6177 31.1053C29.1545 30.8628 28.965 30.2079 29.1907 29.6664C29.3941 29.1784 29.9276 28.9445 30.4385 29.1192C30.8468 29.2589 31.1003 29.6533 31.0998 30.148C31.0936 31.0917 30.2433 31.4328 29.6177 31.1053Z" fill="#231F20"/>
<path d="M21.943 29.8171C21.8009 28.6654 20.7029 28.0436 19.6677 28.5308C18.7025 28.9851 18.4268 30.4708 19.1405 31.3432C19.7876 32.1343 21.097 32.0349 21.7421 31.4949C21.7947 31.4508 21.7896 31.4208 21.7552 31.3708C21.6718 31.2493 21.5874 31.1277 21.5153 30.9991C21.4658 30.9107 21.4274 30.916 21.3519 30.9695C21.0467 31.1855 20.7066 31.2778 20.3346 31.2457C19.9351 31.2112 19.6192 30.9453 19.5214 30.5624C19.4966 30.4654 19.504 30.4204 19.624 30.4229C19.9941 30.4308 20.3644 30.4258 20.7347 30.4258C21.0993 30.4258 21.464 30.4221 21.8285 30.4282C21.93 30.4299 21.9682 30.4002 21.9687 30.2954C21.9694 30.1351 21.9626 29.9765 21.943 29.8171ZM21.0745 29.848C20.8396 29.8362 20.6037 29.8447 20.3682 29.8447C20.1214 29.8447 19.8746 29.8414 19.628 29.8464C19.5344 29.8482 19.4972 29.8313 19.5219 29.7233C19.6185 29.3008 19.9336 29.0375 20.3658 29.0282C20.7749 29.0194 21.0833 29.2696 21.1913 29.6916C21.2199 29.8033 21.2106 29.8548 21.0745 29.848Z" fill="#231F20"/>
<path d="M39.5875 31.5463C39.6048 31.5433 39.6308 31.541 39.6574 31.541C39.6939 31.541 39.7187 31.5471 39.7357 31.5616C39.7496 31.5733 39.7575 31.5912 39.7575 31.6129C39.7575 31.646 39.7353 31.6684 39.7116 31.6772V31.6783C39.7296 31.6851 39.7405 31.703 39.7469 31.7277C39.7548 31.7597 39.7616 31.7893 39.7669 31.7992H39.7191C39.7153 31.7916 39.7093 31.7707 39.7022 31.7388C39.6951 31.7053 39.683 31.6947 39.6567 31.6939H39.6334V31.7992H39.5875V31.5463ZM39.6334 31.6597H39.6608C39.692 31.6597 39.7116 31.6429 39.7116 31.6174C39.7116 31.5893 39.692 31.5764 39.662 31.5764C39.6473 31.5764 39.6379 31.5775 39.6334 31.5787V31.6597Z" fill="#231F20"/>
</svg>
