<svg width="72" height="32" viewBox="0 0 72 32" fill="none" xmlns="http://www.w3.org/2000/svg">
<path d="M34.8956 18.1405H36.0124V20.6434H36.8192L38.2671 18.1405H39.488L37.7502 21.078V21.0986L39.5915 24.3042H38.3295L36.8398 21.6149H36.0336V24.3042H34.9162V18.1399H34.8956V18.1405ZM42.0944 19.7748C43.4381 19.7748 44.5349 20.7469 44.5349 22.0913C44.5349 23.4568 43.4593 24.4083 42.1149 24.4083C40.77 24.4083 39.6944 23.4568 39.6944 22.0913C39.6738 20.7263 40.7494 19.7748 42.0944 19.7748ZM45.4035 19.8777H46.4585V23.3533H47.8446V19.8783H48.899V23.3533H50.2851V19.8783H51.3402V24.3042H45.4446V19.8777H45.4035ZM54.4641 19.7748C55.7255 19.7748 56.4289 20.7058 56.4289 21.8643C56.4254 22.0098 56.4116 22.1548 56.3877 22.2983H53.3467C53.4091 23.0634 54.0089 23.4774 54.6711 23.4774C55.1257 23.4774 55.5808 23.2704 55.9325 23.0016L56.3671 23.7879C55.9119 24.1801 55.2292 24.4289 54.5882 24.4289C53.1191 24.4289 52.2094 23.3739 52.2094 22.1118C52.2094 20.7263 53.1397 19.7748 54.4641 19.7748ZM56.9458 23.3739C57.4839 23.2909 57.8767 22.8364 57.8767 21.2638V19.8783H61.1041V24.3042H60.0073V20.7669H58.9317V21.2632C58.9317 23.1868 58.4148 24.3042 56.9458 24.3453V23.3732V23.3739ZM64.248 19.7748C65.5094 19.7748 66.2128 20.7058 66.2128 21.8643C66.2093 22.0098 66.1955 22.1548 66.1716 22.2983H63.1306C63.193 23.0634 63.7928 23.4774 64.455 23.4774C64.9096 23.4774 65.3648 23.2704 65.7164 23.0016L66.151 23.7879C65.6959 24.1801 65.0131 24.4289 64.3721 24.4289C62.9037 24.4289 61.9933 23.3739 61.9933 22.1118C61.9933 20.7263 62.9242 19.7748 64.248 19.7748ZM67.1231 19.8777H68.2193V21.5744H68.7574L69.833 19.8783H71.0533L69.6466 21.9878V22.009L71.2185 24.3042H69.9365L68.778 22.5053H68.1994V24.3042H67.1019V19.8777H67.1225H67.1231ZM42.0944 23.4568C42.8183 23.4568 43.4181 22.8981 43.4181 22.0707C43.4181 21.2638 42.8183 20.6846 42.0937 20.6846C41.3704 20.6846 40.7912 21.2439 40.7912 22.0707C40.7912 22.8981 41.3698 23.4568 42.0944 23.4568ZM55.3121 21.5332C55.3121 20.9539 54.9186 20.6023 54.4223 20.6023C53.8643 20.6023 53.4502 20.9745 53.3467 21.5332H55.3121ZM65.096 21.5332C65.096 20.9539 64.7032 20.6023 64.2069 20.6023C63.6475 20.6023 63.2341 20.9745 63.1306 21.5332H65.096Z" fill="#2D3540"/>
<path d="M50.3475 4.7158V15.1619C50.3484 15.2001 50.3415 15.2382 50.3273 15.2737C50.313 15.3092 50.2917 15.3414 50.2647 15.3684C50.2377 15.3955 50.2054 15.4168 50.1699 15.431C50.1344 15.4452 50.0964 15.4521 50.0582 15.4512H47.9275C47.8893 15.4521 47.8513 15.4452 47.8158 15.431C47.7803 15.4168 47.7481 15.3955 47.721 15.3684C47.694 15.3414 47.6727 15.3092 47.6585 15.2737C47.6442 15.2382 47.6373 15.2001 47.6382 15.1619V4.7158C47.6373 4.67756 47.6442 4.63955 47.6585 4.60405C47.6727 4.56855 47.694 4.53631 47.721 4.50926C47.7481 4.48222 47.7803 4.46094 47.8158 4.44671C47.8513 4.43249 47.8893 4.4256 47.9275 4.42648H50.0582C50.0964 4.4256 50.1344 4.43249 50.1699 4.44671C50.2054 4.46094 50.2377 4.48222 50.2647 4.50926C50.2917 4.53631 50.313 4.56855 50.3273 4.60405C50.3415 4.63955 50.3484 4.67756 50.3475 4.7158ZM66.9785 4.42648C67.0614 4.42648 67.1649 4.46763 67.2678 4.55057C67.3301 4.61229 67.3301 4.7158 67.3096 4.79873L63.7928 15.2654C63.7715 15.3196 63.7345 15.3662 63.6867 15.3994C63.6389 15.4326 63.5823 15.4508 63.5241 15.4519H61.621C61.4969 15.4519 61.3934 15.3895 61.3523 15.2654L59.3033 9.1635L57.2556 15.2648C57.2343 15.3189 57.1974 15.3656 57.1495 15.3987C57.1017 15.4319 57.0451 15.4502 56.9869 15.4512H55.0839C54.9598 15.4512 54.8563 15.3895 54.8151 15.2648L51.2984 4.79809C51.2778 4.7158 51.2778 4.63286 51.3395 4.55057C51.3813 4.46763 51.4848 4.42648 51.5671 4.42648H53.9459C54.07 4.42648 54.1735 4.50878 54.2153 4.63286L56.0971 10.8177L58.166 4.63286C58.1873 4.5787 58.2243 4.53208 58.2721 4.49889C58.3199 4.46571 58.3765 4.44744 58.4347 4.44641H60.1102C60.2343 4.44641 60.3378 4.50878 60.3789 4.63286L62.4478 10.8177L64.3303 4.63286C64.3472 4.57427 64.3824 4.52262 64.4307 4.48548C64.4791 4.44835 64.5381 4.42767 64.599 4.42648H66.9778H66.9785ZM70.5775 4.42648C70.7222 4.42648 70.8463 4.55057 70.8668 4.7158V15.1619C70.8677 15.2001 70.8608 15.2382 70.8466 15.2737C70.8324 15.3092 70.8111 15.3414 70.784 15.3684C70.757 15.3955 70.7248 15.4168 70.6893 15.431C70.6538 15.4452 70.6157 15.4521 70.5775 15.4512H68.4469C68.4087 15.4521 68.3706 15.4452 68.3351 15.431C68.2996 15.4168 68.2674 15.3955 68.2404 15.3684C68.2133 15.3414 68.192 15.3092 68.1778 15.2737C68.1636 15.2382 68.1567 15.2001 68.1576 15.1619V4.7158C68.1567 4.67756 68.1636 4.63955 68.1778 4.60405C68.192 4.56855 68.2133 4.53631 68.2404 4.50926C68.2674 4.48222 68.2996 4.46094 68.3351 4.44671C68.3706 4.43249 68.4087 4.4256 68.4469 4.42648H70.5775ZM46.3968 15.0796C46.5208 15.2243 46.4173 15.4306 46.2309 15.4306H43.6245C43.5732 15.432 43.5222 15.4216 43.4756 15.4C43.429 15.3785 43.388 15.3465 43.3558 15.3066L42.9218 14.7691C42.0114 15.3477 40.9352 15.7 39.7979 15.7C36.6128 15.7 34.027 13.1142 34.027 9.92857C34.027 6.74291 36.6128 4.1571 39.7979 4.1571C42.9835 4.1571 45.5693 6.74291 45.5693 9.92857C45.5693 11.0665 45.2382 12.1421 44.659 13.0519L46.3968 15.079V15.0796ZM24.6147 20.1471C25.1528 20.3541 25.3599 21.1603 25.401 21.512C25.4839 22.1536 25.2981 22.4018 25.0911 22.4018C24.8841 22.4018 24.5942 22.1536 24.2843 21.6573C23.9737 21.1603 23.8497 20.6023 24.0155 20.3123C24.1184 20.1259 24.346 20.0436 24.6154 20.1471H24.6147ZM21.4709 22.4847C21.802 22.4847 22.1742 22.6294 22.5053 22.9187C23.1463 23.4568 23.3327 24.0772 23.0016 24.5324C22.8152 24.76 22.5053 24.9047 22.1536 24.9047C21.802 24.9047 21.4297 24.7806 21.1815 24.553C20.6023 24.0567 20.437 23.2286 20.8087 22.774C20.954 22.5876 21.1815 22.4847 21.4709 22.4847ZM14.2316 28.4626C6.37067 28.4626 0 22.0913 0 14.231C0 6.37066 6.37131 0 14.231 0C22.0913 0 28.4626 6.37131 28.4626 14.231C28.4626 16.8991 27.7181 19.4026 26.4567 21.5332C26.4149 21.5949 26.3114 21.5744 26.2908 21.4914C25.7945 17.9959 23.6639 16.0716 20.5611 15.493C20.2917 15.4512 20.2506 15.286 20.6023 15.2448C21.5538 15.1619 22.8981 15.1825 23.6015 15.3066C23.6426 14.9549 23.6638 14.5826 23.6638 14.2104C23.6638 9.0182 19.4437 4.79809 14.2515 4.79809C9.05999 4.79809 4.83988 9.0182 4.83988 14.2104C4.83988 19.4026 9.05999 23.6227 14.2522 23.6227H14.6862C14.5387 22.7829 14.4763 21.9304 14.4997 21.078C14.5209 20.4988 14.645 20.4158 14.8932 20.871C16.1964 23.1257 18.0583 25.1528 21.6985 25.9597C24.6771 26.6219 27.6557 27.387 30.8619 31.4618C31.1513 31.8135 30.7173 32.1857 30.3862 31.8964C27.1182 29.0001 24.1396 28.0485 21.4297 28.0485C18.3887 28.0698 16.3204 28.4626 14.231 28.4626H14.2316ZM41.2251 12.7625L40.0872 11.3764C39.9637 11.2318 40.0672 11.0042 40.253 11.0042H42.6524C42.7765 10.6731 42.8389 10.3008 42.8389 9.92857C42.8389 8.21198 41.5562 6.72234 39.7979 6.72234C38.0401 6.72234 36.7569 8.21198 36.7569 9.92857C36.7569 11.6452 38.0401 13.1142 39.7979 13.1142C40.2942 13.1348 40.7912 12.9901 41.2251 12.7625Z" fill="#FF8C00"/>
</svg>
