<svg width="48" height="32" viewBox="0 0 48 32" fill="none" xmlns="http://www.w3.org/2000/svg">
<path fill-rule="evenodd" clip-rule="evenodd" d="M7.58408 22.7869C7.64499 23.0235 7.70592 23.2602 7.76677 23.497H11.8787L18.1663 8.28781L17.8453 8.2878C17.5474 8.28775 17.2495 8.28814 16.9517 8.28852C16.0911 8.28962 15.2306 8.29073 14.3702 8.28156C14.1525 8.27923 14.0546 8.34652 13.9747 8.5535C13.1936 10.5734 12.4061 12.5906 11.6185 14.6078C11.4203 15.1154 11.2221 15.6231 11.024 16.1309C10.8131 16.6714 10.602 17.2118 10.3824 17.7743C10.277 18.0443 10.1695 18.3194 10.0592 18.6021C10.0447 18.5539 10.0327 18.5165 10.0228 18.4857C10.0061 18.4338 9.99555 18.4009 9.98925 18.3671C9.89524 17.8611 9.80176 17.355 9.70829 16.8489C9.61487 16.3432 9.52145 15.8374 9.4275 15.3317C9.33442 14.8309 9.24195 14.3299 9.14948 13.8289C8.90033 12.4791 8.65118 11.1292 8.39006 9.78179C8.20885 8.84647 7.50948 8.2875 6.58064 8.28698C5.09266 8.28611 3.60466 8.28622 2.11665 8.28633C1.51591 8.28638 0.915174 8.28643 0.314438 8.28641H0.0277944C-0.0299492 8.7326 -0.0299493 8.7327 0.352547 8.82531C1.44431 9.08972 2.51184 9.42555 3.53587 9.90126C4.12373 10.1744 4.48275 10.6014 4.64559 11.2508C5.28029 13.7812 5.92653 16.3085 6.57277 18.8359C6.78028 19.6475 6.9878 20.4591 7.19494 21.2708C7.32392 21.7762 7.45397 22.2814 7.58408 22.7869ZM19.8372 8.29949L16.6307 23.4889H20.5126L23.7181 8.29949H19.8372ZM26.6359 23.7002C28.0858 23.8021 29.5179 23.703 30.8888 23.1641C32.4261 22.5597 33.6081 21.5686 34.074 19.8912C34.5052 18.339 34.2856 16.9198 33.067 15.7838C32.7197 15.4601 32.3296 15.1734 31.9263 14.9251C31.5747 14.7086 31.212 14.5109 30.8493 14.3132C30.5773 14.1649 30.3052 14.0166 30.0377 13.8604C29.7466 13.6903 29.4601 13.4998 29.2074 13.2765C28.6722 12.8033 28.6859 12.1402 29.2516 11.707C29.4922 11.5226 29.7871 11.3752 30.0792 11.3036C31.1934 11.0308 32.2886 11.2085 33.3666 11.5348C33.578 11.5988 33.7851 11.6776 33.9995 11.7592C34.0998 11.7974 34.2017 11.8361 34.3063 11.8743L34.9784 8.6939C34.956 8.68373 34.9357 8.67408 34.9168 8.66506C34.8799 8.64751 34.8481 8.63236 34.8152 8.62048C32.9561 7.9498 31.0588 7.81258 29.1367 8.25888C27.8294 8.56239 26.6588 9.15064 25.7892 10.2302C24.4807 11.8544 24.2021 14.4137 26.3785 16.0426C26.8019 16.3595 27.2639 16.6225 27.7262 16.8856C27.9724 17.0258 28.2188 17.166 28.4594 17.3145C28.5645 17.3793 28.6709 17.4426 28.7774 17.5061C29.128 17.7149 29.4797 17.9244 29.7867 18.1867C30.3962 18.7074 30.3582 19.523 29.7162 20.0024C29.4383 20.2098 29.0934 20.3561 28.7573 20.4442C27.9022 20.6685 27.0282 20.613 26.1824 20.4105C25.6458 20.282 25.1207 20.1034 24.588 19.9222C24.3512 19.8417 24.1128 19.7606 23.8713 19.6832L23.1819 22.9399C23.2372 22.9612 23.2896 22.982 23.3403 23.0021C23.4443 23.0433 23.5407 23.0815 23.6385 23.1158C24.6099 23.4573 25.6152 23.6284 26.6359 23.7002ZM44.3068 22.9374C44.3446 23.1224 44.3825 23.3075 44.421 23.4926L48 23.4926L44.8683 8.29147H44.5464C44.2591 8.29147 43.9717 8.29146 43.6843 8.29145C43.0046 8.29142 42.325 8.29139 41.6453 8.29151C40.7597 8.29166 40.2075 8.665 39.8642 9.49493C39.3427 10.7559 38.8211 12.0169 38.2996 13.2778C37.1307 16.1038 35.9619 18.9298 34.7933 21.7559C34.6313 22.1478 34.4704 22.5402 34.3095 22.9327C34.2361 23.1119 34.1626 23.2911 34.089 23.4703C34.1042 23.4766 34.1158 23.4822 34.1253 23.4868C34.1409 23.4944 34.1506 23.4991 34.1602 23.4991C34.5167 23.4995 34.8732 23.4996 35.2296 23.4996C36.1504 23.4997 37.0711 23.4999 37.9918 23.5063C38.1469 23.5073 38.1768 23.4206 38.2122 23.3184C38.215 23.3101 38.218 23.3017 38.221 23.2932C38.2858 23.111 38.3515 22.9292 38.4173 22.7474C38.5689 22.3284 38.7205 21.9093 38.8598 21.4861C38.9263 21.2841 39.0179 21.2152 39.2274 21.2165C40.1235 21.2222 41.0197 21.2218 41.9158 21.2214C42.452 21.2212 42.9881 21.2209 43.5243 21.222C43.7864 21.2225 43.8876 21.2083 43.936 21.2522C43.9857 21.2972 43.9798 21.4033 44.0349 21.6492C44.1308 22.0772 44.2187 22.507 44.3068 22.9374ZM42.0823 12.4964L40.0764 18.1017H43.3049L42.153 12.5081L42.0823 12.4964Z" fill="url(#paint0_linear)"/>
<defs>
<linearGradient id="paint0_linear" x1="-1.1521" y1="15.7095" x2="49.1519" y2="15.7095" gradientUnits="userSpaceOnUse">
<stop stop-color="#191E5E"/>
<stop offset="1" stop-color="#132C93"/>
</linearGradient>
</defs>
</svg>
