<svg width="32" height="32" viewBox="0 0 32 32" fill="none" xmlns="http://www.w3.org/2000/svg">
<path d="M16 32C24.8366 32 32 24.8366 32 16C32 7.16344 24.8366 0 16 0C7.16344 0 0 7.16344 0 16C0 24.8366 7.16344 32 16 32Z" fill="#4C75A3"/>
<path d="M15.6861 23.5295H16.941C16.941 23.5295 17.3593 23.5295 17.5685 23.3203C17.7776 23.1112 17.7776 22.7975 17.7776 22.7975C17.7776 22.7975 17.7776 21.0197 18.5097 20.8105C19.3463 20.6014 20.2874 22.4837 21.4378 23.2158C22.2744 23.7386 22.9018 23.6341 22.9018 23.6341H25.8299C25.8299 23.6341 27.294 23.5295 26.6665 22.3792C26.5619 22.2746 26.2482 21.5426 24.575 19.8694C22.7972 18.1961 23.0064 18.5099 25.2025 15.5818C26.5619 13.804 27.0848 12.7582 26.8757 12.2354C26.6665 11.8171 25.7253 11.9216 25.7253 11.9216H22.4835C22.4835 11.9216 22.2744 11.9216 22.0652 12.0262C21.8561 12.1308 21.7515 12.3399 21.7515 12.3399C21.7515 12.3399 21.2286 13.6994 20.6012 14.8497C19.1371 17.255 18.6142 17.4641 18.3005 17.255C17.7776 16.9412 17.8822 15.7909 17.8822 15.0589C17.8822 12.6537 18.1959 11.7125 17.1502 11.3988C16.8364 11.2942 16.5227 11.2942 15.6861 11.2942C14.5358 11.2942 13.5946 11.2942 12.9672 11.6079C12.5489 11.8171 12.3397 12.2354 12.4443 12.2354C12.6534 12.2354 13.1763 12.3399 13.3855 12.7582C13.5946 13.072 13.5946 14.1177 13.5946 14.1177C13.5946 14.1177 13.8038 16.9412 13.1763 17.255C12.758 17.4641 12.1306 17.0458 10.8757 14.7452C10.2482 13.5948 9.72534 12.3399 9.72534 12.3399C9.72534 12.3399 9.62076 12.1308 9.41161 12.0262C9.20246 11.9216 8.88874 11.8171 8.88874 11.8171H5.85606C5.85606 11.8171 5.43776 11.8171 5.22861 12.0262C5.12403 12.2354 5.22861 12.5491 5.22861 12.5491C5.22861 12.5491 7.63384 18.1961 10.3528 21.0197C12.8626 23.6341 15.6861 23.5295 15.6861 23.5295Z" fill="white"/>
</svg>
