<svg width="32" height="32" viewBox="0 0 32 32" fill="none" xmlns="http://www.w3.org/2000/svg">
<path d="M16 32C24.8366 32 32 24.8366 32 16C32 7.16344 24.8366 0 16 0C7.16344 0 0 7.16344 0 16C0 24.8366 7.16344 32 16 32Z" fill="#4C75A3"/>
<path d="M15.6862 23.5295H16.9411C16.9411 23.5295 17.3594 23.5295 17.5686 23.3203C17.7777 23.1112 17.7777 22.7975 17.7777 22.7975C17.7777 22.7975 17.7778 21.0197 18.5098 20.8105C19.3464 20.6014 20.2876 22.4837 21.4379 23.2158C22.2745 23.7386 22.9019 23.6341 22.9019 23.6341H25.83C25.83 23.6341 27.2941 23.5295 26.6666 22.3792C26.5621 22.2746 26.2483 21.5426 24.5751 19.8694C22.7974 18.1961 23.0065 18.5099 25.2026 15.5818C26.5621 13.804 27.0849 12.7582 26.8758 12.2354C26.6666 11.8171 25.7255 11.9216 25.7255 11.9216H22.4836C22.4836 11.9216 22.2745 11.9216 22.0653 12.0262C21.8562 12.1308 21.7516 12.3399 21.7516 12.3399C21.7516 12.3399 21.2287 13.6994 20.6013 14.8497C19.1372 17.255 18.6144 17.4641 18.3006 17.255C17.7777 16.9412 17.8823 15.7909 17.8823 15.0589C17.8823 12.6537 18.196 11.7125 17.1503 11.3988C16.8366 11.2942 16.5228 11.2942 15.6862 11.2942C14.5359 11.2942 13.5947 11.2942 12.9673 11.6079C12.549 11.8171 12.3398 12.2354 12.4444 12.2354C12.6536 12.2354 13.1764 12.3399 13.3856 12.7582C13.5947 13.072 13.5947 14.1177 13.5947 14.1177C13.5947 14.1177 13.8039 16.9412 13.1764 17.255C12.7581 17.4641 12.1307 17.0458 10.8758 14.7452C10.2483 13.5948 9.72546 12.3399 9.72546 12.3399C9.72546 12.3399 9.62089 12.1308 9.41174 12.0262C9.20259 11.9216 8.88886 11.8171 8.88886 11.8171H5.85618C5.85618 11.8171 5.43788 11.8171 5.22873 12.0262C5.12415 12.2354 5.22873 12.5491 5.22873 12.5491C5.22873 12.5491 7.63396 18.1961 10.3529 21.0197C12.8627 23.6341 15.6862 23.5295 15.6862 23.5295Z" fill="white"/>
</svg>
