<svg width="16" height="16" viewBox="0 0 16 16" fill="none" xmlns="http://www.w3.org/2000/svg">
<path d="M2.34318 0H0.468716C0.209935 0 0.00012207 0.209813 0.00012207 0.468625V2.37434C0.00012207 2.63316 0.209903 2.84297 0.468747 2.84297C0.72756 2.84297 0.937372 2.63316 0.937372 2.37434V0.93725H2.34322C2.60203 0.93725 2.81184 0.727437 2.81184 0.468625C2.81181 0.209813 2.602 0 2.34318 0Z" fill="white"/>
<path d="M15.5269 0H13.6525C13.3937 0 13.1838 0.209813 13.1838 0.468625C13.1838 0.727437 13.3936 0.93725 13.6525 0.93725H15.0583V2.37434C15.0583 2.63316 15.2681 2.84297 15.5269 2.84297C15.7857 2.84297 15.9956 2.63316 15.9956 2.37434V0.468625C15.9956 0.209813 15.7857 0 15.5269 0Z" fill="white"/>
<path d="M2.34309 15.0583H0.93725V13.6212C0.93725 13.3624 0.727437 13.1526 0.468625 13.1526C0.209813 13.1526 0 13.3624 0 13.6212V15.5269C0 15.7857 0.209781 15.9956 0.468625 15.9956H2.34309C2.60191 15.9956 2.81172 15.7857 2.81172 15.5269C2.81172 15.2681 2.60191 15.0583 2.34309 15.0583Z" fill="white"/>
<path d="M15.5269 13.1526C15.2681 13.1526 15.0583 13.3624 15.0583 13.6212V15.0583H13.6525C13.3937 15.0583 13.1838 15.2681 13.1838 15.5269C13.1838 15.7857 13.3937 15.9956 13.6525 15.9956H15.5269C15.7857 15.9956 15.9956 15.7857 15.9956 15.5269V13.6212C15.9956 13.3624 15.7857 13.1526 15.5269 13.1526Z" fill="white"/>
<path d="M14.7593 3.84446L8.23269 0.0631407C8.08741 -0.0210469 7.90813 -0.0210469 7.76285 0.0631407L1.23354 3.84443C1.0896 3.92783 0.999756 4.08311 0.999756 4.24961C0.999756 4.25055 0.99985 4.25149 0.99985 4.25239V11.75C0.99985 11.9181 1.09119 12.0754 1.23829 12.1582L7.76288 15.9369C7.83316 15.9776 7.91679 16 7.99782 16C8.08241 16 8.16507 15.9761 8.23276 15.9369L14.7547 12.1582C14.7558 12.1576 14.7569 12.157 14.7579 12.1563C14.9091 12.0473 14.9906 11.9556 14.9929 11.7557C14.9929 11.7538 14.993 11.752 14.993 11.7501V4.25246C14.993 4.25152 14.9931 4.25058 14.9931 4.24968C14.9931 4.08302 14.9032 3.92771 14.7593 3.84446ZM7.52916 14.7183L2.4096 11.7522L6.35644 9.48874C6.58097 9.35999 6.6586 9.07362 6.52982 8.84912C6.4011 8.62459 6.11472 8.54699 5.89019 8.67574L1.93701 10.9411V5.05965L7.52916 8.27121V14.7183ZM7.99779 7.45955L2.40891 4.24827L7.99779 1.0102L13.5867 4.24827L7.99779 7.45955ZM14.0589 10.9411L10.1054 8.67571C9.88088 8.54699 9.59451 8.62456 9.46576 8.84909C9.33698 9.07362 9.4146 9.35996 9.63913 9.48871L13.586 11.7521L8.46638 14.7182V8.27121L14.0588 5.05965V10.9411H14.0589Z" fill="white"/>
</svg>
