<svg width="16" height="16" viewBox="0 0 16 16" fill="none" xmlns="http://www.w3.org/2000/svg">
<path d="M6.26088 0H1.04347H0V1.04347V6.26088V7.30435H1.04347H6.26088H7.30435V6.26088V1.04347V0H6.26088ZM6.26088 6.26088H1.04347V1.04347H6.26088V6.26088Z" fill="white"/>
<path d="M14.9566 0H9.73915H8.69568V1.04347V6.26088V7.30435H9.73915H14.9566H16V6.26088V1.04347V0H14.9566ZM14.9566 6.26088H9.73915V1.04347H14.9566V6.26088Z" fill="white"/>
<path d="M6.26088 8.69568H1.04347H0V9.73915V14.9566V16H1.04347H6.26088H7.30435V14.9566V9.73915V8.69568H6.26088ZM6.26088 14.9566H1.04347V9.73915H6.26088V14.9566Z" fill="white"/>
<path d="M14.9566 8.69568H9.73915H8.69568V9.73915V14.9566V16H9.73915H14.9566H16V14.9566V9.73915V8.69568H14.9566ZM14.9566 14.9566H9.73915V9.73915H14.9566V14.9566Z" fill="white"/>
</svg>
