<svg width="24" height="24" viewBox="0 0 24 24" fill="none" xmlns="http://www.w3.org/2000/svg">
<path d="M11.4375 0C6.78506 0 3 3.78506 3 8.4375C3 10.0094 3.43542 11.5434 4.25948 12.8743L10.9572 23.6676C11.0855 23.8744 11.3115 24 11.5546 24C11.5565 24 11.5583 24 11.5602 24C11.8054 23.9981 12.0319 23.8686 12.1579 23.6582L18.6849 12.7603C19.4635 11.4576 19.875 9.96277 19.875 8.4375C19.875 3.78506 16.0899 0 11.4375 0ZM17.4781 12.0383L11.544 21.9462L5.4547 12.1334C4.76878 11.0257 4.39688 9.74766 4.39688 8.4375C4.39688 4.56047 7.56047 1.39687 11.4375 1.39687C15.3145 1.39687 18.4734 4.56047 18.4734 8.4375C18.4734 9.7088 18.126 10.9541 17.4781 12.0383Z" fill="#29C1D4"/>
<path d="M11.4375 4.21875C9.11128 4.21875 7.21875 6.11128 7.21875 8.4375C7.21875 10.7489 9.08048 12.6562 11.4375 12.6562C13.8236 12.6562 15.6562 10.7235 15.6562 8.4375C15.6562 6.11128 13.7637 4.21875 11.4375 4.21875ZM11.4375 11.2594C9.87858 11.2594 8.61563 9.9922 8.61563 8.4375C8.61563 6.88669 9.88669 5.61563 11.4375 5.61563C12.9883 5.61563 14.2547 6.88669 14.2547 8.4375C14.2547 9.96952 13.0211 11.2594 11.4375 11.2594Z" fill="#29C1D4"/>
</svg>
