<svg width="110" height="44" viewBox="0 0 110 44" fill="none" xmlns="http://www.w3.org/2000/svg">
<path d="M0.111206 19.51H109.368V20.0674H0.111206V19.51Z" fill="#96BABF"/>
<path d="M3.62332 15.3853C2.45271 14.6606 1.56081 13.713 0.947637 12.4866C0.33446 11.2603 0 9.81093 0 8.25012C0 6.6893 0.33446 5.23998 0.947637 4.01362C1.61656 2.78727 2.50845 1.78389 3.62332 1.11497C4.79393 0.390307 6.07602 0.0558472 7.58109 0.0558472C9.03042 0.0558472 10.3683 0.390307 11.4831 1.11497C12.6537 1.83963 13.5456 2.78727 14.1588 4.01362C14.772 5.23998 15.1064 6.6893 15.1064 8.25012C15.1064 9.81093 14.772 11.2603 14.1588 12.4866C13.5456 13.713 12.598 14.7163 11.4831 15.3853C10.3125 16.1099 9.03042 16.4444 7.52535 16.4444C6.13177 16.4444 4.79393 16.0542 3.62332 15.3853ZM10.5355 13.6572C11.4274 13.0998 12.0963 12.3751 12.5422 11.4275C13.0439 10.4798 13.2669 9.42073 13.2669 8.25012C13.2669 7.07951 13.0439 6.02038 12.5422 5.07275C12.0406 4.12511 11.3716 3.3447 10.5355 2.84301C9.69934 2.28558 8.69596 2.00686 7.58109 2.00686C6.46623 2.00686 5.51859 2.28558 4.6267 2.84301C3.79055 3.40045 3.06588 4.12511 2.61994 5.07275C2.11825 6.02038 1.89527 7.07951 1.89527 8.25012C1.89527 9.42073 2.11825 10.4798 2.61994 11.4275C3.12163 12.3751 3.79055 13.1555 4.6267 13.6572C5.51859 14.2147 6.46623 14.4934 7.58109 14.4934C8.69596 14.4934 9.6436 14.2147 10.5355 13.6572Z" fill="#394A50"/>
<path d="M26.2554 5.68574C26.98 6.18743 27.5932 6.85635 28.0391 7.74825C28.4851 8.64014 28.6523 9.58778 28.6523 10.6469C28.6523 11.706 28.4293 12.6537 27.9834 13.5456C27.5374 14.4374 26.8685 15.1064 26.0881 15.6081C25.3077 16.1097 24.3601 16.3327 23.4124 16.3327C22.4091 16.3327 21.5729 16.1097 20.7368 15.6081C19.9564 15.1064 19.2874 14.4374 18.8415 13.5456C18.3955 12.6537 18.1168 11.706 18.1168 10.6469V1.28202C18.1168 0.947563 18.2283 0.72459 18.3955 0.501617C18.5628 0.334387 18.8415 0.2229 19.1202 0.2229C19.3989 0.2229 19.6219 0.334387 19.8449 0.501617C20.0121 0.668847 20.1236 0.947563 20.1236 1.28202V6.80061C20.5695 6.18743 21.127 5.74149 21.7401 5.40703C22.3533 5.07257 23.078 4.90534 23.8026 4.90534C24.6388 4.96108 25.4749 5.18405 26.2554 5.68574ZM25.0847 13.9915C25.5864 13.657 26.0324 13.2111 26.3111 12.5979C26.5898 11.9847 26.757 11.3716 26.757 10.6469C26.757 9.92224 26.5898 9.25332 26.3111 8.69588C26.0324 8.13845 25.5864 7.63676 25.0847 7.3023C24.583 6.96784 23.9699 6.80061 23.3567 6.80061C22.7435 6.80061 22.1303 6.96784 21.6287 7.3023C21.127 7.63676 20.681 8.08271 20.4023 8.69588C20.1236 9.25332 19.9564 9.92224 19.9564 10.6469C19.9564 11.3716 20.1236 12.0405 20.4023 12.5979C20.681 13.2111 21.127 13.657 21.6287 13.9915C22.1303 14.326 22.7435 14.4932 23.3567 14.4932C23.9699 14.4374 24.583 14.2702 25.0847 13.9915Z" fill="#394A50"/>
<path d="M33.5571 15.6083C32.7767 15.1066 32.1078 14.4377 31.6618 13.6015C31.2159 12.7654 30.9929 11.762 30.9929 10.7028C30.9929 9.58798 31.2159 8.64035 31.6618 7.74845C32.1078 6.9123 32.721 6.24338 33.5571 5.74169C34.3375 5.24 35.2852 5.01703 36.2885 5.01703C37.2919 5.01703 38.1838 5.24 39.02 5.74169C39.8004 6.24338 40.4135 6.9123 40.9152 7.74845C41.3612 8.5846 41.5842 9.58798 41.5842 10.7028C41.5842 11.8177 41.3612 12.7654 40.9152 13.6015C40.4693 14.4377 39.8561 15.1066 39.0757 15.6083C38.2953 16.11 37.3477 16.3329 36.3443 16.3329C35.2852 16.3329 34.3375 16.0542 33.5571 15.6083ZM38.0166 13.9917C38.5183 13.6572 38.9642 13.2113 39.2429 12.6539C39.5216 12.0964 39.6889 11.4275 39.6889 10.7028C39.6889 9.97819 39.5216 9.30927 39.2429 8.69609C38.9642 8.08291 38.574 7.63697 38.0166 7.30251C37.5149 6.96805 36.9017 6.80082 36.2885 6.80082C35.6196 6.80082 35.0622 6.96805 34.5605 7.30251C34.0588 7.63697 33.6129 8.08291 33.3341 8.69609C33.0554 9.30927 32.8882 9.92244 32.8882 10.7028C32.8882 11.4833 33.0554 12.0964 33.3341 12.6539C33.6129 13.2113 34.0588 13.713 34.5605 13.9917C35.0622 14.3262 35.6754 14.4934 36.2885 14.4934C36.9017 14.4377 37.5149 14.3262 38.0166 13.9917Z" fill="#394A50"/>
<path d="M44.7062 2.84297C44.4833 2.56425 44.316 2.22979 44.316 1.89533C44.316 1.56087 44.4275 1.22641 44.7062 0.947698C44.9292 0.668982 45.2637 0.557495 45.5981 0.557495C45.9326 0.557495 46.2113 0.668982 46.49 0.947698C46.713 1.22641 46.8802 1.56087 46.8802 1.89533C46.8802 2.22979 46.7687 2.56425 46.49 2.84297C46.2671 3.12169 45.9326 3.23317 45.5981 3.23317C45.2637 3.23317 44.985 3.06594 44.7062 2.84297ZM44.9292 15.9426C44.762 15.7197 44.6505 15.4967 44.6505 15.218V6.07608C44.6505 5.74162 44.762 5.51865 44.9292 5.29568C45.0964 5.12845 45.3752 5.01696 45.6539 5.01696C45.9326 5.01696 46.1556 5.12845 46.3785 5.29568C46.5458 5.46291 46.6573 5.74162 46.6573 6.07608V15.1622C46.6573 15.441 46.5458 15.7197 46.3785 15.8869C46.2113 16.1099 45.9883 16.1656 45.6539 16.1656C45.3194 16.2214 45.0964 16.1099 44.9292 15.9426Z" fill="#394A50"/>
<path d="M49.4442 11.3717C49.277 11.2045 49.1655 10.9258 49.1655 10.6471C49.1655 10.3683 49.277 10.0896 49.4442 9.92239C49.6115 9.69942 49.8902 9.64368 50.1689 9.64368H54.4054C54.6841 9.64368 54.9071 9.75516 55.0743 9.92239C55.2415 10.1454 55.353 10.3683 55.353 10.6471C55.353 10.9258 55.2415 11.2045 55.0743 11.3717C54.9071 11.5389 54.6841 11.6504 54.4054 11.6504H50.1689C49.8902 11.6504 49.6672 11.5947 49.4442 11.3717Z" fill="#394A50"/>
<path d="M59.2551 15.5524C58.2517 14.9392 57.5271 14.1588 57.1369 13.2112C57.0811 13.0439 57.0254 12.9325 57.0254 12.821C57.0254 12.598 57.0811 12.4308 57.2484 12.2635C57.4156 12.0963 57.5828 11.9848 57.8058 11.9291C57.8615 11.9291 57.9173 11.9291 57.973 11.9291C58.196 11.9291 58.3632 11.9848 58.5862 12.0963C58.7534 12.2078 58.9207 12.375 58.9764 12.598C59.1994 13.1554 59.6453 13.6014 60.3142 13.9358C60.9832 14.326 61.7078 14.4933 62.544 14.4933C63.4916 14.4933 64.3278 14.2703 64.9967 13.7686C65.6656 13.3227 66.0001 12.6537 66.0001 11.8176C66.0001 11.0372 65.7213 10.3683 65.1639 9.81083C64.6065 9.25339 63.7703 8.91893 62.5997 8.80744C61.0389 8.64021 59.7568 8.13853 58.8649 7.30238C57.973 6.46623 57.5271 5.46285 57.5271 4.18075C57.5271 3.28886 57.7501 2.56419 58.2517 1.95102C58.6977 1.33784 59.3666 0.83615 60.147 0.50169C60.9274 0.16723 61.8751 0 62.8784 0C63.9933 0 64.8852 0.222973 65.6656 0.724663C66.446 1.22635 67.0592 1.89527 67.5609 2.78717C67.7281 3.06588 67.7838 3.28886 67.7838 3.51183C67.7838 3.79055 67.6724 4.06926 67.3936 4.23649C67.2264 4.34798 67.0592 4.40372 66.892 4.40372C66.7247 4.40372 66.5018 4.34798 66.3345 4.23649C66.1673 4.12501 66.0558 4.01352 65.9443 3.79055C65.6099 3.17737 65.1639 2.73142 64.6622 2.39696C64.1605 2.0625 63.4916 1.89527 62.7112 1.89527C61.7636 1.89527 60.9832 2.11825 60.37 2.50845C59.7568 2.89865 59.4781 3.51183 59.4781 4.23649C59.4781 4.96116 59.7568 5.51859 60.2585 6.02028C60.8159 6.52197 61.7636 6.80069 63.1014 6.96792C64.6065 7.13515 65.8328 7.63684 66.669 8.47299C67.5051 9.30914 67.9511 10.3683 67.9511 11.7061C67.9511 12.7095 67.7281 13.5456 67.2264 14.2145C66.7247 14.9392 66.0558 15.4409 65.2197 15.7754C64.3835 16.1098 63.4916 16.2771 62.5997 16.2771C61.3734 16.4443 60.2585 16.1098 59.2551 15.5524Z" fill="#394A50"/>
<path d="M75.8669 14.4375C76.0341 14.6047 76.0898 14.8834 76.0898 15.1621C76.0898 15.4408 75.9783 15.7196 75.7554 15.8868C75.5324 16.054 75.2537 16.1655 74.9192 16.1655H74.5848C73.9716 16.1655 73.4142 15.9983 72.8567 15.6638C72.355 15.3293 71.9091 14.8277 71.6304 14.2145C71.3517 13.6013 71.1844 12.9324 71.1844 12.2077V7.13508H70.2925C70.0138 7.13508 69.7908 7.07934 69.6236 6.91211C69.4564 6.74488 69.4006 6.5219 69.4006 6.29893C69.4006 6.02021 69.4564 5.79724 69.6236 5.63001C69.7908 5.46278 70.0138 5.40704 70.2925 5.40704H71.1844V2.50838C71.1844 2.22967 71.2959 1.95095 71.4631 1.78372C71.6304 1.61649 71.8533 1.505 72.1321 1.505C72.4108 1.505 72.6337 1.61649 72.801 1.78372C72.9682 1.95095 73.0797 2.22967 73.0797 2.50838V5.46278H74.6963C74.975 5.46278 75.1979 5.51852 75.3652 5.68575C75.5324 5.85298 75.5881 6.07596 75.5881 6.35467C75.5881 6.57765 75.5324 6.80062 75.3652 6.96785C75.1979 7.13508 74.975 7.19082 74.6963 7.19082H73.0797V12.2635C73.0797 12.8209 73.2469 13.2668 73.5256 13.657C73.8044 14.0473 74.1388 14.2145 74.5848 14.2145H75.2537C75.5324 14.1587 75.6996 14.2702 75.8669 14.4375Z" fill="#394A50"/>
<path d="M80.4934 15.6083C79.713 15.1066 79.0441 14.4377 78.5981 13.6015C78.1522 12.7654 77.9292 11.762 77.9292 10.7028C77.9292 9.58798 78.1522 8.64035 78.5981 7.74845C79.0441 6.9123 79.6572 6.24338 80.4934 5.74169C81.2738 5.24 82.2214 5.01703 83.2248 5.01703C84.2282 5.01703 85.1201 5.24 85.9562 5.74169C86.7366 6.24338 87.3498 6.9123 87.8515 7.74845C88.2975 8.5846 88.5204 9.58798 88.5204 10.7028C88.5204 11.8177 88.2975 12.7654 87.8515 13.6015C87.4056 14.4377 86.7924 15.1066 86.012 15.6083C85.2316 16.11 84.2839 16.3329 83.2806 16.3329C82.2214 16.3329 81.3295 16.0542 80.4934 15.6083ZM85.0086 13.9917C85.5103 13.6572 85.9562 13.2113 86.235 12.6539C86.5137 12.0964 86.6809 11.4275 86.6809 10.7028C86.6809 9.97819 86.5137 9.30927 86.235 8.69609C85.9562 8.08291 85.566 7.63697 85.0086 7.30251C84.5069 6.96805 83.8937 6.80082 83.2806 6.80082C82.6116 6.80082 82.0542 6.96805 81.5525 7.30251C81.0508 7.63697 80.6049 8.08291 80.3262 8.69609C80.0474 9.30927 79.8802 9.92244 79.8802 10.7028C79.8802 11.4833 80.0474 12.0964 80.3262 12.6539C80.6049 13.2113 81.0508 13.713 81.5525 13.9917C82.0542 14.3262 82.6674 14.4934 83.2806 14.4934C83.8937 14.4934 84.4512 14.3262 85.0086 13.9917Z" fill="#394A50"/>
<path d="M98.1084 5.23973C98.4986 5.46271 98.6658 5.74142 98.6658 6.07588C98.6658 6.18737 98.6658 6.24311 98.6658 6.29886C98.5543 6.7448 98.2756 6.96778 97.8854 6.96778C97.8297 6.96778 97.7182 6.96778 97.6067 6.91203C97.105 6.80055 96.6591 6.7448 96.3803 6.7448C95.4327 6.7448 94.708 6.96778 94.1506 7.41372C93.5932 7.85967 93.3145 8.47285 93.3145 9.25325V15.2178C93.3145 15.5522 93.2587 15.7752 93.0915 15.9982C92.9243 16.1654 92.7013 16.2769 92.3668 16.2769C92.0324 16.2769 91.8094 16.1654 91.6422 15.9982C91.4749 15.831 91.4192 15.5522 91.4192 15.2178V6.07588C91.4192 5.74142 91.4749 5.51845 91.6422 5.29548C91.8094 5.12825 92.0324 5.01676 92.3668 5.01676C92.98 5.01676 93.3145 5.35122 93.3145 6.02014V6.41034C93.7047 5.90865 94.1506 5.57419 94.708 5.29548C95.2655 5.01676 95.8787 4.90527 96.4918 4.90527C97.2165 4.90527 97.7182 5.01676 98.1084 5.23973Z" fill="#394A50"/>
<path d="M109.034 11.0931C108.867 11.2603 108.644 11.3718 108.421 11.3718H101.174C101.342 12.3194 101.732 13.0998 102.401 13.6572C103.07 14.2704 103.906 14.5491 104.853 14.5491C105.244 14.5491 105.634 14.4934 106.024 14.3262C106.414 14.1589 106.804 13.9917 107.027 13.7687C107.195 13.6015 107.418 13.5458 107.641 13.5458C107.864 13.5458 108.086 13.6015 108.198 13.7687C108.421 13.9917 108.532 14.2147 108.532 14.4934C108.532 14.7164 108.421 14.9393 108.198 15.1066C107.752 15.4968 107.25 15.7755 106.581 15.9985C105.968 16.2214 105.299 16.3329 104.742 16.3329C103.683 16.3329 102.735 16.11 101.955 15.6083C101.119 15.1066 100.505 14.4377 100.004 13.6015C99.5578 12.7654 99.2791 11.762 99.2791 10.7028C99.2791 9.58798 99.502 8.64035 99.948 7.74845C100.394 6.85656 101.007 6.18764 101.788 5.74169C102.568 5.24 103.46 5.01703 104.463 5.01703C105.467 5.01703 106.303 5.24 107.027 5.74169C107.752 6.18764 108.309 6.85656 108.7 7.69271C109.09 8.52886 109.257 9.4765 109.257 10.5356C109.313 10.7028 109.201 10.9258 109.034 11.0931ZM102.289 7.52548C101.732 8.08291 101.342 8.80758 101.174 9.69947H107.529C107.418 8.80758 107.083 8.08291 106.581 7.52548C106.08 6.96805 105.355 6.68933 104.519 6.68933C103.627 6.74507 102.847 6.96805 102.289 7.52548Z" fill="#394A50"/>
<path d="M40.3023 39.243L41.027 39.8561C42.0304 40.6923 43.5354 40.5251 44.3716 39.5217L44.9848 38.797C45.152 38.5741 45.0962 38.2953 44.929 38.1281L36.0658 30.9372C35.8429 30.77 35.5641 30.8257 35.3969 30.993L34.7837 31.7176C33.9476 32.721 34.1148 34.2261 35.1182 35.0622L35.8429 35.6754C36.4003 36.1213 36.3445 36.7345 35.7314 37.1247C35.6756 37.1247 35.5641 37.2362 35.4526 37.292C35.2297 37.4592 34.951 37.6264 34.6722 37.7936C34.282 38.0724 33.9476 38.3511 33.6131 38.5741C33.2787 38.8528 33.0557 39.0757 32.8327 39.3545C31.8293 40.5808 31.9966 42.3646 33.2787 43.368C34.505 44.3714 36.2888 44.1484 37.2922 42.922C37.5151 42.6433 37.7381 42.3646 37.9054 41.9744C38.1283 41.6399 38.2956 41.194 38.4628 40.8038C38.5743 40.5251 38.6858 40.1906 38.7972 39.9676C38.853 39.8004 38.9087 39.6889 38.9087 39.6332C39.1874 38.9643 39.7449 38.797 40.3023 39.243ZM37.9054 39.6332C37.7939 39.9119 37.7381 40.1906 37.5709 40.4693C37.4037 40.8595 37.2364 41.2497 37.0692 41.5842C36.902 41.9187 36.7347 42.1416 36.5675 42.3646C35.8986 43.2007 34.728 43.3122 33.8918 42.6433C33.0557 41.9744 32.9442 40.8038 33.6131 39.9676C33.7803 39.7447 34.0033 39.5217 34.282 39.2987C34.5608 39.0757 34.8952 38.797 35.2297 38.5741C35.4526 38.4068 35.7314 38.2396 35.9543 38.1281C36.0658 38.0724 36.1773 37.9609 36.2331 37.9609C37.4037 37.2362 37.5151 35.8426 36.456 34.9507L35.7314 34.3376C35.1182 33.8359 35.0067 32.944 35.5084 32.3308L35.7871 31.9406L43.9256 38.5183L43.6469 38.9085C43.1452 39.5217 42.2533 39.6332 41.6402 39.1315L40.9155 38.5183C39.8564 37.6264 38.5185 38.0166 38.0168 39.2987C38.0168 39.4102 37.9611 39.5217 37.9054 39.6332Z" fill="#29C1D5"/>
<path d="M45.9879 37.0692C47.27 36.0101 48.5521 34.728 49.7784 33.4459C50.2244 32.9999 50.6146 32.554 50.8933 32.1638C51.1163 31.9408 51.2278 31.7736 51.3393 31.6621C51.5065 31.4391 51.4507 31.1604 51.2835 30.9932L49.0538 29.1536C48.8866 28.9864 48.6078 28.9864 48.4406 29.1536L47.1028 30.2685L47.8832 28.652C47.9947 28.429 47.9389 28.206 47.7717 28.0945L41.6957 23.1891C41.4727 23.0219 41.194 23.0776 41.0267 23.2449C40.971 23.3563 40.8038 23.5236 40.6365 23.7465C40.3021 24.1367 39.9676 24.6384 39.6332 25.1401C38.6298 26.5894 37.6264 28.0945 36.846 29.5996C36.5115 30.2685 36.1771 30.8817 35.9541 31.4949L36.846 31.8851C37.1247 31.2719 37.4034 30.6587 37.7379 30.0455C38.5183 28.5962 39.4102 27.0911 40.4693 25.6976C40.8038 25.1959 41.2497 24.6384 41.5284 24.1925L46.9355 28.5405L45.2632 31.8851C45.0403 32.331 45.5977 32.777 45.9879 32.4425L48.7193 30.157L50.2801 31.4391C49.9457 31.8293 49.444 32.331 49.0538 32.8327C47.8832 34.1148 46.6011 35.3412 45.319 36.4003C44.7615 36.8462 44.2041 37.2922 43.7024 37.6266L44.2599 38.407C44.873 38.0168 45.4305 37.5709 45.9879 37.0692Z" fill="#29C1D5"/>
<path d="M34.1709 41.3613C34.0594 40.8596 34.3939 40.3579 34.8956 40.2465C35.3973 40.135 35.8989 40.4694 36.0104 40.9711C36.1219 41.4728 35.7875 41.9745 35.2858 42.086C34.7841 42.1975 34.2824 41.863 34.1709 41.3613Z" fill="#29C1D5"/>
<path d="M43.3683 29.4881C43.5913 29.6554 43.87 29.6554 44.0373 29.4324L46.1555 26.8125L45.4308 26.1993L43.3126 28.8192C43.0896 29.0422 43.1454 29.3209 43.3683 29.4881Z" fill="#29C1D5"/>
<path d="M40.6922 29.767C40.9152 29.9343 41.1939 29.8785 41.3611 29.7113L44.65 25.642L43.9253 25.0289L40.6364 29.0981C40.4135 29.3211 40.4692 29.5998 40.6922 29.767Z" fill="#29C1D5"/>
<path d="M51.2279 39.3547C52.5657 39.3547 53.6248 38.2956 53.6248 36.9577C53.6248 36.5118 53.4576 35.9544 53.1789 35.3969C53.0116 35.0625 52.7887 34.6723 52.5657 34.2821C52.3427 33.9476 52.1197 33.6131 51.8968 33.2787C51.7295 33.1115 51.6738 32.9442 51.5623 32.8885C51.3951 32.6655 51.0049 32.6655 50.8376 32.8885C50.7819 32.9442 50.6704 33.1115 50.5032 33.2787C50.2802 33.6131 50.0572 33.9476 49.8343 34.2821C49.6113 34.6723 49.3883 35.0067 49.2211 35.3969C48.9424 36.0101 48.7751 36.5118 48.7751 36.9577C48.8309 38.2956 49.9458 39.3547 51.2279 39.3547ZM49.8343 36.9577C49.8343 36.679 49.9458 36.2331 50.1687 35.7871C50.336 35.4527 50.5032 35.1182 50.7262 34.7838C50.9491 34.4493 51.2836 34.0033 51.2836 34.0033C51.2836 34.0033 51.7295 34.6165 51.841 34.7838C52.064 35.1182 52.2312 35.4527 52.3985 35.7871C52.6214 36.2888 52.7329 36.679 52.7329 36.9577C52.7329 37.7381 52.1197 38.4071 51.2836 38.4071C50.4474 38.4071 49.8343 37.7381 49.8343 36.9577Z" fill="#29C1D5"/>
<path d="M60.6487 23.7464C60.7602 23.6349 60.8717 23.5791 60.9832 23.5234C61.0389 23.5234 61.0947 23.4677 61.1504 23.4677C61.2061 23.4677 61.2619 23.4677 61.3176 23.4677H61.4849L63.6031 25.5859L65.7771 27.7041L65.8328 27.7599L65.7771 27.8156L63.1014 30.3241L60.4257 32.8325L60.37 32.8883V32.7768V28.5403C60.37 27.091 60.37 25.9761 60.37 25.2514C60.37 24.5268 60.37 24.1366 60.4257 24.0808C60.4815 23.9693 60.5372 23.8579 60.6487 23.7464ZM61.3176 24.5825C61.3176 24.7497 61.3176 24.917 61.3176 25.0842C61.3176 25.1957 61.3176 25.3072 61.3176 25.3629C61.3176 26.3663 61.3176 27.3697 61.3176 28.3173V28.4288V30.7143L64.495 27.7041L61.3176 24.5825ZM72.8565 42.6434H74.5288L73.6927 41.8072L72.8565 42.6434ZM76.0896 39.4102L79.3227 42.6434H79.3785C79.4342 42.6434 79.49 42.6434 79.5457 42.6434C79.6014 42.6434 79.6014 42.6434 79.6572 42.6434C79.6572 42.4204 79.6572 42.1417 79.6572 41.9187C79.6572 41.8072 79.6572 41.6957 79.6572 41.5842C79.6572 40.5251 79.6572 39.5217 79.6572 38.4626V38.2954V35.8984L76.0896 39.4102ZM61.3176 35.3967V40.0792L61.9308 39.466L62.5997 38.7971C63.2686 38.1281 63.8818 37.515 64.5507 36.846L63.3801 35.6754L62.2095 34.5048L61.3176 35.3967ZM63.5474 42.5876H64.941H68.0626L74.0829 36.6231L72.968 35.5082L71.8531 34.3933L63.5474 42.5876ZM74.2501 32.0521L76.4241 34.2261L79.6014 31.0487V28.0943V26.8122L74.2501 32.0521ZM64.718 32.1636C64.8852 32.3308 65.1082 32.5538 65.2754 32.721C65.4426 32.8883 65.6656 33.1112 65.8328 33.2785L67.0035 34.3933L71.4072 30.0454C71.9646 29.4879 72.5778 28.9305 73.1352 28.3731C74.5288 27.0352 75.9224 25.6416 77.316 24.3038H73.0795L68.7315 28.3731L68.3413 28.7075C67.3937 29.5994 66.5018 30.4356 65.5541 31.3275C65.3869 31.4389 65.2754 31.6062 65.1082 31.7177C64.9967 31.9406 64.8295 32.0521 64.718 32.1636ZM67.0035 25.4187C67.1707 25.2514 67.3379 25.14 67.5051 24.9727C67.6724 24.8055 67.8396 24.694 68.0068 24.5268L68.1741 24.3595H67.1149H65.9443L66.0001 24.4153C66.1673 24.5825 66.3345 24.7497 66.5018 24.917C66.669 25.0842 66.8362 25.2514 67.0035 25.4187ZM70.7383 43.4795L72.1876 42.0302C72.968 41.2498 73.6369 40.5808 73.6369 40.5808L73.6927 40.5251L73.7484 40.5808L75.1977 42.0302L76.6471 43.4795L76.7028 43.5352H76.5913H73.6927L70.7383 43.4795L70.6268 43.5352L70.7383 43.4795ZM74.8075 39.3545L77.5947 36.5673L80.3819 33.7802L80.4376 33.7244V33.8359V38.2954C80.4376 39.8562 80.4376 41.0268 80.4376 41.7515C80.4376 42.5319 80.4376 42.8663 80.3819 42.9221C80.3261 43.0336 80.2704 43.145 80.1589 43.2565C80.0474 43.368 79.9359 43.4238 79.8244 43.4795C79.7687 43.4795 79.7129 43.4795 79.6014 43.5352C79.49 43.5352 79.3785 43.5352 79.267 43.5352H78.8768L76.8143 41.4727L74.8075 39.3545ZM60.4257 35.0065L61.3176 34.1704L62.2095 33.3342L62.2653 33.2785L62.321 33.3342L64.1048 35.118L65.8886 36.9018L65.9443 36.9575L65.8886 37.0133L65.3312 37.5707C65.1639 37.7379 64.8295 38.0167 64.4393 38.4626C63.9376 38.9643 63.2686 39.5775 62.6555 40.1906L60.5372 42.2531L60.4815 42.3089V42.1974V38.6298L60.4257 35.0065ZM61.3734 43.4238L66.6133 38.2954L71.8531 33.167L71.9089 33.1112L71.9646 33.167L73.6927 34.895L75.4207 36.6231L75.4764 36.6788L75.4207 36.7346L71.9646 40.1906L68.5085 43.591H64.9967H61.4849H61.3734V43.4238ZM73.0237 32.0521L76.7585 28.4288L80.4933 24.8055L80.5491 24.7497V24.8612V28.2058V31.5504L78.5423 33.5572L76.5356 35.564L76.4798 35.6197L76.4241 35.564L74.696 33.8359L72.968 32.1636L73.0237 32.0521ZM64.8295 30.8258C65.6656 30.0454 66.8362 28.9305 68.0626 27.7599L72.6893 23.4677H76.0339H79.3785H79.49L79.4342 23.5234L78.2636 24.694C77.9291 25.0285 77.093 25.8646 75.9781 26.9795C74.8633 28.0943 73.4697 29.4322 72.0761 30.8258L67.0592 35.7312L67.0035 35.7869L66.9477 35.7312L65.2197 34.0031C64.7737 33.5572 64.3278 33.1112 63.9933 32.7768C63.6589 32.4423 63.4359 32.2194 63.4359 32.1636C63.4359 32.1079 63.9933 31.6062 64.8295 30.8258ZM66.5018 26.1991C66.223 25.9204 65.8328 25.5302 65.3869 25.0842L63.8261 23.5234L63.7703 23.4677H63.8818H67.1149H70.3481H70.4595L70.3481 23.5234L70.2366 23.6349C70.1808 23.6906 69.9021 23.9136 69.5119 24.3038C69.2332 24.5825 68.8987 24.8612 68.5643 25.1957L67.3937 26.2548C67.1707 26.4778 67.0035 26.645 67.0035 26.645C66.9477 26.645 66.7805 26.4778 66.5018 26.1991Z" fill="#29C1D5"/>
<path d="M98.1084 41.027C97.328 41.027 96.7148 41.6402 96.7148 42.4206C96.7148 43.201 97.328 43.8141 98.1084 43.8141C98.8888 43.8141 99.502 43.201 99.502 42.4206C99.5577 41.6402 98.9446 41.027 98.1084 41.027ZM98.1084 43.0337C97.774 43.0337 97.4952 42.755 97.4952 42.4206C97.4952 42.0861 97.774 41.8074 98.1084 41.8074C98.4429 41.8074 98.7216 42.0861 98.7216 42.4206C98.7773 42.755 98.4986 43.0337 98.1084 43.0337Z" fill="#29C1D5"/>
<path d="M9.86627 43.8698C9.97776 43.8698 10.0892 43.8698 10.2007 43.8698C10.4237 43.8698 10.6467 43.8698 10.8139 43.8698C11.1484 43.8698 11.4828 43.8698 11.873 43.8698C12.8207 43.8698 13.7683 43.8698 14.7159 43.8698C15.9423 43.8698 17.1129 43.8698 18.3393 43.8698C18.618 43.8698 18.8967 43.8698 19.1754 43.8698C19.3426 43.8698 19.5099 43.8698 19.6214 43.8698C19.7328 43.8698 19.8443 43.8141 19.9558 43.8141C21.4609 43.4796 22.6315 42.8665 23.7464 41.7516C24.3595 41.1384 24.8055 40.5252 25.1957 39.7448C25.6974 38.7414 25.9203 37.6823 25.9203 36.5675C25.9203 35.5083 25.6974 34.3377 25.0285 33.4458C25.0285 33.4458 25.0285 33.3901 24.9727 33.3901C24.917 33.3343 24.917 33.3343 24.8612 33.2786C24.7497 33.1671 24.6383 33.0556 24.5825 32.9441C24.248 32.6097 23.9136 32.2752 23.5791 31.885C22.52 30.8259 21.4609 29.7668 20.4018 28.7077C19.7886 28.0945 19.1197 27.4256 18.5065 26.8124C18.0605 26.3664 17.6146 25.9205 17.1686 25.4745C16.8899 25.1958 16.6112 24.9171 16.2768 24.6384C16.1095 24.4712 15.9423 24.3597 15.7751 24.1924C15.7193 24.1367 15.7193 24.1367 15.6636 24.1367C15.3291 23.9137 14.9947 23.7465 14.6602 23.5793C14.3257 23.412 13.9355 23.3563 13.6011 23.2448C13.5453 23.2448 13.4338 23.2448 13.3781 23.1891C13.2666 23.1891 13.0994 23.1891 12.9879 23.1333C12.7092 23.1333 12.4305 23.0776 12.1518 23.0776C12.096 23.0776 12.0403 23.0776 11.9845 23.0776H11.9288C11.873 23.0776 11.8173 23.0776 11.7615 23.1333C11.7058 23.1333 11.5943 23.1333 11.5386 23.1891C10.5909 23.3563 9.6433 23.8022 8.91864 24.4712C8.19398 25.1401 7.5808 25.9762 7.24634 26.9239C7.07911 27.4813 6.91188 28.0945 6.91188 28.7077C6.91188 29.2093 6.96762 29.6553 7.13485 30.1012C7.1906 30.2685 7.24634 30.4357 7.35783 30.6029C7.52506 30.8259 7.69229 31.1046 7.91526 31.3276C8.36121 31.8293 8.8629 32.2752 9.30884 32.7769C10.2007 33.6688 11.0926 34.5607 11.9845 35.4526C12.7649 36.233 13.5453 37.0134 14.3257 37.7381C14.8832 38.2955 15.4406 38.7972 15.9423 39.3546C16.0538 39.4661 16.1653 39.5776 16.2768 39.6891C16.3325 39.7448 16.3882 39.8006 16.4997 39.8563C16.667 39.9678 16.9457 40.0793 17.1686 40.135C17.4474 40.2465 17.7261 40.3023 18.0605 40.3023C18.2278 40.3023 18.3393 40.3023 18.5065 40.3023C20.5132 40.3023 22.1855 38.8529 22.4085 36.8462C22.4085 36.7347 22.4085 36.5675 22.4085 36.456C22.4085 36.1773 22.3528 35.8985 22.2413 35.6198C22.1298 35.3411 21.9626 35.1181 21.7953 34.8952C21.3494 34.4492 20.792 34.2262 20.2345 34.2262C19.6214 34.2262 19.0639 34.4492 18.6737 34.8952C18.2835 35.2854 18.0605 35.7871 18.0605 36.3445C18.0605 36.7347 18.172 37.0691 18.4507 37.3479C18.7295 37.6266 19.0639 37.7381 19.3984 37.7381C19.7328 37.7381 20.0673 37.6266 20.346 37.3479C20.4575 37.2364 20.569 37.0691 20.6247 36.9577C20.6805 36.9019 20.6805 36.8462 20.7362 36.7904C20.7362 36.7347 20.792 36.7347 20.792 36.6789L20.8477 36.6232C20.9035 36.5675 20.9592 36.5675 21.0149 36.5675C21.0707 36.5675 21.1264 36.5675 21.1264 36.5675C21.1822 36.5675 21.1822 36.6232 21.2379 36.6232C21.2937 36.6789 21.2937 36.6789 21.3494 36.7347C21.3494 36.7904 21.3494 36.7904 21.3494 36.8462C21.3494 36.9019 21.3494 36.9019 21.3494 36.9019V36.9577C21.2937 37.2364 21.1822 37.4594 21.0149 37.6823C20.8477 37.9053 20.6805 38.1283 20.5132 38.3512C20.2345 38.63 19.9001 38.8529 19.5656 38.9644C19.2312 39.0759 18.8409 39.1874 18.5065 39.1874C17.7261 39.1874 17.0014 38.8529 16.4997 38.3512C16.221 38.0725 15.998 37.7381 15.8308 37.3479C15.6636 36.9577 15.6078 36.5675 15.6078 36.1773C15.6078 36.0658 15.6078 36.01 15.6078 35.8985C15.6078 35.6198 15.6636 35.3411 15.7193 35.0624C15.7751 34.7837 15.8866 34.505 16.0538 34.2262C16.667 32.9999 17.7818 32.108 19.0639 31.7178C19.2312 31.662 19.3984 31.662 19.6214 31.662C19.8443 31.662 20.0673 31.662 20.2345 31.662C20.4575 31.662 20.6805 31.662 20.8477 31.662C21.0149 31.662 21.1822 31.7178 21.4051 31.7178C23.0217 32.1637 24.3038 33.4458 24.7497 35.0624C24.8055 35.2296 24.8055 35.3968 24.8055 35.5641C24.8055 35.7871 24.8055 35.9543 24.8055 36.1773C24.8055 36.6789 24.7497 37.2364 24.6383 37.7381C24.3595 38.8529 23.8021 39.8563 22.966 40.6925C22.1298 41.5286 21.1264 42.086 20.0116 42.3648L19.4541 42.532H14.8274H10.0892L2.5639 35.3411L6.85614 35.2854H9.42033L9.19736 35.0624L8.47269 34.3377H4.90512C4.57066 34.3377 4.29194 34.3377 3.95748 34.3377C3.28856 34.3377 2.61964 34.3377 1.95072 34.3377C1.78349 34.3377 1.61626 34.3377 1.39329 34.3377C1.2818 34.3377 1.17032 34.3377 1.11457 34.3935H1.05883C1.05883 34.4492 1.00309 34.4492 1.00309 34.505C0.947345 34.6164 0.891602 34.6722 0.891602 34.7837C0.891602 34.8394 0.891602 34.8394 0.891602 34.8952C0.891602 34.8952 0.947345 34.9509 0.947345 35.0066C1.11457 35.2296 1.33755 35.4526 1.56052 35.6198C2.00647 36.0658 2.45241 36.5117 2.89836 36.9577C3.67877 37.7381 4.45917 38.5185 5.23958 39.2989C6.13147 40.1908 6.96762 41.0269 7.85952 41.9188C8.36121 42.3648 8.80715 42.8665 9.30884 43.3124C9.47607 43.4239 9.58756 43.5911 9.75479 43.7026C9.75479 43.7026 9.75479 43.7026 9.81053 43.7583C9.81053 43.8698 9.86627 43.8698 9.86627 43.8698ZM7.971 29.5438C7.91526 29.2651 7.91526 29.0421 7.91526 28.7634C7.91526 27.76 8.30546 26.7566 8.91864 25.9762C9.36458 25.4188 9.92202 24.9728 10.5352 24.6384C11.1484 24.3039 11.873 24.1924 12.5977 24.1924C12.8764 24.1924 13.1551 24.2482 13.4338 24.2482C14.27 24.4154 14.8832 24.6941 15.5521 25.1958C15.6078 25.2516 15.6078 25.2516 15.6636 25.3073C15.7193 25.3631 15.7751 25.4188 15.8866 25.4745C16.1095 25.6418 16.2768 25.8647 16.4997 26.0877C17.1129 26.6451 17.6703 27.2583 18.2835 27.8715L21.2379 30.8259L19.9558 30.9374C17.9491 31.1046 16.1653 32.2195 15.2734 34.059C15.1619 34.282 15.0504 34.505 14.9947 34.7837C14.8832 35.0624 14.8274 35.3411 14.7717 35.6198C14.7717 35.7313 14.7159 35.8428 14.7159 35.9543V36.01V36.0658V36.1215C14.7159 36.1773 14.6602 36.1773 14.6045 36.233C14.5487 36.2887 14.493 36.2887 14.3815 36.2887C14.3257 36.2887 14.3257 36.2887 14.3257 36.2887C14.3257 36.2887 14.3257 36.2887 14.27 36.2887H14.2143L14.047 36.1773L13.9913 36.1215C13.9355 36.0658 13.8798 36.01 13.8241 35.9543C13.6011 35.7871 13.4338 35.5641 13.2109 35.3411C12.542 34.6722 11.9288 34.059 11.2599 33.3901C10.6467 32.7769 10.0335 32.1637 9.42033 31.4948C9.08587 31.1604 8.80715 30.8259 8.52844 30.4914C8.41695 30.38 8.30546 30.2127 8.24972 30.0455C8.08249 29.8783 8.02675 29.711 7.971 29.5438Z" fill="#29C1D5"/>
<path d="M98.1639 39.5774C97.4392 40.971 95.9342 41.8629 94.3733 41.8629C92.1436 41.8629 90.3041 40.1906 90.0811 38.0166C88.4088 37.7937 87.1267 36.3443 87.1267 34.672C87.1267 32.7768 88.6875 31.2717 90.5828 31.2717C92.4781 31.2717 93.9831 32.7768 93.9831 34.672C93.9831 36.3443 92.701 37.7937 91.0287 38.0166C91.2517 39.6889 92.6453 40.9153 94.3176 40.9153C95.9899 40.9153 97.3835 39.6889 97.6064 38.0724C95.9341 37.8494 94.6521 36.4001 94.6521 34.7278C94.6521 32.9997 95.9341 31.6061 97.6064 31.3832V25.9761C96.5473 25.7531 95.7669 24.8055 95.7669 23.6906C95.7669 23.4119 95.9899 23.1889 96.2686 23.1889H100.003C100.282 23.1889 100.505 23.4119 100.505 23.6906C100.505 24.8055 99.7247 25.7531 98.6656 25.9761V31.3832C100.338 31.6061 101.62 33.0555 101.62 34.7278C101.62 36.4001 100.338 37.8494 98.7213 38.0724C98.9443 39.7447 100.394 40.9153 102.01 40.9153C103.682 40.9153 105.076 39.6889 105.299 38.0166C103.627 37.7937 102.345 36.3443 102.345 34.672C102.345 32.7768 103.905 31.2717 105.745 31.2717C107.64 31.2717 109.145 32.7768 109.145 34.672C109.145 36.3443 107.863 37.7937 106.191 38.0166C105.968 40.1906 104.073 41.8629 101.899 41.8629C100.338 41.8629 98.8885 41.0268 98.1639 39.5774ZM88.0743 34.672C88.0743 36.0099 89.1892 37.1247 90.527 37.1247C91.8649 37.1247 92.9798 36.0099 92.9798 34.672C92.9798 33.3342 91.8649 32.2193 90.527 32.2193C89.1892 32.2193 88.0743 33.3342 88.0743 34.672ZM96.8818 24.0808C97.049 24.5825 97.5507 24.9727 98.1639 24.9727C98.7213 24.9727 99.2787 24.6382 99.446 24.0808H96.8818ZM95.7112 34.672C95.7112 36.0099 96.826 37.1247 98.1639 37.1247C99.5017 37.1247 100.617 36.0099 100.617 34.672C100.617 33.3342 99.5017 32.2193 98.1639 32.2193C96.7703 32.2193 95.7112 33.3342 95.7112 34.672ZM105.801 37.069C107.139 37.069 108.253 35.9541 108.253 34.6163C108.253 33.2784 107.139 32.1636 105.801 32.1636C104.463 32.1636 103.348 33.2784 103.348 34.6163C103.348 36.0099 104.463 37.069 105.801 37.069Z" fill="#29C1D5"/>
<path d="M92.367 34.5048C92.367 34.3933 92.3113 34.3375 92.1998 34.3375C92.0883 34.3375 92.0326 34.3933 92.0326 34.5048C92.0883 35.3966 91.3636 36.1771 90.416 36.2328C90.3045 36.2328 90.2488 36.2885 90.2488 36.4C90.2488 36.5115 90.3045 36.5673 90.416 36.5673C91.5309 36.5115 92.4228 35.6196 92.367 34.5048ZM100.004 34.5048C100.004 34.3933 99.9481 34.3375 99.8366 34.3375C99.7251 34.3375 99.6694 34.3933 99.6694 34.5048C99.7252 35.3966 99.0005 36.1771 98.0528 36.2328C97.9414 36.2328 97.8856 36.2885 97.8856 36.4C97.8856 36.5115 97.9414 36.5673 98.0528 36.5673C99.1677 36.5115 100.06 35.5639 100.004 34.5048ZM107.473 34.3933C107.362 34.3933 107.306 34.449 107.306 34.5605C107.362 35.4524 106.637 36.2328 105.69 36.2885C105.578 36.2885 105.522 36.3443 105.522 36.4558C105.522 36.5673 105.578 36.623 105.69 36.623C106.749 36.5673 107.585 35.6754 107.585 34.6162C107.641 34.449 107.529 34.3933 107.473 34.3933Z" fill="#29C1D5"/>
</svg>
