<svg width="16" height="15" viewBox="0 0 16 15" fill="none" xmlns="http://www.w3.org/2000/svg">
<path d="M7.56794 0.741795C7.76081 0.410661 8.23919 0.410661 8.43206 0.741794L10.4754 4.24993C10.546 4.37123 10.6644 4.45725 10.8016 4.48696L14.7695 5.34618C15.144 5.42728 15.2918 5.88225 15.0365 6.168L12.3315 9.19537C12.2379 9.30005 12.1927 9.43922 12.2068 9.57889L12.6158 13.6181C12.6544 13.9993 12.2674 14.2805 11.9167 14.126L8.20162 12.4888C8.07317 12.4322 7.92683 12.4322 7.79838 12.4888L4.08327 14.126C3.73261 14.2805 3.34559 13.9993 3.38419 13.6181L3.79316 9.57889C3.8073 9.43923 3.76208 9.30005 3.66855 9.19537L0.963524 6.168C0.708197 5.88225 0.856022 5.42728 1.23055 5.34618L5.1984 4.48696C5.3356 4.45725 5.45399 4.37123 5.52464 4.24993L7.56794 0.741795Z" fill="#FFD426"/>
</svg>
