<svg width="73" height="15" viewBox="0 0 73 15" fill="none" xmlns="http://www.w3.org/2000/svg">
<path d="M4.67783 1.06055H3.84287C3.58513 1.06055 3.33619 1.11397 3.09504 1.22132C2.85337 1.32867 2.63867 1.49981 2.45197 1.73578C2.26424 1.97174 2.11488 2.27409 2.00078 2.64437C1.88876 3.01362 1.83275 3.45547 1.83275 3.96993C1.83275 4.47298 1.89499 4.89979 2.0179 5.24778C2.14133 5.59628 2.30469 5.88307 2.5085 6.10866C2.71231 6.33322 2.94257 6.49658 3.1998 6.59823C3.45651 6.70039 3.72463 6.75122 4.00364 6.75122H4.67783V1.06003V1.06055ZM1.46247 12.3947H0L2.60444 7.58721C1.84365 7.22315 1.29963 6.73825 0.972906 6.13252C0.646184 5.52731 0.482304 4.80644 0.482304 3.96993C0.482304 3.32686 0.573579 2.7595 0.755609 2.26631C0.937122 1.77363 1.1845 1.35875 1.49514 1.02062C1.80631 0.682486 2.16777 0.428369 2.58007 0.25671C2.9934 0.0855701 3.42954 0 3.8911 0H5.94893V12.3947H4.67783V7.79673H3.84287L1.46247 12.3947Z" fill="#FF0000"/>
<path fill-rule="evenodd" clip-rule="evenodd" d="M18.6645 14.0024H17.5236V12.3792H13.9711V14.0024H12.8292V11.3337H13.327C13.5848 10.8514 13.7855 10.3317 13.9307 9.77421C14.0759 9.21671 14.1848 8.65402 14.26 8.08614C14.3352 7.51827 14.3803 6.95558 14.3969 6.39808C14.4135 5.84058 14.4213 5.31004 14.4213 4.80596V4.09962H18.0225V11.3342H18.6656V14.0024H18.6645ZM24.2276 12.0089C23.9595 12.1593 23.6623 12.29 23.3356 12.403C23.0089 12.5156 22.6407 12.5716 22.2341 12.5716C21.3981 12.5716 20.728 12.2241 20.2245 11.5271C19.7214 10.8306 19.4689 9.84992 19.4689 8.58504C19.4689 7.97412 19.5207 7.38706 19.6219 6.82489C19.724 6.26117 19.8791 5.76331 20.0886 5.32923C20.2976 4.89464 20.5626 4.54614 20.8842 4.28424C21.2057 4.02183 21.591 3.8901 22.0406 3.8901C22.7055 3.8901 23.2417 4.22305 23.6483 4.88738C24.0559 5.5512 24.2603 6.5324 24.2603 7.82943V8.53681H20.8032C20.8032 9.43711 20.9557 10.1393 21.2612 10.6424C21.5672 11.1464 22.0463 11.3985 22.7003 11.3985C22.9466 11.3985 23.2013 11.3637 23.4637 11.2948C23.7266 11.2242 23.933 11.1573 24.0829 11.0925L24.2281 12.0094L24.2276 12.0089ZM21.9924 4.91953C21.8109 4.91953 21.6501 4.98332 21.5101 5.11142C21.3711 5.24107 21.2534 5.41999 21.1575 5.65077C21.0605 5.88103 20.9853 6.15174 20.9319 6.46239C20.8784 6.77355 20.8406 7.11065 20.8193 7.47574H22.9415V7.29942C22.9415 7.24548 22.9389 7.18636 22.9337 7.12205C22.9285 7.05775 22.9254 6.98825 22.9254 6.91306C22.8823 6.28036 22.7802 5.78976 22.6194 5.44125C22.4586 5.09379 22.2502 4.91902 21.9929 4.91902L21.9924 4.91953ZM16.7519 5.12801V11.3337H14.4534C14.6671 10.98 14.8439 10.562 14.9834 10.0797C15.1235 9.59736 15.2355 9.0855 15.3205 8.54459C15.4066 8.00317 15.4658 7.45137 15.4979 6.88816C15.5301 6.32548 15.5461 5.79235 15.5461 5.28878V5.12801H16.7519ZM12.0896 4.0991V12.3792H10.819V8.42376H8.9225V12.3786H7.63635V4.09858H8.9225V7.36217H10.8196V4.0991H12.0901H12.0896ZM30.3695 12.3792H28.9381L26.9607 8.29514L26.8155 8.11882V12.3786H25.5293V4.09858H26.8155V7.86055L26.9607 7.69978L28.7135 4.09858H30.0796L28.0544 7.8284L30.3695 12.3781V12.3792ZM32.0249 8.26299C32.0249 9.23797 32.1752 10.0045 32.475 10.562C32.7758 11.1195 33.2358 11.398 33.8576 11.398C34.0936 11.398 34.3347 11.3632 34.5811 11.2942C34.8279 11.2237 35.0271 11.1568 35.1764 11.092L35.305 12.0089C35.0587 12.1593 34.7828 12.29 34.4773 12.403C34.1714 12.5156 33.826 12.5716 33.4401 12.5716C32.6155 12.5716 31.9476 12.2293 31.4383 11.5432C30.9301 10.8571 30.6749 9.87119 30.6749 8.58504C30.6749 7.87766 30.7475 7.23459 30.8927 6.65583C31.0369 6.07706 31.2324 5.58387 31.4788 5.17676C31.7251 4.77017 32.0202 4.45383 32.363 4.22875C32.7053 4.00367 33.0755 3.89166 33.4728 3.89166C33.8255 3.89166 34.1449 3.93937 34.4291 4.03583C34.7128 4.13229 34.9674 4.2609 35.1925 4.42167L34.5328 5.53149C34.3824 5.35931 34.2139 5.21514 34.0262 5.0969C33.8395 4.97917 33.6491 4.92057 33.4557 4.92057C33.2311 4.92057 33.0273 5.01651 32.8453 5.20943C32.6638 5.40236 32.5134 5.6544 32.3951 5.96504C32.2774 6.27621 32.1861 6.63197 32.1218 7.03441C32.0575 7.43633 32.0254 7.84603 32.0254 8.26351L32.0249 8.26299ZM40.8567 10.4557H41.4822L43.1987 4.07265C43.3263 3.59138 43.4389 3.12619 43.5825 2.48468H43.6473C43.6152 3.0624 43.583 3.63961 43.583 4.18571V12.2205H44.3526V0.752014H43.4544L41.4987 8.08199C41.4178 8.37086 41.2892 8.98022 41.2254 9.41326H41.1772C41.129 8.98074 41.0164 8.38745 40.9366 8.08251L38.996 0.752014H38.0656V12.22H38.7709V4.18519C38.7709 3.60694 38.7553 3.02973 38.7232 2.48416H38.7714C38.8679 3.01314 38.9965 3.52656 39.1567 4.12036L40.8557 10.4551L40.8567 10.4557ZM47.7531 11.7714C48.5072 11.7714 49.0367 11.0505 49.3245 10.1834V7.95442H48.4584C47.1277 7.95442 46.4862 8.56378 46.4862 9.97491C46.4862 11.1138 46.984 11.7714 47.7531 11.7714ZM49.5496 12.2205C49.4853 12.012 49.4054 11.7071 49.3577 11.1298C48.9724 11.9 48.3947 12.3812 47.5929 12.3812C46.5028 12.3812 45.7487 11.5152 45.7487 10.0392C45.7487 8.30707 46.6952 7.40884 48.4434 7.40884H49.325V6.3986C49.325 5.16328 48.8604 4.63378 47.9782 4.63378C47.2885 4.63378 46.663 4.95532 46.2782 5.51645L46.0697 4.79455C46.3902 4.37759 47.0639 3.97619 47.9782 3.97619C49.3095 3.97619 50.063 4.71417 50.063 6.31821V10.729C50.063 11.2901 50.1439 11.9166 50.2393 12.2205H49.5496ZM54.0407 11.7714C55.0676 11.7714 55.7407 10.5526 55.7407 8.00213C55.7407 5.88466 55.1635 4.63326 54.2331 4.63326C53.5112 4.63326 52.9019 5.40339 52.5492 6.26947V10.7917C52.8697 11.4503 53.3188 11.7703 54.0407 11.7703V11.7714ZM53.9925 12.3652C53.3837 12.3652 52.8542 12.0602 52.5497 11.6599V14.7227H51.7957V4.13644H52.4533L52.5176 5.4677C52.8702 4.69757 53.464 3.97567 54.3617 3.97567C55.7091 3.97567 56.4953 5.5958 56.4953 7.93782C56.4953 10.9043 55.5006 12.3646 53.993 12.3646L53.9925 12.3652ZM58.6926 8.0348L61.4993 12.22H62.3343L59.4783 7.88959L62.1408 4.13696H61.4034L58.6926 7.93834V4.13696H57.9386V12.2205H58.6921V8.03325L58.6926 8.0348ZM67.065 10.8571L67.3056 11.4669C67.3056 11.4669 66.6968 12.3812 65.4138 12.3812C63.6972 12.3812 62.9115 10.8254 62.9115 8.17846C62.9115 5.53149 63.9057 3.97567 65.2691 3.97567C66.6641 3.97567 67.5629 5.43555 67.3062 8.30603H63.65C63.6811 10.5205 64.2593 11.7236 65.4304 11.7236C66.5039 11.7236 67.0655 10.8576 67.066 10.8565L67.065 10.8571ZM65.2686 4.60267C64.418 4.60267 63.7283 5.69278 63.665 7.7143H66.6003C66.7289 5.56416 66.0869 4.60267 65.2691 4.60267H65.2686ZM72.6468 4.7624V4.13644H68.1556V4.76188H70.033V12.2194H70.786V4.7624H72.6468Z" fill="#333333"/>
</svg>
