<svg width="32" height="32" viewBox="0 0 32 32" fill="none" xmlns="http://www.w3.org/2000/svg">
<path d="M16 32C24.8366 32 32 24.8366 32 16C32 7.16344 24.8366 0 16 0C7.16344 0 0 7.16344 0 16C0 24.8366 7.16344 32 16 32Z" fill="#4C75A3"/>
<path d="M15.6862 23.5292H16.9411C16.9411 23.5292 17.3594 23.5292 17.5686 23.3201C17.7777 23.1109 17.7777 22.7972 17.7777 22.7972C17.7777 22.7972 17.7778 21.0194 18.5098 20.8103C19.3464 20.6011 20.2876 22.4835 21.4379 23.2155C22.2745 23.7384 22.9019 23.6338 22.9019 23.6338H25.83C25.83 23.6338 27.2941 23.5292 26.6666 22.3789C26.5621 22.2743 26.2483 21.5423 24.5751 19.8691C22.7974 18.1959 23.0065 18.5096 25.2026 15.5815C26.5621 13.8037 27.0849 12.758 26.8758 12.2351C26.6666 11.8168 25.7255 11.9214 25.7255 11.9214H22.4836C22.4836 11.9214 22.2745 11.9214 22.0653 12.026C21.8562 12.1305 21.7516 12.3397 21.7516 12.3397C21.7516 12.3397 21.2287 13.6992 20.6013 14.8495C19.1372 17.2547 18.6144 17.4639 18.3006 17.2547C17.7777 16.941 17.8823 15.7907 17.8823 15.0587C17.8823 12.6534 18.196 11.7122 17.1503 11.3985C16.8366 11.2939 16.5228 11.2939 15.6862 11.2939C14.5359 11.2939 13.5947 11.2939 12.9673 11.6077C12.549 11.8168 12.3398 12.2351 12.4444 12.2351C12.6536 12.2351 13.1764 12.3397 13.3856 12.758C13.5947 13.0717 13.5947 14.1175 13.5947 14.1175C13.5947 14.1175 13.8039 16.941 13.1764 17.2547C12.7581 17.4639 12.1307 17.0456 10.8758 14.7449C10.2483 13.5946 9.72546 12.3397 9.72546 12.3397C9.72546 12.3397 9.62089 12.1305 9.41174 12.026C9.20259 11.9214 8.88886 11.8168 8.88886 11.8168H5.85618C5.85618 11.8168 5.43788 11.8168 5.22873 12.026C5.12415 12.2351 5.22873 12.5488 5.22873 12.5488C5.22873 12.5488 7.63396 18.1959 10.3529 21.0194C12.8627 23.6338 15.6862 23.5292 15.6862 23.5292Z" fill="white"/>
</svg>
