<svg width="32" height="32" viewBox="0 0 32 32" fill="none" xmlns="http://www.w3.org/2000/svg">
<circle cx="16" cy="16" r="16" fill="white"/>
<path d="M8.4054 17.1811H9.67394V24.047H10.8741V17.1811H12.1662V16.0566H8.4054V17.1811Z" fill="#E32727"/>
<path d="M18.5531 18.0199C18.1563 18.0199 17.786 18.2366 17.438 18.6654V16.0557H16.3594V24.0463H17.438V23.4695C17.7991 23.9151 18.1691 24.1285 18.5531 24.1285C18.9822 24.1285 19.271 23.9026 19.415 23.4594C19.4874 23.207 19.5243 22.8105 19.5243 22.2596V19.8888C19.5243 19.3251 19.4874 18.9316 19.415 18.6923C19.2713 18.2457 18.9819 18.0199 18.5531 18.0199ZM18.445 22.344C18.445 22.8822 18.2872 23.1474 17.9756 23.1474C17.7985 23.1474 17.6181 23.0626 17.4377 22.8819V19.2534C17.6181 19.075 17.7985 18.9905 17.9756 18.9905C18.2869 18.9905 18.445 19.2661 18.445 19.803V22.344Z" fill="#E32727"/>
<path d="M14.3464 22.6428C14.1071 22.981 13.8809 23.1476 13.6642 23.1476C13.5202 23.1476 13.438 23.0628 13.4118 22.8952C13.402 22.8605 13.402 22.7289 13.402 22.4762V18.0928H12.323V22.8C12.323 23.2206 12.3593 23.5048 12.4183 23.6855C12.5266 23.9873 12.7663 24.1287 13.1133 24.1287C13.5104 24.1287 13.9176 23.8891 14.3464 23.3974V24.0469H15.4261V18.0928H14.3464V22.6428Z" fill="#E32727"/>
<path d="M15.2725 12.5927C15.6237 12.5927 15.7923 12.3141 15.7923 11.7576V9.22671C15.7923 8.66986 15.6237 8.39258 15.2725 8.39258C14.9209 8.39258 14.752 8.67018 14.752 9.22671V11.7576C14.752 12.3144 14.9209 12.5927 15.2725 12.5927Z" fill="#E32727"/>
<path d="M16 0C7.16342 0 0 7.16342 0 16C0 24.8366 7.16342 32 16 32C24.8366 32 32 24.8366 32 16C32 7.16342 24.8366 0 16 0ZM17.7796 7.48358H18.8667V11.9135C18.8667 12.1692 18.8667 12.3017 18.8798 12.3374C18.9037 12.5064 18.9895 12.5928 19.1355 12.5928C19.3535 12.5928 19.5824 12.4239 19.8243 12.0824V7.48358H20.9144V13.5002H19.8243V12.8442C19.3902 13.3418 18.9764 13.5831 18.5787 13.5831C18.2277 13.5831 17.9855 13.4407 17.8761 13.1362C17.8159 12.9539 17.7796 12.6661 17.7796 12.2415V7.48358ZM13.662 9.44548C13.662 8.80221 13.7713 8.33211 14.0031 8.02799C14.3046 7.61649 14.7292 7.41091 15.2726 7.41091C15.8186 7.41091 16.2429 7.61649 16.5444 8.02799C16.7729 8.33179 16.8822 8.80221 16.8822 9.44548V11.5524C16.8822 12.1921 16.7729 12.6664 16.5444 12.9673C16.2429 13.3778 15.8186 13.5831 15.2726 13.5831C14.7292 13.5831 14.3046 13.3778 14.0031 12.9673C13.7713 12.6664 13.662 12.1918 13.662 11.5524V9.44548ZM10.7464 5.42641L11.6048 8.59695L12.4294 5.42641H13.6521L12.1976 10.2305V13.5006H10.989V10.2305C10.8793 9.65107 10.6374 8.80221 10.2495 7.67607C9.9948 6.92673 9.72931 6.1751 9.47462 5.42641H10.7464ZM24.6133 24.5724C24.3946 25.5214 23.6185 26.222 22.6838 26.3264C20.4699 26.5736 18.2303 26.5749 15.999 26.5736C13.7687 26.5749 11.5279 26.5736 9.31454 26.3264C8.37991 26.222 7.6034 25.5218 7.38537 24.5724C7.07405 23.2207 7.07405 21.7446 7.07405 20.3527C7.07405 18.9607 7.07797 17.4849 7.38897 16.1329C7.60732 15.1835 8.38318 14.483 9.31781 14.3789C11.5315 14.1317 13.7719 14.1304 16.0029 14.1317C18.2333 14.1304 20.4738 14.1317 22.6874 14.3789C23.6221 14.4833 24.3986 15.1835 24.6176 16.1329C24.9279 17.4849 24.926 18.9607 24.926 20.3527C24.926 21.7446 24.9246 23.2207 24.6133 24.5724Z" fill="#E32727"/>
<path d="M21.9891 18.0205C21.4372 18.0205 21.0087 18.2231 20.697 18.6307C20.4682 18.9319 20.3638 19.3974 20.3638 20.0335V22.1191C20.3638 22.7519 20.4806 23.2207 20.7104 23.5189C21.0218 23.9255 21.4516 24.1288 22.016 24.1288C22.5794 24.1288 23.0217 23.9157 23.3202 23.4833C23.4512 23.2921 23.5363 23.0757 23.5723 22.8367C23.5824 22.7287 23.5952 22.4894 23.5952 22.1414V21.9846H22.4949C22.4949 22.4167 22.4808 22.6567 22.4713 22.7153C22.4098 23.0037 22.2546 23.1477 21.9891 23.1477C21.6186 23.1477 21.4372 22.8727 21.4372 22.3221V21.266H23.5952V20.0328C23.5952 19.3968 23.4875 18.9312 23.2613 18.6301C22.9598 18.2235 22.5306 18.0205 21.9891 18.0205ZM22.5169 20.3684H21.4379V19.8174C21.4379 19.2668 21.6189 18.9915 21.9793 18.9915C22.3361 18.9915 22.5169 19.2671 22.5169 19.8174V20.3684Z" fill="#E32727"/>
</svg>
