<svg width="24" height="24" viewBox="0 0 24 24" fill="none" xmlns="http://www.w3.org/2000/svg">
<path d="M9.04834 17.7266L13.5467 5.73083L14.9512 6.25751L10.4528 18.2532L9.04834 17.7266Z" fill="#29C1D5"/>
<path d="M8.45179 12.2529C7.21108 12.2529 6.20178 11.2437 6.20178 10.0029C6.20178 8.76222 7.21108 7.75293 8.45179 7.75293C9.69251 7.75293 10.7018 8.76222 10.7018 10.0029C10.7018 11.2437 9.69251 12.2529 8.45179 12.2529ZM8.45179 9.25294C8.03798 9.25294 7.70179 9.58913 7.70179 10.0029C7.70179 10.4167 8.03798 10.7529 8.45179 10.7529C8.8656 10.7529 9.20179 10.4167 9.20179 10.0029C9.20179 9.58913 8.8656 9.25294 8.45179 9.25294Z" fill="#29C1D5"/>
<path d="M16.2045 16.9043C14.9638 16.9043 13.9545 15.895 13.9545 14.6543C13.9545 13.4136 14.9638 12.4043 16.2045 12.4043C17.4452 12.4043 18.4545 13.4136 18.4545 14.6543C18.4545 15.895 17.4452 16.9043 16.2045 16.9043ZM16.2045 13.9043C15.7907 13.9043 15.4545 14.2405 15.4545 14.6543C15.4545 15.0681 15.7907 15.4043 16.2045 15.4043C16.6183 15.4043 16.9545 15.0681 16.9545 14.6543C16.9545 14.2405 16.6183 13.9043 16.2045 13.9043Z" fill="#29C1D5"/>
<path d="M21.7499 21H2.25001C1.0093 21 0 19.9907 0 18.75V15C0 14.5854 0.335439 14.25 0.750003 14.25C1.99072 14.25 3.00001 13.2407 3.00001 12C3.00001 10.7593 1.99072 9.74998 0.750003 9.74998C0.335439 9.75003 0 9.41459 0 9.00003V5.25001C0 4.0093 1.0093 3 2.25001 3H21.75C22.9907 3 24 4.0093 24 5.25001V9.00003C24 9.41459 23.6646 9.75003 23.25 9.75003C22.0093 9.75003 21 10.7593 21 12C21 13.2408 22.0093 14.25 23.25 14.25C23.6646 14.25 24 14.5855 24 15.0001V18.7501C24 19.9907 22.9907 21 21.7499 21ZM1.50001 15.6746V18.75C1.50001 19.1638 1.8362 19.5 2.25001 19.5H21.75C22.1638 19.5 22.5 19.1638 22.5 18.75V15.6746C20.7905 15.3259 19.5 13.8113 19.5 12C19.5 10.1887 20.7905 8.67408 22.5 8.32541V5.25001C22.5 4.8362 22.1638 4.50001 21.75 4.50001H2.25001C1.8362 4.50001 1.50001 4.8362 1.50001 5.25001V8.32546C3.20947 8.67408 4.50002 10.1887 4.50002 12C4.50002 13.8113 3.20947 15.3259 1.50001 15.6746Z" fill="#29C1D5"/>
</svg>
