<svg width="24" height="24" viewBox="0 0 24 24" fill="none" xmlns="http://www.w3.org/2000/svg">
<path d="M11.9926 23.9987C11.9136 23.9987 11.8336 23.9797 11.7616 23.9417L0.270087 17.942C0.105094 17.856 0.00109863 17.685 0.00109863 17.499V6.24948C0.00109863 6.07649 0.0910947 5.91549 0.238088 5.8245C0.385082 5.7335 0.570074 5.7255 0.724067 5.8025L12.2156 11.5523C12.3846 11.6372 12.4916 11.8102 12.4916 11.9992V23.4987C12.4916 23.6737 12.4006 23.8357 12.2506 23.9267C12.1726 23.9747 12.0826 23.9987 11.9926 23.9987ZM1.00106 17.196L11.4926 22.6738V12.3082L1.00106 7.05845V17.196Z" fill="#29C1D5"/>
<path d="M12.0085 23.9985C11.9185 23.9985 11.8285 23.9745 11.7495 23.9265C11.6005 23.8355 11.5085 23.6735 11.5085 23.4985V11.999C11.5085 11.81 11.6155 11.637 11.7845 11.552L23.276 5.80227C23.429 5.72427 23.615 5.73227 23.762 5.82427C23.91 5.91526 24 6.07626 24 6.24925V17.4988C24 17.6848 23.896 17.8557 23.731 17.9417L12.2395 23.9415C12.1675 23.9795 12.0875 23.9985 12.0085 23.9985ZM12.5085 12.308V22.6735L23 17.1958V7.05821L12.5085 12.308ZM23.5 17.4988H23.51H23.5Z" fill="#29C1D5"/>
<path d="M0.501018 6.74921C0.317026 6.74921 0.141033 6.64821 0.053037 6.47322C-0.0709576 6.22623 0.030038 5.92624 0.277027 5.80225L11.7845 0.0524977C11.9255 -0.0174992 12.0915 -0.0174992 12.2315 0.0524977L23.723 5.80225C23.97 5.92624 24.07 6.22623 23.947 6.47322C23.823 6.72021 23.524 6.8192 23.276 6.69721L12.0085 1.05845L0.725008 6.69621C0.653011 6.73221 0.577014 6.74921 0.501018 6.74921Z" fill="#29C1D5"/>
<path d="M18.0001 14.9987C17.7242 14.9987 17.5002 14.7747 17.5002 14.4987V9.3079L6.28465 3.69614C6.03767 3.57315 5.93767 3.27216 6.06166 3.02517C6.18566 2.77818 6.48565 2.67919 6.73264 2.80118L18.2241 8.55093C18.3931 8.63693 18.5001 8.80992 18.5001 8.99891V14.4987C18.5001 14.7747 18.2761 14.9987 18.0001 14.9987Z" fill="#29C1D5"/>
</svg>
