<svg width="24" height="24" viewBox="0 0 24 24" fill="none" xmlns="http://www.w3.org/2000/svg">
<path d="M17.0511 13.4121H13.79C12.8975 13.4121 12.1717 14.1379 12.1717 15.0304V17.5314C12.1717 18.424 12.8975 19.1497 13.79 19.1497H17.0511C17.9437 19.1497 18.6694 18.424 18.6694 17.5314V15.0304C18.6694 14.1379 17.9437 13.4121 17.0511 13.4121ZM17.4925 17.5314C17.4925 17.7766 17.2914 17.9728 17.0511 17.9728H13.79C13.5448 17.9728 13.3486 17.7717 13.3486 17.5314V15.0304C13.3486 14.7852 13.5497 14.5891 13.79 14.5891H17.0511C17.2963 14.5891 17.4925 14.7901 17.4925 15.0304V17.5314Z" fill="#29C1D5"/>
<path d="M24 8.86555C24 8.76257 23.9755 8.66449 23.9215 8.57621L20.3514 2.29914C20.2485 2.1177 20.0523 2 19.8414 2H4.15366C3.94279 2 3.74663 2.11279 3.64365 2.29914L0.0784634 8.57621C0.0294238 8.66449 0 8.76257 0 8.86555C0 10.273 0.848386 11.4794 2.05966 12.0139V22.3662C2.05966 22.6898 2.32448 22.9546 2.64814 22.9546H5.89947C5.90437 22.9546 5.90928 22.9546 5.91418 22.9546H10.4749C10.4798 22.9546 10.4847 22.9546 10.4896 22.9546H21.347C21.6706 22.9546 21.9354 22.6898 21.9354 22.3662V12.0875C21.9354 12.0629 21.9354 12.0433 21.9305 12.0237C23.1467 11.4892 24 10.2779 24 8.86555ZM4.49693 3.18186H19.4982L22.2885 8.09072H1.71148L4.49693 3.18186ZM17.0805 9.26277C16.8942 10.322 15.9673 11.1263 14.8541 11.1263C13.7409 11.1263 12.8141 10.322 12.6277 9.26277H17.0805ZM11.3772 9.26277C11.1908 10.322 10.264 11.1263 9.1508 11.1263C8.0376 11.1263 7.11075 10.322 6.91949 9.26277H11.3772ZM1.21618 9.26277H5.67389C5.48754 10.322 4.55578 11.1263 3.44258 11.1263C2.32938 11.1312 1.40253 10.322 1.21618 9.26277ZM9.88639 21.7777H6.50266V15.4271C6.50266 14.9661 6.87536 14.5885 7.34123 14.5885H9.05272C9.51369 14.5885 9.8913 14.9612 9.8913 15.4271V21.7777H9.88639ZM20.7585 21.7777H11.0633V15.4271C11.0633 14.3188 10.161 13.4115 9.04781 13.4115H7.33633C6.22803 13.4115 5.3208 14.3139 5.3208 15.4271V21.7826H3.23662V12.3032C3.30527 12.3081 3.37393 12.3081 3.44258 12.3081C4.62934 12.3081 5.67879 11.7049 6.29669 10.7879C6.91459 11.7049 7.96404 12.3081 9.1508 12.3081C10.3376 12.3081 11.3821 11.7049 12.0049 10.7879C12.6228 11.7049 13.6723 12.3081 14.8541 12.3081C16.0409 12.3081 17.0854 11.7049 17.7033 10.7879C18.3212 11.7049 19.3707 12.3081 20.5574 12.3081C20.6261 12.3081 20.6898 12.3032 20.7585 12.3032V21.7777ZM20.5574 11.1312C19.4442 11.1312 18.5174 10.3269 18.331 9.26767H22.7887C22.5975 10.322 21.6706 11.1312 20.5574 11.1312Z" fill="#29C1D5"/>
</svg>
