<svg width="24" height="24" viewBox="0 0 24 24" fill="none" xmlns="http://www.w3.org/2000/svg">
<path d="M8.60579 22.9376C8.7127 22.9376 8.8196 22.9376 8.9265 22.9376C9.14031 22.9376 9.35412 22.9376 9.51448 22.9376C9.83519 22.9376 10.1559 22.9376 10.5301 22.9376C11.4388 22.9376 12.3474 22.9376 13.2561 22.9376C14.4321 22.9376 15.5546 22.9376 16.7305 22.9376C16.9978 22.9376 17.265 22.9376 17.5323 22.9376C17.6926 22.9376 17.853 22.9376 17.9599 22.9376C18.0668 22.9376 18.1737 22.8842 18.2806 22.8842C19.7238 22.5635 20.8463 21.9755 21.9154 20.9065C22.5033 20.3185 22.931 19.7305 23.3051 18.9822C23.7862 18.02 24 17.0045 24 15.9354C24 14.9198 23.7862 13.7973 23.1448 12.9421C23.1448 12.9421 23.1448 12.8886 23.0913 12.8886C23.0379 12.8352 23.0379 12.8352 22.9844 12.7817C22.8775 12.6748 22.7706 12.5679 22.7171 12.461C22.3964 12.1403 22.0757 11.8196 21.755 11.4454C20.7394 10.4298 19.7238 9.41425 18.7082 8.39866C18.1203 7.81069 17.4788 7.16926 16.8909 6.58129C16.4633 6.15367 16.0356 5.72606 15.608 5.29844C15.3408 5.03118 15.0735 4.76392 14.7528 4.49666C14.5924 4.3363 14.4321 4.2294 14.2717 4.06904C14.2183 4.01559 14.2183 4.01559 14.1648 4.01559C13.8441 3.80178 13.5234 3.64142 13.2027 3.48107C12.882 3.32071 12.5078 3.26726 12.1871 3.16036C12.1336 3.16036 12.0267 3.16035 11.9733 3.1069C11.8664 3.1069 11.706 3.1069 11.5991 3.05345C11.3318 3.05345 11.0646 3 10.7973 3C10.7439 3 10.6904 3 10.637 3H10.5835C10.5301 3 10.4766 3 10.4232 3.05345C10.3697 3.05345 10.2628 3.05345 10.2094 3.1069C9.30067 3.26726 8.39198 3.69488 7.6971 4.3363C7.00223 4.97773 6.41425 5.77951 6.09354 6.6882C5.93318 7.22272 5.77283 7.81069 5.77283 8.39866C5.77283 8.87973 5.82628 9.30735 5.98664 9.73497C6.04009 9.89532 6.09354 10.0557 6.20045 10.216C6.3608 10.4298 6.52116 10.6971 6.73497 10.9109C7.16258 11.392 7.64365 11.8196 8.07127 12.3007C8.9265 13.1559 9.78174 14.0111 10.637 14.8664C11.3853 15.6147 12.1336 16.363 12.882 17.0579C13.4165 17.5924 13.951 18.0735 14.4321 18.608C14.539 18.7149 14.6459 18.8218 14.7528 18.9287C14.8062 18.9822 14.8597 19.0356 14.9666 19.0891C15.1269 19.196 15.3942 19.3029 15.608 19.3563C15.8753 19.4633 16.1425 19.5167 16.4633 19.5167C16.6236 19.5167 16.7305 19.5167 16.8909 19.5167C18.8151 19.5167 20.4187 18.127 20.6325 16.2027C20.6325 16.0958 20.6325 15.9354 20.6325 15.8285C20.6325 15.5612 20.5791 15.294 20.4722 15.0267C20.3653 14.7595 20.2049 14.5457 20.0445 14.3318C19.6169 13.9042 19.0824 13.6904 18.5479 13.6904C17.9599 13.6904 17.4254 13.9042 17.0512 14.3318C16.6771 14.706 16.4633 15.1871 16.4633 15.7216C16.4633 16.0958 16.5702 16.4165 16.8374 16.6837C17.1047 16.951 17.4254 17.0579 17.7461 17.0579C18.0668 17.0579 18.3875 16.951 18.6548 16.6837C18.7617 16.5768 18.8686 16.4165 18.922 16.3096C18.9755 16.2561 18.9755 16.2027 19.029 16.1492C19.029 16.0958 19.0824 16.0958 19.0824 16.0423L19.1359 15.9889C19.1893 15.9354 19.2428 15.9354 19.2962 15.9354C19.3497 15.9354 19.4031 15.9354 19.4031 15.9354C19.4566 15.9354 19.4566 15.9889 19.51 15.9889C19.5635 16.0423 19.5635 16.0423 19.6169 16.0958C19.6169 16.1492 19.6169 16.1492 19.6169 16.2027C19.6169 16.2561 19.6169 16.2561 19.6169 16.2561V16.3096C19.5635 16.5768 19.4566 16.7906 19.2962 17.0045C19.1359 17.2183 18.9755 17.4321 18.8151 17.6459C18.5479 17.9131 18.2272 18.127 17.9065 18.2339C17.5857 18.3408 17.2116 18.4477 16.8909 18.4477C16.1425 18.4477 15.4477 18.127 14.9666 17.6459C14.6993 17.3786 14.4855 17.0579 14.3252 16.6837C14.1648 16.3096 14.1114 15.9354 14.1114 15.5612C14.1114 15.4543 14.1114 15.4009 14.1114 15.294C14.1114 15.0267 14.1648 14.7595 14.2183 14.4922C14.2717 14.2249 14.3786 13.9577 14.539 13.6904C15.1269 12.5145 16.196 11.6592 17.4254 11.2851C17.5857 11.2316 17.7461 11.2316 17.9599 11.2316C18.1737 11.2316 18.3875 11.2316 18.5479 11.2316C18.7617 11.2316 18.9755 11.2316 19.1359 11.2316C19.2962 11.2316 19.4566 11.2851 19.6704 11.2851C21.2205 11.7127 22.4499 12.9421 22.8775 14.4922C22.931 14.6526 22.931 14.8129 22.931 14.9733C22.931 15.1871 22.931 15.3474 22.931 15.5612C22.931 16.0423 22.8775 16.5768 22.7706 17.0579C22.5033 18.127 21.9688 19.0891 21.167 19.8909C20.3653 20.6927 19.4031 21.2272 18.3341 21.4944L17.7996 21.6548H13.363H8.8196L1.60356 14.7595L5.71938 14.706H8.17817L7.96437 14.4922L7.26949 13.7973H3.84855C3.52784 13.7973 3.26058 13.7973 2.93987 13.7973C2.29844 13.7973 1.65702 13.7973 1.01559 13.7973C0.855234 13.7973 0.694878 13.7973 0.481069 13.7973C0.374165 13.7973 0.26726 13.7973 0.213808 13.8508H0.160356C0.160356 13.9042 0.106904 13.9042 0.106904 13.9577C0.053452 14.0646 0 14.118 0 14.2249C0 14.2784 0 14.2784 0 14.3318C0 14.3318 0.0534521 14.3853 0.0534521 14.4388C0.213808 14.6526 0.427617 14.8664 0.641425 15.0267C1.06904 15.4543 1.49666 15.882 1.92428 16.3096C2.67261 17.0579 3.42094 17.8062 4.16926 18.5546C5.0245 19.4098 5.82628 20.2116 6.68151 21.0668C7.16258 21.4944 7.5902 21.9755 8.07127 22.4031C8.23163 22.51 8.33853 22.6704 8.49889 22.7773C8.49889 22.7773 8.49889 22.7773 8.55234 22.8307C8.55234 22.9376 8.60579 22.9376 8.60579 22.9376ZM6.78842 9.20045C6.73497 8.93319 6.73497 8.71938 6.73497 8.45212C6.73497 7.48998 7.10913 6.52784 7.6971 5.77951C8.12472 5.24499 8.65924 4.81737 9.24722 4.49666C9.83519 4.17595 10.5301 4.06904 11.2249 4.06904C11.4922 4.06904 11.7595 4.12249 12.0267 4.12249C12.8285 4.28285 13.4165 4.55011 14.0579 5.03118C14.1114 5.08463 14.1114 5.08463 14.1648 5.13809C14.2183 5.19154 14.2717 5.24499 14.3786 5.29844C14.5924 5.4588 14.7528 5.67261 14.9666 5.88641C15.5546 6.42093 16.0891 7.00891 16.6771 7.59688L19.51 10.4298L18.2806 10.5367C16.3563 10.6971 14.6459 11.7661 13.7906 13.5301C13.6837 13.7439 13.5768 13.9577 13.5234 14.2249C13.4165 14.4922 13.363 14.7595 13.3096 15.0267C13.3096 15.1336 13.2561 15.2405 13.2561 15.3474V15.4009V15.4543V15.5078C13.2561 15.5613 13.2027 15.5612 13.1492 15.6147C13.0958 15.6682 13.0423 15.6682 12.9354 15.6682C12.882 15.6682 12.882 15.6682 12.882 15.6682C12.882 15.6682 12.882 15.6682 12.8285 15.6682H12.7751L12.6147 15.5612L12.5612 15.5078C12.5078 15.4543 12.4543 15.4009 12.4009 15.3474C12.1871 15.1871 12.0267 14.9733 11.8129 14.7595C11.1715 14.118 10.5835 13.5301 9.94209 12.8886C9.35412 12.3007 8.76615 11.7127 8.17817 11.0713C7.85746 10.7506 7.5902 10.4298 7.32294 10.1091C7.21604 10.0022 7.10913 9.84187 7.05568 9.68152C6.89532 9.52116 6.84187 9.3608 6.78842 9.20045Z" fill="#29C1D5"/>
</svg>
