<svg width="16" height="16" viewBox="0 0 16 16" fill="none" xmlns="http://www.w3.org/2000/svg">
<path d="M15.6989 9.23216L13.889 5.3554L14.6703 5.57951C14.8419 5.62876 15.0209 5.52964 15.07 5.35792C15.1193 5.18633 15.0201 5.00742 14.8486 4.95818L9.41599 3.39921C9.41713 3.37598 9.41776 3.35275 9.41776 3.32939C9.41789 2.68431 8.98241 2.12055 8.35817 1.95805C7.73393 1.79543 7.07875 2.0751 6.76423 2.63823L1.33116 1.07939C1.15957 1.03015 0.980533 1.12939 0.931291 1.30098C0.882175 1.47257 0.981291 1.65149 1.15288 1.70073L2.2251 2.00843L0.283313 6.16752C0.153767 6.21285 0.0668989 6.33507 0.0667726 6.47244C0.0663938 7.52181 0.698842 8.46777 1.66866 8.8684C2.63848 9.26916 3.75426 9.04542 4.49467 8.30186C4.98797 7.82093 5.26663 7.16146 5.2679 6.47244C5.2679 6.32775 5.17156 6.20073 5.03229 6.16146L3.22762 2.29618L6.58544 3.25957C6.58431 3.2828 6.58368 3.30603 6.58368 3.32952C6.58469 3.98722 7.03734 4.55805 7.67749 4.70881V11.1115H6.78532C6.07244 11.1115 5.47951 11.6835 5.47951 12.3966V12.5842C4.87964 12.7104 4.44896 13.238 4.44517 13.8511V14.3036C4.4506 14.4861 4.59871 14.632 4.78128 14.6347H11.2202C11.4027 14.632 11.5508 14.4861 11.5563 14.3036V13.8511C11.5525 13.238 11.1218 12.7104 10.5219 12.5842V12.3966C10.5219 11.6835 9.92887 11.1115 9.21612 11.1115H8.32395V4.70881C8.71132 4.61727 9.04251 4.36752 9.23721 4.02042L12.8958 5.0703L10.95 9.23822C10.8203 9.28355 10.7334 9.40577 10.7333 9.54302C10.733 10.5924 11.3655 11.5383 12.3353 11.939C13.3051 12.3397 14.4208 12.1161 15.1612 11.3726C15.6545 10.8915 15.9333 10.232 15.9345 9.54302C15.9344 9.39832 15.8382 9.27143 15.6989 9.23216ZM2.65919 2.59113L4.3131 6.13368H1.00541L2.65919 2.59113ZM2.65919 8.40274C1.70717 8.4083 0.892907 7.71992 0.74013 6.78014H4.59303C4.42851 7.71916 3.6126 8.40388 2.65919 8.40274ZM10.9098 13.8511V13.9882H5.09164V13.8511C5.09164 13.4947 5.39466 13.2125 5.75098 13.2125H10.2505C10.6068 13.2125 10.9098 13.4947 10.9098 13.8511ZM9.87546 12.3966V12.566H6.12598V12.3966C6.12598 12.0401 6.42901 11.7579 6.78532 11.7579H9.21612C9.57243 11.7579 9.87546 12.0401 9.87546 12.3966ZM8.00072 4.09997C7.67206 4.10022 7.37938 3.89214 7.27168 3.58166C7.16398 3.27118 7.26486 2.92661 7.52294 2.7232C7.78115 2.51979 8.13986 2.50237 8.4165 2.6799C8.69314 2.85729 8.82685 3.1905 8.74971 3.50994C8.7415 3.5304 8.73544 3.55149 8.73153 3.57308C8.62635 3.88747 8.33216 4.09959 8.00072 4.09997ZM14.9797 9.20438H11.672L13.3258 5.66184L14.9797 9.20438ZM13.3258 11.4734C12.3738 11.479 11.5596 10.7906 11.4068 9.85085H15.2597C15.0951 10.7899 14.2792 11.4746 13.3258 11.4734Z" fill="#29C1D5"/>
<path fill-rule="evenodd" clip-rule="evenodd" d="M0.0661157 6.4718C0.0662421 6.33443 0.153111 6.2122 0.282656 6.16688L2.22444 2.00779L1.15222 1.70009C0.980634 1.65084 0.881518 1.47193 0.930634 1.30034C0.979877 1.12875 1.15892 1.02951 1.33051 1.07875L6.76358 2.63759C7.0781 2.07445 7.73327 1.79478 8.35751 1.95741C8.98175 2.11991 9.41723 2.68367 9.41711 3.32875C9.41711 3.35211 9.41647 3.37534 9.41534 3.39857L14.8479 4.95753C15.0195 5.00678 15.1186 5.18569 15.0694 5.35728C15.0202 5.529 14.8412 5.62811 14.6696 5.57887L13.8883 5.35475L15.6983 9.23152C15.8375 9.27079 15.9338 9.39768 15.9339 9.54238C15.9326 10.2314 15.6538 10.8909 15.1605 11.3719C14.4201 12.1155 13.3045 12.3391 12.3347 11.9383C11.3648 11.5377 10.7324 10.5917 10.7326 9.54238C10.7328 9.40513 10.8196 9.28291 10.9493 9.23758L12.8951 5.06965L9.23655 4.01978C9.04185 4.36688 8.71067 4.61662 8.32329 4.70816V11.1108H9.21546C9.92822 11.1108 10.5213 11.6829 10.5213 12.3959V12.5835C11.1211 12.7098 11.5518 13.2373 11.5556 13.8505V14.303C11.5502 14.4854 11.4021 14.6314 11.2195 14.634H4.78063C4.59805 14.6314 4.44994 14.4854 4.44452 14.303V13.8505C4.4483 13.2373 4.87898 12.7098 5.47886 12.5835V12.3959C5.47886 11.6829 6.07178 11.1108 6.78466 11.1108H7.67683V4.70816C7.03668 4.55741 6.58403 3.98657 6.58302 3.32887C6.58302 3.30539 6.58365 3.28216 6.58479 3.25892L3.22697 2.29554L5.03164 6.16082C5.1709 6.20008 5.26724 6.3271 5.26724 6.4718C5.26598 7.16081 4.98732 7.82028 4.49401 8.30122C3.75361 9.04478 2.63783 9.26851 1.66801 8.86776C0.698185 8.46713 0.0657371 7.52117 0.0661157 6.4718ZM5.07943 6.1069L3.3483 2.39914L6.51706 3.30827C6.51696 3.31512 6.51691 3.32198 6.51691 3.32887C6.51794 3.99962 6.9678 4.58415 7.61072 4.75957V11.0447H6.78466C6.03666 11.0447 5.41274 11.645 5.41274 12.3959V12.531C4.80993 12.6826 4.38227 13.2238 4.3784 13.85V14.303L4.37843 14.3049C4.38491 14.5227 4.5617 14.697 4.77967 14.7002L11.2195 14.7002L11.2205 14.7001C11.4384 14.697 11.6152 14.5227 11.6217 14.3049L11.6217 13.8505C11.6179 13.2242 11.1902 12.6826 10.5874 12.531V12.3959C10.5874 11.645 9.96334 11.0447 9.21546 11.0447H8.38941V4.75953C8.75597 4.65913 9.07024 4.42215 9.2677 4.0975L12.8025 5.11185L10.9005 9.18571C10.7594 9.24708 10.6667 9.38666 10.6665 9.54232C10.6663 10.6184 11.3148 11.5886 12.3094 11.9994C13.3038 12.4104 14.4478 12.1812 15.2071 11.4189C15.7129 10.9254 15.9987 10.2491 16 9.5425C15.9999 9.37874 15.8975 9.23374 15.7461 9.17761L14.0096 5.45834L14.6514 5.64242C14.858 5.70173 15.0738 5.58235 15.1329 5.37546C15.1922 5.16879 15.0728 4.95329 14.8661 4.89398L9.48307 3.34922C9.48317 3.34242 9.48322 3.3356 9.48322 3.32876M5.07943 6.1069C5.2309 6.16305 5.33336 6.30799 5.33336 6.4718C5.33206 7.17841 5.04635 7.85487 4.54053 8.3482C3.78124 9.11046 2.63718 9.33979 1.64276 8.92886C0.648192 8.51801 -0.000388275 7.54791 1.74392e-07 6.47178C0.000143334 6.31603 0.0928639 6.1764 0.2339 6.11502L2.13178 2.04998L1.13399 1.76364C0.927292 1.70432 0.807918 1.4888 0.867071 1.28215C0.926381 1.07547 1.14204 0.95588 1.34874 1.0152C1.34874 1.0152 1.34874 1.0152 1.34874 1.0152L6.73233 2.55984C7.07079 2.00099 7.73783 1.72765 8.37417 1.89343C9.02756 2.06351 9.48335 2.6536 9.48322 3.32876M2.65861 8.33598C3.55343 8.33705 4.3229 7.71289 4.51201 6.84562H0.818836C0.997054 7.71373 1.76527 8.3412 2.65861 8.33598ZM0.751389 6.84562C0.747053 6.82372 0.743079 6.80168 0.739473 6.7795H4.59237C4.58848 6.80168 4.58423 6.82372 4.57963 6.84562C4.38922 7.75048 3.58942 8.40321 2.65853 8.4021C1.72899 8.40753 0.930764 7.75138 0.751389 6.84562ZM8.41585 2.67925C8.1392 2.50173 7.78049 2.51915 7.52229 2.72256C7.26421 2.92597 7.16332 3.27054 7.27102 3.58102C7.37873 3.8915 7.6714 4.09958 8.00006 4.09933C8.3315 4.09895 8.62569 3.88683 8.73087 3.57243C8.73478 3.55084 8.74084 3.52976 8.74905 3.5093C8.8262 3.18986 8.69249 2.85665 8.41585 2.67925ZM8.68582 3.48944C8.7541 3.1987 8.63181 2.89629 8.38016 2.73491C8.12725 2.57261 7.79929 2.58852 7.56321 2.77449C7.32725 2.96046 7.23502 3.27549 7.33349 3.55935C7.43195 3.84319 7.69952 4.03343 7.99999 4.03321C8.30153 4.03287 8.56938 3.84081 8.66675 3.55565C8.67114 3.53309 8.6775 3.51097 8.68582 3.48944ZM13.3253 11.4067C14.2201 11.4078 14.9895 10.7836 15.1787 9.91632H11.4855C11.6637 10.7844 12.4319 11.4119 13.3253 11.4067ZM11.418 9.91632C11.4137 9.89443 11.4097 9.87239 11.4061 9.85021H15.259C15.2551 9.87239 15.2509 9.89443 15.2463 9.91632C15.0559 10.8212 14.2561 11.4739 13.3252 11.4728C12.3956 11.4782 11.5974 10.8221 11.418 9.91632ZM2.65853 2.59049L1.00475 6.13304H4.31244L2.65853 2.59049ZM2.65854 2.74678L4.20861 6.06692H1.10858L2.65854 2.74678ZM10.843 13.9215V13.8505C10.843 13.5332 10.5724 13.2779 10.2498 13.2779H5.75032C5.42774 13.2779 5.15709 13.5332 5.15709 13.8505V13.9215H10.843ZM9.80869 12.4992V12.3959C9.80869 12.0787 9.53804 11.8234 9.21546 11.8234H6.78466C6.46209 11.8234 6.19144 12.0787 6.19144 12.3959V12.4992H9.80869ZM14.9791 9.20374L13.3252 5.66119L11.6714 9.20374H14.9791ZM14.8753 9.13763H11.7752L13.3252 5.81749L14.8753 9.13763ZM10.9091 13.8505C10.9091 13.494 10.6061 13.2118 10.2498 13.2118H5.75032C5.39401 13.2118 5.09098 13.494 5.09098 13.8505V13.9876H10.9091V13.8505ZM9.87481 12.3959C9.87481 12.0395 9.57178 11.7573 9.21546 11.7573H6.78466C6.42835 11.7573 6.12532 12.0395 6.12532 12.3959V12.5654H9.87481V12.3959Z" fill="#29C1D5"/>
</svg>
