<svg width="16" height="16" viewBox="0 0 16 16" fill="none" xmlns="http://www.w3.org/2000/svg">
<path d="M5.15504 10.3751H5.15577C5.15638 10.3751 5.15699 10.375 5.1576 10.375H13.6563C13.8655 10.375 14.0495 10.2362 14.107 10.035L15.982 3.47254C16.0224 3.33106 15.994 3.17896 15.9055 3.06153C15.8169 2.9441 15.6784 2.875 15.5313 2.875H4.07398L3.7389 1.36707C3.69117 1.15259 3.50098 1 3.28126 1H0.468751C0.209839 1 0 1.20984 0 1.46875C0 1.72766 0.209839 1.9375 0.468751 1.9375H2.90528C2.9646 2.20471 4.5088 9.1537 4.59766 9.55348C4.09949 9.77003 3.75001 10.2667 3.75001 10.8438C3.75001 11.6192 4.38087 12.25 5.15626 12.25H13.6563C13.9152 12.25 14.125 12.0402 14.125 11.7813C14.125 11.5224 13.9152 11.3125 13.6563 11.3125H5.15626C4.89784 11.3125 4.68751 11.1022 4.68751 10.8438C4.68751 10.5857 4.8971 10.3757 5.15504 10.3751ZM14.9098 3.8125L13.3026 9.43751H5.53224L4.28223 3.8125H14.9098Z" fill="white"/>
<path d="M4.6875 13.6563C4.6875 14.4316 5.31836 15.0625 6.09375 15.0625C6.86914 15.0625 7.5 14.4316 7.5 13.6563C7.5 12.8809 6.86914 12.25 6.09375 12.25C5.31836 12.25 4.6875 12.8809 4.6875 13.6563ZM6.09375 13.1875C6.35218 13.1875 6.5625 13.3978 6.5625 13.6563C6.5625 13.9147 6.35218 14.125 6.09375 14.125C5.83533 14.125 5.625 13.9147 5.625 13.6563C5.625 13.3978 5.83533 13.1875 6.09375 13.1875Z" fill="white"/>
<path d="M11.3125 13.6563C11.3125 14.4316 11.9434 15.0625 12.7188 15.0625C13.4941 15.0625 14.125 14.4316 14.125 13.6563C14.125 12.8809 13.4941 12.25 12.7188 12.25C11.9434 12.25 11.3125 12.8809 11.3125 13.6563ZM12.7188 13.1875C12.9772 13.1875 13.1875 13.3978 13.1875 13.6563C13.1875 13.9147 12.9772 14.125 12.7188 14.125C12.4603 14.125 12.25 13.9147 12.25 13.6563C12.25 13.3978 12.4603 13.1875 12.7188 13.1875Z" fill="white"/>
</svg>
