<svg width="16" height="16" viewBox="0 0 16 16" fill="none" xmlns="http://www.w3.org/2000/svg">
<path fill-rule="evenodd" clip-rule="evenodd" d="M1.58207 4.03661C1.06481 4.70023 0.83728 5.63623 0.985585 6.68807L0.986596 6.69524L0.987386 6.70244C1.12987 8.00082 2.20353 9.4345 3.6881 10.814C5.05493 12.0841 6.68475 13.2318 7.99226 14.0927C9.17699 13.2599 10.7804 12.11 12.1681 10.8312C12.9138 10.1439 13.586 9.42948 14.0939 8.71772C14.6044 8.0023 14.9284 7.31791 15.0173 6.68802C15.1644 5.64592 14.9147 4.7094 14.3813 4.04078C13.8526 3.37805 13.0162 2.94119 11.905 2.94119C9.75216 2.94119 8.67404 4.14808 8.42342 4.65576C8.34876 4.80701 8.19885 4.90673 8.0305 4.91714C7.86215 4.92755 7.7011 4.84707 7.60836 4.70618C7.23575 4.14008 5.97947 2.94119 4.09787 2.94119C2.9242 2.94119 2.09256 3.38166 1.58207 4.03661ZM0.839738 3.45801C1.54908 2.54795 2.66917 2 4.09787 2C5.91555 2 7.24947 2.91149 7.9672 3.66237C8.61895 2.88915 9.90814 2 11.905 2C13.2819 2 14.3973 2.55156 15.1171 3.45384C15.8322 4.35023 16.1277 5.5553 15.9493 6.81953C15.831 7.65736 15.4163 8.48491 14.8601 9.2644C14.3012 10.0475 13.5789 10.811 12.8059 11.5233C11.2609 12.9471 9.46918 14.2068 8.27162 15.0465C8.11429 15.1568 7.9057 15.1604 7.74467 15.0555C6.38579 14.1708 4.5693 12.9176 3.04743 11.5035C1.55114 10.1131 0.238571 8.47678 0.0526235 6.81239C-0.122278 5.56045 0.138479 4.3577 0.839738 3.45801Z" fill="#29C1D5"/>
</svg>
