<svg width="16" height="18" viewBox="0 0 16 18" fill="none" xmlns="http://www.w3.org/2000/svg">
<path d="M12.375 16.9237H3.125C2.50466 16.9237 2 16.4198 2 15.8004V2.07152C2 1.45212 2.50466 0.948242 3.125 0.948242H12.375C12.9953 0.948242 13.5 1.45212 13.5 2.07152V15.8004C13.5 16.4198 12.9953 16.9237 12.375 16.9237ZM3.125 1.94671C3.05606 1.94671 3 2.00269 3 2.07152V15.8004C3 15.8693 3.05606 15.9252 3.125 15.9252H12.375C12.4439 15.9252 12.5 15.8693 12.5 15.8004V2.07152C12.5 2.00269 12.4439 1.94671 12.375 1.94671H3.125Z" fill="white"/>
<path d="M10.5 14.1779H9.5C9.22387 14.1779 9 13.9543 9 13.6786C9 13.403 9.22387 13.1794 9.5 13.1794H10.5C10.7761 13.1794 11 13.403 11 13.6786C11 13.9543 10.7761 14.1779 10.5 14.1779Z" fill="white"/>
<path d="M10.25 7.68793H5.25C4.97387 7.68793 4.75 7.46439 4.75 7.18869C4.75 6.91299 4.97387 6.68945 5.25 6.68945H10.25C10.5261 6.68945 10.75 6.91299 10.75 7.18869C10.75 7.46439 10.5261 7.68793 10.25 7.68793Z" fill="white"/>
<path d="M10.25 10.184H5.25C4.97387 10.184 4.75 9.96044 4.75 9.68475C4.75 9.40907 4.97387 9.18555 5.25 9.18555H10.25C10.5261 9.18555 10.75 9.40907 10.75 9.68475C10.75 9.96044 10.5261 10.184 10.25 10.184Z" fill="white"/>
</svg>
