<svg width="48" height="48" viewBox="0 0 48 48" fill="none" xmlns="http://www.w3.org/2000/svg">
<path d="M17.3793 30.6206L1.65515 46.3447L2.48274 47.1723H33.931L17.3793 30.6206Z" fill="#AEE6ED"/>
<path d="M2.48276 44.6897H33.931H38.8966C40.2654 44.6897 41.3793 43.5757 41.3793 42.2069V38.069H45.5172C46.8861 38.069 48 36.955 48 35.5862V2.48276C48 1.11393 46.8861 0 45.5172 0H9.10345C7.73462 0 6.62069 1.11393 6.62069 2.48276V6.62069H2.48276C1.11393 6.62069 0 7.73462 0 9.10345V42.2069C0 43.5757 1.11393 44.6897 2.48276 44.6897ZM2.82538 43.0345L17.3793 28.4806L26.7252 37.8265L31.9332 43.0345H2.82538ZM34.2737 43.0345L28.4806 37.2414L30.6207 35.1012L38.5539 43.0345H34.2737ZM8.27586 2.48276C8.27586 2.02593 8.64662 1.65517 9.10345 1.65517H45.5172C45.9741 1.65517 46.3448 2.02593 46.3448 2.48276V35.5862C46.3448 36.043 45.9741 36.4138 45.5172 36.4138H41.3793V9.10345C41.3793 8.92552 41.3586 8.75255 41.323 8.58538C41.2916 8.42731 41.2436 8.28331 41.1865 8.14593C41.1848 8.14262 41.184 8.13931 41.1832 8.13517C41.1252 7.99779 41.0566 7.87366 40.9771 7.75697C40.963 7.73545 40.9498 7.71393 40.9357 7.69241C40.8795 7.61545 40.8207 7.54345 40.757 7.47559C40.301 6.95586 39.6406 6.62069 38.8966 6.62069H8.27586V2.48276ZM2.48276 8.27586H38.861C38.8841 8.27752 38.9148 8.28166 38.9537 8.28745C38.9917 8.28993 39.0273 8.30152 39.0637 8.30979C39.139 8.328 39.2234 8.35779 39.307 8.40083C39.552 8.54483 39.7241 8.79972 39.7241 9.10345V37.2414V41.8643L31.2058 33.3459C30.8822 33.0223 30.3592 33.0223 30.0356 33.3459L27.3103 36.0712L17.9644 26.7252C17.6408 26.4017 17.1178 26.4017 16.7942 26.7252L1.65517 41.8643V9.10345C1.65517 8.64662 2.02593 8.27586 2.48276 8.27586Z" fill="#CED2D7"/>
<path d="M9.10347 21.5172C12.2971 21.5172 14.8966 18.9178 14.8966 15.7241C14.8966 12.5305 12.2971 9.93102 9.10347 9.93102C5.90981 9.93102 3.31036 12.5305 3.31036 15.7241C3.31036 18.9178 5.90981 21.5172 9.10347 21.5172ZM9.10347 11.5862C11.3851 11.5862 13.2414 13.4425 13.2414 15.7241C13.2414 18.0058 11.3851 19.8621 9.10347 19.8621C6.82181 19.8621 4.96554 18.0058 4.96554 15.7241C4.96554 13.4425 6.82181 11.5862 9.10347 11.5862Z" fill="#CED2D7"/>
</svg>
