<svg width="16" height="16" viewBox="0 0 16 16" fill="none" xmlns="http://www.w3.org/2000/svg">
<circle cx="8" cy="8" r="7.5" stroke="#DFE3E8"/>
<path d="M7.4564 9.875C7.13663 9.52616 6.97674 9.09981 6.97674 8.59593C6.97674 8.30523 7.03004 8.05814 7.13663 7.85465C7.24322 7.64147 7.37403 7.45252 7.52907 7.28779C7.68411 7.12306 7.85368 6.97771 8.03779 6.85174C8.2219 6.72578 8.39147 6.60465 8.54651 6.48837C8.70155 6.3624 8.83236 6.23643 8.93895 6.11047C9.04554 5.97481 9.09884 5.82461 9.09884 5.65988C9.09884 5.43702 9.01163 5.24322 8.83721 5.07849C8.66279 4.91376 8.37209 4.8314 7.96512 4.8314C7.5969 4.8314 7.2626 4.91376 6.96221 5.07849C6.66182 5.24322 6.40019 5.46124 6.17733 5.73256L5 4.40988C5.3876 3.95446 5.85756 3.60562 6.40988 3.36337C6.96221 3.12112 7.55329 3 8.18314 3C8.64826 3 9.06492 3.05814 9.43314 3.17442C9.81105 3.28101 10.1308 3.43605 10.3924 3.63954C10.6541 3.84302 10.8527 4.08527 10.9884 4.36628C11.1337 4.64729 11.2064 4.95736 11.2064 5.29651C11.2064 5.65504 11.1434 5.96027 11.0174 6.21221C10.9012 6.46415 10.751 6.68702 10.5669 6.88081C10.3924 7.06492 10.1986 7.2345 9.98547 7.38953C9.78198 7.53488 9.58818 7.68023 9.40407 7.82558C9.22965 7.96124 9.07946 8.10659 8.95349 8.26163C8.83721 8.41667 8.77907 8.59593 8.77907 8.79942C8.77907 8.9157 8.80329 9.03198 8.85174 9.14826C8.90019 9.25485 8.96318 9.34205 9.0407 9.40988L7.4564 9.875ZM8.15407 13C7.8343 13 7.55814 12.8837 7.32558 12.6512C7.09302 12.4186 6.97674 12.1424 6.97674 11.8227C6.97674 11.5029 7.09302 11.2267 7.32558 10.9942C7.55814 10.7616 7.8343 10.6453 8.15407 10.6453C8.47384 10.6453 8.75 10.7616 8.98256 10.9942C9.21512 11.2267 9.3314 11.5029 9.3314 11.8227C9.3314 12.1424 9.21512 12.4186 8.98256 12.6512C8.75 12.8837 8.47384 13 8.15407 13Z" fill="#29C1D5"/>
</svg>
