<svg width="48" height="48" viewBox="0 0 48 48" fill="none" xmlns="http://www.w3.org/2000/svg">
<path d="M15.4651 30.1254H15.4673C15.4691 30.1254 15.471 30.125 15.4728 30.125H40.9688C41.5965 30.125 42.1484 29.7087 42.3209 29.1051L47.9459 9.41761C48.0671 8.99318 47.9821 8.53688 47.7166 8.18458C47.4508 7.83229 47.0351 7.62501 46.5938 7.62501H12.2219L11.2167 3.1012C11.0735 2.45776 10.5029 2 9.84377 2H1.40625C0.629518 2 0 2.62952 0 3.40625C0 4.18299 0.629518 4.8125 1.40625 4.8125H8.71583C8.89381 5.61414 13.5264 26.4611 13.793 27.6604C12.2985 28.3101 11.25 29.8002 11.25 31.5313C11.25 33.8575 13.1426 35.7501 15.4688 35.7501H40.9688C41.7456 35.7501 42.3751 35.1205 42.3751 34.3438C42.3751 33.5671 41.7456 32.9376 40.9688 32.9376H15.4688C14.6935 32.9376 14.0625 32.3066 14.0625 31.5313C14.0625 30.7571 14.6913 30.1272 15.4651 30.1254ZM44.7294 10.4375L39.9079 27.3125H16.5967L12.8467 10.4375H44.7294Z" fill="#29C1D5"/>
<path d="M14.0625 39.9688C14.0625 42.2949 15.9551 44.1875 18.2813 44.1875C20.6074 44.1875 22.5 42.2949 22.5 39.9688C22.5 37.6426 20.6074 35.75 18.2813 35.75C15.9551 35.75 14.0625 37.6426 14.0625 39.9688ZM18.2813 38.5625C19.0565 38.5625 19.6875 39.1935 19.6875 39.9688C19.6875 40.744 19.0565 41.375 18.2813 41.375C17.506 41.375 16.875 40.744 16.875 39.9688C16.875 39.1935 17.506 38.5625 18.2813 38.5625Z" fill="#29C1D5"/>
<path d="M33.9375 39.9688C33.9375 42.2949 35.8301 44.1875 38.1563 44.1875C40.4824 44.1875 42.375 42.2949 42.375 39.9688C42.375 37.6426 40.4824 35.75 38.1563 35.75C35.8301 35.75 33.9375 37.6426 33.9375 39.9688ZM38.1563 38.5625C38.9315 38.5625 39.5625 39.1935 39.5625 39.9688C39.5625 40.744 38.9315 41.375 38.1563 41.375C37.381 41.375 36.75 40.744 36.75 39.9688C36.75 39.1935 37.381 38.5625 38.1563 38.5625Z" fill="#29C1D5"/>
</svg>
