<svg width="12" height="16" viewBox="0 0 12 16" fill="none" xmlns="http://www.w3.org/2000/svg">
<path d="M5.90624 6.19224C5.716 6.002 5.40673 6.00102 5.21551 6.19127L3.60966 7.7981L2.97941 7.16688C2.78917 6.97663 2.4799 6.97663 2.28966 7.16688C2.09941 7.35712 2.09941 7.66639 2.28966 7.85663L3.26527 8.83224C3.3599 8.92785 3.48478 8.97566 3.60966 8.97566C3.73453 8.97566 3.85941 8.92785 3.95502 8.83322L5.90624 6.882C6.09648 6.69176 6.09648 6.38249 5.90624 6.19224Z" fill="#29C1D5"/>
<path d="M5.90624 10.0947C5.716 9.90447 5.40673 9.90349 5.21551 10.0937L3.60966 11.7006L2.97941 11.0703C2.78917 10.8801 2.4799 10.8801 2.28966 11.0703C2.09941 11.2606 2.09941 11.5698 2.28966 11.7601L3.26527 12.7357C3.3599 12.8303 3.48478 12.8781 3.60966 12.8781C3.73453 12.8781 3.85941 12.8303 3.95502 12.7357L5.90624 10.7845C6.09648 10.5942 6.09648 10.285 5.90624 10.0947Z" fill="#29C1D5"/>
<path d="M9.46332 7.02441H7.5121C7.24283 7.02441 7.02429 7.24295 7.02429 7.51222C7.02429 7.78149 7.24283 8.00002 7.5121 8.00002H9.46332C9.73258 8.00002 9.95112 7.78149 9.95112 7.51222C9.95112 7.24295 9.73258 7.02441 9.46332 7.02441Z" fill="#29C1D5"/>
<path d="M9.46332 10.9269H7.5121C7.24283 10.9269 7.02429 11.1454 7.02429 11.4147C7.02429 11.684 7.24283 11.9025 7.5121 11.9025H9.46332C9.73258 11.9025 9.95112 11.684 9.95112 11.4147C9.95112 11.1454 9.73258 10.9269 9.46332 10.9269Z" fill="#29C1D5"/>
<path d="M10.9268 2.14641H8.97556V1.6586C8.97556 1.38934 8.75702 1.1708 8.48775 1.1708H7.42921C7.22726 0.602995 6.68482 0.19519 6.04873 0.19519C5.41263 0.19519 4.87019 0.602995 4.66824 1.1708H3.6097C3.34043 1.1708 3.1219 1.38934 3.1219 1.6586V2.14641H1.17068C0.633117 2.14641 0.195068 2.58446 0.195068 3.12202V14.8293C0.195068 15.3669 0.633117 15.8049 1.17068 15.8049H10.9268C11.4643 15.8049 11.9024 15.3669 11.9024 14.8293V3.12202C11.9024 2.58446 11.4643 2.14641 10.9268 2.14641ZM4.09751 2.14641H5.07312C5.34239 2.14641 5.56092 1.92787 5.56092 1.6586C5.56092 1.38934 5.77946 1.1708 6.04873 1.1708C6.318 1.1708 6.53653 1.38934 6.53653 1.6586C6.53653 1.92787 6.75507 2.14641 7.02434 2.14641H7.99995V3.12202H4.09751V2.14641ZM10.9268 14.8293H1.17068V3.12202H3.1219V3.60982C3.1219 3.87909 3.34043 4.09763 3.6097 4.09763H8.48775C8.75702 4.09763 8.97556 3.87909 8.97556 3.60982V3.12202H10.9268V14.8293Z" fill="#29C1D5"/>
</svg>
