<svg width="16" height="12" viewBox="0 0 16 12" fill="none" xmlns="http://www.w3.org/2000/svg">
<path d="M6.0321 9.81759L9.03104 1.82043L9.96736 2.17155L6.96842 10.1687L6.0321 9.81759Z" fill="#29C1D5"/>
<path d="M5.63465 6.16834C4.80751 6.16834 4.13464 5.49548 4.13464 4.66834C4.13464 3.84119 4.80751 3.16833 5.63465 3.16833C6.46179 3.16833 7.13466 3.84119 7.13466 4.66834C7.13466 5.49548 6.46179 6.16834 5.63465 6.16834ZM5.63465 4.16833C5.35878 4.16833 5.13465 4.39246 5.13465 4.66834C5.13465 4.94421 5.35878 5.16834 5.63465 5.16834C5.91052 5.16834 6.13465 4.94421 6.13465 4.66834C6.13465 4.39246 5.91052 4.16833 5.63465 4.16833Z" fill="#29C1D5"/>
<path d="M10.803 9.26931C9.97584 9.26931 9.30298 8.59645 9.30298 7.76931C9.30298 6.94216 9.97584 6.2693 10.803 6.2693C11.6301 6.2693 12.303 6.94216 12.303 7.76931C12.303 8.59645 11.6301 9.26931 10.803 9.26931ZM10.803 7.2693C10.5271 7.2693 10.303 7.49343 10.303 7.76931C10.303 8.04518 10.5271 8.26931 10.803 8.26931C11.0789 8.26931 11.303 8.04518 11.303 7.76931C11.303 7.49343 11.0789 7.2693 10.803 7.2693Z" fill="#29C1D5"/>
<path d="M14.5 12H1.50001C0.672863 12 0 11.3272 0 10.5V8C0 7.72362 0.223626 7.5 0.500002 7.5C1.32714 7.5 2.00001 6.82713 2.00001 5.99999C2.00001 5.17285 1.32714 4.49999 0.500002 4.49999C0.223626 4.50002 0 4.27639 0 4.00002V1.50001C0 0.672864 0.672863 0 1.50001 0H14.5C15.3271 0 16 0.672864 16 1.50001V4.00002C16 4.27639 15.7764 4.50002 15.5 4.50002C14.6729 4.50002 14 5.17288 14 6.00003C14 6.82717 14.6729 7.50003 15.5 7.50003C15.7764 7.50003 16 7.72366 16 8.00003V10.5C16 11.3272 15.3271 12 14.5 12ZM1 8.44971V10.5C1 10.7759 1.22413 11 1.50001 11H14.5C14.7759 11 15 10.7759 15 10.5V8.44971C13.8604 8.2173 13 7.20753 13 5.99999C13 4.79245 13.8603 3.78272 15 3.55027V1.50001C15 1.22414 14.7759 1 14.5 1H1.50001C1.22413 1 1 1.22414 1 1.50001V3.55031C2.13964 3.78272 3.00001 4.79249 3.00001 6.00003C3.00001 7.20756 2.13964 8.2173 1 8.44971Z" fill="#29C1D5"/>
</svg>
