<svg width="16" height="16" viewBox="0 0 16 16" fill="none" xmlns="http://www.w3.org/2000/svg">
<path d="M0.864985 8.45371V15.769H4.4103V11.1584H6.97908V15.769H15.135V8.45369C15.6635 8.00944 16 7.34385 16 6.60106V4.42648L13.8772 1H2.18644L0 4.42226V6.60106C0 7.34387 0.336509 8.00946 0.864985 8.45371ZM4.67502 2.11972L3.72006 4.60004V6.05747V6.60106C3.72006 6.80788 3.67129 7.00342 3.585 7.17719C3.37219 7.60582 2.92998 7.90124 2.41988 7.90124C2.26729 7.90124 2.12085 7.8746 1.98469 7.82609C1.48119 7.64667 1.11971 7.16539 1.11971 6.60108V6.05749V4.74944L2.7998 2.11974H4.67502V2.11972ZM7.44014 2.11972V6.05749V6.60108C7.44014 6.8079 7.39137 7.00344 7.30508 7.17721C7.09227 7.60583 6.65006 7.90126 6.13996 7.90126C5.62986 7.90126 5.18765 7.60583 4.97484 7.17721C4.88856 7.00344 4.83978 6.80788 4.83978 6.60108V6.05749V4.80816L5.87487 2.11974L7.44014 2.11972ZM10.1251 2.11972L11.1602 4.80816V6.05749V6.60108C11.1602 6.8079 11.1114 7.00344 11.0252 7.17721C10.8123 7.60583 10.3701 7.90126 9.86004 7.90126C9.34992 7.90126 8.90773 7.60583 8.69492 7.17721C8.60863 7.00344 8.55986 6.80788 8.55986 6.60108V6.05749V2.11972H10.1251ZM13.2537 2.11972L14.8803 4.74522V6.05749V6.60108C14.8803 7.16539 14.5188 7.64669 14.0153 7.82609C13.8791 7.8746 13.7327 7.90126 13.5801 7.90126C13.07 7.90126 12.6278 7.60583 12.415 7.17721C12.3287 7.00344 12.2799 6.80788 12.2799 6.60108V6.05749V4.60005L11.325 2.11975H13.2537V2.11972ZM14.0153 14.6493H8.0988V10.0387H3.29058V14.6493H1.98471V8.98167C2.12592 9.00743 2.27136 9.02098 2.4199 9.02098C3.1668 9.02098 3.83569 8.68091 4.27994 8.1474C4.72419 8.6809 5.39307 9.02098 6.13996 9.02098C6.88687 9.02098 7.55575 8.68091 8 8.1474C8.44425 8.6809 9.11315 9.02098 9.86004 9.02098C10.6069 9.02098 11.2758 8.68093 11.7201 8.1474C12.1643 8.6809 12.8332 9.02098 13.5801 9.02098C13.7286 9.02098 13.8741 9.00744 14.0153 8.98167V14.6493Z" fill="white"/>
</svg>
