<svg width="48" height="48" viewBox="0 0 48 48" fill="none" xmlns="http://www.w3.org/2000/svg">
<circle cx="24" cy="24" r="23.5" fill="white" stroke="#29C1D5"/>
<path d="M30.4844 22.2219V21.05H15.1719V23.9797C15.1719 26.7045 16.6081 29.0983 18.7699 30.4641H14V31.05C14 32.6655 15.3143 33.9797 16.9297 33.9797H28.7266C30.342 33.9797 31.6562 32.6655 31.6562 31.05V30.4641H26.8864C27.4076 30.1348 27.8852 29.7464 28.3248 29.2922H29.8984C32.16 29.2922 34 27.4348 34 25.1516V22.2219H30.4844ZM30.384 31.636C30.1421 32.3181 29.4905 32.8079 28.7266 32.8079H16.9297C16.1658 32.8079 15.5141 32.3181 15.2723 31.636H30.384ZM22.8281 30.4641C19.2526 30.4641 16.3438 27.5552 16.3438 23.9797V22.2219H29.3125V23.9797C29.3125 27.5552 26.4036 30.4641 22.8281 30.4641ZM32.8281 25.1516C32.8281 26.7886 31.5139 28.1204 29.8984 28.1204H29.2593C30.0565 26.8937 30.4844 25.4675 30.4844 23.9797V23.3938H32.8281V25.1516Z" fill="#29C1D5"/>
<path d="M20.2527 14L19.6027 14.9751C19.8354 15.1302 19.9689 15.3797 19.9689 15.6594C19.9689 15.9391 19.8354 16.1886 19.6027 16.3437C19.0466 16.7145 18.7146 17.3421 18.7146 18.0227C18.7146 18.7032 19.0466 19.3309 19.6027 19.7016L20.2527 18.7265C20.02 18.5714 19.8865 18.3148 19.8865 18.0227C19.8865 17.7305 20.02 17.474 20.2527 17.3188C20.8088 16.948 21.1408 16.3277 21.1408 15.6594C21.1408 14.9911 20.8088 14.3707 20.2527 14Z" fill="#29C1D5"/>
<path d="M23.1824 14L22.5324 14.9751C22.7651 15.1302 22.8986 15.3797 22.8986 15.6594C22.8986 15.9391 22.7651 16.1886 22.5324 16.3437C21.9763 16.7145 21.6443 17.3421 21.6443 18.0227C21.6443 18.7032 21.9763 19.3309 22.5324 19.7016L23.1824 18.7265C22.9497 18.5714 22.8162 18.3148 22.8162 18.0227C22.8162 17.7305 22.9496 17.474 23.1824 17.3188C23.7385 16.948 24.0705 16.3277 24.0705 15.6594C24.0705 14.9911 23.7385 14.3707 23.1824 14Z" fill="#29C1D5"/>
<path d="M26.1512 14L25.5011 14.9751C25.7339 15.1302 25.8673 15.3797 25.8673 15.6594C25.8673 15.9391 25.7339 16.1886 25.5011 16.3437C24.945 16.7145 24.613 17.3421 24.613 18.0227C24.613 18.7032 24.9451 19.3309 25.5011 19.7016L26.1512 18.7265C25.9184 18.5714 25.7849 18.3148 25.7849 18.0227C25.7849 17.7305 25.9184 17.474 26.1512 17.3188C26.7073 16.948 27.0392 16.3277 27.0392 15.6594C27.0392 14.9911 26.7073 14.3707 26.1512 14Z" fill="#29C1D5"/>
</svg>
