<svg width="48" height="48" viewBox="0 0 48 48" fill="none" xmlns="http://www.w3.org/2000/svg">
<circle cx="24" cy="24" r="23.5" fill="white" stroke="#29C1D5"/>
<path d="M24.2169 23.6341C25.5404 23.6341 26.6863 23.1594 27.6229 22.2228C28.5592 21.2864 29.0341 20.1406 29.0341 18.8169C29.0341 17.4937 28.5594 16.3477 27.6228 15.411C26.6862 14.4747 25.5403 14 24.2169 14C22.8932 14 21.7474 14.4747 20.8109 15.4111C19.8745 16.3476 19.3997 17.4935 19.3997 18.8169C19.3997 20.1406 19.8745 21.2865 20.8109 22.223C21.7477 23.1592 22.8936 23.6341 24.2169 23.6341ZM21.6398 16.2398C22.3583 15.5213 23.2012 15.172 24.2169 15.172C25.2323 15.172 26.0754 15.5213 26.7941 16.2398C27.5126 16.9585 27.862 17.8016 27.862 18.8169C27.862 19.8325 27.5126 20.6754 26.7941 21.3941C26.0754 22.1128 25.2323 22.4621 24.2169 22.4621C23.2015 22.4621 22.3586 22.1126 21.6398 21.3941C20.9211 20.6756 20.5717 19.8325 20.5717 18.8169C20.5717 17.8016 20.9211 16.9585 21.6398 16.2398Z" fill="#29C1D5"/>
<path d="M32.6457 29.379C32.6187 28.9893 32.564 28.5642 32.4836 28.1153C32.4024 27.663 32.2979 27.2354 32.1728 26.8447C32.0434 26.4408 31.8678 26.0419 31.6503 25.6597C31.425 25.2629 31.1601 24.9175 30.8628 24.6332C30.552 24.3358 30.1714 24.0967 29.7314 23.9223C29.2928 23.7488 28.8069 23.6609 28.287 23.6609C28.0828 23.6609 27.8854 23.7447 27.5041 23.993C27.2694 24.146 26.9949 24.323 26.6885 24.5188C26.4265 24.6857 26.0716 24.8421 25.6332 24.9837C25.2055 25.1221 24.7712 25.1923 24.3424 25.1923C23.914 25.1923 23.4797 25.1221 23.0517 24.9837C22.6138 24.8423 22.2587 24.6859 21.9972 24.5189C21.6937 24.325 21.419 24.148 21.1808 23.9928C20.7998 23.7445 20.6024 23.6608 20.3982 23.6608C19.8782 23.6608 19.3923 23.7488 18.9539 23.9225C18.5142 24.0966 18.1335 24.3357 17.8224 24.6334C17.5251 24.9178 17.2602 25.2631 17.035 25.6597C16.8179 26.0419 16.6421 26.4406 16.5127 26.8448C16.3877 27.2356 16.2832 27.663 16.202 28.1153C16.1215 28.5636 16.067 28.9888 16.04 29.3795C16.0134 29.7614 16 30.1589 16 30.5605C16 31.6045 16.3319 32.4497 16.9863 33.073C17.6327 33.6881 18.4878 34 19.528 34H29.1581C30.198 34 31.0531 33.6881 31.6996 33.073C32.3542 32.4501 32.6861 31.6046 32.6861 30.5603C32.6859 30.1573 32.6724 29.7599 32.6457 29.379ZM30.8915 32.2238C30.4644 32.6303 29.8974 32.8279 29.158 32.8279H19.528C18.7884 32.8279 18.2214 32.6303 17.7944 32.224C17.3756 31.8253 17.172 31.281 17.172 30.5605C17.172 30.1857 17.1844 29.8157 17.2091 29.4605C17.2332 29.112 17.2825 28.7291 17.3556 28.3223C17.4278 27.9206 17.5196 27.5435 17.6289 27.2022C17.7337 26.8749 17.8767 26.5508 18.054 26.2386C18.2232 25.941 18.4179 25.6858 18.6328 25.4801C18.8337 25.2877 19.087 25.1302 19.3855 25.0121C19.6615 24.9028 19.9717 24.843 20.3085 24.834C20.3495 24.8558 20.4226 24.8975 20.541 24.9747C20.782 25.1317 21.0597 25.3109 21.3667 25.5069C21.7127 25.7276 22.1586 25.9268 22.6913 26.0988C23.2359 26.2749 23.7913 26.3643 24.3426 26.3643C24.8939 26.3643 25.4495 26.2749 25.9937 26.099C26.5269 25.9267 26.9726 25.7276 27.3191 25.5066C27.6333 25.3058 27.9032 25.1319 28.1442 24.9747C28.2626 24.8976 28.3357 24.8558 28.3767 24.834C28.7136 24.843 29.0238 24.9028 29.3 25.0121C29.5983 25.1302 29.8516 25.2878 30.0526 25.4801C30.2674 25.6856 30.4621 25.9409 30.6313 26.2387C30.8088 26.5508 30.9519 26.875 31.0566 27.202C31.166 27.5438 31.258 27.9207 31.33 28.3222C31.403 28.7297 31.4524 29.1127 31.4765 29.4606V29.4609C31.5014 29.8148 31.5139 30.1847 31.5141 30.5605C31.5139 31.2812 31.3104 31.8253 30.8915 32.2238Z" fill="#29C1D5"/>
</svg>
