<svg width="48" height="48" viewBox="0 0 48 48" fill="none" xmlns="http://www.w3.org/2000/svg">
<circle cx="24" cy="24" r="23.5" fill="white" stroke="#29C1D5"/>
<path d="M33.9619 20.7743C33.3764 14.9677 27.0485 15.0574 23.9994 17.8603C20.9503 15.0575 14.6253 14.9678 14.0383 20.7743C13.2812 28.2493 23.9993 34.0411 23.9993 34.0411C23.9993 34.0411 34.7172 28.25 33.9619 20.7743ZM30.6807 26.4476C30.5369 26.6002 30.3439 26.6773 30.1502 26.6773C29.965 26.6773 29.7786 26.6061 29.634 26.4624L29.504 26.3329C28.5635 27.3763 26.4896 29.2995 23.9986 29.2995C21.5068 29.2995 19.4344 27.3763 18.4928 26.3329L18.3642 26.4617C18.2202 26.6053 18.0338 26.6764 17.8479 26.6764C17.655 26.6764 17.4623 26.5995 17.3174 26.4469C17.0322 26.1463 17.0391 25.6665 17.3322 25.3746L18.7231 23.9898C19.0161 23.6965 19.4861 23.7046 19.7698 24.0053C20.0546 24.3053 20.0482 24.7851 19.755 25.0776L19.5573 25.2746C20.3286 26.1322 22.0627 27.7828 23.9993 27.7828C25.9445 27.7828 27.6744 26.1337 28.4428 25.2753L28.2432 25.0776C27.9504 24.7851 27.9447 24.3053 28.2288 24.0053C28.512 23.7046 28.982 23.6974 29.2755 23.9898L30.6663 25.3746C30.9599 25.6671 30.9662 26.1462 30.6807 26.4476Z" fill="#29C1D5"/>
</svg>
