<svg width="48" height="48" viewBox="0 0 48 48" fill="none" xmlns="http://www.w3.org/2000/svg">
<circle cx="24" cy="24" r="23.5" fill="white" stroke="#29C1D5"/>
<path d="M21.1715 32.6147C21.2606 32.6147 21.3497 32.6147 21.4388 32.6147C21.6169 32.6147 21.7951 32.6147 21.9287 32.6147C22.196 32.6147 22.4633 32.6147 22.7751 32.6147C23.5323 32.6147 24.2895 32.6147 25.0468 32.6147C26.0267 32.6147 26.9621 32.6147 27.9421 32.6147C28.1648 32.6147 28.3875 32.6147 28.6102 32.6147C28.7439 32.6147 28.8775 32.6147 28.9666 32.6147C29.0557 32.6147 29.1448 32.5702 29.2339 32.5702C30.4365 32.3029 31.3719 31.8129 32.2628 30.9221C32.7528 30.4321 33.1091 29.9421 33.4209 29.3185C33.8218 28.5167 34 27.6704 34 26.7795C34 25.9332 33.8218 24.9978 33.2873 24.2851C33.2873 24.2851 33.2873 24.2405 33.2428 24.2405C33.1982 24.196 33.1982 24.196 33.1537 24.1514C33.0646 24.0624 32.9755 23.9733 32.931 23.8842C32.6637 23.6169 32.3964 23.3497 32.1292 23.0379C31.2829 22.1915 30.4365 21.3452 29.5902 20.4989C29.1002 20.0089 28.5657 19.4744 28.0757 18.9844C27.7194 18.6281 27.363 18.2717 27.0067 17.9154C26.784 17.6927 26.5612 17.4699 26.294 17.2472C26.1604 17.1136 26.0267 17.0245 25.8931 16.8909C25.8486 16.8463 25.8486 16.8463 25.804 16.8463C25.5367 16.6682 25.2695 16.5345 25.0022 16.4009C24.735 16.2673 24.4232 16.2227 24.1559 16.1336C24.1114 16.1336 24.0223 16.1336 23.9777 16.0891C23.8886 16.0891 23.755 16.0891 23.6659 16.0445C23.4432 16.0445 23.2205 16 22.9978 16C22.9532 16 22.9087 16 22.8641 16H22.8196C22.7751 16 22.7305 16 22.686 16.0445C22.6414 16.0445 22.5523 16.0445 22.5078 16.0891C21.7506 16.2227 20.9933 16.5791 20.4143 17.1136C19.8352 17.6481 19.3452 18.3163 19.078 19.0735C18.9443 19.5189 18.8107 20.0089 18.8107 20.4989C18.8107 20.8998 18.8552 21.2561 18.9889 21.6125C19.0334 21.7461 19.078 21.8797 19.167 22.0134C19.3007 22.1915 19.4343 22.4143 19.6125 22.5924C19.9688 22.9933 20.3697 23.3497 20.7261 23.7506C21.4388 24.4633 22.1514 25.1759 22.8641 25.8886C23.4878 26.5122 24.1114 27.1359 24.735 27.7149C25.1804 28.1604 25.6258 28.5612 26.0267 29.0067C26.1158 29.0958 26.2049 29.1849 26.294 29.2739C26.3385 29.3185 26.3831 29.363 26.4722 29.4076C26.6058 29.4967 26.8285 29.5857 27.0067 29.6303C27.2294 29.7194 27.4521 29.7639 27.7194 29.7639C27.853 29.7639 27.9421 29.7639 28.0757 29.7639C29.6793 29.7639 31.0156 28.6058 31.1938 27.0022C31.1938 26.9131 31.1938 26.7795 31.1938 26.6904C31.1938 26.4677 31.1492 26.245 31.0601 26.0223C30.971 25.7996 30.8374 25.6214 30.7038 25.4432C30.3474 25.0869 29.902 24.9087 29.4566 24.9087C28.9666 24.9087 28.5212 25.0869 28.2094 25.4432C27.8976 25.755 27.7194 26.1559 27.7194 26.6013C27.7194 26.9131 27.8085 27.1804 28.0312 27.4031C28.2539 27.6258 28.5212 27.7149 28.7884 27.7149C29.0557 27.7149 29.3229 27.6258 29.5457 27.4031C29.6347 27.314 29.7238 27.1804 29.7684 27.0913C29.8129 27.0468 29.8129 27.0022 29.8575 26.9577C29.8575 26.9131 29.902 26.9131 29.902 26.8686L29.9465 26.8241C29.9911 26.7795 30.0356 26.7795 30.0802 26.7795C30.1247 26.7795 30.1693 26.7795 30.1693 26.7795C30.2138 26.7795 30.2138 26.8241 30.2584 26.8241C30.3029 26.8686 30.3029 26.8686 30.3474 26.9131C30.3474 26.9577 30.3474 26.9577 30.3474 27.0022C30.3474 27.0468 30.3474 27.0468 30.3474 27.0468V27.0913C30.3029 27.314 30.2138 27.4922 30.0802 27.6704C29.9465 27.8486 29.8129 28.0267 29.6793 28.2049C29.4566 28.4276 29.1893 28.6058 28.9221 28.6949C28.6548 28.784 28.343 28.8731 28.0757 28.8731C27.4521 28.8731 26.8731 28.6058 26.4722 28.2049C26.2494 27.9822 26.0713 27.7149 25.9376 27.4031C25.804 27.0913 25.7595 26.7795 25.7595 26.4677C25.7595 26.3786 25.7595 26.3341 25.7595 26.245C25.7595 26.0223 25.804 25.7996 25.8486 25.5768C25.8931 25.3541 25.9822 25.1314 26.1158 24.9087C26.6058 23.9287 27.4967 23.216 28.5212 22.9042C28.6548 22.8597 28.7884 22.8597 28.9666 22.8597C29.1448 22.8597 29.3229 22.8597 29.4566 22.8597C29.6347 22.8597 29.8129 22.8597 29.9465 22.8597C30.0802 22.8597 30.2138 22.9042 30.392 22.9042C31.6837 23.2606 32.7082 24.2851 33.0646 25.5768C33.1091 25.7105 33.1091 25.8441 33.1091 25.9777C33.1091 26.1559 33.1091 26.2895 33.1091 26.4677C33.1091 26.8686 33.0646 27.314 32.9755 27.7149C32.7528 28.6058 32.3074 29.4076 31.6392 30.0757C30.971 30.7439 30.1693 31.1893 29.2784 31.412L28.833 31.5457H25.1359H21.3497L15.3363 25.7996L18.7661 25.755H20.8151L20.637 25.5768L20.0579 24.9978H17.2071C16.9399 24.9978 16.7171 24.9978 16.4499 24.9978C15.9154 24.9978 15.3808 24.9978 14.8463 24.9978C14.7127 24.9978 14.5791 24.9978 14.4009 24.9978C14.3118 24.9978 14.2227 24.9978 14.1782 25.0423H14.1336C14.1336 25.0869 14.0891 25.0869 14.0891 25.1314C14.0445 25.2205 14 25.265 14 25.3541C14 25.3987 14 25.3987 14 25.4432C14 25.4432 14.0445 25.4878 14.0445 25.5323C14.1782 25.7105 14.3563 25.8886 14.5345 26.0223C14.8909 26.3786 15.2472 26.735 15.6036 27.0913C16.2272 27.7149 16.8508 28.3385 17.4744 28.9621C18.1871 29.6748 18.8552 30.343 19.5679 31.0557C19.9688 31.412 20.3252 31.8129 20.7261 32.1693C20.8597 32.2584 20.9488 32.392 21.0824 32.4811C21.0824 32.4811 21.0824 32.4811 21.1269 32.5256C21.1269 32.6147 21.1715 32.6147 21.1715 32.6147ZM19.657 21.167C19.6125 20.9443 19.6125 20.7661 19.6125 20.5434C19.6125 19.7416 19.9243 18.9399 20.4143 18.3163C20.7706 17.8708 21.216 17.5145 21.706 17.2472C22.196 16.98 22.7751 16.8909 23.3541 16.8909C23.5768 16.8909 23.7996 16.9354 24.0223 16.9354C24.6904 17.069 25.1804 17.2918 25.7149 17.6927C25.7595 17.7372 25.7595 17.7372 25.804 17.7817C25.8486 17.8263 25.8931 17.8708 25.9822 17.9154C26.1604 18.049 26.294 18.2272 26.4722 18.4053C26.9621 18.8508 27.4076 19.3408 27.8976 19.8307L30.2584 22.1915L29.2339 22.2806C27.6303 22.4143 26.2049 23.3051 25.4922 24.7751C25.4031 24.9532 25.314 25.1314 25.2695 25.3541C25.1804 25.5768 25.1359 25.7996 25.0913 26.0223C25.0913 26.1114 25.0468 26.2004 25.0468 26.2895V26.3341V26.3786V26.4232C25.0468 26.4677 25.0022 26.4677 24.9577 26.5123C24.9131 26.5568 24.8686 26.5568 24.7795 26.5568C24.735 26.5568 24.735 26.5568 24.735 26.5568C24.735 26.5568 24.735 26.5568 24.6904 26.5568H24.6459L24.5122 26.4677L24.4677 26.4232C24.4232 26.3786 24.3786 26.3341 24.3341 26.2895C24.1559 26.1559 24.0223 25.9777 23.8441 25.7996C23.3096 25.265 22.8196 24.7751 22.2851 24.2405C21.7951 23.7506 21.3051 23.2606 20.8151 22.7261C20.5479 22.4588 20.3252 22.1915 20.1025 21.9243C20.0134 21.8352 19.9243 21.7016 19.8797 21.5679C19.7461 21.4343 19.7016 21.3007 19.657 21.167Z" fill="#29C1D5"/>
</svg>
