<svg width="48" height="48" viewBox="0 0 48 48" fill="none" xmlns="http://www.w3.org/2000/svg">
<circle cx="24" cy="24" r="23.5" fill="white" stroke="#29C1D5"/>
<path d="M23.9609 32.4453C24.6729 32.4453 25.25 31.8682 25.25 31.1562C25.25 30.4443 24.6729 29.8672 23.9609 29.8672C23.249 29.8672 22.6719 30.4443 22.6719 31.1562C22.6719 31.8682 23.249 32.4453 23.9609 32.4453Z" fill="#29C1D5"/>
<path d="M33.7903 20.272C31.2227 17.5172 27.7459 16 23.9998 16C20.2542 16 16.7773 17.5172 14.2097 20.272C13.9156 20.5876 13.933 21.082 14.2486 21.3762C14.5642 21.6703 15.0586 21.653 15.3528 21.3373C17.6215 18.9031 20.6924 17.5625 24.0001 17.5625C27.3075 17.5625 30.3785 18.9031 32.6472 21.3373C32.8011 21.5024 33.0097 21.5859 33.2189 21.5859C33.4096 21.5859 33.6008 21.5165 33.7514 21.3762C34.067 21.082 34.0844 20.5876 33.7903 20.272Z" fill="#29C1D5"/>
<path d="M30.9216 23.4983C29.0237 21.5861 26.5655 20.533 23.9999 20.5331C21.4337 20.5331 18.9755 21.5862 17.0781 23.4984C16.7742 23.8047 16.7761 24.2994 17.0824 24.6033C17.3887 24.9072 17.8834 24.9053 18.1873 24.599C19.789 22.9847 21.8533 22.0956 23.9999 22.0956C26.1459 22.0955 28.2102 22.9846 29.8125 24.599C29.9653 24.7529 30.1661 24.8299 30.3671 24.8299C30.566 24.8299 30.765 24.7544 30.9175 24.6032C31.2237 24.2992 31.2255 23.8046 30.9216 23.4983Z" fill="#29C1D5"/>
<path d="M27.7949 26.7341C26.7785 25.7271 25.3216 25.1016 23.9926 25.1016C23.9925 25.1016 23.9922 25.1016 23.992 25.1016H23.9358C23.9355 25.1016 23.9354 25.1016 23.9352 25.1016C22.6061 25.1016 21.1491 25.7271 20.1327 26.7341C19.8263 27.0377 19.824 27.5324 20.1276 27.8389C20.2804 27.9931 20.4815 28.0703 20.6826 28.0703C20.8813 28.0703 21.0801 27.995 21.2324 27.8441C21.956 27.1272 23.0168 26.6641 23.9352 26.6641C23.9354 26.6641 23.9355 26.6641 23.9356 26.6641H23.9922C23.9923 26.6641 23.9924 26.6641 23.9925 26.6641C24.9108 26.6641 25.9717 27.1272 26.6952 27.8441C27.0017 28.1477 27.4964 28.1455 27.8 27.8389C28.1038 27.5324 28.1015 27.0377 27.7949 26.7341Z" fill="#29C1D5"/>
</svg>
