<svg width="48" height="48" viewBox="0 0 48 48" fill="none" xmlns="http://www.w3.org/2000/svg">
<circle cx="24" cy="24" r="23.5" fill="white" stroke="#29C1D5"/>
<path fill-rule="evenodd" clip-rule="evenodd" d="M24 33C28.9706 33 33 28.9706 33 24C33 19.0294 28.9706 15 24 15C19.0294 15 15 19.0294 15 24C15 28.9706 19.0294 33 24 33ZM24 34C29.5228 34 34 29.5228 34 24C34 18.4772 29.5228 14 24 14C18.4772 14 14 18.4772 14 24C14 29.5228 18.4772 34 24 34Z" fill="#29C1D5"/>
<path d="M22.7376 25.2843V29H21V19H24.8255C25.9428 19 26.8288 19.2908 27.4835 19.8723C28.1429 20.4538 28.4725 21.223 28.4725 22.1799C28.4725 23.1598 28.1497 23.9222 27.5041 24.467C26.8631 25.0119 25.9634 25.2843 24.8049 25.2843H22.7376ZM22.7376 23.8901H24.8255C25.4437 23.8901 25.9153 23.7459 26.2404 23.4574C26.5655 23.1644 26.728 22.7431 26.728 22.1937C26.728 21.6534 26.5632 21.223 26.2335 20.9025C25.9038 20.5774 25.4505 20.4103 24.8736 20.4011H22.7376V23.8901Z" fill="#29C1D5"/>
</svg>
