<svg width="48" height="48" viewBox="0 0 48 48" fill="none" xmlns="http://www.w3.org/2000/svg">
<circle cx="24" cy="24" r="23.5" fill="white" stroke="#29C1D5"/>
<path fill-rule="evenodd" clip-rule="evenodd" d="M24 33C28.9706 33 33 28.9706 33 24C33 19.0294 28.9706 15 24 15C19.0294 15 15 19.0294 15 24C15 28.9706 19.0294 33 24 33ZM24 34C29.5228 34 34 29.5228 34 24C34 18.4772 29.5228 14 24 14C18.4772 14 14 18.4772 14 24C14 29.5228 18.4772 34 24 34Z" fill="#29C1D5"/>
<path d="M27.6229 24.1095H24.4598V19.7299C24.4598 19.3268 24.1331 19 23.7299 19C23.3268 19 23 19.3268 23 19.7299V24.8394C23 25.2426 23.3268 25.5693 23.7299 25.5693H27.6229C28.026 25.5693 28.3528 25.2426 28.3528 24.8394C28.3528 24.4363 28.026 24.1095 27.6229 24.1095Z" fill="#29C1D5"/>
</svg>
